<svg width="453" height="107" viewBox="0 0 453 107" fill="none" xmlns="http://www.w3.org/2000/svg">
<g clip-path="url(#clip0_191_6842)">
<path d="M450.25 0.0100098H349.97C349.416 0.0100098 348.884 0.230211 348.492 0.622162C348.1 1.01411 347.88 1.5457 347.88 2.10001V103.93C347.883 104.483 348.104 105.012 348.496 105.401C348.887 105.791 349.417 106.01 349.97 106.01H354.66C355.163 106.01 355.649 105.83 356.029 105.501C356.409 105.172 356.658 104.717 356.73 104.22L357.85 100.6C357.983 100.173 358.248 99.8005 358.608 99.5359C358.968 99.2714 359.403 99.1291 359.85 99.13H440.37C440.817 99.1291 441.252 99.2714 441.612 99.5359C441.972 99.8005 442.238 100.173 442.37 100.6L443.49 104.22C443.562 104.717 443.811 105.172 444.191 105.501C444.571 105.83 445.057 106.01 445.56 106.01H450.25C450.804 106.01 451.336 105.79 451.728 105.398C452.12 105.006 452.34 104.474 452.34 103.92V2.09C452.34 1.53569 452.12 1.0041 451.728 0.612152C451.336 0.220201 450.804 0 450.25 0" fill="#FFDD00"/>
<path d="M434.17 82.66C433.45 82.95 432.59 82.29 433.55 81.9C434.64 81.4511 435.581 80.703 436.264 79.7422C436.947 78.7814 437.344 77.647 437.41 76.47C437.41 75.88 438.96 75.63 438.91 76.32C438.793 77.7147 438.287 79.0485 437.449 80.1695C436.611 81.2904 435.475 82.1534 434.17 82.66ZM430.22 69.81C430 68.81 431.73 68.37 432 69.4C432.27 70.43 430.43 70.86 430.22 69.81ZM426.65 69.88C426.623 69.6026 426.698 69.3247 426.861 69.099C427.025 68.8733 427.266 68.7153 427.538 68.655C427.81 68.5946 428.095 68.6361 428.338 68.7716C428.582 68.907 428.768 69.127 428.86 69.39C429.07 70.71 426.93 71.22 426.65 69.88ZM425.92 72.39C425.77 71.63 427.07 71.32 427.28 72.08C427.49 72.84 426.08 73.16 425.92 72.39ZM423.63 71.66C423.4 70.53 425.26 70.11 425.56 71.23C425.86 72.35 423.87 72.81 423.63 71.66ZM423.07 74.56C422.85 73.56 424.57 73.13 424.85 74.16C425.13 75.19 423.28 75.61 423.07 74.56ZM421.07 73.21C420.9 72.36 422.34 72.02 422.57 72.87C422.8 73.72 421.25 74.08 421.07 73.21ZM420.63 75.21C420.51 74.63 421.55 74.38 421.7 74.95C421.85 75.52 420.7 75.79 420.63 75.21ZM441.09 71.58C440.52 71.34 439.56 71.14 439.34 70.82C437.955 69.0568 436.018 67.8101 433.84 67.28C431.542 66.7467 429.147 66.8095 426.88 67.4623C424.614 68.1151 422.552 69.3363 420.89 71.01C418.951 72.9362 417.833 75.5379 417.77 78.27C417.71 78.91 416.36 79.95 416.35 80.87C416.313 81.2377 416.372 81.6087 416.521 81.947C416.67 82.2852 416.904 82.5791 417.2 82.8C417.57 83.09 418.25 83.05 418.78 83.15C419.162 83.2896 419.505 83.5195 419.78 83.82C422.86 87.46 428.44 88.02 432.78 86.51L432.89 86.46H433.03C437.15 84.87 440.84 81.23 441.09 76.6C441.115 76.2037 441.115 75.8063 441.09 75.41C441.604 75.0267 441.96 74.4681 442.09 73.84C442.123 73.4177 442.043 72.9942 441.859 72.6129C441.674 72.2316 441.392 71.9062 441.04 71.67" fill="#002F6C"/>
<path d="M396.38 23.0099C399.05 21.5799 401.11 25.3399 401.38 27.5999L394.38 31.4499C394.38 31.1599 394.31 30.8799 394.28 30.6199C394.06 28.4899 394.19 24.2099 396.44 23.0099M401.79 32.3799C401.79 34.5899 401.07 37.78 398.2 37.33C396.29 37.03 395.3 35.2399 394.78 33.3299L403.5 28.55C403.8 28.39 404.35 28.0899 404.35 27.6699C404.35 24.3699 402.35 21.28 398.85 20.9C397.457 20.7289 396.046 21.0235 394.838 21.738C393.629 22.4525 392.691 23.5467 392.17 24.8499C389.97 30.2799 391.62 40.4099 399.32 39.0999C402.89 38.4899 404.73 35.51 404.71 32.05C404.71 30.67 401.78 31.1999 401.79 32.3399" fill="#002F6C"/>
<path d="M391.69 39.7801C391.598 39.9825 391.445 40.151 391.251 40.2614C391.058 40.3719 390.836 40.4188 390.614 40.3956C390.393 40.3724 390.185 40.2802 390.019 40.132C389.853 39.9838 389.738 39.7873 389.69 39.5701C389.574 39.0346 389.517 38.488 389.52 37.9401C389.42 35.5401 389.33 33.1501 389.24 30.7501C389 24.7901 388.763 18.8268 388.53 12.8601C388.48 11.3901 388.42 9.92008 388.36 8.45008C388.36 7.63008 387.31 7.45007 386.67 7.72007L383.28 8.92009C382.79 9.10009 381.88 9.50009 382.06 10.1801C382.24 10.8601 383.27 10.8301 383.74 10.6601L385.49 10.0401C385.877 19.9134 386.263 29.7834 386.65 39.6501C386.658 40.1557 386.817 40.6473 387.108 41.0611C387.398 41.4748 387.807 41.7915 388.28 41.9701C389.376 42.4191 390.596 42.4645 391.722 42.0982C392.848 41.732 393.808 40.9778 394.43 39.9701C395.25 38.7401 392.31 38.8301 391.69 39.7701" fill="#002F6C"/>
<path d="M421.35 33.56C420.987 33.5293 420.623 33.5911 420.29 33.7398C419.958 33.8885 419.669 34.1191 419.45 34.41L418.78 35.31C417.327 32.81 415.87 30.31 414.41 27.81L419.3 21.1C419.73 20.51 418.94 20.1 418.47 20.1C418.108 20.0643 417.742 20.1228 417.409 20.27C417.077 20.4172 416.787 20.648 416.57 20.94L413.17 25.6101C413.1 25.4901 413.04 25.3701 412.97 25.2601C412.1 23.7801 411.31 22.2601 410.36 20.7901C409.96 20.0979 409.34 19.5595 408.599 19.2605C407.858 18.9615 407.038 18.9191 406.27 19.1401C404.85 19.5401 403.61 20.8501 404.16 22.3901C404.58 23.5701 407.47 22.75 407.06 21.62C407.004 21.4735 406.984 21.316 407 21.16C407.151 21.2824 407.285 21.4236 407.4 21.5801C407.529 21.7447 407.646 21.9185 407.75 22.1C408.03 22.54 408.28 23.0101 408.54 23.4501L411.29 28.1801L405.65 35.94C405.22 36.52 406.01 36.9401 406.49 36.9901C406.852 37.0229 407.215 36.962 407.547 36.8131C407.878 36.6642 408.165 36.4324 408.38 36.1401L412.58 30.3901C414.107 33.0167 415.64 35.6467 417.18 38.28C417.72 39.21 419.44 38.37 419.88 37.78L422.17 34.6101C422.6 34.0301 421.8 33.61 421.33 33.56" fill="#002F6C"/>
<path d="M423.38 14.09C422 13.73 420.2 14.4 420.04 15.96C419.977 16.2781 419.988 16.6064 420.074 16.9192C420.159 17.232 420.317 17.5206 420.533 17.7621C420.749 18.0037 421.019 18.1916 421.32 18.311C421.622 18.4304 421.947 18.478 422.27 18.45C422.255 18.6992 422.177 18.9406 422.045 19.1521C421.912 19.3635 421.728 19.5381 421.51 19.66C421.02 19.84 420.4 20.46 420.79 21C421.18 21.54 422.22 21.32 422.73 21.13C423.452 20.8406 424.074 20.3468 424.52 19.7091C424.966 19.0715 425.216 18.3177 425.24 17.54C425.33 16.11 424.95 14.54 423.38 14.09Z" fill="#002F6C"/>
<path d="M427.46 32.7599C423.46 33.0199 421.55 37.6799 425.22 39.9899C428.22 41.8399 433.37 41.1899 435.6 38.4099C436.013 37.9203 436.321 37.3514 436.506 36.7381C436.691 36.1248 436.748 35.4802 436.674 34.844C436.6 34.2079 436.396 33.5936 436.076 33.0391C435.755 32.4846 435.324 32.0016 434.81 31.6199C433.32 30.5599 431.34 30.1899 429.63 29.6199C427.92 29.0499 425.75 28.3699 425.55 26.1999C425.35 24.0299 426.69 22.9899 428.72 22.9399C429.244 22.8954 429.772 22.9546 430.273 23.1142C430.774 23.2738 431.238 23.5305 431.64 23.8699C432.23 24.4599 432.91 26.7099 431.64 26.9599C431.13 27.0699 430.26 27.5899 430.43 28.2199C430.6 28.8499 431.61 28.7999 432.11 28.6999C433.022 28.5661 433.849 28.0932 434.428 27.3758C435.006 26.6584 435.293 25.7493 435.23 24.8299C435.139 24.0208 434.802 23.2589 434.266 22.6459C433.73 22.033 433.02 21.5983 432.23 21.3999C429.23 20.3999 424.29 21.1499 423.01 24.4699C422.75 25.1118 422.636 25.8031 422.674 26.4945C422.712 27.1858 422.902 27.8603 423.23 28.4699C424.23 30.2099 426.23 30.7799 427.96 31.3699C430.61 32.2599 434.96 33.2199 433.61 37.0199C432.99 38.7199 431.12 39.1599 429.47 39.0199C428.866 38.9882 428.278 38.8117 427.756 38.5054C427.234 38.1992 426.793 37.772 426.47 37.2599C426.03 36.4499 426.08 34.6799 427.24 34.6099C428.78 34.5099 429.55 32.6099 427.56 32.7199" fill="#002F6C"/>
<path d="M372.17 28.6601L376.17 17.5001C376.69 21.5001 377.207 25.5334 377.72 29.6001C376.23 29.3901 374.24 29.0701 372.24 28.6601M382.99 35.8201L381.66 36.8201L378.78 14.4601L378.33 11.0301C378.16 9.72006 375.7 10.7901 375.43 11.5701L369.6 28.0101C366.33 27.1401 363.74 26.0101 364.45 24.5601C365.16 23.1101 362.22 23.3401 361.71 24.3501C360.26 27.2401 364.28 29.0501 368.84 30.1601L365.89 38.5601L365.51 39.6401C365.314 40.2943 364.968 40.8936 364.499 41.3902C364.03 41.8868 363.452 42.2668 362.81 42.5001C361.6 43.0501 361.87 44.3801 363.26 44.1701L369.54 43.2701H369.7C370.089 43.2269 370.459 43.0782 370.77 42.8401C370.877 42.7697 370.967 42.6769 371.035 42.5681C371.102 42.4593 371.145 42.3371 371.16 42.2101C371.177 42.0751 371.149 41.9382 371.08 41.8208C371.011 41.7033 370.906 41.6117 370.78 41.5601C370.633 41.4765 370.469 41.4286 370.3 41.4201C370.154 41.4001 370.006 41.4001 369.86 41.4201C369.33 41.4201 368.59 41.4801 368.32 41.2301C367.87 40.8401 368.25 40.0001 368.4 39.5301L371.49 30.7501C374.07 31.2301 376.49 31.5101 377.97 31.6601C378.16 33.1101 378.34 34.5501 378.53 35.9901C378.68 37.1301 378.82 38.2701 378.97 39.4101C379.09 40.4101 380.91 39.9201 381.35 39.5801L384.84 36.9201C386.4 35.7301 384 35.0301 382.97 35.8101" fill="#002F6C"/>
<path d="M378.69 85.54C377.12 87.46 376.92 83.64 376.92 82.79V73.65L378.4 73.4C378.87 73.32 379.7 73.09 379.76 72.49C379.82 71.89 379.1 71.75 378.67 71.82L376.92 72.1199V68.6C376.92 67.44 374.47 67.8799 374.47 68.8399V72.5299L372.94 72.79C372.46 72.86 371.64 73.1 371.58 73.7C371.52 74.3 372.24 74.4399 372.67 74.3699L374.47 74.07V80.41C374.47 81.81 374.47 83.22 374.47 84.63C374.57 88.01 378.78 88.44 380.69 86.11C381.69 84.95 379.31 84.78 378.69 85.54Z" fill="#002F6C"/>
<path d="M364.75 78.73C363.967 78.5612 363.152 78.6281 362.408 78.9223C361.663 79.2165 361.023 79.7247 360.567 80.3828C360.111 81.0409 359.86 81.8193 359.847 82.6197C359.833 83.4202 360.057 84.2067 360.49 84.88C362.26 88.04 366.36 88.6 369.49 87.36C370.242 87.0591 370.924 86.6069 371.494 86.0314C372.064 85.4559 372.509 84.7694 372.803 84.0146C373.096 83.2597 373.232 82.4526 373.2 81.6433C373.169 80.834 372.971 80.0397 372.62 79.3099C371.7 77.3599 369.62 76.2499 367.78 75.3099C365.94 74.3699 364.43 73.83 363.95 71.79C363.52 69.92 364.21 67.4999 366.39 67.2199C366.938 67.1432 367.496 67.1876 368.024 67.35C368.553 67.5125 369.04 67.7889 369.45 68.16C370.08 68.82 370.45 70.16 369.36 70.65C367.72 71.33 369.19 72.48 370.45 71.95C373.59 70.64 373.01 67.02 370.04 65.95C367.27 64.95 363.67 65.68 362.04 68.26C361.607 68.9757 361.341 69.7798 361.261 70.6125C361.182 71.4452 361.291 72.2851 361.58 73.07C361.881 73.7888 362.325 74.4389 362.886 74.9804C363.446 75.522 364.111 75.9437 364.84 76.2199C366.71 77.1599 369.13 78.1099 370.11 80.0899C370.83 81.5299 370.84 84.02 369.71 85.26C368.38 86.71 365.81 86.52 364.33 85.45C363.407 84.8017 362.766 83.825 362.54 82.7199C362.35 81.7199 362.54 80.22 363.84 80.42C364.98 80.58 366.51 78.99 364.78 78.73" fill="#002F6C"/>
<path d="M382.09 82.2801C381.814 81.9583 381.618 81.5761 381.517 81.1644C381.416 80.7526 381.414 80.3229 381.51 79.9101C381.68 78.8001 382.34 78.4401 383.26 78.0101C384.18 77.5801 385.26 77.1101 386.26 76.6801V80.0101C385.32 81.2801 383.66 83.7801 382.1 82.2701M388.73 81.9001C388.73 79.3301 388.85 76.7401 388.73 74.1901C388.39 68.0401 377.73 71.1901 380.59 75.6001C381.12 76.4001 383.47 75.5401 382.84 74.6001C382.715 74.4083 382.636 74.1904 382.609 73.9632C382.582 73.736 382.608 73.5057 382.685 73.2901C382.761 73.0744 382.886 72.8793 383.05 72.7197C383.214 72.5602 383.412 72.4405 383.63 72.3701C384.169 72.3007 384.716 72.4189 385.178 72.7048C385.641 72.9906 385.991 73.4268 386.17 73.9401C386.277 74.2795 386.328 74.6342 386.32 74.9901C385.18 75.4768 384.04 75.9768 382.9 76.4901C381.31 77.2001 379.56 77.9401 379.14 79.8101C378.63 82.0601 379.83 84.1901 382.23 84.3701C382.968 84.4041 383.705 84.2839 384.394 84.017C385.082 83.7501 385.708 83.3425 386.23 82.8201V83.7001C386.23 84.7001 387.72 84.3901 388.23 84.0501L389.75 83.0501C390.91 82.2901 389.65 81.7301 388.69 81.9301" fill="#002F6C"/>
<path d="M408.93 81.71C407.93 83.5 406.01 83.84 404.86 81.98C404.079 80.4768 403.796 78.7646 404.05 77.09C404.16 75.93 404.44 73.92 405.71 73.41C407.46 72.72 408.71 74.64 408.97 76.08C408.97 77.94 408.97 79.81 408.97 81.67M411.84 82.91L411.45 83.07V74.49C411.45 71.87 411.87 69.22 412.1 66.61C412.16 65.9 411.1 65.83 410.68 66L408.37 66.81C406.94 67.31 407.29 68.81 408.76 68.27L409.53 68C409.39 69.39 409.22 70.79 409.11 72.19C408.127 71.7101 407.013 71.5661 405.94 71.78C403.13 72.29 401.88 74.62 401.62 77.29C401.37 79.74 401.71 83.08 404.14 84.4C404.9 84.7787 405.746 84.9512 406.594 84.9003C407.441 84.8494 408.261 84.5769 408.97 84.11V84.55C408.97 85.42 410.17 85.28 410.71 85.05L412.84 84.15C414.39 83.49 413.01 82.41 411.84 82.91Z" fill="#002F6C"/>
<path d="M401.63 85.1599L400.29 85.5499C400.29 82.3366 400.24 79.1266 400.14 75.9199C400.14 74.1999 400.47 72.1699 398.67 71.2299C397.942 70.9085 397.142 70.7837 396.351 70.8679C395.56 70.9522 394.804 71.2425 394.16 71.7099V71.3899C394.16 70.5199 392.96 70.6599 392.42 70.8899L390.78 71.5899C389.28 72.2299 390.54 73.2699 391.7 72.8699V82.0099C391.7 82.7699 391.7 83.5599 390.87 83.6599C390.39 83.7199 389.7 83.9599 389.54 84.4699C389.38 84.9799 389.84 85.2499 390.29 85.2499H394.69C395.111 85.2684 395.528 85.1642 395.89 84.9499C396.06 84.8552 396.2 84.7127 396.29 84.5399C396.348 84.4542 396.378 84.3532 396.378 84.2499C396.378 84.1466 396.348 84.0457 396.29 83.9599C396.209 83.8619 396.106 83.7838 395.99 83.7318C395.874 83.6798 395.747 83.6552 395.62 83.6599C395.25 83.6599 394.83 83.6599 394.56 83.3899C394.27 82.917 394.144 82.3618 394.2 81.8099V74.0099C394.88 73.1499 396.04 71.9299 397.09 72.6699C397.75 73.1399 397.68 73.7799 397.69 74.4899C397.69 75.9099 397.76 77.3399 397.79 78.7699C397.79 81.4399 397.86 84.1099 397.88 86.7699C397.88 87.4799 398.78 87.5299 399.31 87.3799L402.06 86.5799C403.53 86.1599 403.15 84.6899 401.67 85.1199" fill="#002F6C"/>
<path d="M363.69 58.65C363.17 59.86 362.44 61.27 360.99 61.33C360.513 61.3975 360.026 61.3245 359.59 61.12C359.305 60.7726 359.165 60.3282 359.2 59.88V42.63C359.2 41.71 357.93 41.86 357.36 42.1L354.59 43.27C354.13 43.46 353.59 43.95 353.94 44.46C354.29 44.97 355.25 44.75 355.67 44.57L356.61 44.18V59.01C356.61 59.47 356.61 60.38 356.22 60.71C355.83 61.04 354.98 61.01 354.59 61.13C353.71 61.38 352.89 62.65 354.32 62.74L363 63.31C363.52 63.31 364.47 63.12 364.68 62.56L366.12 58.84C366.62 57.54 364.12 57.74 363.69 58.65Z" fill="#002F6C"/>
<path d="M439.59 48.6901C441.35 47.9001 442.36 50.5401 442.53 51.9301L438.44 54.3401C438.44 54.0401 438.44 53.7601 438.37 53.4901C438.28 52.2901 438.13 49.3401 439.59 48.6901ZM445.69 55.0901C445.58 54.0901 443.14 54.6801 443.25 55.7401C443.45 57.4901 442.25 59.6101 440.25 58.3901C439.46 57.8224 438.916 56.9748 438.73 56.0201H438.81L444.56 52.6301C444.71 52.5401 445 52.2501 445 52.0401C444.9 48.9501 442.77 46.4301 439.47 47.1901C436.39 47.9101 435.75 50.9701 435.89 53.7301C436.05 56.7801 436.98 60.1501 440.55 60.3801C441.252 60.4518 441.961 60.3642 442.624 60.1239C443.287 59.8836 443.888 59.4967 444.381 58.9922C444.874 58.4876 445.247 57.8782 445.472 57.2096C445.697 56.5409 445.768 55.8301 445.68 55.1301" fill="#002F6C"/>
<path d="M417.53 63.7101C414.6 63.8301 413 60.7601 412.78 58.2301C412.58 56.0601 412.78 53.8101 412.78 51.6301C412.78 50.1401 412.85 48.6301 411.33 47.8601C410.607 47.5303 409.81 47.3981 409.019 47.4772C408.229 47.5562 407.473 47.8437 406.83 48.3101V48.0101C406.83 47.1401 405.63 47.2901 405.09 47.5201L403.45 48.2001C401.94 48.8301 403.21 49.8701 404.38 49.4801V59.1901C404.38 59.7101 404.19 60.1901 403.57 60.1901C402.95 60.1901 402.4 60.4901 402.24 61.0001C402.08 61.5101 402.54 61.7801 402.99 61.7801H407.39C407.813 61.7929 408.232 61.6891 408.6 61.4801C408.767 61.3838 408.902 61.2415 408.99 61.0701C409.048 60.9844 409.078 60.8834 409.078 60.7801C409.078 60.6768 409.048 60.5759 408.99 60.4901C408.909 60.3921 408.806 60.314 408.69 60.262C408.574 60.21 408.447 60.1854 408.32 60.1901C407.95 60.1901 407.53 60.1901 407.26 59.9201C406.966 59.4342 406.839 58.865 406.9 58.3001C406.9 58.3001 406.9 58.2201 406.9 58.1801V50.6101C407.73 49.6101 409.38 48.1901 410.21 49.8401C410.386 50.3366 410.448 50.8665 410.39 51.3901C410.39 53.2201 410.39 55.0601 410.39 56.8901C410.39 59.0901 410.61 61.3001 412.05 63.0701C412.692 63.8397 413.509 64.444 414.433 64.832C415.357 65.2201 416.361 65.3806 417.36 65.3001C418.67 65.2501 419.3 63.6501 417.63 63.7101" fill="#002F6C"/>
<path d="M392.79 59.6999L391.9 60.0699V51.6699C391.9 50.3699 392.11 48.9799 390.9 48.1099C389.19 46.8699 387.1 47.4799 385.48 48.6599C385.24 48.3084 384.913 48.0257 384.53 47.8399C383.803 47.5145 383.002 47.3874 382.21 47.4718C381.418 47.5561 380.662 47.8487 380.02 48.3199V48.0099C380.02 47.1399 378.82 47.2699 378.28 47.5099L376.36 48.3599C374.83 49.0499 376.21 50.1299 377.36 49.5999L377.54 49.5199V60.1899C377.54 60.8699 377.38 61.4099 376.59 61.5099C376.12 61.5599 375.41 61.7999 375.26 62.3099C375.11 62.8199 375.55 63.0899 376.01 63.0899H380.64C381.06 63.115 381.478 63.0141 381.84 62.7999C382.012 62.7025 382.151 62.5564 382.24 62.3799C382.297 62.2957 382.327 62.1965 382.327 62.0949C382.327 61.9934 382.297 61.8941 382.24 61.8099C382.159 61.7106 382.057 61.6311 381.941 61.5774C381.825 61.5236 381.698 61.4972 381.57 61.4999C381.163 61.5415 380.755 61.435 380.42 61.1999C380.112 60.7303 379.974 60.169 380.03 59.6099C380.035 59.5902 380.035 59.5697 380.03 59.5499V50.6599C380.72 49.7999 381.88 48.5699 382.93 49.3199C383.61 49.8099 383.5 50.4899 383.51 51.2099C383.52 51.9299 383.51 52.6899 383.51 53.4299C383.51 55.6699 383.62 57.8999 383.67 60.1299C383.67 61.1299 385.15 60.8499 385.67 60.4799L387.19 59.4199C388.34 58.6199 387.03 58.0599 386.07 58.2899C386.01 55.9499 385.95 53.5999 385.91 51.2899C385.91 51.0899 385.91 50.8999 385.91 50.7099C386.64 49.7899 387.91 48.4799 388.99 49.4999C389.49 49.9899 389.41 50.6099 389.41 51.2499V61.5599C389.41 62.4399 390.61 62.2799 391.14 62.0599L393.77 60.9799C395.33 60.3399 393.94 59.2599 392.77 59.7399" fill="#002F6C"/>
<path d="M416.87 58.7701C416.581 58.4122 416.385 57.9885 416.3 57.5366C416.214 57.0847 416.242 56.6188 416.38 56.1801C416.57 55.1801 417.11 54.8401 417.96 54.4301C418.81 54.0201 419.96 53.5001 420.96 53.0501V56.3801C420.07 57.6001 418.37 60.1001 416.86 58.7701M423.43 58.2601C423.43 55.6801 423.5 53.0901 423.43 50.5201C423.25 45.0901 413.01 46.5201 415.2 51.7801C415.6 52.7801 418.02 52.0401 417.63 51.1301C417.24 50.2201 417.04 49.0701 418.21 48.7101C418.778 48.5981 419.368 48.7007 419.864 48.998C420.361 49.2954 420.73 49.7664 420.9 50.3201C420.987 50.6462 421.027 50.9828 421.02 51.3201C418.49 52.3201 414.57 53.5501 413.96 56.2601C413.45 58.5201 414.49 60.5901 416.96 60.7301C417.699 60.7561 418.435 60.6301 419.123 60.3601C419.811 60.09 420.436 59.6816 420.96 59.1601V60.0101C420.96 61.0101 422.45 60.7001 422.96 60.3501L424.48 59.3501C425.63 58.5901 424.37 58.0301 423.41 58.2201" fill="#002F6C"/>
<path d="M432.02 57.6299C431.02 59.3199 429.44 59.7899 428.28 58.0099C427.535 56.6969 427.24 55.1763 427.44 53.68C427.53 52.52 427.71 50.3799 429.01 49.8599C430.77 49.1599 431.82 51.2299 432.01 52.5899V57.5899M434.49 58.6599C434.49 53.6999 434.49 48.7433 434.49 43.7899C434.49 42.8999 433.29 43.0999 432.75 43.2899L430.49 44.1099C430.05 44.2699 429.58 44.7699 429.88 45.2299C430.18 45.6899 431.1 45.4899 431.51 45.3399L432.04 45.1599V48.5299C431.151 48.1488 430.169 48.0443 429.22 48.2299C426.31 48.7399 425.22 51.1799 424.98 53.8899C424.8 56.1799 425.23 59.1299 427.49 60.3399C428.203 60.703 429 60.871 429.799 60.8271C430.598 60.7832 431.371 60.5289 432.04 60.0899V60.4699C432.04 61.4699 433.53 61.1599 434.04 60.8199L435.65 59.7599C436.85 58.9799 435.46 58.4099 434.49 58.6599Z" fill="#002F6C"/>
<path d="M398.48 58.3299C396.56 58.0799 395.9 55.4399 395.88 53.8199C395.88 52.6199 396.26 49.3299 397.88 49.2999C401.08 49.2299 401.46 57.8199 398.45 58.2999M398.45 47.6499C392.19 47.6499 391.45 59.4999 397.71 59.9099H398.02C404.22 59.4999 404.77 47.6299 398.45 47.6499Z" fill="#002F6C"/>
<path d="M370.02 49.32C371.7 48.57 372.69 50.93 372.93 52.32C371.99 52.6 371.03 52.84 370.07 53.04C369.75 53.11 369.29 53.23 368.76 53.34C368.71 51.95 368.76 49.82 370.02 49.28M376.12 55.68C376.02 54.68 373.57 55.27 373.69 56.33C373.88 58.08 372.69 60.21 370.69 58.98C369.38 58.17 369.01 56.34 368.86 54.81H368.96C370.808 54.4914 372.629 54.0368 374.41 53.45C374.72 53.35 375.41 53.05 375.41 52.6C375.32 49.51 373.18 46.99 369.88 47.76C367.08 48.4 366.3 50.99 366.29 53.53C366.058 53.5166 365.832 53.4491 365.63 53.3327C365.429 53.2164 365.258 53.0545 365.13 52.86C364.67 52.04 362.32 52.86 362.89 53.86C363.46 54.86 364.95 55.16 366.37 55.1C366.65 57.9 367.71 60.71 370.96 60.92C371.662 60.9917 372.371 60.9041 373.034 60.6638C373.697 60.4235 374.298 60.0366 374.791 59.532C375.284 59.0274 375.657 58.4181 375.882 57.7495C376.107 57.0808 376.178 56.37 376.09 55.67" fill="#002F6C"/>
<path d="M126.17 79.0801V87.6701C126.17 88.4206 126.468 89.1404 126.999 89.6712C127.53 90.2019 128.249 90.5001 129 90.5001H143.17V79.0801H126.17Z" fill="#737EBF"/>
<path d="M143.17 79.0801V90.5001H157.38C158.129 90.4974 158.846 90.1981 159.375 89.6677C159.903 89.1372 160.2 88.4189 160.2 87.6701V79.0801H143.17Z" fill="#FFE964"/>
<path d="M143.19 67.6599H126.18V79.0699H143.19H143.21H160.23V67.6599H143.21H143.19Z" fill="#B9BCDF"/>
<path d="M129.01 56.24C128.638 56.2387 128.269 56.311 127.925 56.4527C127.581 56.5945 127.269 56.8029 127.006 57.0659C126.743 57.329 126.534 57.6415 126.393 57.9854C126.251 58.3294 126.179 58.698 126.18 59.07V67.65H143.18V56.24H129.01Z" fill="#FFDD00"/>
<path d="M157.4 56.24H143.17V67.65H160.17V59.07C160.173 58.3289 159.884 57.6166 159.365 57.087C158.847 56.5574 158.141 56.2531 157.4 56.24Z" fill="#FFF09A"/>
<path d="M0 27.08C0 19.51 4.09001 14.77 10.17 14.77C11.3429 14.7737 12.5015 15.027 13.5688 15.5132C14.6361 15.9995 15.5876 16.7074 16.36 17.59L15.42 18.64C14.7798 17.8689 13.9774 17.2486 13.0699 16.8234C12.1624 16.3982 11.1722 16.1785 10.17 16.18C4.89001 16.18 1.63 20.38 1.63 27.04C1.63 33.7 4.85 38.04 10.03 38.04C11.205 38.0363 12.3637 37.7641 13.4175 37.2442C14.4712 36.7242 15.3922 35.9703 16.11 35.04L17.05 36.04C16.2065 37.114 15.1278 37.9799 13.8968 38.5711C12.6658 39.1623 11.3155 39.463 9.95001 39.45C4.09001 39.5 0 34.64 0 27.08Z" fill="#002F6C"/>
<path d="M21.97 13.01H23.46V20.61V24.45C25.31 22.64 27.12 21.26 29.51 21.26C33.09 21.26 34.76 23.43 34.76 27.92V39.07H33.27V28.07C33.27 24.38 32.08 22.57 29.27 22.57C27.18 22.57 25.65 23.69 23.52 25.9V39.04H21.97V13.01Z" fill="#002F6C"/>
<path d="M40.66 16.0101C40.6439 15.8251 40.6666 15.6387 40.7264 15.4629C40.7862 15.2871 40.8819 15.1256 41.0074 14.9887C41.1329 14.8519 41.2856 14.7426 41.4556 14.6678C41.6256 14.5931 41.8093 14.5544 41.995 14.5544C42.1807 14.5544 42.3644 14.5931 42.5344 14.6678C42.7044 14.7426 42.857 14.8519 42.9825 14.9887C43.1081 15.1256 43.2038 15.2871 43.2636 15.4629C43.3234 15.6387 43.346 15.8251 43.33 16.0101C43.346 16.1951 43.3234 16.3815 43.2636 16.5573C43.2038 16.7331 43.1081 16.8946 42.9825 17.0315C42.857 17.1683 42.7044 17.2776 42.5344 17.3524C42.3644 17.4271 42.1807 17.4658 41.995 17.4658C41.8093 17.4658 41.6256 17.4271 41.4556 17.3524C41.2856 17.2776 41.1329 17.1683 41.0074 17.0315C40.8819 16.8946 40.7862 16.7331 40.7264 16.5573C40.6666 16.3815 40.6439 16.1951 40.66 16.0101ZM41.23 21.6901H42.72V39.0701H41.23V21.6901Z" fill="#002F6C"/>
<path d="M49.63 36.82V13.01H51.17V37.01C51.17 37.85 51.49 38.14 52 38.14C52.1963 38.1438 52.392 38.1168 52.58 38.06L52.83 39.22C52.4858 39.4031 52.0997 39.4927 51.71 39.48C50.36 39.5 49.63 38.66 49.63 36.82Z" fill="#002F6C"/>
<path d="M56.87 30.41C56.87 24.8 60.42 21.25 64.58 21.25C66.5385 21.2973 68.4096 22.0707 69.83 23.42L69.76 20.2V13.01H71.25V39.07H69.98L69.83 36.79H69.72C69.0031 37.6001 68.1311 38.2582 67.1555 38.7254C66.1799 39.1926 65.1205 39.4594 64.04 39.51C59.7 39.5 56.87 36.27 56.87 30.41ZM69.76 35.26V24.87C68.4159 23.4597 66.5676 22.6398 64.62 22.59C61.11 22.59 58.43 26.03 58.43 30.41C58.43 35.08 60.49 38.16 64.22 38.16C66.17 38.16 67.91 37.14 69.76 35.26Z" fill="#002F6C"/>
<path d="M78.17 13.01H79.66V20.61V24.45C81.51 22.64 83.31 21.26 85.66 21.26C89.25 21.26 90.91 23.43 90.91 27.92V39.07H89.43V28.07C89.43 24.38 88.23 22.57 85.43 22.57C83.33 22.57 81.81 23.69 79.68 25.9V39.04H78.17V13.01Z" fill="#002F6C"/>
<path d="M95.94 30.41C95.94 24.62 99.56 21.25 103.72 21.25C107.88 21.25 111.5 24.62 111.5 30.41C111.5 36.2 107.88 39.5 103.72 39.5C99.56 39.5 95.94 36.17 95.94 30.41ZM109.94 30.41C109.94 25.78 107.26 22.59 103.71 22.59C100.16 22.59 97.48 25.78 97.48 30.41C97.48 35.04 100.16 38.16 103.71 38.16C107.26 38.16 109.95 35.01 109.95 30.41H109.94Z" fill="#002F6C"/>
<path d="M115.45 30.41C115.45 24.62 119.07 21.25 123.23 21.25C127.39 21.25 131.02 24.62 131.02 30.41C131.02 36.2 127.4 39.5 123.23 39.5C119.06 39.5 115.45 36.17 115.45 30.41ZM129.45 30.41C129.45 25.78 126.77 22.59 123.22 22.59C119.67 22.59 117 25.78 117 30.41C117 35.04 119.68 38.16 123.22 38.16C126.76 38.16 129.46 35.01 129.46 30.41H129.45Z" fill="#002F6C"/>
<path d="M135 30.41C135 24.8 138.55 21.25 142.71 21.25C144.81 21.25 146.22 22.05 147.96 23.42L147.89 20.2V13.01H149.37V39.07H148.11L147.96 36.79H147.85C147.133 37.6001 146.261 38.2582 145.286 38.7254C144.31 39.1926 143.251 39.4594 142.17 39.51C137.82 39.5 135 36.27 135 30.41ZM147.89 35.26V24.87C146.546 23.4597 144.698 22.6398 142.75 22.59C139.24 22.59 136.56 26.03 136.56 30.41C136.56 35.08 138.62 38.16 142.35 38.16C144.3 38.16 146.04 37.14 147.89 35.26Z" fill="#002F6C"/>
<path d="M162.33 27.08C162.33 19.51 166.43 14.77 172.51 14.77C173.683 14.7743 174.841 15.0279 175.908 15.5141C176.976 16.0003 177.927 16.7079 178.7 17.59L177.76 18.64C177.118 17.8705 176.316 17.2513 175.409 16.8262C174.501 16.4011 173.512 16.1806 172.51 16.18C167.22 16.18 163.96 20.38 163.96 27.04C163.96 33.7 167.19 38.04 172.36 38.04C173.535 38.0386 174.695 37.7674 175.749 37.2473C176.803 36.7271 177.724 35.972 178.44 35.04L179.44 36.04C178.596 37.1134 177.517 37.9789 176.286 38.5701C175.055 39.1613 173.705 39.4623 172.34 39.45C166.43 39.5 162.33 34.64 162.33 27.08Z" fill="#002F6C"/>
<path d="M183.04 34.75C183.04 30.88 186.55 29.07 194.3 28.2C194.3 25.49 193.61 22.59 190.17 22.59C188.153 22.6725 186.209 23.3704 184.6 24.59L183.91 23.51C185.759 22.1079 188.001 21.321 190.32 21.26C194.41 21.26 195.79 24.26 195.79 27.92V39.07H194.52L194.34 36.79H194.27C192.49 38.24 190.36 39.51 188.07 39.51C185.36 39.5 183.04 38.01 183.04 34.75ZM194.3 35.37V29.37C187.03 30.24 184.56 31.87 184.56 34.69C184.56 37.23 186.3 38.2 188.33 38.2C190.36 38.2 192.09 37.22 194.3 35.37Z" fill="#002F6C"/>
<path d="M202.23 21.68H203.5L203.68 24.4H203.75C205.52 22.63 207.33 21.25 209.75 21.25C213.34 21.25 215 23.42 215 27.91V39.06H213.52V28.06C213.52 24.37 212.32 22.56 209.52 22.56C207.42 22.56 205.9 23.68 203.77 25.89V39.03H202.28L202.23 21.68Z" fill="#002F6C"/>
<path d="M220.17 30.4099C220.17 24.6199 223.86 21.2499 228.06 21.2499C229.014 21.2394 229.96 21.4268 230.837 21.8003C231.715 22.1738 232.506 22.7253 233.16 23.4199L232.33 24.3599C231.781 23.7917 231.122 23.3416 230.393 23.0372C229.664 22.7328 228.88 22.5806 228.09 22.5899C224.51 22.5899 221.72 25.7799 221.72 30.4099C221.72 35.0399 224.26 38.1599 228.09 38.1599C229.845 38.1331 231.526 37.4479 232.8 36.24L233.56 37.18C232.834 37.9118 231.972 38.4934 231.021 38.8915C230.07 39.2896 229.051 39.4963 228.02 39.4999C223.52 39.4999 220.17 36.1699 220.17 30.4099Z" fill="#002F6C"/>
<path d="M235.9 30.41C235.9 24.73 239.59 21.25 243.47 21.25C247.56 21.25 250.09 24.15 250.09 29.25C250.101 29.6845 250.077 30.1192 250.02 30.55H237.46C237.46 34.97 240.1 38.15 244.05 38.15C245.723 38.167 247.362 37.6753 248.75 36.74L249.37 37.74C247.782 38.8908 245.861 39.4913 243.9 39.45C239.48 39.5 235.9 36.09 235.9 30.41ZM248.68 29.29C248.68 24.8 246.62 22.55 243.47 22.55C240.47 22.55 237.82 25.09 237.47 29.29H248.68Z" fill="#002F6C"/>
<path d="M255.02 21.68H256.28L256.46 24.9399H256.54C257.7 22.8099 259.4 21.2499 261.46 21.2499C262.048 21.2211 262.634 21.3452 263.16 21.61L262.76 22.9199C262.283 22.7603 261.782 22.6858 261.28 22.6999C259.69 22.6999 257.84 23.8899 256.5 27.1899V39.0599H255.02V21.68Z" fill="#002F6C"/>
<path d="M0.0100098 54.0801H11.3C22.95 54.0801 30.95 59.4901 30.95 73.0201C30.95 86.5501 22.95 92.3201 11.89 92.3201H0.0100098V54.0801ZM10.71 84.2001C16.24 84.2001 20.6 81.9601 20.6 73.0201C20.6 64.0801 16.24 62.1901 10.71 62.1901H10.17V84.1901L10.71 84.2001Z" fill="#002F6C"/>
<path d="M35.77 84.01C35.77 77.89 40.48 74.48 51.77 73.31C51.53 71.19 50.24 70.25 47.65 70.25C45.53 70.25 43.29 70.95 40.24 72.6L36.71 66.13C40.5795 63.6592 45.0595 62.3124 49.65 62.24C57.3 62.24 61.89 66.36 61.89 76.01V92.37H53.65L52.94 89.54H52.71C50.5564 91.7147 47.6493 92.9785 44.59 93.07C39.07 93.01 35.77 88.79 35.77 84.01ZM51.77 83.31V79.31C46.94 80.01 45.41 81.54 45.41 83.19C45.41 84.54 46.36 85.31 48.12 85.31C49.88 85.31 50.72 84.43 51.78 83.26L51.77 83.31Z" fill="#002F6C"/>
<path d="M68.6 81.0101V70.7801H64.72V63.2501L69.19 62.9001L70.37 54.0801H78.72V62.9001H85.43V70.7801H78.72V80.8401C78.72 84.0801 80.37 85.1401 82.25 85.1401C83.1259 85.1534 83.999 85.0354 84.84 84.7901L86.37 91.8501C84.1457 92.6537 81.7948 93.05 79.43 93.0201C71.78 93.0101 68.6 88.2001 68.6 81.0101Z" fill="#002F6C"/>
<path d="M88.49 84.01C88.49 77.89 93.2 74.48 104.49 73.31C104.26 71.19 102.96 70.25 100.37 70.25C98.25 70.25 96.02 70.95 92.96 72.6L89.43 66.13C93.3001 63.6606 97.7798 62.314 102.37 62.24C110.02 62.24 114.61 66.36 114.61 76.01V92.37H106.37L105.67 89.54H105.43C103.278 91.7164 100.37 92.9805 97.31 93.07C91.78 93.01 88.49 88.79 88.49 84.01ZM104.49 83.31V79.31C99.67 80.01 98.14 81.54 98.14 83.19C98.14 84.54 99.08 85.31 100.84 85.31C102.6 85.31 103.43 84.43 104.49 83.26V83.31Z" fill="#002F6C"/>
<path d="M171.79 54.0801H181.91V83.8501H196.38V92.3201H171.79V54.0801Z" fill="#002F6C"/>
<path d="M200.97 84.01C200.97 77.89 205.68 74.48 216.97 73.31C216.74 71.19 215.44 70.25 212.86 70.25C210.74 70.25 208.5 70.95 205.44 72.6L201.91 66.13C205.784 63.6603 210.267 62.3137 214.86 62.24C222.5 62.24 227.09 66.36 227.09 76.01V92.37H218.86L218.15 89.54H217.92C215.762 91.7087 212.858 92.9714 209.8 93.07C204.27 93.01 200.97 88.79 200.97 84.01ZM216.97 83.31V79.31C212.15 80.01 210.62 81.54 210.62 83.19C210.62 84.54 211.56 85.31 213.33 85.31C215.1 85.31 215.92 84.43 216.97 83.26V83.31Z" fill="#002F6C"/>
<path d="M242.62 89.1399H242.39L241.57 92.3199H233.68V51.3699H243.8V60.8999L243.57 65.1399C245.527 63.2876 248.106 62.2351 250.8 62.1899C257.8 62.1899 262.28 68.0799 262.28 77.0799C262.28 87.2599 256.28 93.0199 250.04 93.0199C247.45 93.0099 244.86 91.7299 242.62 89.1399ZM251.92 77.2599C251.92 72.4299 250.51 70.4299 247.8 70.4299C247.012 70.4372 246.238 70.6336 245.542 71.0025C244.846 71.3714 244.248 71.9021 243.8 72.5499V83.3699C244.827 84.3109 246.177 84.8195 247.57 84.7899C249.92 84.7899 251.92 82.8999 251.92 77.2599Z" fill="#002F6C"/>
<path d="M302.5 52.6001L296.5 42.8301H301.75L303.99 46.6401C304.57 47.8001 305.23 48.9501 305.81 50.0701H305.97C306.51 48.9501 307.05 47.8001 307.59 46.6401L309.45 42.8301H314.54L308.54 53.1301L314.95 63.1901H309.7L307.26 59.1901C306.6 57.9901 305.89 56.7501 305.26 55.5901H305.09C304.47 56.7501 303.89 57.9901 303.27 59.1901L301.2 63.1901H296.12L302.5 52.6001Z" fill="#002F6C"/>
</g>
<defs>
<clipPath id="clip0_191_6842">
<rect width="452.34" height="106.02" fill="white"/>
</clipPath>
</defs>
</svg>
