<svg width="492" height="442" xmlns="http://www.w3.org/2000/svg"><g fill="none" fill-rule="evenodd"><path d="M157.274 438.76c76.2 0 149.789 12.113 216.364-17.697 71.076-31.825 98.448-56.703 98.448-76.523 0-38.385-22.18-85.54-179.736-85.54-80.072 0-192.05 14.998-243.862 27.942-50.138 12.525-10.839 56.566-10.839 75.443 0 38.385-37.93 76.375 119.625 76.375z" fill="#F2F2F2" fill-rule="nonzero"/><g fill-rule="nonzero"><path fill="#E0E0E0" d="M352.47 207.605 246.823 181.45v204.683l105.647-28.427z"/><path fill="#80A6D6" opacity=".4" d="M352.47 207.605 246.823 181.45v204.683l105.647-28.427z"/><path fill="#E0E0E0" d="m141.177 207.605 105.646-26.156v204.683l-105.646-27.858z"/><path fill="#80A6D6" opacity=".4" d="m141.177 206.674 105.646-26.155v205.613L141.177 358.27z"/><path fill="#80A6D6" d="M245.92 181.413 301.684 134l105.867 27.794-55.757 45.706z"/><path fill="#E0E0E0" d="m87.903 163.277 54.198 44.223 105.625-26.078-53.64-46.492z"/><path fill="#80A6D6" opacity=".8" d="m87 162.362 55.37 45.138 105.356-26.087L192.903 134z"/><path fill="#80A6D6" d="M141.177 207.5v150.758l106.021 27.874 1.431-149.62z"/><path fill="#E0E0E0" d="m352.47 357.688-105.647 28.444v-149.62L352.47 207.5z"/><path fill="#80A6D6" d="m352.47 357.688-105.647 28.444v-149.62L352.47 207.5z"/><path fill="#000" opacity=".07" d="M310.933 307.823v49.467l42.44-11.942v-49.462z"/><path fill="#000" opacity=".1" d="m140.274 286.021 59.07 15.447 47.48-40.048V236.82L141.378 209.36z"/><path fill="#000" opacity=".1" d="M353.372 286.021 294.3 301.468l-47.477-40.048V236.82l105.445-27.458z"/><path fill="#80A6D6" d="M141.194 207.5 87 253.652 192.625 281l54.198-44.442z"/><path fill="#E0E0E0" d="m352.684 207.5 54.866 46.152L302.244 281l-55.42-44.442z"/><path fill="#80A6D6" opacity=".799" d="m352.684 207.5 54.866 46.152L302.244 281l-55.42-44.442z"/></g><path d="M236.673 56.762 228 .387h19.525l-8.673 56.375a1.102 1.102 0 0 1-2.179 0zM392.916 82.79l21.6-52.79 16.737 10.056-36.47 43.856a1.102 1.102 0 0 1-1.867-1.122zM434.98 176.3l49.523-28.3 6.998 18.228-55.74 12.106a1.102 1.102 0 0 1-.78-2.034zM104.79 78.631 60 43.316 74.28 30l32.104 47.145a1.102 1.102 0 0 1-1.593 1.486zM54.759 178.66 0 162.696 8.252 145l47.428 31.686a1.102 1.102 0 0 1-.921 1.974z" fill="#CACACA"/></g></svg>