<svg width="296" height="373" fill="none" xmlns="http://www.w3.org/2000/svg"><path d="M278.834 51.356 254.342 44l-1.508 33.28L278.609 85l.225-33.644zM107.834 0v33.552L252.346 77l1.488-32.974L107.834 0z" fill="#F5F5F5"/><path opacity=".1" d="M278.834 51.356 254.342 44l-1.508 33.28L278.609 85l.225-33.644z" fill="#000"/><path d="M278.834 115.356 254.342 108l-1.508 33.281L278.609 149l.225-33.644zM107.834 63v33.552L252.346 140l1.488-32.974-146-44.026z" fill="#3AD29F"/><path opacity=".1" d="M278.834 115.356 254.342 108l-1.508 33.281L278.609 149l.225-33.644z" fill="#000"/><path d="m259.834 126.003 3.999 5.997 8.001-10" stroke="#FDFDFD" stroke-width="7" stroke-linecap="round"/><g opacity=".4" stroke="#FDFDFD" stroke-width="7" stroke-linecap="round"><path d="m261.174 58.131 7.726 13.602M270.83 60.074l-9.656 9.717"/></g><path d="M278.834 174.356 254.342 167l-1.508 33.281L278.609 208l.225-33.644zM107.834 123v33.552L252.346 200l1.488-32.974-146-44.026z" fill="#F5F5F5"/><path opacity=".1" d="M278.834 174.356 254.342 167l-1.508 33.281L278.609 208l.225-33.644z" fill="#000"/><g opacity=".4" stroke="#FDFDFD" stroke-width="7" stroke-linecap="round"><path d="m261.174 180.289 7.726 13.602M270.83 182.231l-9.656 9.717"/></g><ellipse opacity=".3" cx="207.834" cy="108.5" rx="5" ry="9.5" fill="#000"/><ellipse opacity=".1" cx="207.834" cy="109.5" rx="42" ry="83.5" fill="#386DB0"/><ellipse opacity=".1" cx="207.834" cy="108.5" rx="23" ry="45.5" fill="#FDFDFD"/><path opacity=".05" d="M106.834 98.108c3.586 4.354 9.08 6.896 14.897 6.892a19.95 19.95 0 0 0 2.103-.113V101L107 97l-.166 1.108z" fill="#000"/><g opacity=".5" fill="#47E6B1"><path d="M43.368 50.129h.658v3.729h-.658z"/><path d="M45.563 51.662v.658h-3.728v-.658h3.728z"/></g><g opacity=".5" fill="#47E6B1"><path d="M278.368 231.129h.658v3.729h-.658z"/><path d="M280.563 232.662v.658h-3.728v-.658h3.728z"/></g><g opacity=".5" fill="#47E6B1"><path d="M261.608 153.107h.658v3.729h-.658z"/><path d="M263.804 154.64v.658h-3.729v-.658h3.729z"/></g><g opacity=".5" fill="#47E6B1"><path d="M234.537 229.392h.658v3.356h-.658z"/><path d="M236.732 230.772v.592h-3.728v-.592h3.728z"/></g><g opacity=".5" fill="#47E6B1"><path d="M213.603 277.027h.592v3.729h-.592z"/><path d="M215.574 278.564v.658h-3.356v-.658h3.356z"/></g><g opacity=".5" fill="#47E6B1"><path d="M71.444 108.031h.658v3.729h-.658z"/><path d="M73.635 109.569v.658h-3.73v-.658h3.73z"/></g><path opacity=".5" d="M81.592 48.518a.822.822 0 0 1-.454-.994.394.394 0 0 0 0-.09.413.413 0 0 0-.74-.273.4.4 0 0 0-.045.082.821.821 0 0 1-.994.454h-.091a.413.413 0 0 0-.272.74.393.393 0 0 0 .081.045.822.822 0 0 1 .454.994.394.394 0 0 0 0 .09.413.413 0 0 0 .74.273.395.395 0 0 0 .045-.082.822.822 0 0 1 .994-.454h.091a.413.413 0 0 0 .273-.74.395.395 0 0 0-.082-.045zM230.592 15.518a.821.821 0 0 1-.454-.994.46.46 0 0 0 0-.09.414.414 0 0 0-.74-.273.372.372 0 0 0-.045.082.822.822 0 0 1-.994.454h-.091a.413.413 0 0 0-.272.74.378.378 0 0 0 .081.045.821.821 0 0 1 .454.994.46.46 0 0 0 0 .09.414.414 0 0 0 .74.273.419.419 0 0 0 .045-.082.822.822 0 0 1 .994-.454h.091a.413.413 0 0 0 .272-.74.378.378 0 0 0-.081-.045zM47.592 133.518a.821.821 0 0 1-.454-.994.396.396 0 0 0 0-.091.414.414 0 0 0-.74-.272.39.39 0 0 0-.045.082.822.822 0 0 1-.994.454h-.091a.412.412 0 0 0-.272.739.374.374 0 0 0 .081.046.821.821 0 0 1 .454.994.396.396 0 0 0 0 .091.414.414 0 0 0 .74.272.385.385 0 0 0 .045-.082.822.822 0 0 1 .994-.454h.091a.412.412 0 0 0 .272-.739.376.376 0 0 0-.081-.046zM54.592 217.518a.821.821 0 0 1-.454-.994.396.396 0 0 0 0-.091.414.414 0 0 0-.74-.272.39.39 0 0 0-.045.082.822.822 0 0 1-.994.454h-.091a.412.412 0 0 0-.272.739.374.374 0 0 0 .081.046.821.821 0 0 1 .454.994.396.396 0 0 0 0 .091.414.414 0 0 0 .74.272.385.385 0 0 0 .045-.082.822.822 0 0 1 .994-.454h.091a.412.412 0 0 0 .272-.739.376.376 0 0 0-.081-.046z" fill="#4D8AF0"/><circle opacity=".5" cx="153.334" cy="60.5" r="1.5" fill="#F55F44"/><circle opacity=".5" cx="189.334" cy="232.5" r="1.5" fill="#4D8AF0"/><circle opacity=".5" cx="271.334" cy="96.5" r="1.5" fill="#4D8AF0"/><circle opacity=".5" cx="294.334" cy="155.5" r="1.5" fill="#47E6B1"/><circle opacity=".5" cx="206.334" cy="5.5" r="1.5" fill="#F55F44"/><path fill-rule="evenodd" clip-rule="evenodd" d="m80.835 189 27.191 94.755 19.839 69.839h14.47L121.253 189H80.835z" fill="#80A6D6" fill-opacity=".876"/><path fill-rule="evenodd" clip-rule="evenodd" d="M73.563 189c-.629 48.838-2.774 75.475-3.434 79.912-.66 4.437-10.645 32.665-29.955 84.682h14.99c24.582-49.902 38.305-78.129 41.168-84.682 2.862-6.552 11.697-33.19 25.003-79.912H73.563z" fill="#80A6D6"/><path fill-rule="evenodd" clip-rule="evenodd" d="m38.835 364.766.666-10.67c.04-.64.663-1.077 1.293-.959 6.472 1.215 15.16-1.777 15.16-1.777 8.677 6.104 21.04 9.031 26.049 10.022 1.182.234 1.942 1.431 1.611 2.59L82.75 367H40.324l-1.49-2.234zM125.835 364.766l.666-10.67c.04-.64.663-1.077 1.292-.959 6.472 1.215 15.161-1.777 15.161-1.777 8.677 6.104 21.04 9.031 26.049 10.022 1.182.234 1.942 1.431 1.611 2.59l-.865 3.028h-42.426l-1.488-2.234z" fill="#191847"/><path fill-rule="evenodd" clip-rule="evenodd" d="M41.184 169.569S24.837 212.649 22.01 216.7c-1.382 1.981-10.269 7.354-16.322 10.291-2.43 1.179-1.785 3.202-1.021 3.82 6.217 5.032 11.398.801 17.675-1.066 6.878-2.045 5.14 6.154 10.58 4.622-1.076-3.652-3.83-10.55-1.488-14.51 1.56-2.64 23.17-48.386 23.17-48.386l-13.421-1.902zM163.512 122.048l29.031-6.696c5.61-3.768 10.835-6.452 15.674-8.053 1.384-.17 3.632.12.562 3.129-3.069 3.009-6.164 6.31-5.461 7.696.703 1.387 3.718.564 4.404 2.733.458 1.447-4.486 2.152-14.832 2.117l-23.061 11.535-6.317-12.461z" fill="#B28B67"/><path fill-rule="evenodd" clip-rule="evenodd" d="m81.338 128.818 2.256-8.366c29.439 5.61 61.142 6.133 95.489-4.965l6.128 12.144c-25.485 12.776-47.566 26.183-70.786 22.457-7.793-1.251-25.984-16.398-33.087-21.27z" fill="#C5CFD6"/><path fill-rule="evenodd" clip-rule="evenodd" d="M68.714 193.571s35.733 3.697 56.251 0c1.695-.305 1.962-3.074 1.176-4.953-12.239-29.26-20.631-54.791-20.631-75.115-3.369 1.657-11.79.497-11.79.497-15.09 20.944-22.026 44.975-25.006 79.571z" fill="#323337"/><path fill-rule="evenodd" clip-rule="evenodd" d="M104.903 109.917c4.779 2.876 9.475 4.265 11.679 3.698 5.528-1.422 6.036-21.61 1.759-29.569-4.277-7.959-26.263-11.428-27.372 4.341-.384 5.473 1.918 10.357 5.318 14.343l-6.098 28.375h17.714l-3-21.188z" fill="#B28B67"/><path fill-rule="evenodd" clip-rule="evenodd" d="M115.996 81.326c.394.133 0-1.562-.944-2.182-2.894-1.9-11.508-4.714-17.398-3.493-3.946.818-8.867 2.87-12.02 5.487-2.84 2.36-5.426 6.518-6.432 10.172-1.056 3.836-1.455 9.174 0 12.521 1.734 3.987 7.873 8.283 8.035 8.853.186.651-.54 3.195-1.071 5.875-.531 2.68-.29 9.504 0 10.617.462 1.779 2.942 2.654 4.023 2.782 5.979.712 10.313 8.121 12.116 10.017 0 0 12.043 12.07 16.809 10.499.837-.276-.417-10.275-1.253-14.561-.837-4.285-9.04-11.933-9.565-14.453-.309-1.485-.361-4.07-.393-4.187-.774-5.325-.641-5.758-1.769-7.928-1.129-2.169-2.004-2.297-1.732-2.929 1.325-3.088 5.587-12.537 6.554-15.626 1.152-3.683.607-2.473 1.795-6.143.527-1.626 1.196-6.008 3.245-5.32z" fill="#80A6D6"/><path fill-rule="evenodd" clip-rule="evenodd" d="M99.46 93.631c-.278-5.604 0-7.793 1.296-11.894h-.799c-1.262 1.628-2.318 6.606-1.131 11.894h.635zm-15.644-.264c-.14-.34-.282-.689-.43-1.046l-.507.244c1.601 5.847 3.549 10.361 10.237 14.145l.52-.363c-6.325-4.441-7.681-7.754-9.82-12.98zm9.483-6.994.194 1.484c.961 7.408 1.571 12.106 6.931 20.625l-.608.186c-5.875-7.901-6.806-14.35-7.084-22.25l.567-.045zm-5.786 24.013-.52.63c2.603.544 4.373 2.455 6.402 4.646 2.146 2.318 4.583 4.95 8.603 6.606l.747-.451c-4.388-2.278-6.43-4.542-8.212-6.519-1.845-2.046-3.413-3.785-7.02-4.912z" fill="#000" fill-opacity=".2"/><path fill-rule="evenodd" clip-rule="evenodd" d="M88.993 112.511c.649-.434.997-.65.997-.65l-.115 1.988L101.835 132c.34 1.952.549 8.523.849 17.93.99 31.088 2.966 93.144 13.911 121.719h-77.14c1.627-33.184 14.166-72.868 27.156-106.564-9.585 9.305-20.78 24.902-29.826 50.868l-14.45-3.62c14.725-61.911 57.868-93.84 66.239-99.539l.244-.549.175.266z" fill="#DDE3E9"/><path fill-rule="evenodd" clip-rule="evenodd" d="M221.169 242.416c10.02 17.014 21.689 33.488 28.697 52.09a275.112 275.112 0 0 0-.917-6.57c-1.778-11.595-3.988-23.105-6.31-34.601a1043.841 1043.841 0 0 0-3.717-17.516c-.69-3.132-1.371-6.266-2.075-9.395-.171-.759-.318-2.082-.531-3.424 6.81 22.622 13.378 45.26 18.182 68.425a153.08 153.08 0 0 1 1.607 9.105c.15-.691.298-1.382.46-2.072 1.944-8.262 4.86-16.458 8.331-24.184 1.66-3.694 3.567-7.308 5.811-10.675 1.4-2.099 4.701-4.594 5.978-6.743-6.983 12.964-9.505 29.185-13.537 43.279-.984 3.44-1.975 6.873-2.945 10.313 6.081-12.343 15.515-22.484 28.632-26.879-15.878 10.619-25.401 29.215-31.819 48.234-.021.225-.046.451-.068.677 1.889-3.628 4.268-6.909 7.492-9.207 6.9-4.92 14.554-3.487 21.248.733-5.254-3.38-14.748-.302-19.168 3.133-3.164 2.459-5.868 5.759-8.217 8.977-.562.772-1.33 1.672-2.141 2.633A119.882 119.882 0 0 1 250.549 361c.433-2.113.12-5.492.24-7.067.013-.17.023-.341.036-.511a476.592 476.592 0 0 0-1.155 4.773c.738-2.992 1.138-6.114 1.451-9.269.081-1.356.159-2.712.242-4.068a133.251 133.251 0 0 0-.308-7.744c-.628-2.515-1.331-4.887-1.911-6.859-2.092-7.118-5.159-13.937-8.934-20.298-3.445-5.805-7.568-11.064-12.328-15.819-2.566-2.563-5.251-5.004-7.899-7.479-.957-.895-2.668-3.094-4.148-4.241 10.778 6.015 21.872 12.522 29.735 22.213a244.046 244.046 0 0 0-2.982-10.577c-5.373-17.563-12.158-35.765-21.419-51.638z" fill="#D4E1F1"/><ellipse cx="254.835" cy="356" rx="22" ry="17" fill="#D4E1F1"/></svg>