<svg width="140" height="140" viewBox="0 0 140 140" fill="none" xmlns="http://www.w3.org/2000/svg">
<g filter="url(#filter0_d_154_5848)">
<circle cx="70" cy="64" r="53" fill="#FDFDFD"/>
</g>
<path fill-rule="evenodd" clip-rule="evenodd" d="M107 43.625C107 46.5047 105.088 48.9294 102.438 49.8437V77.1563C105.088 78.0706 107 80.4953 107 83.375C107 87.032 103.934 90 100.156 90C97.1815 90 94.6767 88.1494 93.7323 85.5833H47.2677C46.3233 88.1494 43.8185 90 40.8438 90C37.066 90 34 87.032 34 83.375C34 80.4953 35.9117 78.0706 38.5625 77.1563V49.8437C35.9117 48.9294 34 46.5047 34 43.625C34 39.968 37.066 37 40.8438 37C43.8185 37 46.3233 38.8506 47.2677 41.4167H93.7323C94.6767 38.8506 97.1815 37 100.156 37C103.934 37 107 39.968 107 43.625ZM97.875 49.8437C95.9405 49.1767 94.4212 47.706 93.7323 45.8333H84.1875V54.6667H97.875V49.8437ZM79.625 45.8333V54.6667H61.375V45.8333H79.625ZM79.625 67.9167V59.0833H61.375V67.9167H79.625ZM43.125 49.8437C45.0595 49.1767 46.5788 47.706 47.2677 45.8333H56.8125V54.6667H43.125V49.8437ZM56.8125 59.0833H43.125V67.9167H56.8125V59.0833ZM47.2677 81.1667C46.5834 79.294 45.0595 77.8232 43.125 77.1563V72.3333H56.8125V81.1667H47.2677ZM61.375 72.3333V81.1667H79.625V72.3333H61.375ZM97.875 77.1563C95.9405 77.8232 94.4166 79.294 93.7323 81.1667H84.1875V72.3333H97.875V77.1563ZM84.1875 59.0833V67.9167H97.875V59.0833H84.1875Z" fill="#386DB0"/>
<defs>
<filter id="filter0_d_154_5848" x="0" y="0" width="140" height="140" filterUnits="userSpaceOnUse" color-interpolation-filters="sRGB">
<feFlood flood-opacity="0" result="BackgroundImageFix"/>
<feColorMatrix in="SourceAlpha" type="matrix" values="0 0 0 0 0 0 0 0 0 0 0 0 0 0 0 0 0 0 127 0" result="hardAlpha"/>
<feOffset dy="6"/>
<feGaussianBlur stdDeviation="8.5"/>
<feColorMatrix type="matrix" values="0 0 0 0 0 0 0 0 0 0 0 0 0 0 0 0 0 0 0.376284 0"/>
<feBlend mode="normal" in2="BackgroundImageFix" result="effect1_dropShadow_154_5848"/>
<feBlend mode="normal" in="SourceGraphic" in2="effect1_dropShadow_154_5848" result="shape"/>
</filter>
</defs>
</svg>
