<svg width="325" height="302" xmlns="http://www.w3.org/2000/svg" xmlns:xlink="http://www.w3.org/1999/xlink"><defs><linearGradient x1="50.075%" y1="100.109%" x2="50.075%" y2="-.001%" id="d"><stop stop-color="gray" stop-opacity=".25" offset="0%"/><stop stop-color="gray" stop-opacity=".12" offset="54%"/><stop stop-color="gray" stop-opacity=".1" offset="100%"/></linearGradient><linearGradient x1="50.007%" y1="99.986%" x2="50.007%" y2="-.001%" id="e"><stop stop-color="gray" stop-opacity=".25" offset="0%"/><stop stop-color="gray" stop-opacity=".12" offset="54%"/><stop stop-color="gray" stop-opacity=".1" offset="100%"/></linearGradient><path id="a" d="M.088.123h63.595V218H.088z"/><path d="m59.736 6.58-4.991 5.021a2.903 2.903 0 0 0-.867 2.047V194.54c0 13.153-10.5 20.404-24.36 20.404-13.861 0-20.161-8.065-20.161-21.218V13.566c0-.707-.27-1.391-.764-1.938l-4.628-5.12c-.786-.87-.646-2.154.313-2.867a2.39 2.39 0 0 1 1.424-.462h52.366c1.24 0 2.246.912 2.246 2.037 0 .504-.206.99-.578 1.365z" id="c"/></defs><g fill="none" fill-rule="evenodd" opacity=".7"><path d="M97.95 302c50.871 0 136.297-.293 180.742-13.833 47.45-14.457 46.306-47.867 46.306-56.87 0-17.437-53.153 13.064-158.336 13.064-53.456 0-91.631-24.324-126.22-18.444C6.968 231.607.11 254.925.11 263.5c0 17.436-7.343 38.5 97.84 38.5z" fill="#4A4A4A" fill-rule="nonzero" opacity=".1"/><g transform="translate(131 47)" stroke-dasharray="18,8"><mask id="b" fill="#fff"><use xlink:href="#a"/></mask><path d="m59.736 6.58-4.991 5.021a2.903 2.903 0 0 0-.867 2.047V194.54c0 13.153-10.5 20.404-24.36 20.404-13.861 0-20.161-8.065-20.161-21.218V13.566c0-.707-.27-1.391-.764-1.938l-4.628-5.12c-.786-.87-.646-2.154.313-2.867a2.39 2.39 0 0 1 1.424-.462h52.366c1.24 0 2.246.912 2.246 2.037 0 .504-.206.99-.578 1.365z" stroke="#80A6D6" stroke-width="6" fill="#FDFDFD" fill-rule="nonzero" mask="url(#b)"/></g><path d="M165.934 25.574 162 0h8.857l-3.934 25.574a.5.5 0 0 1-.989 0zM197.068 31.387 211.632 10l6.478 6.04-20.319 16.02a.5.5 0 0 1-.723-.673zM210.78 56.544 230.674 40l4.562 7.592-23.947 9.8a.5.5 0 0 1-.51-.848zM139.042 31.387 124.478 10 118 16.04l20.319 16.02a.5.5 0 0 0 .723-.673zM121.456 56.544 101.562 40 97 47.592l23.947 9.8a.5.5 0 0 0 .51-.848z" fill="#CACACA" fill-rule="nonzero"/><g transform="translate(204 84)" fill-rule="nonzero"><path d="M70.348 41.934c-.903-2.755-2.207-6.246-3.237-7.069-.041-.035-.152-.079-.331-.132V31.33l-2.434.404a25.106 25.106 0 0 1-.872-3.768c.479.5 1.2.65 1.827.381-.383-.967-.586-1.763-.589-2.572a8.74 8.74 0 0 1 .336-2.182c.436-1.569 1.174-3.033 1.584-4.61.261-1.015.385-2.063.366-3.114a11.761 11.761 0 0 0-1.134-5.137 2.987 2.987 0 0 0-.872-1.173 10.935 10.935 0 0 0-1.056-.536A5.826 5.826 0 0 1 62.4 7.426c-1.729-2.194-4.044-3.805-6.652-4.627a3.747 3.747 0 0 0-2.128-.178c-1.636.455-2.23 2.569-3.555 3.678-1.17.977-2.775 1.077-4.245 1.405-1.47.327-2.949.977-3.952 2.159a4.58 4.58 0 0 0-1.06 2.978 3.047 3.047 0 0 0 1.17 2.663 3.547 3.547 0 0 0 3.1.455 11.395 11.395 0 0 0 1.097 8.728c1.516 2.624 4.013 4.469 6.89 5.091l.284.532a23.36 23.36 0 0 1 1.98 5.387c-2.242 1.323-4.689 2.564-6.167 2.682-.06.603-.168 1.199-.323 1.782a9.987 9.987 0 0 1-1.941 3.978c-2.011 2.355-11.054 20.156-11.054 20.156s-.283.71-.75 1.919c-5.614.718-14.779 1.754-17.335 1.222L7.726 57.49s-3.245 2.582-2.962 5.719L2.98 61.418s-9.544 7.591 5.527 12.564l22.931 2.773c-2.18 6.87-4.222 14.865-3.59 19.216.626 0 1.064-.035 1.497-.105l-.04.773-2.22 41.227s-.502 7.591 6.281 10.991c0 0 8.288 25.39 5.026 28.271 0 0 .388.214 1.042.51l-6.818 6.295s-5.025 1.31-7.786 1.046c-1.005-.144-1.953.521-2.203 1.546-.026.486-.026.559-.026.609.03.234.066.41.109.527.109.277.144.332.179.391.047.074.116.166.205.277.035.043.161.167.38.373.108.09.187.145.265.2.136.091.223.146.314.196l.323.145.371.136.432.15.458.11.467.09.558.073.624.055c1.034.081 2.425.113 4.035.104.045.56.064.621.087.682.13.332.166.387.2.446.048.073.116.166.206.277.034.042.161.167.38.373.108.09.187.145.265.2.14.09.227.145.319.195l.322.146.371.136.432.15.458.11.467.09.558.073.624.054c6.543.523 27.376-1.045 27.376-1.045.205-1.15 1.209-7.042-2.35-11.397.104-.113.209-.236.304-.363 0 0-2.76-4.974-1.256-6.546 1.505-1.573-7.533-28.794-7.533-28.794s-4.772-7.85-2.011-16.752c2.761-8.9-.253-18.583-.253-18.583s6.587-2.041 6.722-10.492v-.786c.144.021.29.03.436.027.093.007.186.007.28 0 0 0-1.257-4.71.252-8.114 1.51-3.405 4.772-.264 7.787-14.134 2.18-10.037 4.1-21.583 4.994-27.202.387-2.26.246-4.586-.41-6.778zM13.026 70.382l-2.29-2.273c.76.328 1.6.65 2.543.96l8.637 1.045c-3.856.364-7.437.568-8.89.268z" fill="url(#d)"/><path d="M35.227 68.751s-17.87 2.526-21.596 1.785l-9.946-9.62s-9.433 7.322 5.462 12.115l27.817 3.306-1.737-7.586z" fill="#FDC2CC"/><path d="M35.227 68.751s-17.87 2.526-21.596 1.785l-9.946-9.62s-9.433 7.322 5.462 12.115l27.817 3.306-1.737-7.586z" fill="#000" opacity=".05"/><path d="m41.355 173.494-8.61 7.91s-4.918 1.275-7.627 1.018c-2.71-.257-3.936 4.338 2.461 4.848 6.397.509 26.813-1.02 26.813-1.02s1.97-8.161-3.936-12.756h-9.101z" fill="#334153"/><path d="m41.355 173.494-8.61 7.91s-4.918 1.275-7.627 1.018c-2.71-.257-3.936 4.338 2.461 4.848 6.397.509 26.813-1.02 26.813-1.02s1.97-8.161-3.936-12.756h-9.101z" fill="#334153" opacity=".05"/><path d="M54.7 182.747a14.398 14.398 0 0 1-.308 2.748s-20.44 1.52-26.815 1.013c-3.075-.242-4.384-1.425-4.619-2.56-.278 1.3.835 3.022 4.619 3.322 6.397.507 26.815-1.013 26.815-1.013.24-1.153.343-2.331.309-3.51z" fill="#FFF" opacity=".3"/><path d="M51.01 27.347s5.52 8.082 3.512 13.557c-2.008 5.474 10.535-5.737 10.535-5.737s-4.012-7.3-2.008-15.119l-12.038 7.3z" fill="#FDC2CC"/><path d="m49.488 176.578-8.61 7.915s-4.918 1.276-7.627 1.019c-2.709-.257-3.94 4.327 2.461 4.84 6.401.514 26.812-1.018 26.812-1.018s1.97-8.158-3.935-12.751l-9.101-.005z" fill="#334153"/><path d="M52.49 174.94c-1.286 1.662-3.098 2.283-4.992 2.397-4.308.214-9.051-2.396-9.051-2.396 3.201-2.839-4.926-27.885-4.926-27.885-6.651-3.354-6.16-10.843-6.16-10.843l2.179-40.65.544-10.209 6.9-4.39 5.44 4.372 5.157 4.148c.335 1.32.55 2.669.644 4.03.597 9.488-6.56 11.72-6.56 11.72s2.958 9.552.249 18.328c-2.71 8.776 1.973 16.52 1.973 16.52s8.872 26.85 7.404 28.401c-1.467 1.552 1.198 6.458 1.198 6.458z" fill="#8D8B8B"/><path d="M52.49 174.94c-1.286 1.662-3.098 2.283-4.992 2.397-4.308.214-9.051-2.396-9.051-2.396 3.201-2.839-4.926-27.885-4.926-27.885-6.651-3.354-6.16-10.843-6.16-10.843l2.179-40.65.544-10.209 6.9-4.39 5.44 4.372 5.157 4.148c.335 1.32.55 2.669.644 4.03.597 9.488-6.56 11.72-6.56 11.72s2.958 9.552.249 18.328c-2.71 8.776 1.973 16.52 1.973 16.52s8.872 26.85 7.404 28.401c-1.467 1.552 1.198 6.458 1.198 6.458z" fill="#999" opacity=".05"/><path d="M60.621 177.272c-4.154 5.379-13.923 0-13.923 0 .199-.19.348-.43.432-.697 1.792-5.107-6.047-29.523-6.047-29.523-6.594-3.328-7.342-11.269-7.342-11.269l-1.727-41.041-.225-5.315 10.279-4.116 3.157-1.263 10.508 8.44c.454 1.744.681 3.546.673 5.355-.13 8.28-6.521 10.277-6.521 10.277s2.932 9.476.246 18.183c-2.686 8.706 1.957 16.389 1.957 16.389s8.797 26.635 7.341 28.174c-1.455 1.54 1.192 6.406 1.192 6.406z" fill="#999"/><path d="M56.925 97.928c-2.131-.319-6.444-3-8.662-4.458l-1.386-.91s-2.217-6.438-8.134-1.543a21.907 21.907 0 0 1-6.427 3.792c-.891.33-1.81.57-2.745.72l.545-10.185 6.902-4.38 5.441 4.361 3.185-1.27 10.6 8.478c.46 1.757.69 3.572.68 5.395z" fill="#000" opacity=".1"/><path d="M70.06 48.009c-.866 5.493-2.745 16.785-4.87 26.605-2.94 13.576-6.12 10.494-7.592 13.825-1.472 3.331-.247 7.938-.247 7.938C54.9 96.635 46.82 91 46.82 91s-2.204-6.4-8.082-1.534c-5.878 4.864-10.531 4.606-10.531 4.606-1.225-8.449 7.834-30.976 7.834-30.976s8.826-17.41 10.766-19.714a9.78 9.78 0 0 0 1.891-3.891c.15-.571.255-1.154.312-1.743 3.181-.258 11.02-5.883 11.02-5.883l6.12-1.023v3.327a.933.933 0 0 1 .2.126c1.008.806 2.277 4.223 3.155 6.915.717 2.184.908 4.519.555 6.798z" fill="#CACACA"/><path d="M65.281 37.804s-6.346-5.432-15.864 12.157C39.9 67.549 37.704 64.7 37.704 64.7s1.954 7.773.975 9.313c0 0 6.588-.516 9.03 0 2.442.517 17.572-19.66 17.572-19.66s7.813-11.38 0-16.55z" fill="#000" opacity=".1"/><path d="M64.545 37.027s-6.348-5.412-15.868 12.164c-9.52 17.575-11.713 14.753-11.713 14.753s7.561 8.797 10.004 9.3c2.442.503 17.577-19.67 17.577-19.67s7.806-11.369 0-16.547z" fill="#000" opacity=".1"/><path d="M38.007 72.858c.107-1.9-.623-5.243-1.043-6.976 1.588-.204 2.59-.34 2.59-.34l1.846 7.711-3.393-.395zM63.579 20.82 51.75 28.2c.498.78.958 1.588 1.377 2.42a9.73 9.73 0 0 0 2.074.223c3.158 0 4.63-3.553 6.535-5.943-.122-1.905 1.315-1.952 1.843-4.08z" fill="#000" opacity=".1"/><ellipse fill="#FDC2CC" cx="54.707" cy="19.277" rx="10.35" ry="10.795"/><path d="M43.542 7.426a7.032 7.032 0 0 1 4.325-1.056c1.483.06 3.043.374 4.407-.242 1.555-.717 2.653-2.576 4.332-2.605.716.04 1.404.286 1.984.712 2.282 1.453 4.082 3.585 5.171 6.128a5.764 5.764 0 0 0 1.053 1.918c.304.245.595.507.871.784.28.392.46.853.522 1.34.49 2.671.02 5.457-1.318 7.837-.795 1.404-1.873 2.614-2.695 4.02-.822 1.407-1.38 3.064-.976 4.61-.843.196-1.642-.55-1.9-1.387-.256-.837-.172-1.763-.196-2.656a9.675 9.675 0 0 0-1.468-4.913c-.567-.901-1.805-1.736-2.56-.97-.297.294-.403.74-.674 1.057-.533.616-1.562.491-2.11-.092a3.312 3.312 0 0 1-.729-2.263c-.053-3.751-1.147-6.397-5.12-5.863-1.48.201-3.148.157-4.172-1.141-1.348-1.713-.336-4.117 1.253-5.218z" fill="#000" opacity=".1"/><path d="M43.542 7.426a7.032 7.032 0 0 1 4.325-1.056c1.483.06 3.043.374 4.407-.242 1.555-.717 2.653-2.576 4.332-2.605.716.04 1.404.286 1.984.712 2.282 1.453 4.082 3.585 5.171 6.128a5.764 5.764 0 0 0 1.053 1.918c.304.245.595.507.871.784.28.392.46.853.522 1.34.49 2.671.02 5.457-1.318 7.837-.795 1.404-1.873 2.614-2.695 4.02-.822 1.407-1.38 3.064-.976 4.61-.843.196-1.642-.55-1.9-1.387-.256-.837-.172-1.763-.196-2.656a9.675 9.675 0 0 0-1.468-4.913c-.567-.901-1.805-1.736-2.56-.97-.297.294-.403.74-.674 1.057-.533.616-1.562.491-2.11-.092a3.312 3.312 0 0 1-.729-2.263c-.053-3.751-1.147-6.397-5.12-5.863-1.48.201-3.148.157-4.172-1.141-1.35-1.709-.339-4.108 1.253-5.218z" fill="#4A4A4A"/><path d="M66.536 34.225h-5.003s-9.843 5.02-10.087 4.772c-.165-.169-1.687.12-2.653.328.15-.56.256-1.131.313-1.709 3.197-.253 11.075-5.77 11.075-5.77l6.15-1.003v3.263a.94.94 0 0 1 .205.12z" fill="#000" opacity=".05"/><path d="M62.833 185.831a14.398 14.398 0 0 1-.309 2.748s-20.44 1.52-26.815 1.013c-3.075-.242-4.384-1.425-4.618-2.56-.279 1.3.835 3.022 4.618 3.322 6.397.507 26.815-1.013 26.815-1.013.24-1.153.343-2.331.309-3.51z" fill="#FFF" opacity=".3"/><g opacity=".05" fill="#000"><path d="M36.34 89.637c-3.338 2.73-6.291 3.871-8.23 4.326 0 .191.035.382.062.564 0 0 4.703.26 10.645-4.63a7.877 7.877 0 0 1 3.18-1.729c-1.281-.641-3.145-.6-5.657 1.47zM69.93 41.388c-.875-2.73-2.188-6.141-3.19-6.95a.943.943 0 0 0-.2-.128s-2.048.073-1.983.127c1.02.81 2.008 3.985 2.897 6.692.715 2.193.9 4.537.538 6.823-.875 5.522-2.774 16.871-4.922 26.742-2.971 13.647-6.187 10.55-7.675 13.897-1.216 2.73-.608 6.341-.346 7.556 1.06.455 1.978.741 2.573.678 0 0-1.238-4.631.25-7.98 1.487-3.347 4.703-.258 7.674-13.896 2.148-9.866 4.038-21.22 4.922-26.742a14.633 14.633 0 0 0-.538-6.82z"/></g><path d="m41.4 72.482-3.21-.38-24.587-2.914C-1.32 64.382 8.12 57.06 8.12 57.06l9.935 9.622c2.867.586 14.107-.779 19.143-1.437 1.51-.2 2.463-.335 2.463-.335l1.739 7.572z" fill="#FDC2CC"/><path d="M65.281 37.033S58.935 31.6 49.417 49.19C39.9 66.778 37.704 63.93 37.704 63.93s1.954 7.772.975 9.313c0 0 6.588-.516 9.03 0 2.442.517 17.572-19.66 17.572-19.66s7.813-11.393 0-16.55z" fill="#CACACA"/></g><g transform="translate(36 84)" fill-rule="nonzero"><path d="M88.102 182.656s-5.606.4-9.1-5.771a20.755 20.755 0 0 0-2.389-3.494 12.072 12.072 0 0 1-1.677-6.273c.194-4.582-4.45-29.69-4.45-29.69s.581-9.568-4.068-15.539c-3.057-3.933-7.456-15.21-10.108-22.454.178.163.393.279.625.337l-.108-.626.108.027-1.354-7.774a35.481 35.481 0 0 1-5.003-7.809l.31-.066 4.11-.888s6.68-9.767 7.09-14.58l.544.027h.768c8.5-.19 18.505 1 18.505 1 0-.032-.047-.156-.1-.351a24.52 24.52 0 0 1-.599-2.944l.384-.026 3.804-.262s13.162-15.143 8.323-17.935c-4.839-2.793-9.871 12.554-9.871 12.554l-1.626.306-.431.085a1.93 1.93 0 0 1 .138-.191c.051-.062-21.49-.994-24.78-6.375 0 0-9.488-7.773-9.872-12.954-.207-2.748-1.88-4.209-3.411-4.972a7.26 7.26 0 0 0-3.761-.724l-4.442.315.315.577h-.125a15.684 15.684 0 0 1-.699-2.024h.09a8.941 8.941 0 0 1-.086-.444c2.75-.668 5.12-2.454 6.571-4.95a11.036 11.036 0 0 0 1.127-8.302c.43.058.867.046 1.294-.035 1.63-.346 2.79-2.051 2.834-3.765v-.399a5.83 5.83 0 0 0-2.157-4.44c-.888-.759-1.945-1.3-2.751-2.144-.958-1.008-1.48-2.357-2.226-3.552a10.266 10.266 0 0 0-5.244-4.204c-1.604-.559-3.566-.621-4.795.577-.634.618-1 1.501-1.725 2.02-1.022.75-2.411.529-3.662.68-2.268.275-4.26 1.94-5.261 4.057a9.557 9.557 0 0 0-.863 4.284 11.77 11.77 0 0 0 .35 3.01c.241.981.6 1.927.862 2.9.544 2.024.669 4.154 1.294 6.157a7.767 7.767 0 0 0 2.424 3.782l-.186.826c-.12.026-3.135.692-5.222 5.38-1.648 3.694-7.22 7.512-9.67 9.052a4.147 4.147 0 0 0-1.823 2.606 13.938 13.938 0 0 0-.31 3.312c-.044 2.402.43 5.722 2.32 9.935 4.26 9.567 7.357 13.763 7.357 13.763s.237 2.93.25 6.02c0 2.3-.164 4.59-.639 5.735-.4.968-.526 3.44-.517 6.26 0 5.411.517 12.474.517 12.474s1.48.29 3.774.635l1.427 25.833c.18 3.128-.795 6.21-2.73 8.63a18.783 18.783 0 0 1-3.45 3.366c-4.066 2.987-12.778 34.476-12.778 34.476s.431.027 1.13.084L0 185.471s10.695 8.434 17.207 6.13a6.138 6.138 0 0 1 2.157-.315c1.293 0 4.032-1.043 2.5-2.424-2.78-2.504-6.114-6.295-8.344-8.932.21.105.412.227.604.364v-.062l.09.062s.022-.31.07-.812l-.096-.031c.199-2.074.82-7.285 2.058-7.925 1.548-.799 12.968-24.11 12.968-24.11l11.42-30.29s9.099 16.141 16.84 18.93v6.734s4.26 19.928 5.81 22.122c1.547 2.193 0 10.96 0 10.96.305.361.656.68 1.043.946l-1.238 7.223s8.906-.4 24.004 4.386c.039.009 5.848-2.575 1.01-5.771zM52.48 78.418l-1.885.484-.37.098-.065-.382c-.432.2-.895.316-1.367.342a26.647 26.647 0 0 1-1.147-6.721s-1.096-4.604-1.156-8.324c.021-1.452.233-2.717.768-3.432l.63.053.43.444.03.031.225.21.233.217.039.035.254.227.043.04.259.226.026.022.289.244.064.054.307.253h.025l.302.244.07.053.331.262.07.053.319.24.056.04.362.266.086.062.38.271.034.022.371.254.09.062.402.262.086.053.375.235.07.045.43.257.104.062.431.258h.035l.43.235.109.058.457.235.095.044.431.205.082.04.479.213.116.048.5.205c-3.148 3.458-4.735 11.595-4.735 11.595z" fill="url(#e)"/><path d="m4.883 172.883-3.51 10.063s9.61 7.576 15.852 6.008c.94-.24 1.899-.4 2.865-.476 1.293-.1 3.517-1.066 2.144-2.3-4.432-3.986-10.338-11.389-10.338-11.389l-7.013-1.906zM64.88 172.379l-1.69 9.75s8.642-.383 23.293 4.207c0 0 5.636-2.487.938-5.545 0 0-5.448.383-8.83-5.546-3.381-5.93-5.447-5.161-5.447-5.161l-8.265 2.295z" fill="#4F4D59"/><path d="M18.777 100.127 20.43 130.4c.177 3.226-.853 6.4-2.875 8.855a17.956 17.956 0 0 1-3.103 3.005c-3.942 2.925-12.392 33.75-12.392 33.75s9.577.583 12.204 2.538c0 0 .561-7.805 2.065-8.584 1.504-.779 12.581-23.595 12.581-23.595l11.086-29.672s8.827 15.804 16.34 18.533v6.634s4.13 19.508 5.634 21.654c1.504 2.146 0 10.729 0 10.729s4.32 5.658 14.27-.392c0 0-3.193-3.708-3-8.196.193-4.487-4.32-29.067-4.32-29.067s.562-9.349-3.942-15.216C60.476 115.508 52.96 93.1 52.96 93.1L47.793 81.55l-29.015 18.578z" fill="#999"/><g opacity=".1" fill="#000"><path d="M3.871 175.602s8.422-30.667 12.352-33.577a18.12 18.12 0 0 0 3.25-3.185c1.922-2.41 2.889-5.488 2.703-8.61l-1.648-30.119L48.12 82.457l-.375-.838-28.91 18.479 1.649 30.118c.193 3.123-.768 6.205-2.686 8.62a18.12 18.12 0 0 1-3.25 3.184c-3.93 2.91-12.352 33.578-12.352 33.578s9.546.58 12.164 2.524c0 0 .02-.3.068-.792-3.69-1.307-10.558-1.728-10.558-1.728zM63.578 173.857s1.499-8.54 0-10.674c-1.5-2.135-5.634-21.548-5.634-21.548v-6.6c-7.47-2.715-16.267-18.452-16.267-18.452l-.654 1.772c2.537 4.172 9.306 14.532 15.251 16.69v6.599s4.117 19.408 5.617 21.543c1.499 2.135 0 10.675 0 10.675s2.088 2.723 6.7 2.356c-3.438-.284-5.013-2.36-5.013-2.36z"/></g><path d="m84.755 65.583-3.776.255-1.99.134v-4.926l2.63-.484 1.619-.3s4.994-15.11 9.8-12.365c4.807 2.745-8.283 17.686-8.283 17.686zM24.576 25.615s-2.495 9.9-3.26 16.041c-.766 6.14 17.835 1.188 17.835 1.188s-7.095-8.91-3.064-13.664l-11.51-3.565z" fill="#714B4F"/><path d="m44.71 66.517.384 3.703-5.923-.39-5.95-5.273-5.924-16.937-3.821-6.037-2.87-3.699 1.147-4.48s.523.444 1.409 1.155c2.91 2.272 9.74 6.988 14.73 5.686.232-.059.459-.132.681-.218l7.446 13.047-1.308 13.443z" fill="#E6E6F0"/><path d="M23.524 31.987s-3.024.585-5.11 5.283c-1.603 3.612-7.006 7.336-9.42 8.868a4.172 4.172 0 0 0-1.832 2.64c-.488 2.232-.674 6.385 1.978 12.368 4.164 9.378 7.192 13.504 7.192 13.504s.756 9.377-.38 12.133c-1.136 2.755 0 17.808 0 17.808s19.869 3.912 26.5 0c6.63-3.912 5.679-18.983 5.679-18.983s6.246 13.682 8.518 14.089l-1.326-7.632s-7.382-8.22-7.775-18.786c0 0-2.272-9.587-.38-12.133 0 0 31.989 2.742 33.88.393 0 0-21.009-.977-24.226-6.251 0 0-9.274-7.632-9.654-12.718-.113-1.94-1.186-3.682-2.838-4.608a7.214 7.214 0 0 0-4.242-.978l-4.276.304s7.382 13.503 7.002 15.262c-.38 1.76.38 16.045.38 16.045s-8.5-18.996-12.271-21.149c-3.771-2.152-8.138-10.989-8.138-10.989l.756-4.465" fill="#999" opacity=".1"/><path d="m44.71 66.517.384 3.703-5.923-.39-5.95-5.273-5.924-16.937-3.821-6.037-2.87-3.699 1.147-4.48s.523.444 1.409 1.155l-.262 1.547s4.397 8.797 8.218 10.94c3.821 2.143 12.424 21.04 12.424 21.04s-.764-14.225-.384-15.972c.261-1.191-3.089-7.757-5.265-11.86.23-.06.458-.132.68-.218l7.446 13.038-1.308 13.443zM80.547 66.557l-1.559.123v-4.513l2.06-.443c-.724 1.145-.7 3.147-.5 4.833z" fill="#000" opacity=".1"/><path d="M23.524 31.987s-3.024.585-5.11 5.283c-1.603 3.612-7.006 7.336-9.42 8.868a4.172 4.172 0 0 0-1.832 2.64c-.488 2.232-.674 6.385 1.978 12.368 4.164 9.378 7.192 13.504 7.192 13.504s.756 9.377-.38 12.133c-1.136 2.755 0 17.808 0 17.808s19.869 3.912 26.5 0c6.63-3.912 5.679-19.019 5.679-19.019s6.246 13.7 8.518 14.089l-1.326-7.631s-7.382-8.221-7.775-18.787c0 0-2.272-9.587-.38-12.132 0 0 7.382 8.22 15.71 8.038 8.327-.184 18.17.977 18.17.977s-1.891-6.251 0-8.609c0 0-21.009-.978-24.226-6.252 0 0-9.274-7.631-9.654-12.717-.113-1.94-1.186-3.682-2.838-4.608a7.214 7.214 0 0 0-4.242-.978l-4.276.303s7.4 13.477 7.02 15.263c-.38 1.786.38 16.045.38 16.045s-8.518-18.988-12.29-21.14c-3.77-2.152-8.154-10.98-8.154-10.98l.756-4.466" fill="#999"/><path d="M19.73 52.52s4.553 15.88 7.206 17.838c2.653 1.96 18.776 11.957 23.52 9.604 0 0 1.137 5.882-.568 7.25 0 0-17.684-.715-17.827-.782 0 0-11.57-1.57-13.465-7.448-1.895-5.877-4.172-15.879-4.172-15.879L19.73 52.52z" fill="#999" opacity=".1"/><circle fill="#BA7855" cx="43.959" cy="68.096" r="1"/><circle fill="#BA7855" cx="45.332" cy="75.176" r="1"/><g opacity=".1" fill="#000"><path d="M17.331 104.197s-1.134-15.02 0-17.753c1.135-2.733.38-12.095.38-12.095s-3.019-4.096-7.18-13.462c-2.649-5.965-2.46-10.105-1.976-12.33a4.159 4.159 0 0 1 1.833-2.632c2.41-1.527 7.806-5.24 9.402-8.84 1.173-2.64 2.643-3.98 3.709-4.644l.073-.445s-3.019.583-5.102 5.266c-1.6 3.602-6.995 7.314-9.402 8.841a4.159 4.159 0 0 0-1.833 2.631C6.748 50.96 6.562 55.1 9.21 61.065c4.158 9.349 7.181 13.462 7.181 13.462s.755 9.348-.38 12.095c-1.134 2.747 0 17.753 0 17.753s14.177 2.787 22.561 1.296c-8.479 1.037-21.24-1.474-21.24-1.474zM42.846 52.51c-.259 1.201 0 8.27.211 12.597.915 1.928 1.488 3.201 1.488 3.201s-.755-14.245-.38-15.995c.359-1.67-6.279-13.911-6.939-15.135l-1.375.098s7.374 13.452 6.995 15.233zM64.203 68.887c-8.315.196-15.686-8.013-15.686-8.013a3.163 3.163 0 0 0-.478 1.06c2.156 2.096 8.194 7.291 14.84 7.122 8.315-.196 18.144.975 18.144.975s-.039-.13-.1-.352a145.798 145.798 0 0 0-16.72-.792zM49.462 85.273s.077 1.22.034 3.05c1.967 4.006 5.547 10.915 7.147 11.19l-.28-1.602c-2.76-3.557-6.901-12.638-6.901-12.638z"/></g><path d="m54.726 82.092-4.1.89-3.233.69 1.735-4.897 1.207-.307 1.88-.472s2.705-13.661 8.109-12.682c5.404.98-5.598 16.778-5.598 16.778z" fill="#714B4F"/><path d="m50.8 83.016-3.407.657 1.829-4.664 1.272-.292a16.98 16.98 0 0 1 .306 4.299z" fill="#999" opacity=".1"/><path d="M19.73 51.812s4.553 15.88 7.206 17.838c2.653 1.96 18.776 11.957 23.52 9.604 0 0 1.137 5.882-.568 7.25 0 0-17.684-.715-17.827-.782 0 0-11.57-1.57-13.465-7.448-1.895-5.877-4.172-15.879-4.172-15.879l5.306-10.583z" fill="#999"/><path d="M24.946 26.323s-.388 1.619-.906 3.973c2.177 4.455 6.84 6.775 11.379 5.663-.458-2.123-.357-4.247.984-5.932l-11.457-3.704z" fill="#000" opacity=".1"/><ellipse fill="#714B4F" cx="33.656" cy="23.365" rx="10.303" ry="10.62"/><path d="M43.06 18.684c.773.006 1.539-.15 2.248-.46 1.46-.732 2.141-2.598 1.756-4.187a5.515 5.515 0 0 0-3.141-3.544c-1.025-.475-2.164-.704-3.14-1.278-1.157-.682-1.986-1.797-2.969-2.701a10.032 10.032 0 0 0-6.027-2.533c-1.659-.108-3.535.332-4.407 1.751-.448.726-.58 1.637-1.123 2.294-.787.952-2.158 1.099-3.306 1.555a6.853 6.853 0 0 0-3.989 5.073 9.676 9.676 0 0 0 1.215 6.48c.472.839 1.042 1.624 1.53 2.454 1.015 1.73 1.662 3.658 2.75 5.341 1.09 1.684 2.8 3.156 4.801 3.203a12.034 12.034 0 0 1-.423-6.306c.044-.445.254-.857.589-1.154a2.104 2.104 0 0 1 1.01-.27 10.412 10.412 0 0 0 6.34-3.154c.59-.608 1.295-2.372 2.01-2.72.917-.43 3.21.199 4.276.156z" fill="#000" opacity=".1"/><path d="M41.777 18.471c.773.008 1.54-.149 2.248-.458 1.46-.733 2.142-2.6 1.756-4.19a5.52 5.52 0 0 0-3.142-3.547c-1.026-.475-2.165-.705-3.14-1.279-1.158-.682-1.987-1.799-2.97-2.703A10.034 10.034 0 0 0 30.5 3.758c-1.66-.107-3.536.332-4.408 1.752-.448.726-.58 1.638-1.123 2.295-.787.952-2.158 1.1-3.306 1.556a6.854 6.854 0 0 0-3.989 5.075 9.687 9.687 0 0 0 1.212 6.467c.472.84 1.042 1.626 1.53 2.456 1.015 1.732 1.663 3.66 2.752 5.345 1.089 1.685 2.8 3.158 4.802 3.205a12.047 12.047 0 0 1-.425-6.31c.044-.445.254-.857.589-1.154a2.103 2.103 0 0 1 1.01-.27 10.409 10.409 0 0 0 6.34-3.155c.592-.608 1.295-2.373 2.01-2.722.922-.413 3.216.22 4.282.173z" fill="#503F43"/></g></g></svg>