<svg width="1489" height="1977" xmlns="http://www.w3.org/2000/svg"><g transform="translate(1 1)" fill-rule="nonzero" fill="none"><ellipse fill="#386DB0" opacity=".1" cx="782.5" cy="1802" rx="705.5" ry="174"/><path d="m478.21 945.227 626.249-209.81a8 8 0 0 1 10.541 7.585v1002.883c0 30.928-25.072 56-56 56H496c-30.928 0-56-25.072-56-56V998.327c0-24.073 15.385-45.452 38.21-53.1z" fill="#F3A844"/><path d="M440 965c167.778 32.146 291.444 48.22 371 48.22 79.556 0 181.556-16.074 306-48.22v479.178C996.778 1491.393 894.778 1515 811 1515c-83.778 0-207.444-23.607-371-70.822V965z" fill="#FDFDFD"/><g fill="#F6BB6D" opacity=".482"><path d="M516 1302h217v22H516zM516 1205h542v22H516zM516 1156h542v22H516zM516 1253h542v22H516z"/></g><path d="m542.685 929.958 561.699-194.399a8 8 0 0 1 10.616 7.56v1002.766c0 30.928-25.072 56-56 56H505V982.878c0-23.869 15.129-45.114 37.685-52.92z" fill="#000" opacity=".037"/><path d="m505.404 830.202-52.715-26.354" stroke="#979797" stroke-width="5" stroke-linecap="round" stroke-linejoin="round"/><path d="M449.5 807v146" stroke="#979797" stroke-width="5" opacity=".9" stroke-linecap="round" stroke-linejoin="round"/><path d="M451.145 955.976 509 832" stroke="#AAC4E4" stroke-width="5" stroke-linecap="round" stroke-linejoin="round"/><path d="m511.098 833.656 91.375 72.138" stroke="#979797" stroke-width="5" opacity=".598" stroke-linecap="round" stroke-linejoin="round"/><path d="m606 905.794 132.124-103.54" stroke="#979797" stroke-width="5" opacity=".5" stroke-linecap="round" stroke-linejoin="round"/><path d="m737.291 800.512-222.766 30.726" stroke="#AAC4E4" stroke-width="5" stroke-linecap="round" stroke-linejoin="round"/><path d="m507.5 711.5-54.879 85.688" stroke-opacity=".506" stroke="#979797" stroke-width="5" stroke-linecap="round" stroke-linejoin="bevel"/><path d="M450.5 796V615.5" stroke="#979797" stroke-width="5" stroke-linecap="round" stroke-linejoin="bevel"/><path d="m452 707.604 47.323-2.396" stroke="#AAC4E4" stroke-width="5" stroke-linecap="round" stroke-linejoin="bevel"/><path d="m505.338 718.109 4.464 107.132M513.462 826.167 616.64 711.935" stroke="#979797" stroke-width="5" opacity=".7" stroke-linecap="round" stroke-linejoin="bevel"/><path d="m613.782 706.514-99.869 6.241" stroke="#979797" stroke-width="5" opacity=".9" stroke-linecap="round" stroke-linejoin="bevel"/><path d="m508.838 711.067-56.335-93.735" stroke="#AAC4E4" stroke-width="5" stroke-linecap="round" stroke-linejoin="bevel"/><path d="M623 707c37.285 32.04 72.507 63.376 112.9 93L623 707z" stroke="#979797" stroke-width="5" fill="#D8D8D8" opacity=".9" stroke-linecap="round" stroke-linejoin="bevel"/><path d="m738 802 27.416 50.31" stroke="#979797" stroke-width="5" stroke-linecap="round" stroke-linejoin="bevel"/><path d="m768.22 851.732 47.392-127.011" stroke="#AAC4E4" stroke-width="5" fill="#D8D8D8" stroke-linecap="round" stroke-linejoin="bevel"/><path d="M813.757 724.201 739 801" stroke="#80A6D6" stroke-width="5" stroke-linecap="round" stroke-linejoin="bevel"/><path d="m737.9 799 25-207.5" stroke="#AAC4E4" stroke-width="5" fill="#D8D8D8" stroke-linecap="round" stroke-linejoin="bevel"/><path d="m762.9 592.23-140.27 113" stroke="#AAC4E4" stroke-width="5" stroke-linecap="round" stroke-linejoin="bevel"/><path d="m622.63 705.23-171.095-88.913" stroke="#AAC4E4" stroke-width="5" opacity=".9" stroke-linecap="round" stroke-linejoin="bevel"/><path d="m450 614-65-115" stroke="#AAC4E4" stroke-width="5" stroke-linecap="round" stroke-linejoin="bevel"/><path d="M382.9 499v113M387 615h61" stroke="#979797" stroke-width="5" opacity=".9" stroke-linecap="round" stroke-linejoin="bevel"/><path d="M450 615.102 679.9 657" stroke="#80A6D6" stroke-width="5" fill="#D8D8D8" opacity=".7" stroke-linecap="round" stroke-linejoin="bevel"/><path d="m679.9 657-85-84" stroke="#979797" stroke-width="5" stroke-linecap="round" stroke-linejoin="bevel"/><path d="m593.8 573-138.9 37" stroke="#979797" stroke-width="5" opacity=".7" stroke-linecap="round" stroke-linejoin="bevel"/><path d="M451.428 615 489.9 498" stroke="#AAC4E4" stroke-width="5" opacity=".7" stroke-linecap="round" stroke-linejoin="bevel"/><path d="M382.15 497.77 192.5 409.5" stroke="#80A6D6" stroke-width="5" stroke-linecap="round" stroke-linejoin="bevel"/><path d="m197.207 405.393 66-130" stroke="#979797" stroke-width="5" stroke-linecap="square"/><path d="M264.49 277.293 96.5 247.5M95.43 240.027l-79-104" stroke="#80A6D6" stroke-width="5" stroke-linecap="square"/><path d="M19 124.085 171.867 57.08" stroke="#979797" stroke-width="5" stroke-linecap="square"/><path d="m182.794 59.776-82 183" stroke="#80A6D6" stroke-width="5" stroke-linecap="square"/><path d="m490.962 497 103.606 76.134" stroke="#AAC4E4" stroke-width="5" stroke-linecap="round" stroke-linejoin="bevel"/><path d="m595.568 573.134 167.589 18.395" stroke="#AAC4E4" stroke-width="5" opacity=".5" stroke-linecap="round" stroke-linejoin="bevel"/><path d="M744.422 788.645 836.854 575" stroke="#979797" stroke-width="5" opacity=".598" stroke-linecap="round" stroke-linejoin="bevel"/><path d="M837.568 574 817 718" stroke="#979797" stroke-width="5" fill="#D8D8D8" stroke-linecap="round" stroke-linejoin="bevel"/><path d="m819 720 63.5 99.5" stroke="#979797" stroke-width="5" fill="#D8D8D8" opacity=".598" stroke-linecap="round" stroke-linejoin="bevel"/><path d="M1055.5 760.5 818 719" stroke="#80A6D6" stroke-width="5" opacity=".598" stroke-linecap="round" stroke-linejoin="bevel"/><path d="m818 718 113-150" stroke="#979797" stroke-width="5" opacity=".7" stroke-linecap="round" stroke-linejoin="bevel"/><path d="m838.722 574-75.54 17.058" stroke="#979797" stroke-width="5" fill="#D8D8D8" opacity=".7" stroke-linecap="round" stroke-linejoin="bevel"/><path d="m763.157 591.058-81.858-59.74" stroke="#386DB0" stroke-width="5" fill="#D8D8D8" opacity=".698" stroke-linecap="round" stroke-linejoin="bevel"/><path d="m681.59 530.41-86.022 41.393M594.568 571.803 602 494.918" stroke="#979797" stroke-width="5" stroke-linecap="round" stroke-linejoin="bevel"/><path d="M603.623 493.927 681 530.291" stroke="#386DB0" stroke-width="5" opacity=".698" stroke-linecap="round" stroke-linejoin="bevel"/><path d="m681.375 530.29 66.019-39.645" stroke="#979797" stroke-width="5" stroke-linecap="round" stroke-linejoin="bevel"/><path d="M747.956 492.345 763 590" stroke="#AAC4E4" stroke-width="5" opacity=".598" stroke-linecap="round" stroke-linejoin="bevel"/><path d="m765 590 71.774-95.483M838.068 494.918V574" stroke="#979797" stroke-width="5" stroke-linecap="round" stroke-linejoin="bevel"/><path d="M837.568 574 930 563.077" stroke="#AAC4E4" stroke-width="5" fill="#D8D8D8" stroke-linecap="round" stroke-linejoin="bevel"/><path d="m825 719 173.189-11.24" stroke="#979797" stroke-width="5" stroke-linecap="round" stroke-linejoin="bevel"/><path d="m1060.5 760.5-60.47-52.74" stroke="#979797" stroke-width="5" opacity=".5" stroke-linecap="round" stroke-linejoin="bevel"/><path d="m825 718 207-170" stroke="#AAC4E4" stroke-width="5" stroke-linecap="round" stroke-linejoin="bevel"/><path d="m1034.925 542.258-104.537 20.82" stroke="#979797" stroke-width="5" stroke-linecap="round" stroke-linejoin="bevel"/><path stroke="#AAC4E4" stroke-width="5" stroke-linecap="round" stroke-linejoin="bevel" d="m838 494 171.568-1.697L930 562l-91-67"/><path d="M1084.449 493.347 1035 544" stroke="#979797" stroke-width="5" fill="#D8D8D8" stroke-linecap="round" stroke-linejoin="bevel"/><path stroke="#979797" stroke-width="5" opacity=".7" stroke-linecap="round" stroke-linejoin="bevel" d="m1109.467 729.2 3.101.603v-63l-3.342 1.156-108.658 39.844z"/><path d="m1000.83 707 34.095-161.722" stroke="#979797" stroke-width="5" stroke-linecap="round" stroke-linejoin="bevel"/><path d="M1035.375 542.258 1055.943 687" stroke="#979797" stroke-width="5" opacity=".7" stroke-linecap="round" stroke-linejoin="bevel"/><path d="m1055 688 56.759-73" stroke="#AAC4E4" stroke-width="5" stroke-linecap="round" stroke-linejoin="bevel"/><path d="m1111.53 615-63.568.5" stroke="#979797" stroke-width="5" stroke-linecap="round" stroke-linejoin="bevel"/><path d="m1048 615 37-122" stroke="#979797" stroke-width="5" opacity=".702" stroke-linecap="round" stroke-linejoin="bevel"/><path d="m1085.962 493 90.538-.197M488.5 495.5l114.037-3.155" stroke="#AAC4E4" stroke-width="5" stroke-linecap="round" stroke-linejoin="bevel"/><path d="M1178.568 492.803V610" stroke="#AAC4E4" stroke-width="5" fill="#D8D8D8" stroke-linecap="round" stroke-linejoin="bevel"/><path d="m1179 496-131 119" stroke="#979797" stroke-width="5" fill="#F3E500" opacity=".9"/><path d="m1114.5 613.5 62-1" stroke="#AAC4E4" stroke-width="5" fill="#F3E500"/><path d="M1112.5 613.5v54M1008.5 493.5l20 49M1008.5 492.25h75M748.5 492.5h86" stroke="#979797" stroke-width="5" stroke-linecap="square"/><path d="m475 102 133.843 43.685M614 151l28.652 103.966M639.5 258.5 512 403.126M513 413l80.8 74.171" stroke="#80A6D6" stroke-width="5" stroke-linecap="square"/><path d="M603 484.81 646.251 260M618.5 148.5l79-134" stroke="#979797" stroke-width="5" stroke-linecap="square"/><path d="M1046 258 892.338 372.807M890.67 374.467 861 216M859.206 211.892l186.485 42.002M925 225l-71-94M852.473 127.772l165.713 63.935M1018 193l-92 30.831" stroke="#80A6D6" stroke-width="5" stroke-linecap="square"/><circle stroke-opacity=".682" stroke="#FFF770" fill="#F3E500" cx="448.5" cy="616.5" r="20.5"/><circle stroke-opacity=".682" stroke="#FFF770" fill="#F3E500" cx="95.5" cy="240.5" r="20.5"/><circle stroke-opacity=".682" stroke="#FFF770" fill="#F3E500" cx="511.5" cy="834.5" r="20.5"/><circle stroke-opacity=".682" stroke="#FFF770" fill="#F3E500" cx="626.5" cy="710.5" r="20.5"/><circle stroke-opacity=".682" stroke="#FFF770" fill="#F3E500" cx="767.5" cy="593.5" r="20.5"/><circle stroke-opacity=".682" stroke="#FFF770" fill="#F3E500" cx="449.5" cy="711.5" r="12.5"/><circle stroke-opacity=".682" stroke="#FFF770" fill="#F3E500" cx="192.5" cy="407.5" r="16.5"/><circle stroke-opacity=".682" stroke="#FFF770" fill="#F3E500" transform="rotate(19 1046.889 257.889)" cx="1046.889" cy="257.889" r="12.5"/><circle stroke-opacity=".682" stroke="#FFF770" fill="#F3E500" cx="509.5" cy="404.5" r="12.5"/><circle stroke-opacity=".682" stroke="#FFF770" fill="#F3E500" transform="rotate(19 928.669 228.669)" cx="928.669" cy="228.669" r="12.5"/><circle stroke-opacity=".682" stroke="#FFF770" fill="#F3E500" cx="489.5" cy="497.5" r="10.5"/><circle stroke-opacity=".682" stroke="#FFF770" fill="#F3E500" cx="679.5" cy="530.5" r="10.5"/><circle stroke-opacity=".682" stroke="#FFF770" fill="#F3E500" cx="1008.5" cy="492.5" r="10.5"/><circle stroke-opacity=".682" stroke="#FFF770" fill="#F3E500" cx="1055.5" cy="682.5" r="12.5"/><circle stroke-opacity=".682" stroke="#FFF770" fill="#F3E500" cx="840.5" cy="577.5" r="12.5"/><circle stroke-opacity=".682" stroke="#FFF770" fill="#F3E500" cx="1178.5" cy="495.5" r="12.5"/><path d="M852.819 141.708c6.527 2.247 13.641-1.222 15.889-7.75 2.247-6.527-1.222-13.64-7.75-15.888-6.527-2.248-13.64 1.222-15.888 7.749-2.248 6.527 1.222 13.641 7.749 15.889zm0 0c6.527 2.247 13.641-1.222 15.889-7.75 2.247-6.527-1.222-13.64-7.75-15.888-6.527-2.248-13.64 1.222-15.888 7.749-2.248 6.527 1.222 13.641 7.749 15.889z" stroke-opacity=".682" stroke="#FFF770" fill="#F3E500"/><circle stroke-opacity=".682" stroke="#FFF770" fill="#F3E500" cx="1032.5" cy="545.5" r="12.5"/><circle stroke-opacity=".682" stroke="#FFF770" fill="#F3E500" cx="772.5" cy="854.5" r="20.5"/><circle stroke-opacity=".682" stroke="#FFF770" fill="#F3E500" cx="888.5" cy="825.5" r="16.5"/><circle stroke-opacity=".682" stroke="#FFF770" fill="#F3E500" cx="16.5" cy="127.5" r="16.5"/><circle stroke-opacity=".682" stroke="#FFF770" fill="#F3E500" cx="614.5" cy="145.5" r="16.5"/><circle stroke-opacity=".682" stroke="#FFF770" fill="#F3E500" cx="1180.5" cy="613.5" r="14.5"/><circle stroke-opacity=".682" stroke="#FFF770" fill="#F3E500" cx="1113.5" cy="733.5" r="20.5"/><circle stroke-opacity=".645" stroke="#4694F6" fill="#386DB0" cx="457.5" cy="954.5" r="18.5"/><circle stroke-opacity=".645" stroke="#4694F6" fill="#386DB0" transform="rotate(19 1017.515 192.515)" cx="1017.515" cy="192.515" r="18.5"/><circle stroke-opacity=".645" stroke="#4694F6" fill="#386DB0" cx="822.5" cy="718.5" r="20.5"/><circle stroke-opacity=".645" stroke="#4694F6" fill="#386DB0" cx="1084.5" cy="493.5" r="16.5"/><circle stroke-opacity=".645" stroke="#4694F6" fill="#386DB0" cx="928.5" cy="561.5" r="16.5"/><circle stroke-opacity=".645" stroke="#4694F6" fill="#386DB0" cx="598.5" cy="577.5" r="16.5"/><circle stroke-opacity=".645" stroke="#4694F6" fill="#386DB0" transform="rotate(19 892.43 372.43)" cx="892.431" cy="372.431" r="14.5"/><circle stroke-opacity=".645" stroke="#4694F6" fill="#386DB0" cx="612.5" cy="909.5" r="18.5"/><circle stroke-opacity=".645" stroke="#4694F6" fill="#386DB0" cx="452.5" cy="801.5" r="13.5"/><circle stroke-opacity=".645" stroke="#4694F6" fill="#386DB0" transform="rotate(19 858.16 209.16)" cx="858.16" cy="209.16" r="13.5"/><circle stroke-opacity=".645" stroke="#4694F6" fill="#386DB0" cx="183.5" cy="56.5" r="13.5"/><circle stroke-opacity=".645" stroke="#4694F6" fill="#386DB0" cx="475.5" cy="103.5" r="16.5"/><circle stroke-opacity=".645" stroke="#4694F6" fill="#386DB0" cx="385.5" cy="612.5" r="13.5"/><circle stroke-opacity=".645" stroke="#4694F6" fill="#386DB0" cx="387.5" cy="502.5" r="13.5"/><circle stroke-opacity=".645" stroke="#4694F6" fill="#386DB0" cx="1063" cy="763" r="12"/><circle stroke-opacity=".645" stroke="#4694F6" fill="#386DB0" cx="1114" cy="618" r="10"/><circle stroke-opacity=".645" stroke="#4694F6" fill="#386DB0" cx="506.5" cy="708.5" r="16.5"/><circle stroke-opacity=".645" stroke="#4694F6" fill="#386DB0" cx="263.5" cy="280.5" r="16.5"/><circle stroke-opacity=".645" stroke="#4694F6" fill="#386DB0" cx="604.5" cy="495.5" r="10.5"/><circle stroke-opacity=".645" stroke="#4694F6" fill="#386DB0" cx="748.5" cy="489.5" r="10.5"/><circle stroke-opacity=".645" stroke="#4694F6" fill="#386DB0" cx="1051.5" cy="619.5" r="10.5"/><circle stroke-opacity=".645" stroke="#4694F6" fill="#386DB0" cx="1116.5" cy="670.5" r="10.5"/><circle stroke-opacity=".645" stroke="#4694F6" fill="#386DB0" cx="739.5" cy="802.5" r="16.5"/><circle stroke-opacity=".645" stroke="#4694F6" fill="#386DB0" cx="682.5" cy="662.5" r="16.5"/><circle stroke-opacity=".645" stroke="#4694F6" fill="#386DB0" cx="837.5" cy="490.5" r="16.5"/><circle stroke-opacity=".645" stroke="#4694F6" fill="#386DB0" cx="642.5" cy="260.5" r="16.5"/><circle stroke-opacity=".645" stroke="#4694F6" fill="#386DB0" cx="697.5" cy="16.5" r="16.5"/><circle stroke-opacity=".645" stroke="#4694F6" fill="#386DB0" cx="1006.5" cy="710.5" r="16.5"/></g></svg>