<svg width="506" height="484" fill="none" xmlns="http://www.w3.org/2000/svg"><path opacity=".05" d="M105.086 126.685c.782 30.282-12.583 54.901-38.485 69.982-36.704 21.376-65.454 60.37 9.359 124.163 127.83 108.962 210.038 84.496 210.038 84.496s35.128-29.936 71.349-36.828c51.451-9.792 83.879-39.44 87.501-82.913 2.316-27.801-3.77-56.289-28.33-77.608-68.689-59.626-120.662-76.956-125.404-115.832-4.742-38.876-88.988-67.408-101.831-49.122-12.843 18.286-21.541 73.814-64.502 67.741-15.265-2.135-19.973 5.362-19.695 15.921z" fill="#000"/><g filter="url(#a)"><path d="m123.811 13.448 212.992.015.019 294.673-26.455.047.005 61.616-18.934-.001.01-61.664-3.114-.001.004 61.685-19.096-.016.01-61.655-2.952.033.004 61.636-18.92-.011.011-61.654-3.129-.021.004 61.685-19.095-.006.01-61.655-2.952.023.004 61.636-19.096-.001.01-61.654-79.321.012-.019-294.722z" fill="#FDFDFD"/></g><path d="M124.158 287.077h211.531" stroke="#CACACA" stroke-linecap="square" stroke-dasharray="4 7"/><path fill-rule="evenodd" clip-rule="evenodd" d="M172.424 251.077a2 2 0 0 1 2-2h112a2 2 0 0 1 0 4h-112a2 2 0 0 1-2-2z" fill="#80A6D6"/><path fill-rule="evenodd" clip-rule="evenodd" d="M178.424 260.077a2 2 0 0 1 2-2h79a2 2 0 0 1 0 4h-79a2 2 0 0 1-2-2zM178.424 269.077a2 2 0 0 1 2-2h79a2 2 0 0 1 0 4h-79a2 2 0 0 1-2-2z" fill="#CACACA"/><path fill-rule="evenodd" clip-rule="evenodd" d="M208.924 315.577a1 1 0 0 1 1 1v45a1 1 0 0 1-2 0v-45a1 1 0 0 1 1-1z" fill="#999"/><path fill-rule="evenodd" clip-rule="evenodd" d="M215.424 334.577a.5.5 0 0 1 .5.5v27a.5.5 0 0 1-1 0v-27a.5.5 0 0 1 .5-.5z" fill="#CACACA"/><path fill-rule="evenodd" clip-rule="evenodd" d="M230.924 315.577a1 1 0 0 1 1 1v45a1 1 0 0 1-2 0v-45a1 1 0 0 1 1-1z" fill="#999"/><path fill-rule="evenodd" clip-rule="evenodd" d="M237.424 333.577a.5.5 0 0 1 .5.5v27a.5.5 0 0 1-1 0v-27a.5.5 0 0 1 .5-.5z" fill="#CACACA"/><path fill-rule="evenodd" clip-rule="evenodd" d="M252.924 314.577a1 1 0 0 1 1 1v45a1 1 0 0 1-2 0v-45a1 1 0 0 1 1-1z" fill="#999"/><path fill-rule="evenodd" clip-rule="evenodd" d="M259.424 333.577a.5.5 0 0 1 .5.5v27a.5.5 0 0 1-1 0v-27a.5.5 0 0 1 .5-.5z" fill="#CACACA"/><path fill-rule="evenodd" clip-rule="evenodd" d="M274.924 314.577a1 1 0 0 1 1 1v45a1 1 0 0 1-2 0v-45a1 1 0 0 1 1-1z" fill="#999"/><path fill-rule="evenodd" clip-rule="evenodd" d="M281.424 333.577a.5.5 0 0 1 .5.5v27a.5.5 0 0 1-1 0v-27a.5.5 0 0 1 .5-.5z" fill="#CACACA"/><path fill-rule="evenodd" clip-rule="evenodd" d="M296.924 314.577a1 1 0 0 1 1 1v45a1 1 0 0 1-2 0v-45a1 1 0 0 1 1-1z" fill="#999"/><path fill-rule="evenodd" clip-rule="evenodd" d="M304.424 333.577a.5.5 0 0 1 .5.5v27a.5.5 0 0 1-1 0v-27a.5.5 0 0 1 .5-.5z" fill="#CACACA"/><path opacity=".2" d="m132.519 63.76 193.755-.676.615 176.219-193.755.676-.615-176.219z" fill="#CACACA"/><mask id="b" style="mask-type:luminance" maskUnits="userSpaceOnUse" x="132" y="63" width="195" height="177"><path d="m132.519 63.76 193.755-.676.615 176.219-193.755.676-.615-176.219z" fill="#fff"/></mask><g mask="url(#b)"><g opacity=".2"><path d="M300.692 128.523c-3.181 2.527-6.451 6.267-5.479 10.848 1.869 8.968 15.968 7.785 19.073 16.435.93 2.589.528 5.425-.331 7.85-1.675 4.745-4.913 8.388-7.49 12.503-2.577 4.114-4.569 9.328-3.273 14.526 1.242 5.029 5.289 8.898 9.558 11.003 4.268 2.106 8.846 2.807 13.321 3.916a74.877 74.877 0 0 1 15.35 5.767 22.103 22.103 0 0 1 5.934 3.972c1.98 1.998 3.371 4.609 4.729 7.174l12.077 22.782c1.599 3.05 3.243 6.11 5.504 8.58 2.61 2.848 5.873 4.707 9.09 6.513 6.917 3.899 14.184 7.894 21.604 7.807 7.421-.087 14.84-5.763 14.777-14.174-.058-8.008-6.503-15.048-7.47-23.087-1.537-12.67 10.783-21.501 10.337-34.156-.423-12.135-11.898-20.787-16.906-32.048-3.573-8.067-3.707-17.235-6.547-25.613-4.092-12.069-13.689-21.541-24.219-26.598-10.531-5.057-21.972-6.129-32.934-5.651-4.644.211-9.353.723-13.452 2.844-4.355 2.256-5.766 6.781-9.249 9.884-4.042 3.619-9.712 5.493-14.004 8.923z" fill="#94989E"/><path d="M321.149 112.749s71.161 87.114 87.303 153.128" stroke="#535461" stroke-width="2"/><path d="M295.735 140.687s44.695-5.452 62.263 24.242M304.044 193.221s56.749-25.062 66.241-8.566" stroke="#535461" stroke-width="2"/></g><g opacity=".2"><path d="M157.813 49.325c3.981-.812 8.947-.912 11.832 2.777 5.668 7.196-4.301 17.236.33 25.175 1.385 2.376 3.816 3.891 6.226 4.792 4.712 1.767 9.584 1.628 14.392 2.299 4.808.67 10.083 2.497 13.232 6.83 3.054 4.184 3.416 9.771 2.285 14.394-1.131 4.623-3.535 8.581-5.563 12.722a74.91 74.91 0 0 0-5.449 15.466c-.64 2.302-.9 4.699-.771 7.098.257 2.802 1.363 5.546 2.455 8.235l9.689 23.895c1.309 3.186 2.597 6.412 3.035 9.732.505 3.829-.169 7.524-.853 11.149-1.46 7.805-3.07 15.94-7.907 21.568-4.836 5.629-13.954 7.664-20.356 2.209-6.097-5.192-7.348-14.654-12.884-20.562-8.718-9.322-23.402-5.561-32.81-14.036-9.024-8.125-8.275-22.476-13.683-33.552-3.883-7.922-10.82-13.918-15.412-21.478-6.616-10.893-7.703-24.333-4.808-35.65 2.895-11.318 9.429-20.771 16.841-28.86 3.147-3.423 6.565-6.702 10.825-8.478 4.528-1.886 8.901-.059 13.517-.732 5.37-.77 10.45-3.91 15.837-4.993z" fill="#94989E"/><path d="M132.58 54.858s20.992 110.507 61.186 165.307" stroke="#535461" stroke-width="2"/><path d="M170.318 53.348s-32.907 30.734-21.452 63.279M205.219 93.48s-55.675 27.364-49.14 45.238M100.309 93.248s24.905 2.507 49.134 28.665" stroke="#535461" stroke-width="2"/></g><path d="M284.156 109.761c1.251-.578 1.127-2.394-.19-2.797L234.58 91.865c-1.284-.392-2.398.97-1.757 2.15l3.36 6.189c.32.59.39 1.283.194 1.924l-42.57 139.24c-1.583 5.178-1.486 9.856.616 13.729 2.102 3.871 6.153 6.841 12.277 8.713 6.112 1.869 11.965 2.106 16.711.549 4.766-1.564 8.391-4.933 9.999-10.193l42.738-139.79a2.5 2.5 0 0 1 1.343-1.539l6.665-3.076z" fill="#FDFDFD" stroke="#CACACA"/><path fill-rule="evenodd" clip-rule="evenodd" d="m268.498 137.169-34.516 113.069c-3.116 10.191-13.994 13.009-26.086 9.313-12.091-3.697-15.677-11.627-12.561-21.819l27.758-91.593s17.89 2.056 23.041-.586c16.278-8.348 22.364-8.384 22.364-8.384z" fill="#80A6D6"/><path d="M235.604 173.27a.5.5 0 0 1 .5-.5h.93a.5.5 0 0 1 .5.5v15.95a.5.5 0 0 1-.5.5h-.93a.5.5 0 0 1-.5-.5v-15.95z" fill="#FDFDFD" stroke="#FDFDFD"/><path d="M241.817 197.461c.21.056.357.246.357.473v1.871a.508.508 0 0 1-.612.497 145.516 145.516 0 0 0-5.343-1.01c-2.047-.341-4.153-.626-5.512-.626-1.358 0-3.464.285-5.512.626-2.059.344-4.098.752-5.342 1.01a.508.508 0 0 1-.612-.497v-1.871c0-.227.147-.417.357-.473 1.064-.288 3.162-.838 5.342-1.315 2.196-.481 4.422-.876 5.767-.876 1.346 0 3.572.395 5.768.876 2.18.477 4.277 1.027 5.342 1.315z" stroke="#FDFDFD"/><path d="M223.88 173.27a.5.5 0 0 1 .5-.5h.931a.5.5 0 0 1 .5.5v15.95a.5.5 0 0 1-.5.5h-.931a.5.5 0 0 1-.5-.5v-15.95z" fill="#FDFDFD" stroke="#FDFDFD"/></g><path fill-rule="evenodd" clip-rule="evenodd" d="M166.729 31.476c.716-.69 2.011-1.035 3.886-1.035 1.172 0 2.155.117 2.95.351.794.234 1.39.482 1.787.742s.595.547.595.86c0 .716-.833 1.425-2.5 2.129-.247.117-.895.354-1.943.712s-1.755.603-2.119.733c-.794.3-1.322.534-1.582.703 0 .065.026.12.078.166.052.045.176.124.371.234.195.111.488.267.879.47.391.2.931.49 1.621.868a227.686 227.686 0 0 1 6.348 3.594c.104.078.241.185.41.322.169.137.254.287.254.45 0 .162-.052.276-.156.341a1.202 1.202 0 0 1-.372.147 2.023 2.023 0 0 1-.449.049h-.39c-.261 0-.804-.28-1.631-.84-.827-.56-1.543-1.048-2.149-1.465a49.51 49.51 0 0 0-1.845-1.211c-1.472-.95-2.637-1.569-3.496-1.855v4.472c0 .26-.222.39-.665.39h-.214c-.274 0-.476-.136-.606-.41-.182-.416-.273-1.184-.273-2.304l.058-3.926c0-1.927-.084-3.62-.254-5.078.313-.534.697-.514 1.153.059.104.13.189.24.254.332zm6.601.234-1.269-.02c-2.943 0-4.636.339-5.078 1.016-.131.182-.196.413-.196.694 0 .28.013.524.039.732.065.534.215.918.45 1.152.039.013.107.02.205.02.097 0 .28-.026.546-.078a11.44 11.44 0 0 0 1.075-.284 21.33 21.33 0 0 0 1.435-.498c.508-.195.996-.397 1.465-.605 1.471-.664 2.207-1.204 2.207-1.621 0-.235-.293-.404-.879-.508zm12.246-1.035c1.302 0 2.168.084 2.598.254v.957c-.352.052-.833.081-1.445.088-.612.006-1.263.016-1.953.029-1.928.04-3.243.137-3.946.293-.221 1.042-.325 1.751-.312 2.129.013.378.026.67.039.879.052.508.078 1.106.078 1.797.885 0 1.898-.078 3.037-.235 1.139-.156 2.021-.27 2.646-.341a16.99 16.99 0 0 1 1.934-.108v1.074l-7.48.938.117 3.203a43.31 43.31 0 0 0 3.955-.186c1.348-.123 2.37-.215 3.066-.273a26.509 26.509 0 0 1 2.217-.088c0 .26-.078.508-.234.742-.313.417-.593.54-.84.371-2.292.248-4.339.443-6.143.586-1.803.144-3.017.241-3.642.293l.078-12.46c.338.103.963.155 1.875.155l4.355-.097zm19.844 9.16c.651-2.11 1.406-5.964 2.266-11.563.82 0 1.25.254 1.289.762l.029.332c.007.065-.016.29-.068.674-.052.384-.127.921-.225 1.611s-.218 1.491-.361 2.403c-.143.911-.306 1.862-.489 2.851-.442 2.331-.898 4.297-1.367 5.899-.468.325-.833.377-1.093.156a1.586 1.586 0 0 1-.313-.479 510.3 510.3 0 0 1-.312-.693c-.17-.221-.482-.807-.938-1.758-.456-.95-.824-1.705-1.104-2.265-.279-.56-.55-1.081-.81-1.563-.599-1.08-1.1-1.712-1.504-1.894-.469.729-1.302 2.727-2.5 5.996-.208.573-.397 1.103-.566 1.592-.17.488-.313.882-.43 1.181l-1.211-.058-4.883-11.29a.524.524 0 0 1-.039-.195c0-.065.023-.13.068-.195a.578.578 0 0 1 .245-.176 1.98 1.98 0 0 1 .664-.117c.221 0 .381.042.478.127a.919.919 0 0 1 .235.322c.058.13.107.274.146.43.039.156.114.358.225.605l.488 1.094c.215.482.446.99.693 1.523.248.534.495 1.065.743 1.592.247.528.481 1.013.703 1.455.468.977.761 1.524.879 1.641 1.51-3.724 2.441-5.934 2.793-6.63a32.71 32.71 0 0 1 .664-1.28c.143-.222.253-.332.332-.332.56 0 1.504 1.25 2.832 3.75.364.664.703 1.302 1.015 1.914.768 1.484 1.244 2.344 1.426 2.578zm14.629-3.906h.547c.221 0 .433.02.635.058.201.04.302.183.302.43.091.52-.215.775-.918.762a41.502 41.502 0 0 1-.537-.04 2.923 2.923 0 0 0-.4-.01c-.104.008-.15.043-.137.108.13.378.27.801.42 1.27.15.469.316.937.498 1.406.469 1.159.912 1.992 1.328 2.5a3.073 3.073 0 0 1-.771.684c-.293.182-.449.273-.469.273a.066.066 0 0 1-.049-.02l-2.754-5.8-5.332 1.309-.195.82c-.378 1.497-.801 2.539-1.27 3.125-.078.13-.24.143-.488.039-.417-.156-.625-.287-.625-.39 0-.027.137-.404.41-1.134l.83-2.216.879-2.354c.306-.82.596-1.602.869-2.344.274-.742.521-1.41.743-2.002.221-.592.377-1.022.468-1.289.091-.267.153-.501.186-.703.032-.202.081-.374.146-.517.131-.3.456-.45.977-.45.56.313.993.72 1.299 1.221.306.501.566 1.038.781 1.611.215.573.426 1.153.635 1.739.208.586.488 1.12.84 1.601a.63.63 0 0 0 .527.293c.234.013.443.02.625.02zm-4.883-4.219a9 9 0 0 1-.703 2.441 68.43 68.43 0 0 1-.879 1.944c-.221.462-.41.889-.566 1.28.885 0 1.972-.261 3.261-.782.326-.143.638-.274.938-.39-.612-2.618-1.296-4.115-2.051-4.493zm9.277-.234c.717-.69 2.012-1.035 3.887-1.035 1.172 0 2.155.117 2.949.351.795.234 1.39.482 1.788.742.397.26.595.547.595.86 0 .716-.833 1.425-2.5 2.129-.247.117-.895.354-1.943.712s-1.755.603-2.119.733c-.795.3-1.322.534-1.582.703 0 .065.026.12.078.166.052.045.176.124.371.234.195.111.488.267.879.47.39.2.931.49 1.621.868a227.686 227.686 0 0 1 6.348 3.594c.104.078.24.185.41.322.169.137.254.287.254.45 0 .162-.052.276-.157.341a1.186 1.186 0 0 1-.371.147 2.023 2.023 0 0 1-.449.049h-.391c-.26 0-.804-.28-1.63-.84-.827-.56-1.543-1.048-2.149-1.465a49.548 49.548 0 0 0-1.846-1.211c-1.471-.95-2.636-1.569-3.496-1.855v4.472c0 .26-.221.39-.664.39h-.215c-.273 0-.475-.136-.605-.41-.182-.416-.273-1.184-.273-2.304l.058-3.926c0-1.927-.084-3.62-.254-5.078.313-.534.697-.514 1.153.059.104.13.188.24.253.332zm6.602.234-1.269-.02c-2.943 0-4.636.339-5.079 1.016-.13.182-.195.413-.195.694 0 .28.013.524.039.732.065.534.215.918.449 1.152.039.013.108.02.205.02.098 0 .28-.026.547-.078a11.44 11.44 0 0 0 1.075-.284 21.33 21.33 0 0 0 1.435-.498c.508-.195.996-.397 1.465-.605 1.471-.664 2.207-1.204 2.207-1.621 0-.235-.293-.404-.879-.508zm7.402-.625c.964-.338 2.24-.508 3.829-.508 2.903 0 4.889.716 5.957 2.149.416.547.625 1.243.625 2.09.013.117.019.234.019.351 0 1.302-.762 2.624-2.285 3.965-1.393 1.263-3.112 2.279-5.156 3.047-1.355.52-2.474.781-3.36.781-.364 0-.677-.052-.937-.156V30.616h.273c.3 0 .541.05.723.147.182.097.286.205.312.322zm9.102 3.887c-.117-1.16-.762-2.019-1.934-2.578-.872-.417-1.966-.625-3.281-.625l-.351.02c-1.237.025-2.305.22-3.204.585v9.316c.912 0 2.051-.331 3.418-.996 2.37-1.172 3.998-2.532 4.883-4.082.313-.547.469-1.093.469-1.64zm14.812 4.414-.007-.098a.174.174 0 0 1 .007.098zm0 0c-.05.195-.514.293-1.394.293l-.547-.02c-.052-.026-.091-.13-.117-.312-.065-.313-.117-.508-.156-.586.117-.235.735-.397 1.855-.489.234-.026.391-.045.469-.058v-2.598h-.469c-2.018 0-3.379-.3-4.082-.898a.948.948 0 0 1-.332-.742 3.095 3.095 0 0 1-.039-.567c0-.247.13-.556.391-.928.26-.37.625-.706 1.093-1.005a7.227 7.227 0 0 1 2.793-1.055V25.89h.957l.645 3.886h3.906v.82l-3.555.489-.019 3.73h4.433c.014.118.02.306.02.567 0 .26-.068.566-.205.918-.137.351-.335.66-.596.928-.26.267-.56.488-.898.664-.339.175-.668.332-.987.468a25.33 25.33 0 0 0-.869.391c-.26.124-.455.27-.586.44l.352 3.222v.215c0 .195-.254.345-.762.45a5.673 5.673 0 0 1-1.035.077l-.266-3.77zm4.348-3.594c-.13-.208-.43-.312-.898-.312-.326 0-.674.045-1.045.136-.371.091-.642.176-.811.254l.117 1.7c1.758-.508 2.637-1.1 2.637-1.778zm-6.23-1.113.839-.02h.508c.157 0 .29-.003.401-.01.11-.006.192-.01.244-.01l-.332-2.91c0-.012-.049-.029-.147-.048a2.003 2.003 0 0 0-.381-.03c-.156 0-.384.066-.683.196-.3.13-.586.3-.86.508-.612.481-.917.983-.917 1.504 0 .546.442.82 1.328.82zm13.014 4.707-.007-.098a.158.158 0 0 1 .007.098zm0 0c-.049.195-.513.293-1.393.293l-.547-.02c-.052-.026-.091-.13-.117-.312-.065-.313-.118-.508-.157-.586.118-.235.736-.397 1.856-.489.234-.026.391-.045.469-.058v-2.598h-.469c-2.018 0-3.379-.3-4.082-.898a.948.948 0 0 1-.332-.742 3.095 3.095 0 0 1-.039-.567c0-.247.13-.556.39-.928.261-.37.625-.706 1.094-1.005a7.221 7.221 0 0 1 2.793-1.055V25.89h.957l.645 3.886h3.906v.82l-3.555.489-.019 3.73h4.433c.013.118.02.306.02.567 0 .26-.069.566-.205.918-.137.351-.336.66-.596.928-.26.267-.56.488-.898.664-.339.175-.668.332-.987.468a25.33 25.33 0 0 0-.869.391c-.26.124-.456.27-.586.44l.352 3.222v.215c0 .195-.254.345-.762.45a5.673 5.673 0 0 1-1.035.077l-.267-3.77zm4.349-3.594c-.13-.208-.43-.312-.899-.312-.325 0-.673.045-1.044.136-.372.091-.642.176-.811.254l.117 1.7c1.758-.508 2.637-1.1 2.637-1.778zm-6.231-1.113.84-.02h.508c.156 0 .29-.003.4-.01.111-.006.193-.01.245-.01l-.332-2.91c0-.012-.049-.029-.147-.048a2.01 2.01 0 0 0-.381-.03c-.156 0-.384.066-.683.196-.3.13-.586.3-.86.508-.612.481-.918.983-.918 1.504 0 .546.443.82 1.328.82zm13.015 4.707-.007-.098a.166.166 0 0 1 .007.098zm0 0c-.049.195-.514.293-1.393.293l-.547-.02c-.052-.026-.091-.13-.118-.312-.065-.313-.117-.508-.156-.586.117-.235.736-.397 1.856-.489.234-.026.39-.045.468-.058v-2.598h-.468c-2.019 0-3.379-.3-4.082-.898a.945.945 0 0 1-.332-.742 3.095 3.095 0 0 1-.039-.567c0-.247.13-.556.39-.928.261-.37.625-.706 1.094-1.005a7.215 7.215 0 0 1 2.793-1.055V25.89h.957l.644 3.886h3.907v.82l-3.555.489-.019 3.73h4.433c.013.118.02.306.02.567 0 .26-.069.566-.205.918-.137.351-.336.66-.596.928-.261.267-.56.488-.899.664-.338.175-.667.332-.986.468-.319.137-.609.267-.869.391s-.456.27-.586.44l.352 3.222v.215c0 .195-.254.345-.762.45a5.688 5.688 0 0 1-1.035.077l-.267-3.77zm4.349-3.594c-.13-.208-.43-.312-.899-.312-.325 0-.674.045-1.045.136-.371.091-.641.176-.81.254l.117 1.7c1.758-.508 2.637-1.1 2.637-1.778zm-6.231-1.113.84-.02h.508c.156 0 .29-.003.4-.01.111-.006.192-.01.244-.01l-.332-2.91c0-.012-.048-.029-.146-.048a2.017 2.017 0 0 0-.381-.03c-.156 0-.384.066-.684.196-.299.13-.585.3-.859.508-.612.481-.918.983-.918 1.504 0 .546.443.82 1.328.82z" fill="#999"/><defs><filter id="a" x="119.811" y="11.448" width="221.011" height="364.37" filterUnits="userSpaceOnUse" color-interpolation-filters="sRGB"><feFlood flood-opacity="0" result="BackgroundImageFix"/><feColorMatrix in="SourceAlpha" values="0 0 0 0 0 0 0 0 0 0 0 0 0 0 0 0 0 0 127 0" result="hardAlpha"/><feOffset dy="2"/><feGaussianBlur stdDeviation="2"/><feColorMatrix values="0 0 0 0 0 0 0 0 0 0 0 0 0 0 0 0 0 0 0.314 0"/><feBlend in2="BackgroundImageFix" result="effect1_dropShadow_125_5547"/><feBlend in="SourceGraphic" in2="effect1_dropShadow_125_5547" result="shape"/></filter></defs></svg>