<svg width="493" height="172" fill="none" xmlns="http://www.w3.org/2000/svg"><g opacity=".8"><ellipse cx="59.5" cy="157" rx="59.5" ry="15" fill="#F2F2F2"/><path opacity=".5" d="M209.098 7.958H493V0H202v84h7.098V7.958z" fill="#fff"/><circle cx="405" cy="153" r="10" fill="url(#a)"/><circle cx="404" cy="153" r="7" fill="#5689C9"/><path d="M117 45h305v107H117V45z" fill="url(#b)"/><path d="M126 49h291v84H126V49z" fill="#fff"/><path d="M135 117h269-269z" fill="url(#c)"/><path d="M135 117h269" stroke="#5689C9" stroke-width="3"/><path d="M138 66h40v49h-40V66z" fill="url(#d)"/><path d="M141 68h35v45h-35V68zM362 101h35v14h-35v-14zM296 82h35v32h-35V82zM218 87h35v26h-35V87z" fill="#EA8A7F"/><path d="M126 133h291v12H126v-12z" fill="#5689C9"/><circle cx="139" cy="153" r="10" fill="url(#e)"/><circle cx="138" cy="153" r="7" fill="#5689C9"/><path d="M119 53h7v93h-7V53z" fill="#5689C9"/><path opacity=".2" d="M119 53h7v93h-7V53z" fill="#5689C9"/><path d="M126 62.762v-.714c0-.141 0-.185-.053-.273-.053-.089-.062-.265-.106-.388-.044-.124-.053-.168-.088-.256-.036-.088-.106-.247-.159-.37l-.106-.22a5.333 5.333 0 0 0-.23-.362l-.115-.168a5.922 5.922 0 0 0-.371-.458 8.503 8.503 0 0 0-2.465-1.816 7.085 7.085 0 0 0 1.581-2.715 5.64 5.64 0 0 0 .213-.829v-.255c.023-.17.038-.34.044-.512v-.714c0-.14 0-.185-.053-.273-.053-.088-.062-.265-.106-.388-.045-.123-.053-.168-.089-.256-.035-.088-.106-.247-.159-.37l-.106-.22a4.958 4.958 0 0 0-.229-.362l-.115-.167a5.922 5.922 0 0 0-.371-.459 8.902 8.902 0 0 0-3.137-2.115s-5.61 2.071-5.981 4.346c-4.117.881-28.112 5.862-44.59 5.465l-.123-.326a14.62 14.62 0 0 0-7.801-12.932v-5.536c.012-.235.012-.47 0-.706a6.504 6.504 0 0 0-.106-.67l.106-.061.45-.247.654-.397.415-.273c.307-.212.601-.435.884-.67l.335-.29c.204-.177.398-.354.593-.539l.344-.335c.242-.246.471-.5.69-.758l.238-.3c.206-.258.403-.523.592-.793l.238-.361c.171-.265.336-.535.495-.811l.15-.265c.195-.352.371-.723.53-1.093l.133-.335c.123-.3.235-.593.335-.881l.106-.327c.124-.405.23-.81.319-1.225 0-.08 0-.168.044-.247.064-.352.118-.708.159-1.067v-.361c0-.44.07-.881.07-1.331a14.53 14.53 0 0 0-1.881-7.15c.945-.229 1.52-.414 1.448-.502a25.322 25.322 0 0 0-1.104-1.384l-.362-.414c-.265-.3-.521-.582-.786-.882l-.424-.432c-.266-.264-.53-.511-.796-.75l-.415-.37a41.142 41.142 0 0 0-1.007-.82l-.22-.176c-.407-.3-.814-.581-1.229-.881l-.46-.282a10.715 10.715 0 0 0-.812-.467l-.548-.283-.76-.361-.556-.247a12.848 12.848 0 0 0-.813-.308l-.504-.185a21.268 21.268 0 0 0-1.219-.362l-.627-.14-.68-.142-.68-.106-.628-.07L53.298 8h-1.299c-.383 0-.765.018-1.148.053-9.038.74-16.954 8.613-16.954 21.157v10.35h14.136v4.707a14.623 14.623 0 0 0-8.517 13.267v40.12l-11.998 54.999h-.16L25 163.153l16.928 2.732.733.115c1.767-.758-1.193-4.311-2.527-7.052a7.58 7.58 0 0 1-.353-.882 6.663 6.663 0 0 1-.336-1.71l13.005-42.57h-.062l.31-.996s16.556 7.052 20.814 21.236c3.455 11.46 1.308 18.918.371 21.334h-.062v.141c-.185.458-.318.714-.318.714h.318v7.784h17.9c1.66-.838-1.864-3.279-3.623-5.289a4.998 4.998 0 0 1-1.166-2.248h.3l.142-.635c4.579-21.219-2.431-43.272-18.43-57.98a.682.682 0 0 0 .08-.15 65.507 65.507 0 0 0 3.101-15.92c13.685 1.305 31.894.37 45.508-10.156 1.3-.98 2.542-2.033 3.72-3.156 1.175-.088 3.233-.74 4.373-4.055.092-.27.163-.547.212-.828v-.256c.032-.187.053-.375.062-.564z" fill="url(#f)"/><path d="M53.81 77.113S95.119 90.206 118 68.332L113.147 62s-44.39 9.862-54.968 2.635c-10.578-7.228-4.368 12.478-4.368 12.478z" fill="#5689C9"/><path opacity=".2" d="m118.183 68 .817 1.075c-23.094 22.32-64.733 8.957-64.733 8.957s-.107-.34-.267-.896c4.965 1.496 42.652 11.716 64.183-9.136z" fill="#fff"/><path d="M118.672 69.948s3.451.814 5.041-4.005C125.304 61.124 119.76 59 119.76 59s-5.778 2.218-5.76 4.576c.018 2.358 4.672 6.372 4.672 6.372z" fill="#985454"/><path opacity=".2" d="M117.142 68.278s3.438.733 5.023-3.605a3.862 3.862 0 0 0-.403-3.673c1.188 1.152 1.558 2.847.949 4.347-1.585 4.346-5.022 3.605-5.022 3.605a23.674 23.674 0 0 1-3.689-3.63 25.943 25.943 0 0 0 3.142 2.956z" fill="#fff"/><path d="M75 151h12.096a3.94 3.94 0 0 0 1.14 3.094c1.63 1.872 4.903 4.135 3.362 4.906H75v-8z" fill="#5689C9"/><path opacity=".2" d="M87.195 154.094A3.862 3.862 0 0 1 86.013 151h.902a3.862 3.862 0 0 0 1.183 3.094c1.689 1.872 5.083 4.135 3.485 4.906h-.903c1.598-.771-1.796-3.025-3.485-4.906z" fill="#fff"/><path d="m31.224 149 11.38 1.942a6.256 6.256 0 0 0 .517 4.175c1.243 2.735 4.036 6.145 2.355 6.883L29 159.265 31.224 149z" fill="#5689C9"/><path opacity=".2" d="M41.233 154.144a6.174 6.174 0 0 1-.524-4.175L30 148.146V148l11.553 1.942a6.173 6.173 0 0 0 .525 4.175c1.261 2.735 4.096 6.145 2.39 6.883l-.702-.119c1.315-.893-1.324-4.166-2.533-6.737z" fill="#fff"/><path d="M56.5 54c-3.59 0-6.5-2.87-6.5-6.41v-6.18c0-3.54 2.91-6.41 6.5-6.41s6.5 2.87 6.5 6.41v6.18c0 3.54-2.91 6.41-6.5 6.41z" fill="#985454"/><circle cx="55" cy="28" r="14" fill="#985454"/><path opacity=".2" d="M60.445 47.683v-6.064c0-.444-.046-.886-.136-1.32 5.319-2.872 8.149-9.134 6.907-15.284C65.975 18.865 60.97 14.353 55 14h.746c6.117-.002 11.44 4.4 12.88 10.65 1.44 6.25-1.376 12.725-6.815 15.667.09.433.135.876.135 1.32V47.7c.016 1.812-.718 3.54-2.01 4.739-1.293 1.198-3.017 1.747-4.724 1.503 2.993-.407 5.233-3.087 5.233-6.26z" fill="#fff"/><path d="M41 96.664s26.909 3.006 27.9 0c6.975-21.16 0-37.857 0-37.857C68.9 51.18 62.654 45 54.95 45 47.246 45 41 51.181 41 58.807v37.857z" fill="#5689C9"/><path d="M42.14 97 30 153h12.14l12.585-41.545s15.734 6.775 19.775 20.324c4.04 13.55 0 21.221 0 21.221h13.058l.134-.609C92.058 132.084 85.328 110.978 70.03 97" fill="#9B9B9B"/><path opacity=".2" d="M68.09 96.635c6.996-21.16 0-37.856 0-37.856C68.09 51.5 62.362 45.471 55 45h.896c7.729 0 13.994 6.181 13.994 13.806 0 0 6.997 16.705 0 37.855-.358 1.079-4.05 1.38-8.636 1.335 3.727-.08 6.53-.433 6.835-1.361z" fill="#fff"/><g opacity=".2" fill="#fff"><path d="m54.597 112.144-12.305 40.359h-1.777l12.536-41.113s.578.249 1.546.754zM68.262 97.086h1.777c15.237 13.833 21.94 34.719 17.591 54.814l-.133.603H85.72l.133-.603c4.349-20.095-2.354-40.981-17.591-54.814z"/></g><path d="M51.81 68.113S93.119 81.206 116 59.331L111.147 53s-44.39 9.862-54.968 2.635c-10.578-7.228-4.368 12.478-4.368 12.478z" fill="#5689C9"/><path opacity=".2" d="m116.183 60 .817 1.075c-23.094 22.32-64.733 8.957-64.733 8.957s-.107-.34-.267-.896c4.965 1.496 42.652 11.716 64.183-9.136z" fill="#fff"/><path d="M115.672 60.948s3.451.814 5.041-4.005C122.304 52.124 116.76 50 116.76 50s-5.778 2.218-5.76 4.576c.018 2.358 4.672 6.372 4.672 6.372z" fill="#985454"/><path opacity=".2" d="M115.142 59.278s3.438.733 5.023-3.605a3.862 3.862 0 0 0-.403-3.673c1.188 1.152 1.558 2.847.949 4.347-1.585 4.346-5.022 3.605-5.022 3.605a23.674 23.674 0 0 1-3.689-3.63 25.943 25.943 0 0 0 3.142 2.956z" fill="#fff"/><path d="M56.51 23.349 55.62 42H36v-9.903C36 12.211 57.108 4.662 68.995 20.64c.294.435-12.485 2.709-12.485 2.709z" fill="#263238"/><path opacity=".2" d="M52 12.047c5.034.41 10.211 3.131 14.303 8.602.296.392-12.562 2.67-12.562 2.67L52.843 42h2.692l.898-18.682s12.858-2.277 12.562-2.669C64.176 14.191 57.841 11.611 52 12.047z" fill="#fff"/></g><defs><linearGradient id="a" x1="15827.4" y1="14136.6" x2="15827.4" y2="13696.6" gradientUnits="userSpaceOnUse"><stop stop-color="gray" stop-opacity=".25"/><stop offset=".54" stop-color="gray" stop-opacity=".12"/><stop offset="1" stop-color="gray" stop-opacity=".1"/></linearGradient><linearGradient id="b" x1="203894" y1="73626.8" x2="203894" y2="60679.8" gradientUnits="userSpaceOnUse"><stop stop-color="gray" stop-opacity=".25"/><stop offset=".54" stop-color="gray" stop-opacity=".12"/><stop offset="1" stop-color="gray" stop-opacity=".1"/></linearGradient><linearGradient id="c" x1="-nan" y1="-nan" x2="-nan" y2="-nan" gradientUnits="userSpaceOnUse"><stop stop-color="gray" stop-opacity=".25"/><stop offset=".54" stop-color="gray" stop-opacity=".12"/><stop offset="1" stop-color="gray" stop-opacity=".1"/></linearGradient><linearGradient id="d" x1="20522.8" y1="31704.3" x2="20522.8" y2="29009.3" gradientUnits="userSpaceOnUse"><stop stop-color="gray" stop-opacity=".25"/><stop offset=".54" stop-color="gray" stop-opacity=".12"/><stop offset="1" stop-color="gray" stop-opacity=".1"/></linearGradient><linearGradient id="e" x1="9541.4" y1="14136.6" x2="9541.4" y2="13696.6" gradientUnits="userSpaceOnUse"><stop stop-color="gray" stop-opacity=".25"/><stop offset=".54" stop-color="gray" stop-opacity=".12"/><stop offset="1" stop-color="gray" stop-opacity=".1"/></linearGradient><linearGradient id="f" x1="49146.3" y1="121027" x2="60690.6" y2="121027" gradientUnits="userSpaceOnUse"><stop stop-color="gray" stop-opacity=".25"/><stop offset=".54" stop-color="gray" stop-opacity=".12"/><stop offset="1" stop-color="gray" stop-opacity=".1"/></linearGradient></defs></svg>