<svg width="222" height="175" fill="none" xmlns="http://www.w3.org/2000/svg"><ellipse cx="111" cy="130" rx="111" ry="45" fill="#F2F2F2"/><path d="m161.865 50.376-56.902-13.707v107.258l56.902-14.896V50.376z" fill="#535461"/><path opacity=".979" d="m161.865 50.376-56.902-13.707v107.258l56.902-14.896V50.376z" fill="#CACACA"/><path d="m48.062 50.376 56.901-13.707v107.258l-56.901-14.6V50.376z" fill="#535461"/><path opacity=".979" d="m48.062 49.243 56.901-13.646v107.258l-56.901-14.536V49.243z" fill="#CACACA"/><path d="M104.963 36.906 135.333 12 193 26.6l-30.371 24.013-57.666-13.707z" fill="#E9F0F8"/><path opacity=".01" d="m19.073 27.082 29.49 23.53 57.473-13.877L76.848 12 19.073 27.082z" fill="#535461"/><path opacity=".892" d="m19.073 26.897 29.96 23.716 57.003-13.707L76.376 12 19.072 26.897z" fill="#D4E1F1"/><path d="M48.062 50.613v79.657L105.264 145l.772-79.056-57.976-15.331z" fill="#D4E1F1"/><path d="M161.865 129.971 104.963 145V65.944l56.902-15.331v79.358z" fill="#535461"/><path d="M161.865 129.971 104.963 145V65.944l56.902-15.331v79.358z" fill="#D4E1F1"/><path opacity=".07" d="M139.319 101.919v25.92l22.546-6.256V95.661l-22.546 6.258z" fill="#000"/><path opacity=".1" d="m46.987 90.786 32.142 8.093 25.834-20.986v-12.89l-57.376-14.39-.6 40.173z" fill="#000"/><path opacity=".101" d="m162.938 90.786-32.141 8.093-25.834-20.986v-12.89l57.375-14.39.6 40.173z" fill="#000"/><path d="M47.49 50.613 18 74.858l57.474 14.368 29.489-23.347L47.49 50.613z" fill="#E9F0F8"/><path d="m162.238 50.613 29.688 24.245-56.975 14.368-29.988-23.347 57.275-15.266z" fill="#535461"/><path d="m191.926 74.858-56.975 14.368-29.988-23.347 57.275-15.266 29.688 24.245z" fill="#D4E1F1"/><g><g filter="url(#a)"><path d="M103.679 7.464a1 1 0 0 1 1.688 0l28.524 44.91a1 1 0 0 1-.844 1.535H76a1 1 0 0 1-.844-1.536l28.523-44.909z" fill="#DACE00"/></g><path fill-rule="evenodd" clip-rule="evenodd" d="M106.392 23v9.152a40.4 40.4 0 0 1-.096 2.792c-.032.464-.072.939-.12 1.424a96.693 96.693 0 0 1-.168 1.56h-1.936a96.693 96.693 0 0 1-.168-1.56c-.048-.485-.088-.96-.12-1.424a40.773 40.773 0 0 1-.096-2.792V23h2.704zM103 44.168a2.04 2.04 0 0 1 .568-1.424c.176-.181.387-.325.632-.432.245-.107.507-.16.784-.16s.539.053.784.16c.245.107.459.25.64.432.181.181.323.395.424.64.101.245.152.507.152.784a1.966 1.966 0 0 1-.576 1.424 1.944 1.944 0 0 1-.64.424 2.034 2.034 0 0 1-.784.152c-.277 0-.539-.05-.784-.152a1.86 1.86 0 0 1-.632-.424 2.028 2.028 0 0 1-.416-.632 2.022 2.022 0 0 1-.152-.792z" fill="#000"/></g><defs><filter id="a" x="65.998" y="0" width="77.051" height="64.909" filterUnits="userSpaceOnUse" color-interpolation-filters="sRGB"><feFlood flood-opacity="0" result="BackgroundImageFix"/><feColorMatrix in="SourceAlpha" values="0 0 0 0 0 0 0 0 0 0 0 0 0 0 0 0 0 0 127 0" result="hardAlpha"/><feOffset dy="2"/><feGaussianBlur stdDeviation="4.5"/><feColorMatrix values="0 0 0 0 0 0 0 0 0 0 0 0 0 0 0 0 0 0 0.278787 0"/><feBlend in2="BackgroundImageFix" result="effect1_dropShadow_116_8223"/><feBlend in="SourceGraphic" in2="effect1_dropShadow_116_8223" result="shape"/></filter></defs></svg>