<svg width="208" height="169" fill="none" xmlns="http://www.w3.org/2000/svg"><ellipse cx="103.525" cy="127" rx="103.525" ry="42" fill="#F2F2F2"/><g opacity=".7"><path d="m151.208 53.024-53.8-12.967v101.486l53.8-14.094V53.024z" fill="url(#a)"/><path d="m151.208 53.024-53.8-12.967v101.486l53.8-14.094V53.024z" fill="url(#b)" opacity=".1"/><path d="m43.603 53.024 53.804-12.967v101.486l-53.803-13.814V53.024z" fill="url(#c)"/><path d="m43.603 53.024 53.804-12.967v101.486l-53.803-13.814V53.024z" fill="url(#d)" opacity=".17"/><path d="m97.407 40.057 27.886-23.116 53.802 13.814-27.887 22.269-53.8-12.967z" fill="url(#e)"/><path d="m16 31.035 27.604 21.989 53.803-12.967L70.084 16.94 16 31.035z" fill="url(#f)"/><path d="m16 31.035 27.604 21.989 53.803-12.967L70.084 16.94 16 31.035z" fill="url(#g)" opacity=".05"/><path d="M57.503 32.826a4.5 4.5 0 0 1 4.5-4.5h30.934a4.5 4.5 0 0 1 4.5 4.5v27.875a4.5 4.5 0 0 1-4.5 4.5H62.003a4.5 4.5 0 0 1-4.5-4.5V32.826z" fill="url(#h)" opacity=".5"/><path d="M57.99 33.111a4.5 4.5 0 0 1 4.5-4.5h30.013a4.5 4.5 0 0 1 4.5 4.5v26.98a4.5 4.5 0 0 1-4.5 4.5H62.49a4.5 4.5 0 0 1-4.5-4.5v-26.98z" fill="url(#i)"/><path d="M60.995 37.5a2.963 2.963 0 0 1 2.963-2.963h.653a2.963 2.963 0 0 1 0 5.927h-.653a2.963 2.963 0 0 1-2.963-2.963z" fill="url(#j)"/><path d="M69.548 34.867a.33.33 0 0 1 .329-.33h25.497a.33.33 0 0 1 0 .659H69.877a.33.33 0 0 1-.33-.33z" fill="url(#k)"/><path d="M69.548 36.841c0-.181.147-.329.329-.329h25.497a.329.329 0 1 1 0 .658H69.877a.329.329 0 0 1-.33-.329z" fill="url(#l)"/><path d="M60.338 44.013a.33.33 0 0 1 .329-.33h34.707a.33.33 0 0 1 0 .66H60.667a.33.33 0 0 1-.33-.33z" fill="url(#m)"/><path d="M60.338 45.988c0-.182.147-.33.329-.33h34.707a.329.329 0 1 1 0 .659H60.667a.329.329 0 0 1-.33-.33z" fill="url(#n)"/><path d="M60.338 48.62a.33.33 0 0 1 .329-.328h34.707a.33.33 0 0 1 0 .658H60.667a.329.329 0 0 1-.33-.33z" fill="url(#o)"/><path d="M60.338 50.598a.33.33 0 0 1 .329-.33h19.737a.33.33 0 0 1 0 .659H60.668a.33.33 0 0 1-.33-.33z" fill="url(#p)"/><path d="M60.338 53.224a.33.33 0 0 1 .329-.33h34.707a.33.33 0 0 1 0 .659H60.667a.33.33 0 0 1-.33-.33z" fill="url(#q)"/><path d="M60.338 55.199a.33.33 0 0 1 .329-.33h34.707a.33.33 0 0 1 0 .659H60.667a.33.33 0 0 1-.33-.33z" fill="url(#r)"/><path d="M60.338 57.834a.33.33 0 0 1 .329-.33h34.707a.33.33 0 0 1 0 .659H60.667a.329.329 0 0 1-.33-.33z" fill="url(#s)"/><path d="M60.338 59.808a.33.33 0 0 1 .329-.329h19.737a.33.33 0 0 1 0 .659H60.668a.329.329 0 0 1-.33-.33z" fill="url(#t)"/><path d="M63.528 41.346a4.5 4.5 0 0 1 4.5-4.5h30.934a4.5 4.5 0 0 1 4.5 4.5V69.22a4.5 4.5 0 0 1-4.5 4.5H68.028a4.5 4.5 0 0 1-4.5-4.5V41.346z" fill="url(#u)" opacity=".5"/><path d="M64.016 41.633a4.5 4.5 0 0 1 4.5-4.5h30.013a4.5 4.5 0 0 1 4.5 4.5v26.98a4.5 4.5 0 0 1-4.5 4.5H68.516a4.5 4.5 0 0 1-4.5-4.5v-26.98z" fill="url(#v)"/><path d="M67.022 46.022a2.963 2.963 0 0 1 2.963-2.963h.653a2.963 2.963 0 1 1 0 5.926h-.653a2.963 2.963 0 0 1-2.963-2.963z" fill="url(#w)"/><path d="M75.576 43.388c0-.182.148-.329.33-.329h25.496a.329.329 0 1 1 0 .658H75.905a.33.33 0 0 1-.329-.329z" fill="url(#x)"/><path d="M75.576 45.363c0-.182.148-.33.33-.33h25.496a.329.329 0 1 1 0 .659H75.905a.329.329 0 0 1-.329-.33z" fill="url(#y)"/><path d="M66.364 52.532a.33.33 0 0 1 .33-.329H101.4a.33.33 0 1 1 0 .658H66.693a.33.33 0 0 1-.329-.329z" fill="url(#z)"/><path d="M66.364 54.51c0-.183.148-.33.33-.33H101.4a.33.33 0 1 1 0 .658H66.693a.33.33 0 0 1-.329-.329z" fill="url(#A)"/><path d="M66.364 57.142a.33.33 0 0 1 .33-.329H101.4a.33.33 0 1 1 0 .658H66.693a.33.33 0 0 1-.329-.329z" fill="url(#B)"/><path d="M66.364 59.117a.33.33 0 0 1 .33-.33H86.43a.33.33 0 0 1 0 .659H66.693a.33.33 0 0 1-.329-.33z" fill="url(#C)"/><path d="M66.364 61.745a.33.33 0 0 1 .33-.329H101.4a.33.33 0 1 1 0 .659H66.693a.33.33 0 0 1-.329-.33z" fill="url(#D)"/><path d="M66.364 63.72a.33.33 0 0 1 .33-.33H101.4a.33.33 0 1 1 0 .66H66.693a.33.33 0 0 1-.329-.33z" fill="url(#E)"/><path d="M66.364 66.355a.33.33 0 0 1 .33-.329H101.4a.33.33 0 1 1 0 .658H66.693a.33.33 0 0 1-.329-.329z" fill="url(#F)"/><path d="M66.364 68.33a.33.33 0 0 1 .33-.33H86.43a.33.33 0 0 1 0 .66H66.693a.33.33 0 0 1-.329-.33z" fill="url(#G)"/><path d="M86.751 41.618h34.601v40.686H86.751V41.618z" fill="url(#H)" opacity=".5"/><path d="M87.815 42.274h32.802v39.132H87.815V42.274z" fill="url(#I)"/><path fill-rule="evenodd" clip-rule="evenodd" d="M106.002 47.513v.983h2.502v4.828h-8.577v-4.828h2.508v-.983h3.567zm-.456.354h-2.666v.625h2.666v-.625z" fill="url(#J)" opacity=".5"/><path d="M100.289 48.658h7.853v4.421h-7.853v-4.42z" fill="url(#K)"/><path d="M102.58 47.758v1.147h.409v-.818h2.453v.818h.409v-1.147h-3.271z" fill="url(#L)"/><path d="M92.724 59.441h23.066v.983H92.724v-.983z" fill="url(#M)"/><path d="M92.724 65.908h23.066v.983H92.724v-.983z" fill="url(#N)"/><path d="M92.724 67.627h23.066v.983H92.724v-.983z" fill="url(#O)"/><path d="M92.724 64.19h9.734v.982h-9.734v-.983z" fill="url(#P)"/><path d="M108.511 64.19h7.279v.982h-7.279v-.983z" fill="url(#Q)" opacity=".6"/><path d="M100.82 71.639h7.28v.983h-7.28v-.983z" fill="url(#R)"/><path d="M43.603 53.024v74.705l53.804 13.814v-74.14l-53.803-14.38z" fill="url(#S)"/><path d="m151.208 127.449-53.8 14.094v-74.14l53.8-14.38v74.426z" fill="url(#T)"/><path d="m151.208 127.449-53.8 14.094v-74.14l53.8-14.38v74.426z" fill="url(#U)" opacity=".07"/><path d="M129.8 102.641v24.526l21.409-5.92V96.721l-21.409 5.92z" fill="url(#V)" opacity=".07"/><path d="M123.052 46.793h15.867V62.05h-15.867V46.793z" fill="url(#W)"/><path d="M123.301 47.166h15.369V61.74h-15.369V47.166z" fill="url(#X)"/><path fill-rule="evenodd" clip-rule="evenodd" d="M132.343 48.979v.742h1.905V53.4h-6.526v-3.674h1.904v-.747h2.717zm-.337.267h-2.04v.475h2.04v-.475z" fill="url(#Y)" opacity=".5"/><path d="M127.998 49.846h5.973v3.362h-5.973v-3.362z" fill="url(#Z)" opacity=".6"/><path d="M129.739 49.159v.874h.314v-.623h1.866v.623h.311v-.874h-2.491z" fill="url(#aa)" opacity=".6"/><path d="M128.34 55.823h5.537v.748h-5.537v-.748z" fill="url(#ab)" opacity=".6"/><path d="M126.256 57.193h9.459v.748h-9.459v-.748z" fill="url(#ac)"/><path d="M85.436.153h20.557v16.901H85.436V.154z" fill="url(#ad)" opacity=".5"/><path d="M85.675.474h20.04v16.3h-20.04V.474z" fill="url(#ae)"/><path d="M85.675.474h20.04V4.11h-20.04V.474z" fill="url(#af)"/><path d="M85.675.474h20.04V4.11h-20.04V.474z" fill="url(#ag)" opacity=".1"/><path d="M87.272 5.428h16.848v2.117H87.272V5.428z" fill="url(#ah)"/><path d="M87.272 9.144H99.57v.718H87.272v-.718z" fill="url(#ai)"/><path d="M87.272 10.383h7.984v.718h-7.984v-.718z" fill="url(#aj)"/><path d="M87.272 11.621h10.54v.719h-10.54v-.719z" fill="url(#ak)"/><path d="M87.272 12.858H99.57v.718H87.272v-.718z" fill="url(#al)"/><path d="M87.272 14.097h4.111v.718h-4.11v-.718z" fill="url(#am)"/><path d="M115.661 12.845h25.482V33.79h-25.482V12.845z" fill="url(#an)" opacity=".5"/><path d="M115.959 13.24h24.84v20.203h-24.84V13.24z" fill="url(#ao)"/><path d="M115.959 13.24h24.84v4.506h-24.84V13.24z" fill="url(#ap)"/><path d="M117.937 19.38h20.88v2.624h-20.88V19.38z" fill="url(#aq)"/><path d="M117.937 23.986h15.24v.891h-15.24v-.891z" fill="url(#ar)"/><path d="M117.937 25.52h9.896v.892h-9.896v-.892z" fill="url(#as)"/><path d="M117.937 27.057H131v.891h-13.063v-.891z" fill="url(#at)"/><path d="M117.937 28.591h15.24v.892h-15.24v-.892z" fill="url(#au)"/><path d="M117.937 30.125h5.097v.892h-5.097v-.892z" fill="url(#av)"/><path d="M119.025 20.272h5.938v.792h-5.938v-.792z" fill="url(#aw)"/><path d="m42.901 91.786 30.14 7.612 24.224-19.733V67.543L43.464 54.01 42.9 91.786z" fill="url(#ax)" opacity=".1"/><path d="m151.631 91.786-30.141 7.612-24.224-19.733V67.543l53.801-13.532.564 37.775z" fill="url(#ay)" opacity=".1"/><path d="M43.604 53.024 16 75.86 69.801 89.39l27.606-21.988-53.803-14.38z" fill="url(#az)"/><path d="m151.208 53.024 27.887 22.836-53.519 13.531-28.169-21.988 53.801-14.38z" fill="url(#aA)"/><path d="m151.208 53.024 27.887 22.836-53.519 13.531-28.169-21.988 53.801-14.38z" fill="url(#aB)" opacity=".07"/></g><path d="M151 52.779 98 40v100l53-13.888V52.779z" fill="#535461"/><path opacity=".979" d="M151 52.779 98 40v100l53-13.888V52.779z" fill="#CACACA"/><path d="M45 52.779 98 40v100l-53-13.612v-73.61z" fill="#535461"/><path opacity=".979" d="M45 51.722 98 39v100l-53-13.552V51.723z" fill="#CACACA"/><path d="M98 40.22 126.288 17 180 30.613 151.712 53 98 40.22z" fill="#E9F0F8"/><path opacity=".01" d="M18 31.062 45.468 53 99 40.062 71.813 17 18 31.062z" fill="#535461"/><path opacity=".892" d="M18 30.889 45.906 53 99 40.22 71.373 17 18 30.889z" fill="#D4E1F1"/><path d="M58.185 32.552a4.5 4.5 0 0 1 4.5-4.5H93.28a4.5 4.5 0 0 1 4.5 4.5v26.87a4.5 4.5 0 0 1-4.5 4.5H62.685a4.5 4.5 0 0 1-4.5-4.5v-26.87z" fill="url(#aC)" opacity=".5"/><rect x="59" y="28" width="39" height="36" rx="4.5" fill="#F5F5F5"/><path d="M62 37a3 3 0 1 1 6 0 3 3 0 0 1-6 0z" fill="#386DB0"/><path d="M71 34.5a.5.5 0 0 1 .5-.5h24a.5.5 0 0 1 0 1h-24a.5.5 0 0 1-.5-.5zM71 36.5a.5.5 0 0 1 .5-.5h24a.5.5 0 0 1 0 1h-24a.5.5 0 0 1-.5-.5zM61 44.5a.5.5 0 0 1 .5-.5h34a.5.5 0 0 1 0 1h-34a.5.5 0 0 1-.5-.5zM61 46.5a.5.5 0 0 1 .5-.5h34a.5.5 0 0 1 0 1h-34a.5.5 0 0 1-.5-.5zM61 48.5a.5.5 0 0 1 .5-.5h34a.5.5 0 0 1 0 1h-34a.5.5 0 0 1-.5-.5zM61 49.5a.5.5 0 0 1 .5-.5h19a.5.5 0 0 1 0 1h-19a.5.5 0 0 1-.5-.5zM61 53.5a.5.5 0 0 1 .5-.5h34a.5.5 0 0 1 0 1h-34a.5.5 0 0 1-.5-.5zM61 54.5a.5.5 0 0 1 .5-.5h34a.5.5 0 0 1 0 1h-34a.5.5 0 0 1-.5-.5zM61 57.5a.5.5 0 0 1 .5-.5h34a.5.5 0 0 1 0 1h-34a.5.5 0 0 1-.5-.5zM61 59.5a.5.5 0 0 1 .5-.5h19a.5.5 0 0 1 0 1h-19a.5.5 0 0 1-.5-.5z" fill="#E0E0E0"/><path d="M64.161 40.55a4.5 4.5 0 0 1 4.5-4.5h30.817a4.5 4.5 0 0 1 4.5 4.5v26.87a4.5 4.5 0 0 1-4.5 4.5H68.66a4.5 4.5 0 0 1-4.5-4.5V40.55z" fill="url(#aD)" opacity=".5"/><path d="M64 41.5a4.5 4.5 0 0 1 4.5-4.5h30a4.5 4.5 0 0 1 4.5 4.5v27a4.5 4.5 0 0 1-4.5 4.5h-30a4.5 4.5 0 0 1-4.5-4.5v-27z" fill="#fff"/><path d="M68 45a3 3 0 1 1 6 0 3 3 0 0 1-6 0z" fill="#386DB0"/><path d="M76 42.5a.5.5 0 0 1 .5-.5h24a.5.5 0 0 1 0 1h-24a.5.5 0 0 1-.5-.5zM76 45.5a.5.5 0 0 1 .5-.5h24a.5.5 0 0 1 0 1h-24a.5.5 0 0 1-.5-.5zM67 51.5a.5.5 0 0 1 .5-.5h34a.5.5 0 0 1 0 1h-34a.5.5 0 0 1-.5-.5zM67 53.5a.5.5 0 0 1 .5-.5h34a.5.5 0 0 1 0 1h-34a.5.5 0 0 1-.5-.5zM67 57.5a.5.5 0 0 1 .5-.5h34a.5.5 0 0 1 0 1h-34a.5.5 0 0 1-.5-.5zM67 58.5a.5.5 0 0 1 .5-.5h19a.5.5 0 0 1 0 1h-19a.5.5 0 0 1-.5-.5zM67 61.5a.5.5 0 0 1 .5-.5h34a.5.5 0 0 1 0 1h-34a.5.5 0 0 1-.5-.5zM67 63.5a.5.5 0 0 1 .5-.5h34a.5.5 0 0 1 0 1h-34a.5.5 0 0 1-.5-.5zM67 65.5a.5.5 0 0 1 .5-.5h34a.5.5 0 0 1 0 1h-34a.5.5 0 0 1-.5-.5zM67 68.5a.5.5 0 0 1 .5-.5h19a.5.5 0 0 1 0 1h-19a.5.5 0 0 1-.5-.5z" fill="#E0E0E0"/><path d="M87.077 42.112h34.862v39.866H87.077V42.112z" fill="url(#aE)" opacity=".5"/><path d="M89 42h32v39H89V42z" fill="#fff"/><path d="M93 59h23v1H93v-1zM93 65h23v1H93v-1zM93 67h23v1H93v-1zM93 64h10v1H93v-1z" fill="#E0E0E0"/><path opacity=".6" d="M109 64h7v1h-7v-1z" fill="#3AD29F"/><path d="M101 71h7v1h-7v-1z" fill="#386DB0"/><path d="M45 53v74.267L98.28 141 99 67.293 45 53z" fill="#D4E1F1"/><path d="M151 126.988 98 141V67.293L151 53v73.988z" fill="#535461"/><path d="M151 126.988 98 141V67.293L151 53v73.988z" fill="#D4E1F1"/><path opacity=".07" d="M130 100.835V125l21-5.832V95l-21 5.835z" fill="#000"/><path d="M124 46h16v15h-16V46z" fill="url(#aF)"/><path d="M124 47h15v14h-15V47z" fill="#F5F5F5"/><path d="M129.21 55.168h5.702v.666h-5.702v-.666z" fill="#386DB0" opacity=".6"/><path d="M127 57h10v1h-10v-1z" fill="#BDBDBD"/><path d="M86.106.143h20.714v16.855H86.106V.143z" fill="url(#aG)" opacity=".5"/><path d="M87 0h20v17H87V0z" fill="#F2F2F2"/><path d="M87 0h20v3H87V0z" fill="#386DB0"/><path opacity=".1" d="M87 0h20v3H87V0z" fill="#000"/><path d="M87 5h17v2H87V5zM87 9h13v1H87V9zM87 10h8v1h-8v-1zM87 12h10v1H87v-1zM87 13h13v1H87v-1zM87 14h4v1h-4v-1z" fill="#E0E0E0"/><path d="M116.071 13.05h24.718v20.863h-24.718V13.049z" fill="url(#aH)" opacity=".5"/><path d="M116 13h25v20h-25V13z" fill="#fff"/><path d="M116 13h25v5h-25v-5z" fill="#386DB0"/><path d="M118 19h21v3h-21v-3z" fill="#F5F5F5"/><path d="M118 23h15v1h-15v-1zM118 26h10v1h-10v-1zM118 27h13v1h-13v-1zM118 28h15v1h-15v-1zM118 31h5v1h-5v-1z" fill="#E0E0E0"/><path d="M120 20h6v1h-6v-1z" fill="#69F0AE"/><path opacity=".1" d="M44 90.454 73.937 98 98 78.434V66.417L44.559 53 44 90.454z" fill="#000"/><path opacity=".101" d="M152 90.454 122.063 98 98 78.434V66.417L151.441 53 152 90.454z" fill="#000"/><path d="M44.468 53 17 75.604 70.532 89 98 67.233 44.468 53z" fill="#E9F0F8"/><path d="M151.348 53 179 75.604 125.932 89 98 67.233 151.348 53z" fill="#535461"/><path d="M179 75.604 125.932 89 98 67.233 151.348 53 179 75.604z" fill="#D4E1F1"/><defs><linearGradient id="R" x1="100.82" y1="72.639" x2="108.102" y2="72.639" gradientUnits="userSpaceOnUse"><stop stop-color="gray" stop-opacity=".25"/><stop offset=".54" stop-color="gray" stop-opacity=".12"/><stop offset="1" stop-color="gray" stop-opacity=".1"/></linearGradient><linearGradient id="a" x1="97.407" y1="141.544" x2="151.208" y2="141.544" gradientUnits="userSpaceOnUse"><stop stop-color="gray" stop-opacity=".25"/><stop offset=".54" stop-color="gray" stop-opacity=".12"/><stop offset="1" stop-color="gray" stop-opacity=".1"/></linearGradient><linearGradient id="c" x1="43.603" y1="141.544" x2="97.407" y2="141.544" gradientUnits="userSpaceOnUse"><stop stop-color="gray" stop-opacity=".25"/><stop offset=".54" stop-color="gray" stop-opacity=".12"/><stop offset="1" stop-color="gray" stop-opacity=".1"/></linearGradient><linearGradient id="d" x1="43.603" y1="141.544" x2="97.407" y2="141.544" gradientUnits="userSpaceOnUse"><stop stop-color="gray" stop-opacity=".25"/><stop offset=".54" stop-color="gray" stop-opacity=".12"/><stop offset="1" stop-color="gray" stop-opacity=".1"/></linearGradient><linearGradient id="e" x1="97.407" y1="53.024" x2="179.095" y2="53.024" gradientUnits="userSpaceOnUse"><stop stop-color="gray" stop-opacity=".25"/><stop offset=".54" stop-color="gray" stop-opacity=".12"/><stop offset="1" stop-color="gray" stop-opacity=".1"/></linearGradient><linearGradient id="f" x1="16" y1="53.024" x2="97.407" y2="53.024" gradientUnits="userSpaceOnUse"><stop stop-color="gray" stop-opacity=".25"/><stop offset=".54" stop-color="gray" stop-opacity=".12"/><stop offset="1" stop-color="gray" stop-opacity=".1"/></linearGradient><linearGradient id="g" x1="16" y1="53.024" x2="97.407" y2="53.024" gradientUnits="userSpaceOnUse"><stop stop-color="gray" stop-opacity=".25"/><stop offset=".54" stop-color="gray" stop-opacity=".12"/><stop offset="1" stop-color="gray" stop-opacity=".1"/></linearGradient><linearGradient id="h" x1="97.436" y1="65.199" x2="97.436" y2="28.326" gradientUnits="userSpaceOnUse"><stop stop-color="gray" stop-opacity=".25"/><stop offset=".54" stop-color="gray" stop-opacity=".12"/><stop offset="1" stop-color="gray" stop-opacity=".1"/></linearGradient><linearGradient id="i" x1="57.989" y1="64.592" x2="97.003" y2="64.592" gradientUnits="userSpaceOnUse"><stop stop-color="gray" stop-opacity=".25"/><stop offset=".54" stop-color="gray" stop-opacity=".12"/><stop offset="1" stop-color="gray" stop-opacity=".1"/></linearGradient><linearGradient id="j" x1="60.995" y1="40.463" x2="67.575" y2="40.463" gradientUnits="userSpaceOnUse"><stop stop-color="gray" stop-opacity=".25"/><stop offset=".54" stop-color="gray" stop-opacity=".12"/><stop offset="1" stop-color="gray" stop-opacity=".1"/></linearGradient><linearGradient id="k" x1="69.548" y1="35.537" x2="95.703" y2="35.537" gradientUnits="userSpaceOnUse"><stop stop-color="gray" stop-opacity=".25"/><stop offset=".54" stop-color="gray" stop-opacity=".12"/><stop offset="1" stop-color="gray" stop-opacity=".1"/></linearGradient><linearGradient id="l" x1="69.548" y1="37.512" x2="95.703" y2="37.512" gradientUnits="userSpaceOnUse"><stop stop-color="gray" stop-opacity=".25"/><stop offset=".54" stop-color="gray" stop-opacity=".12"/><stop offset="1" stop-color="gray" stop-opacity=".1"/></linearGradient><linearGradient id="m" x1="60.338" y1="44.684" x2="95.703" y2="44.684" gradientUnits="userSpaceOnUse"><stop stop-color="gray" stop-opacity=".25"/><stop offset=".54" stop-color="gray" stop-opacity=".12"/><stop offset="1" stop-color="gray" stop-opacity=".1"/></linearGradient><linearGradient id="n" x1="60.338" y1="46.659" x2="95.703" y2="46.659" gradientUnits="userSpaceOnUse"><stop stop-color="gray" stop-opacity=".25"/><stop offset=".54" stop-color="gray" stop-opacity=".12"/><stop offset="1" stop-color="gray" stop-opacity=".1"/></linearGradient><linearGradient id="o" x1="60.338" y1="49.291" x2="95.703" y2="49.291" gradientUnits="userSpaceOnUse"><stop stop-color="gray" stop-opacity=".25"/><stop offset=".54" stop-color="gray" stop-opacity=".12"/><stop offset="1" stop-color="gray" stop-opacity=".1"/></linearGradient><linearGradient id="p" x1="60.338" y1="51.268" x2="80.734" y2="51.268" gradientUnits="userSpaceOnUse"><stop stop-color="gray" stop-opacity=".25"/><stop offset=".54" stop-color="gray" stop-opacity=".12"/><stop offset="1" stop-color="gray" stop-opacity=".1"/></linearGradient><linearGradient id="q" x1="60.338" y1="53.895" x2="95.703" y2="53.895" gradientUnits="userSpaceOnUse"><stop stop-color="gray" stop-opacity=".25"/><stop offset=".54" stop-color="gray" stop-opacity=".12"/><stop offset="1" stop-color="gray" stop-opacity=".1"/></linearGradient><linearGradient id="r" x1="60.338" y1="55.869" x2="95.703" y2="55.869" gradientUnits="userSpaceOnUse"><stop stop-color="gray" stop-opacity=".25"/><stop offset=".54" stop-color="gray" stop-opacity=".12"/><stop offset="1" stop-color="gray" stop-opacity=".1"/></linearGradient><linearGradient id="s" x1="60.338" y1="58.505" x2="95.703" y2="58.505" gradientUnits="userSpaceOnUse"><stop stop-color="gray" stop-opacity=".25"/><stop offset=".54" stop-color="gray" stop-opacity=".12"/><stop offset="1" stop-color="gray" stop-opacity=".1"/></linearGradient><linearGradient id="t" x1="60.338" y1="60.479" x2="80.734" y2="60.479" gradientUnits="userSpaceOnUse"><stop stop-color="gray" stop-opacity=".25"/><stop offset=".54" stop-color="gray" stop-opacity=".12"/><stop offset="1" stop-color="gray" stop-opacity=".1"/></linearGradient><linearGradient id="u" x1="103.462" y1="73.72" x2="103.462" y2="36.846" gradientUnits="userSpaceOnUse"><stop stop-color="gray" stop-opacity=".25"/><stop offset=".54" stop-color="gray" stop-opacity=".12"/><stop offset="1" stop-color="gray" stop-opacity=".1"/></linearGradient><linearGradient id="v" x1="64.016" y1="73.113" x2="103.029" y2="73.113" gradientUnits="userSpaceOnUse"><stop stop-color="gray" stop-opacity=".25"/><stop offset=".54" stop-color="gray" stop-opacity=".12"/><stop offset="1" stop-color="gray" stop-opacity=".1"/></linearGradient><linearGradient id="w" x1="67.022" y1="48.984" x2="73.601" y2="48.984" gradientUnits="userSpaceOnUse"><stop stop-color="gray" stop-opacity=".25"/><stop offset=".54" stop-color="gray" stop-opacity=".12"/><stop offset="1" stop-color="gray" stop-opacity=".1"/></linearGradient><linearGradient id="x" x1="75.576" y1="44.059" x2="101.731" y2="44.059" gradientUnits="userSpaceOnUse"><stop stop-color="gray" stop-opacity=".25"/><stop offset=".54" stop-color="gray" stop-opacity=".12"/><stop offset="1" stop-color="gray" stop-opacity=".1"/></linearGradient><linearGradient id="y" x1="75.576" y1="46.034" x2="101.731" y2="46.034" gradientUnits="userSpaceOnUse"><stop stop-color="gray" stop-opacity=".25"/><stop offset=".54" stop-color="gray" stop-opacity=".12"/><stop offset="1" stop-color="gray" stop-opacity=".1"/></linearGradient><linearGradient id="z" x1="66.364" y1="53.203" x2="101.732" y2="53.203" gradientUnits="userSpaceOnUse"><stop stop-color="gray" stop-opacity=".25"/><stop offset=".54" stop-color="gray" stop-opacity=".12"/><stop offset="1" stop-color="gray" stop-opacity=".1"/></linearGradient><linearGradient id="A" x1="66.364" y1="55.18" x2="101.732" y2="55.18" gradientUnits="userSpaceOnUse"><stop stop-color="gray" stop-opacity=".25"/><stop offset=".54" stop-color="gray" stop-opacity=".12"/><stop offset="1" stop-color="gray" stop-opacity=".1"/></linearGradient><linearGradient id="B" x1="66.364" y1="57.813" x2="101.732" y2="57.813" gradientUnits="userSpaceOnUse"><stop stop-color="gray" stop-opacity=".25"/><stop offset=".54" stop-color="gray" stop-opacity=".12"/><stop offset="1" stop-color="gray" stop-opacity=".1"/></linearGradient><linearGradient id="C" x1="66.364" y1="59.788" x2="86.76" y2="59.788" gradientUnits="userSpaceOnUse"><stop stop-color="gray" stop-opacity=".25"/><stop offset=".54" stop-color="gray" stop-opacity=".12"/><stop offset="1" stop-color="gray" stop-opacity=".1"/></linearGradient><linearGradient id="D" x1="66.364" y1="62.416" x2="101.732" y2="62.416" gradientUnits="userSpaceOnUse"><stop stop-color="gray" stop-opacity=".25"/><stop offset=".54" stop-color="gray" stop-opacity=".12"/><stop offset="1" stop-color="gray" stop-opacity=".1"/></linearGradient><linearGradient id="E" x1="66.364" y1="64.391" x2="101.732" y2="64.391" gradientUnits="userSpaceOnUse"><stop stop-color="gray" stop-opacity=".25"/><stop offset=".54" stop-color="gray" stop-opacity=".12"/><stop offset="1" stop-color="gray" stop-opacity=".1"/></linearGradient><linearGradient id="F" x1="66.364" y1="67.026" x2="101.732" y2="67.026" gradientUnits="userSpaceOnUse"><stop stop-color="gray" stop-opacity=".25"/><stop offset=".54" stop-color="gray" stop-opacity=".12"/><stop offset="1" stop-color="gray" stop-opacity=".1"/></linearGradient><linearGradient id="G" x1="66.364" y1="69.001" x2="86.76" y2="69.001" gradientUnits="userSpaceOnUse"><stop stop-color="gray" stop-opacity=".25"/><stop offset=".54" stop-color="gray" stop-opacity=".12"/><stop offset="1" stop-color="gray" stop-opacity=".1"/></linearGradient><linearGradient id="H" x1="121.352" y1="82.304" x2="121.352" y2="41.618" gradientUnits="userSpaceOnUse"><stop stop-color="gray" stop-opacity=".25"/><stop offset=".54" stop-color="gray" stop-opacity=".12"/><stop offset="1" stop-color="gray" stop-opacity=".1"/></linearGradient><linearGradient id="I" x1="87.815" y1="81.405" x2="120.617" y2="81.405" gradientUnits="userSpaceOnUse"><stop stop-color="gray" stop-opacity=".25"/><stop offset=".54" stop-color="gray" stop-opacity=".12"/><stop offset="1" stop-color="gray" stop-opacity=".1"/></linearGradient><linearGradient id="J" x1="108.504" y1="53.324" x2="108.504" y2="47.513" gradientUnits="userSpaceOnUse"><stop stop-color="gray" stop-opacity=".25"/><stop offset=".54" stop-color="gray" stop-opacity=".12"/><stop offset="1" stop-color="gray" stop-opacity=".1"/></linearGradient><linearGradient id="K" x1="100.289" y1="53.079" x2="108.142" y2="53.079" gradientUnits="userSpaceOnUse"><stop stop-color="gray" stop-opacity=".25"/><stop offset=".54" stop-color="gray" stop-opacity=".12"/><stop offset="1" stop-color="gray" stop-opacity=".1"/></linearGradient><linearGradient id="L" x1="102.58" y1="48.905" x2="105.851" y2="48.905" gradientUnits="userSpaceOnUse"><stop stop-color="gray" stop-opacity=".25"/><stop offset=".54" stop-color="gray" stop-opacity=".12"/><stop offset="1" stop-color="gray" stop-opacity=".1"/></linearGradient><linearGradient id="M" x1="92.724" y1="60.441" x2="115.79" y2="60.441" gradientUnits="userSpaceOnUse"><stop stop-color="gray" stop-opacity=".25"/><stop offset=".54" stop-color="gray" stop-opacity=".12"/><stop offset="1" stop-color="gray" stop-opacity=".1"/></linearGradient><linearGradient id="N" x1="92.724" y1="66.908" x2="115.79" y2="66.908" gradientUnits="userSpaceOnUse"><stop stop-color="gray" stop-opacity=".25"/><stop offset=".54" stop-color="gray" stop-opacity=".12"/><stop offset="1" stop-color="gray" stop-opacity=".1"/></linearGradient><linearGradient id="O" x1="92.724" y1="68.627" x2="115.79" y2="68.627" gradientUnits="userSpaceOnUse"><stop stop-color="gray" stop-opacity=".25"/><stop offset=".54" stop-color="gray" stop-opacity=".12"/><stop offset="1" stop-color="gray" stop-opacity=".1"/></linearGradient><linearGradient id="P" x1="92.724" y1="65.189" x2="102.458" y2="65.189" gradientUnits="userSpaceOnUse"><stop stop-color="gray" stop-opacity=".25"/><stop offset=".54" stop-color="gray" stop-opacity=".12"/><stop offset="1" stop-color="gray" stop-opacity=".1"/></linearGradient><linearGradient id="Q" x1="108.511" y1="65.189" x2="115.79" y2="65.189" gradientUnits="userSpaceOnUse"><stop stop-color="gray" stop-opacity=".25"/><stop offset=".54" stop-color="gray" stop-opacity=".12"/><stop offset="1" stop-color="gray" stop-opacity=".1"/></linearGradient><linearGradient id="b" x1="97.407" y1="141.544" x2="151.208" y2="141.544" gradientUnits="userSpaceOnUse"><stop stop-color="gray" stop-opacity=".25"/><stop offset=".54" stop-color="gray" stop-opacity=".12"/><stop offset="1" stop-color="gray" stop-opacity=".1"/></linearGradient><linearGradient id="S" x1="43.603" y1="141.543" x2="97.407" y2="141.543" gradientUnits="userSpaceOnUse"><stop stop-color="gray" stop-opacity=".25"/><stop offset=".54" stop-color="gray" stop-opacity=".12"/><stop offset="1" stop-color="gray" stop-opacity=".1"/></linearGradient><linearGradient id="T" x1="97.407" y1="141.543" x2="151.208" y2="141.543" gradientUnits="userSpaceOnUse"><stop stop-color="gray" stop-opacity=".25"/><stop offset=".54" stop-color="gray" stop-opacity=".12"/><stop offset="1" stop-color="gray" stop-opacity=".1"/></linearGradient><linearGradient id="U" x1="97.407" y1="141.543" x2="151.208" y2="141.543" gradientUnits="userSpaceOnUse"><stop stop-color="gray" stop-opacity=".25"/><stop offset=".54" stop-color="gray" stop-opacity=".12"/><stop offset="1" stop-color="gray" stop-opacity=".1"/></linearGradient><linearGradient id="V" x1="129.8" y1="127.165" x2="151.209" y2="127.165" gradientUnits="userSpaceOnUse"><stop stop-color="gray" stop-opacity=".25"/><stop offset=".54" stop-color="gray" stop-opacity=".12"/><stop offset="1" stop-color="gray" stop-opacity=".1"/></linearGradient><linearGradient id="W" x1="138.92" y1="62.05" x2="138.92" y2="46.793" gradientUnits="userSpaceOnUse"><stop stop-color="gray" stop-opacity=".25"/><stop offset=".54" stop-color="gray" stop-opacity=".12"/><stop offset="1" stop-color="gray" stop-opacity=".1"/></linearGradient><linearGradient id="X" x1="123.301" y1="61.74" x2="138.67" y2="61.74" gradientUnits="userSpaceOnUse"><stop stop-color="gray" stop-opacity=".25"/><stop offset=".54" stop-color="gray" stop-opacity=".12"/><stop offset="1" stop-color="gray" stop-opacity=".1"/></linearGradient><linearGradient id="Y" x1="134.25" y1="53.395" x2="134.25" y2="48.972" gradientUnits="userSpaceOnUse"><stop stop-color="gray" stop-opacity=".25"/><stop offset=".54" stop-color="gray" stop-opacity=".12"/><stop offset="1" stop-color="gray" stop-opacity=".1"/></linearGradient><linearGradient id="Z" x1="127.998" y1="53.209" x2="133.973" y2="53.209" gradientUnits="userSpaceOnUse"><stop stop-color="gray" stop-opacity=".25"/><stop offset=".54" stop-color="gray" stop-opacity=".12"/><stop offset="1" stop-color="gray" stop-opacity=".1"/></linearGradient><linearGradient id="aa" x1="129.741" y1="50.16" x2="132.23" y2="50.16" gradientUnits="userSpaceOnUse"><stop stop-color="gray" stop-opacity=".25"/><stop offset=".54" stop-color="gray" stop-opacity=".12"/><stop offset="1" stop-color="gray" stop-opacity=".1"/></linearGradient><linearGradient id="ab" x1="128.34" y1="56.824" x2="133.879" y2="56.824" gradientUnits="userSpaceOnUse"><stop stop-color="gray" stop-opacity=".25"/><stop offset=".54" stop-color="gray" stop-opacity=".12"/><stop offset="1" stop-color="gray" stop-opacity=".1"/></linearGradient><linearGradient id="ac" x1="126.256" y1="58.193" x2="135.715" y2="58.193" gradientUnits="userSpaceOnUse"><stop stop-color="gray" stop-opacity=".25"/><stop offset=".54" stop-color="gray" stop-opacity=".12"/><stop offset="1" stop-color="gray" stop-opacity=".1"/></linearGradient><linearGradient id="ad" x1="105.996" y1="17.054" x2="105.996" y2=".153" gradientUnits="userSpaceOnUse"><stop stop-color="gray" stop-opacity=".25"/><stop offset=".54" stop-color="gray" stop-opacity=".12"/><stop offset="1" stop-color="gray" stop-opacity=".1"/></linearGradient><linearGradient id="ae" x1="85.675" y1="16.774" x2="105.715" y2="16.774" gradientUnits="userSpaceOnUse"><stop stop-color="gray" stop-opacity=".25"/><stop offset=".54" stop-color="gray" stop-opacity=".12"/><stop offset="1" stop-color="gray" stop-opacity=".1"/></linearGradient><linearGradient id="af" x1="85.675" y1="4.108" x2="105.715" y2="4.108" gradientUnits="userSpaceOnUse"><stop stop-color="gray" stop-opacity=".25"/><stop offset=".54" stop-color="gray" stop-opacity=".12"/><stop offset="1" stop-color="gray" stop-opacity=".1"/></linearGradient><linearGradient id="ag" x1="85.675" y1="4.108" x2="105.715" y2="4.108" gradientUnits="userSpaceOnUse"><stop stop-color="gray" stop-opacity=".25"/><stop offset=".54" stop-color="gray" stop-opacity=".12"/><stop offset="1" stop-color="gray" stop-opacity=".1"/></linearGradient><linearGradient id="ah" x1="87.272" y1="7.545" x2="104.117" y2="7.545" gradientUnits="userSpaceOnUse"><stop stop-color="gray" stop-opacity=".25"/><stop offset=".54" stop-color="gray" stop-opacity=".12"/><stop offset="1" stop-color="gray" stop-opacity=".1"/></linearGradient><linearGradient id="ai" x1="87.272" y1="10.143" x2="99.567" y2="10.143" gradientUnits="userSpaceOnUse"><stop stop-color="gray" stop-opacity=".25"/><stop offset=".54" stop-color="gray" stop-opacity=".12"/><stop offset="1" stop-color="gray" stop-opacity=".1"/></linearGradient><linearGradient id="aj" x1="87.272" y1="11.381" x2="95.256" y2="11.381" gradientUnits="userSpaceOnUse"><stop stop-color="gray" stop-opacity=".25"/><stop offset=".54" stop-color="gray" stop-opacity=".12"/><stop offset="1" stop-color="gray" stop-opacity=".1"/></linearGradient><linearGradient id="ak" x1="87.272" y1="12.62" x2="97.811" y2="12.62" gradientUnits="userSpaceOnUse"><stop stop-color="gray" stop-opacity=".25"/><stop offset=".54" stop-color="gray" stop-opacity=".12"/><stop offset="1" stop-color="gray" stop-opacity=".1"/></linearGradient><linearGradient id="al" x1="87.272" y1="13.859" x2="99.567" y2="13.859" gradientUnits="userSpaceOnUse"><stop stop-color="gray" stop-opacity=".25"/><stop offset=".54" stop-color="gray" stop-opacity=".12"/><stop offset="1" stop-color="gray" stop-opacity=".1"/></linearGradient><linearGradient id="am" x1="87.272" y1="15.098" x2="91.383" y2="15.098" gradientUnits="userSpaceOnUse"><stop stop-color="gray" stop-opacity=".25"/><stop offset=".54" stop-color="gray" stop-opacity=".12"/><stop offset="1" stop-color="gray" stop-opacity=".1"/></linearGradient><linearGradient id="an" x1="141.143" y1="33.79" x2="141.143" y2="12.845" gradientUnits="userSpaceOnUse"><stop stop-color="gray" stop-opacity=".25"/><stop offset=".54" stop-color="gray" stop-opacity=".12"/><stop offset="1" stop-color="gray" stop-opacity=".1"/></linearGradient><linearGradient id="ao" x1="115.959" y1="33.441" x2="140.796" y2="33.441" gradientUnits="userSpaceOnUse"><stop stop-color="gray" stop-opacity=".25"/><stop offset=".54" stop-color="gray" stop-opacity=".12"/><stop offset="1" stop-color="gray" stop-opacity=".1"/></linearGradient><linearGradient id="ap" x1="115.959" y1="17.745" x2="140.796" y2="17.745" gradientUnits="userSpaceOnUse"><stop stop-color="gray" stop-opacity=".25"/><stop offset=".54" stop-color="gray" stop-opacity=".12"/><stop offset="1" stop-color="gray" stop-opacity=".1"/></linearGradient><linearGradient id="aq" x1="117.937" y1="22.004" x2="138.817" y2="22.004" gradientUnits="userSpaceOnUse"><stop stop-color="gray" stop-opacity=".25"/><stop offset=".54" stop-color="gray" stop-opacity=".12"/><stop offset="1" stop-color="gray" stop-opacity=".1"/></linearGradient><linearGradient id="ar" x1="117.937" y1="24.984" x2="133.177" y2="24.984" gradientUnits="userSpaceOnUse"><stop stop-color="gray" stop-opacity=".25"/><stop offset=".54" stop-color="gray" stop-opacity=".12"/><stop offset="1" stop-color="gray" stop-opacity=".1"/></linearGradient><linearGradient id="as" x1="117.937" y1="26.521" x2="127.833" y2="26.521" gradientUnits="userSpaceOnUse"><stop stop-color="gray" stop-opacity=".25"/><stop offset=".54" stop-color="gray" stop-opacity=".12"/><stop offset="1" stop-color="gray" stop-opacity=".1"/></linearGradient><linearGradient id="at" x1="117.937" y1="28.055" x2="131" y2="28.055" gradientUnits="userSpaceOnUse"><stop stop-color="gray" stop-opacity=".25"/><stop offset=".54" stop-color="gray" stop-opacity=".12"/><stop offset="1" stop-color="gray" stop-opacity=".1"/></linearGradient><linearGradient id="au" x1="117.937" y1="29.59" x2="133.177" y2="29.59" gradientUnits="userSpaceOnUse"><stop stop-color="gray" stop-opacity=".25"/><stop offset=".54" stop-color="gray" stop-opacity=".12"/><stop offset="1" stop-color="gray" stop-opacity=".1"/></linearGradient><linearGradient id="av" x1="117.937" y1="31.127" x2="123.034" y2="31.127" gradientUnits="userSpaceOnUse"><stop stop-color="gray" stop-opacity=".25"/><stop offset=".54" stop-color="gray" stop-opacity=".12"/><stop offset="1" stop-color="gray" stop-opacity=".1"/></linearGradient><linearGradient id="aw" x1="119.025" y1="21.272" x2="124.963" y2="21.272" gradientUnits="userSpaceOnUse"><stop stop-color="gray" stop-opacity=".25"/><stop offset=".54" stop-color="gray" stop-opacity=".12"/><stop offset="1" stop-color="gray" stop-opacity=".1"/></linearGradient><linearGradient id="ax" x1="42.901" y1="99.398" x2="97.265" y2="99.398" gradientUnits="userSpaceOnUse"><stop stop-color="gray" stop-opacity=".25"/><stop offset=".54" stop-color="gray" stop-opacity=".12"/><stop offset="1" stop-color="gray" stop-opacity=".1"/></linearGradient><linearGradient id="ay" x1="97.266" y1="99.398" x2="151.631" y2="99.398" gradientUnits="userSpaceOnUse"><stop stop-color="gray" stop-opacity=".25"/><stop offset=".54" stop-color="gray" stop-opacity=".12"/><stop offset="1" stop-color="gray" stop-opacity=".1"/></linearGradient><linearGradient id="az" x1="16" y1="89.391" x2="97.407" y2="89.391" gradientUnits="userSpaceOnUse"><stop stop-color="gray" stop-opacity=".25"/><stop offset=".54" stop-color="gray" stop-opacity=".12"/><stop offset="1" stop-color="gray" stop-opacity=".1"/></linearGradient><linearGradient id="aA" x1="97.407" y1="89.391" x2="179.095" y2="89.391" gradientUnits="userSpaceOnUse"><stop stop-color="gray" stop-opacity=".25"/><stop offset=".54" stop-color="gray" stop-opacity=".12"/><stop offset="1" stop-color="gray" stop-opacity=".1"/></linearGradient><linearGradient id="aB" x1="97.407" y1="89.391" x2="179.095" y2="89.391" gradientUnits="userSpaceOnUse"><stop stop-color="gray" stop-opacity=".25"/><stop offset=".54" stop-color="gray" stop-opacity=".12"/><stop offset="1" stop-color="gray" stop-opacity=".1"/></linearGradient><linearGradient id="aC" x1="97.78" y1="63.922" x2="97.78" y2="28.052" gradientUnits="userSpaceOnUse"><stop stop-color="gray" stop-opacity=".25"/><stop offset=".54" stop-color="gray" stop-opacity=".12"/><stop offset="1" stop-color="gray" stop-opacity=".1"/></linearGradient><linearGradient id="aD" x1="103.98" y1="71.919" x2="103.98" y2="36.05" gradientUnits="userSpaceOnUse"><stop stop-color="gray" stop-opacity=".25"/><stop offset=".54" stop-color="gray" stop-opacity=".12"/><stop offset="1" stop-color="gray" stop-opacity=".1"/></linearGradient><linearGradient id="aE" x1="121.941" y1="81.978" x2="121.941" y2="42.112" gradientUnits="userSpaceOnUse"><stop stop-color="gray" stop-opacity=".25"/><stop offset=".54" stop-color="gray" stop-opacity=".12"/><stop offset="1" stop-color="gray" stop-opacity=".1"/></linearGradient><linearGradient id="aF" x1="140" y1="61" x2="140" y2="46" gradientUnits="userSpaceOnUse"><stop stop-color="gray" stop-opacity=".25"/><stop offset=".54" stop-color="gray" stop-opacity=".12"/><stop offset="1" stop-color="gray" stop-opacity=".1"/></linearGradient><linearGradient id="aG" x1="106.821" y1="16.998" x2="106.821" y2=".143" gradientUnits="userSpaceOnUse"><stop stop-color="gray" stop-opacity=".25"/><stop offset=".54" stop-color="gray" stop-opacity=".12"/><stop offset="1" stop-color="gray" stop-opacity=".1"/></linearGradient><linearGradient id="aH" x1="140.789" y1="33.913" x2="140.789" y2="13.049" gradientUnits="userSpaceOnUse"><stop stop-color="gray" stop-opacity=".25"/><stop offset=".54" stop-color="gray" stop-opacity=".12"/><stop offset="1" stop-color="gray" stop-opacity=".1"/></linearGradient></defs></svg>