<svg width="380" height="311" fill="none" xmlns="http://www.w3.org/2000/svg"><ellipse opacity=".1" cx="65.5" cy="300" rx="65.5" ry="11" fill="#386DB0"/><ellipse opacity=".1" cx="314.5" cy="297" rx="65.5" ry="11" fill="#386DB0"/><path opacity=".082" d="M101.313.165c-17.062.913-34.302 5.904-47.614 16.632-11.68 9.418-20.104 24.223-18.05 39.1 2.426 17.56 18.075 30.335 23.88 47.086 3.735 10.77 3.153 22.653.709 33.793-1.573 7.178-3.991 14.364-8.639 20.053-8.371 10.234-23.48 15.173-27.593 27.743-4.473 13.67 6.8 27.075 17.39 36.797 8.452 7.758 17.306 15.478 27.959 19.73 7.79 3.112 16.243 4.23 24.622 4.675a164.031 164.031 0 0 0 67.878-10.858c10.352-4.022 20.367-9.12 31.202-11.545 23.089-5.169 46.847 2.284 70.248 5.774a209.818 209.818 0 0 0 60.523.178c12.634-1.804 25.686-5.061 35.2-13.572 9.644-8.642 14.466-22.018 13.932-34.978-.534-12.96-5.994-25.437-14.036-35.612-10.385-13.142-24.71-22.492-37.173-33.692a160.903 160.903 0 0 1-31.981-39.578c-4.896-8.542-9.061-17.606-15.404-25.126-9.893-11.72-24.24-18.69-38.576-24.074-33.071-12.403-67.374-14.929-101.854-20.41C123.161.562 112.23-.407 101.313.165z" fill="#386DB0"/><g opacity=".7"><path d="M96.2 136.382h70.692v39.551H96.2v-39.551z" fill="#F6F7F9"/><ellipse cx="109.508" cy="153.939" rx="7.359" ry="7.368" fill="#386DB0" opacity=".2"/><path d="M125.841 145.207h32.066v2.02h-32.066v-2.02zM125.841 150.355h16.337v2.02h-16.337v-2.02zM125.841 155.503h26.421v2.02h-26.421v-2.02zM125.841 160.652h32.066v2.02h-32.066v-2.02zM149.037 168.083h8.874v3.903h-8.874v-3.903z" fill="#386DB0" opacity=".2"/><path d="M155.716 27.074h70.692v39.552h-70.692V27.074z" fill="#FFFBC9"/><ellipse cx="169.028" cy="44.632" rx="7.359" ry="7.368" fill="#C2B700" opacity=".2"/><path d="M185.361 35.9h32.066v2.02h-32.066V35.9zM185.361 41.047h16.336v2.02h-16.336v-2.02zM185.361 46.196h26.42v2.02h-26.42v-2.02zM185.361 51.348h32.066v2.02h-32.066v-2.02zM208.553 58.776h8.874v3.902h-8.874v-3.902z" fill="#C2B700" opacity=".2"/><path d="M179.245 93.48h70.692v39.551h-70.692V93.479z" fill="#D6E8FF"/><g opacity=".2" fill="#002F6C"><path d="M193.953 101.463h8.873v3.903h-8.873v-3.903zM211.722 101.463h8.874v3.903h-8.874v-3.903zM229.491 101.463h8.874v3.903h-8.874v-3.903zM194.101 110.396h8.873v3.902h-8.873v-3.902zM211.87 110.396h8.874v3.902h-8.874v-3.902zM229.639 110.396h8.874v3.902h-8.874v-3.902zM194.101 119.328h8.873v3.903h-8.873v-3.903zM211.87 119.328h8.874v3.903h-8.874v-3.903zM229.639 119.328h8.874v3.903h-8.874v-3.903z"/></g></g><path d="M71 56h119v51H71V56z" fill="url(#a)"/><path d="M72 57h117v51H72V57z" fill="#F9E2DF"/><path d="M83 66h92v3H83v-3zM83 75h92v3H83v-3zM83 84h92v3H83v-3zM83 92h92v3H83v-3z" fill="#E56E60" opacity=".2"/><path d="M155 148h113v47H155v-47z" fill="url(#b)"/><path d="M156 147h112v47H156v-47z" fill="#EAF6F0"/><circle cx="176.977" cy="169.895" r="11.76" fill="#41A36D" opacity=".2"/><circle cx="208.977" cy="169.895" r="11.76" fill="#41A36D" opacity=".2"/><circle cx="241.977" cy="169.895" r="11.76" fill="#41A36D" opacity=".2"/><path d="m30.43 107.46.37.08a.5.5 0 0 0-.37-.08z" fill="url(#c)" opacity=".1"/><path fill-rule="evenodd" clip-rule="evenodd" d="M87.932 149.642c-.823-5.508-5.843-18.358-5.843-18.358-.089-.371-.186-.764-.297-1.143-3.564-12.207-8.495-13.287-8.495-13.287l-17.662-3.752c.146.091.273.209.373.348l-.28.045a6.884 6.884 0 0 1-1.549-3.34 8.624 8.624 0 0 1-.086-.565 12.354 12.354 0 0 0 3.737-9.537 12.365 12.365 0 0 0-4.75-9.08 12.972 12.972 0 0 0-.565-.42c.834-.879.86-2.107.238-3.34-1.393-2.883-4.416-4.706-7.53-5.593-2.376-.68-4.952-.898-7.306-.156-1.031.325-1.99.822-2.949 1.319-.291.15-.582.302-.875.448-.483.24-.977.471-1.47.702-1.906.89-3.826 1.786-5.233 3.31-.413.45-.79 1.02-.67 1.611.062.297.24.548.418.8.087.122.174.244.248.373.503.876.373 1.978.034 2.932-.135.38-.298.75-.46 1.12-.245.561-.49 1.12-.635 1.7-.242.966-.145 2.131.592 2.829.358.28.731.54 1.117.78.405.34.76.737 1.054 1.176l2.093 2.817a28.784 28.784 0 0 1 2.606 3.968c.146.286.282.578.419.871.35.749.7 1.5 1.201 2.157.205.272.439.521.697.743a.67.67 0 0 0-.042-.016l-.033-.012c-.044-.016-.088-.032-.13-.05a3.175 3.175 0 0 0 2.338.894h.105a.638.638 0 0 0 .428-.174v.371c.037 1.355.033 2.795-.063 4.146l-.164-.082a1.42 1.42 0 0 0-1.523.16l-16.27 12.99s-3.534 4.825-3.042 13.139l-2.849 12.478s-3.564 10.589-.823 18.15c2.74 7.56 4.33 11.877 4.33 11.877s1.096 8.588 2.742 9.279c1.646.69 2.357 1.083 2.357 1.083l.328 2.053s.108.196.301.538c1.2 2.075 5.634 9.401 8.215 8.622.322 1.989.463 4.002.42 6.016l2.548 17.073s1.78 4.644 1.672 7.075c-.108 2.431 2.082 5.89 2.082 5.89a11.227 11.227 0 0 0-1.095 7.939c1.042 4.539 2.357 25.495 2.357 25.495l1.918 5.077-.056 5.938a5.684 5.684 0 0 1-1.177 2.636c-.413.446-.678.915-.959 1.41-.56.988-1.177 2.078-3.137 3.292-.45.279-.875.531-1.273.767-2.205 1.306-3.568 2.114-3.568 4.173a6.382 6.382 0 0 1-.09 1.002c-.017.112-.035.219-.053.324v.001c-.265 1.571-.413 2.443 4.708 2.93 6.413.605 10.688-3.566 10.688-3.566s.942-1.704 5.385-2.391c0 0 1.515-.081 1.6-1.421.03-.46.023-1.344-.018-2.316-.07-1.856-.25-4.016-.484-4.124-.294-.13-.816-1.996-.994-2.672h1.236s1.15-8.589 0-14.156-.108-9.505-.108-9.505l-.22-14.69s-1.553-1.57-.335-4.428c1.218-2.858 0-17.014 0-17.014s.443-5.078 1.702-6.265c1.259-1.188.063-7.442 0-7.768l2.234 7.497s.987 14.909 3.072 17.611l.604 6.748s4.275 6.213 3.452 9.564c-.823 3.352.879 15.448.879 15.448v12.371s-1.922 4.969.767 6.751l1.158-.045c-.207.194-.383.428-.566.672v.001c-.168.222-.342.453-.551.671-.514.527-.805 2.531-.969 4.253a52.13 52.13 0 0 0-.182 2.713s1.15 1.823 3.288 1.945c2.138.123 9.21 5.512 9.21 5.512s6.993 0 8.799-.371l.108-.026a2.385 2.385 0 0 0 1.363-1.114 2.826 2.826 0 0 0 .331-2.041c-.227-1.065-1.073-2.227-2.953-3.225-4.688-2.468-5.385-4.777-5.385-4.777l-3.072-4.588h.44s-.272-4.862 3.068-10.318l-.216-24.036s1.367-8.265-.987-12.749c0 0-.193-4.754 1.382-6.213 1.575-1.459-2.097-16.205-2.097-16.205s-.745-7.913-1.653-15.135c3.698 3.496 7.537-9.097 8.192-11.335h.097s-.018-.06-.045-.164a.154.154 0 0 1 .045-.159l-.02-.079c-.124-.462-.742-2.778-.2-2.245.6.59 2.086-1.618 2.086-1.618s-.22-12.048 2.357-18.12c2.577-6.072-1.162-20.84-1.162-20.84zm-11.019 7.664.019-.033c.372 7.356-.075 23.052-.075 23.052s-.506 2.012-1.05 4.38l-.39-14.913-.373-14.045 1.87 1.559zm-47.192 21.505c1.862-3.348 0-26.575 0-26.575-1.315-.865-2.413 3.671-2.413 3.671s.875 1.188-.44 3.971c-1.247 2.643-1.163 6.041-1.151 6.515v.051c0 .024.041.196.108.481.38 1.618 1.612 6.87 1.1 9.08-.466 2.004.837 5.786 1.452 7.397.368-1.941.811-3.637 1.344-4.591z" fill="url(#d)"/><path d="M34.709 204.594c-1.597 7.15-7.965-3.664-9.415-6.258l-.294-.537.69-3.288L29.34 193c.577.306 1.123.669 1.63 1.082 2.01 1.582 4.973 4.974 3.739 10.512zM85 192.821l-.042.159c0 .049-.035.104-.054.175-.655 2.225-4.547 14.708-8.305 11.24-4.112-3.805-2.114-12.542-2.114-12.542h.039l8.651-.853 1.713 1.699.112.122z" fill="#EFB7B9"/><path d="m80.221 254.422.213 23.892c-3.281 5.427-3.016 10.259-3.016 10.259L66.605 289c-2.64-1.769-.746-6.709-.746-6.709v-12.299s-1.689-12.021-.883-15.366c.805-3.345-3.393-9.504-3.393-9.504l-.59-6.709c-2.05-2.684-3.02-17.507-3.02-17.507l-2.203-7.433c.056.323 1.2 6.571 0 7.72-1.2 1.148-1.67 6.229-1.67 6.229s1.185 14.069 0 16.912c-1.186 2.843.32 4.46.32 4.46l.22 14.604s-1.025 3.921.105 9.452c1.13 5.531 0 14.069 0 14.069H43.112l.052-5.948-1.883-5.047s-1.293-20.833-2.315-25.342a11.285 11.285 0 0 1 1.074-7.895s-2.151-3.438-2.043-5.854c.108-2.416-1.645-7.032-1.645-7.032l-2.505-16.968a32.826 32.826 0 0 0-1.238-9.664C31.151 198.337 29 192 29 192l2.43.216 12.275 1.089s29.828-2 31.173-.339c.284.543.475 1.128.567 1.732 1.339 6.003 3.11 24.796 3.11 24.796s3.609 14.659 2.058 16.109c-1.551 1.45-1.357 6.174-1.357 6.174 2.311 4.43.965 12.645.965 12.645z" fill="#444053"/><path d="M54.983 296.49c-.085 1.349-1.57 1.432-1.57 1.432-4.341.693-5.262 2.411-5.262 2.411s-4.182 4.201-10.446 3.61c-5.34-.52-4.824-1.507-4.549-3.278.055-.334.083-.671.085-1.01 0-2.449 1.856-3.146 4.746-4.981 2.891-1.835 2.813-3.391 4.02-4.736 1.205-1.345 1.328-3.956 1.328-3.956 1.365-2.411 4.824.377 4.824.377.16.855 5.306.753 5.306.753s.683 2.777 1.032 2.939c.23.109.404 2.287.475 4.145.033.942.037 1.835.011 2.294z" fill="#B07473"/><path opacity=".1" d="M54.983 296.378c-.085 1.369-1.57 1.454-1.57 1.454-4.34.703-5.261 2.447-5.261 2.447s-4.182 4.263-10.446 3.663c-5.34-.528-4.825-1.529-4.55-3.327 2.386.612 6.95 1.461 9.615-.03 3.71-2.073 6.357-3.522 6.357-3.522L54.965 294c.04 1.006.044 1.912.018 2.378z" fill="#000"/><path d="M87.61 303.449c-.29.544-.775.954-1.356 1.143a.485.485 0 0 1-.106.027c-1.797.381-8.737.381-8.737.381s-7.035-5.509-9.144-5.635c-2.11-.125-3.267-1.981-3.267-1.981s.041-1.28.177-2.765c.166-1.757.456-3.81.965-4.336.942-.99 1.13-2.351 3.266-1.486 0 0 3.014-5.375 6.571-1.223l3.677 5.643s.694 2.35 5.35 4.868c1.866 1.01 2.706 2.199 2.928 3.284.153.71.038 1.452-.324 2.08z" fill="#B07473"/><path opacity=".1" d="M87.609 303.506c-.414.342-.878.709-1.356 1.101a.548.548 0 0 1-.106.026C84.35 305 77.41 305 77.41 305s-7.034-5.306-9.144-5.428c-2.11-.121-3.266-1.908-3.266-1.908s.041-1.233.177-2.664c2.159.631 5.437 1.743 6.314 2.936 1.346 1.835 5.433 4.37 5.433 4.37s7.622-.712 11.009-.811c.155.687.04 1.404-.324 2.011z" fill="#000"/><path d="M58 116.559 48.12 127s-11.965-.882-9.875-4.418c1.064-1.798 1.23-5.56 1.138-8.844-.09-3.161-.415-5.852-.415-5.852s16.783-8.355 15.497-.564a12.93 12.93 0 0 0-.048 4.448c.73 3.936 3.583 4.789 3.583 4.789z" fill="#EFB7B9"/><path opacity=".1" d="M54.928 107.196a11.65 11.65 0 0 0-.05 4.278c-2.383 2.26-5.634 3.53-9.026 3.526-2.346 0-4.856-1.783-6.741-2.834-.092-3.041-.111-4.428-.111-4.428s17.25-8.036 15.928-.542z" fill="#000"/><path d="M58 102.495a12.5 12.5 0 1 1-24.999.009A12.5 12.5 0 0 1 58 102.495z" fill="#EFB7B9"/><path opacity=".1" d="M75 195.448c-3.058 7.248-22.734 7.398-22.734 7.398v-7.9l-1.193-.077c.516 2.261-.736 7.779-.736 7.779C34.787 204.847 31 196.019 31 196.019l.537-3.019 12.117 1.074s29.443-1.972 30.772-.334c.285.534.479 1.111.574 1.708z" fill="#000"/><path d="M52.55 201.848v-8.009l-1.209-.074c.522 2.291-.746 7.883-.746 7.883-11.856 1.663-16.97-2.971-18.77-5.384a7.291 7.291 0 0 1-.825-1.337l4.807-26.953 1.12-39.666 1.734-6.959.402-3.341v-.038l.041.019 1.224.524 7.34 3.156 8.38-6.264.123-.093.414-.312.69.553 1.712 1.367 5.497 35.326s9.533 27.201 11.3 38.181c.072.438.131.846.176 1.229 1.16 10.006-23.41 10.192-23.41 10.192z" fill="#E1E7EF"/><circle cx="47.5" cy="122.5" r=".5" fill="#67647E"/><circle cx="48.5" cy="128.5" r=".5" fill="#67647E"/><circle cx="48.5" cy="138.5" r=".5" fill="#67647E"/><circle cx="50.5" cy="150.5" r=".5" fill="#67647E"/><circle cx="50.5" cy="160.5" r=".5" fill="#67647E"/><circle cx="51.5" cy="171.5" r=".5" fill="#67647E"/><circle cx="51.5" cy="182.5" r=".5" fill="#67647E"/><path opacity=".1" d="M39.832 172.182s-.82 10.352-2.32 13.36c-1.499 3.009-2.18 11.458-2.18 11.458l-3.478-.372a7.283 7.283 0 0 1-.854-1.341l4.982-27.03 1.16-39.779 1.797-6.978.417-3.351a.11.11 0 0 1 .047-.019c.395-.18.855-.173 1.244.019l.17.082c-.05.138-.1.279-.146.424-1.36 4.115-1.871 11.704-1.871 11.704s1.956 13.877 2.176 20.334c.22 6.457-1.144 21.489-1.144 21.489zM31 194.014a2.04 2.04 0 0 1-.125.234c-1.296 2.074-4.58 3.392-5.58 3.752l-.295-.503.694-3.081L29.362 193c.579.287 1.128.627 1.638 1.014z" fill="#000"/><path d="m21.682 142-3.062 1.822-2.799 12.308s-3.493 10.445-.803 17.903c2.69 7.458 4.257 11.711 4.257 11.711s1.075 8.483 2.686 9.165c1.611.683 2.315 1.066 2.315 1.066l.32 2.025s4.375-1.475 5.923-4.057c1.548-2.582-1.138-9.04-1.138-9.04s-2.31-5.489-1.72-8.045c.592-2.556-1.183-9.272-1.183-9.431 0-.158-.16-3.732 1.117-6.476 1.276-2.744.431-3.914.431-3.914l-.807-7.834L21.682 142z" fill="#67647E"/><path opacity=".1" d="M75 192.527s-8.14 3.051-10.73.371c-2.59-2.681-2.317-15.18-2.317-15.18s-2.478-23.106-4.046-26.901c-1.567-3.795-.746-31.185-.746-31.185s-1.06-3.536-1.967-4.473A.94.94 0 0 0 55 115l.317.067 1.12.24 1.713 1.363 5.5 35.224s9.54 27.123 11.309 38.071l.041 2.562z" fill="#000"/><path opacity=".1" d="M84 193.499h-.091c-1.003.151-9.876 1.411-9.909-.757 0-.251.012-.503.037-.753l8.218-.989 1.628 1.97c.03.129.055.241.077.327l.04.202z" fill="#000"/><path d="m75.516 129 5.85 3.069s4.853 12.689 5.65 18.132c0 0 3.602 14.576 1.1 20.569-2.502 5.994-2.278 17.896-2.278 17.896s-1.43 2.186-2.014 1.599c-.583-.587.213 2.294.213 2.294s-9.989 1.336-10.036-.643c-.048-1.979 2.292-11.418 2.292-11.418s.635-22.461-.267-25.98c-.903-3.519-.51-25.518-.51-25.518z" fill="#67647E"/><path opacity=".1" d="M57.651 153s-3.224 7.885-4.245 8.406c-1.022.521.207 2.594.207 2.594s5.852-8.198 4.038-11zM56 125.005c.035-.165-3.826 4.148-4.856 4.79-1.03.642 3.755-.035 4.856-4.79zM45 153s-5.677 4.136-4.933 5.765C40.812 160.395 45 153 45 153zM56 210s5.08 3.194 13 4l-13-4zM44 218s4.586 5.84 6.678 5.997C52.769 224.154 44 218 44 218zM51 242c-.222.115-2.818 5.822-5.468 5.996C42.882 248.17 51 242 51 242zM73 254.188s4.91-1.274 6 2.812c0 0-.328-1.278-6-2.812zM70 273.284s5.67-.804 6.877.294c1.207 1.098-6.877-.294-6.877-.294zM54.059 276c0 .043-6.302.981-6.052 1.605.25.623 6.718.534 6.948-.448a.75.75 0 0 0-.126-.729c-.17-.22-.448-.375-.77-.428zM68 281.353s9.574-1.227 8.973.892c-.602 2.118-8.973-.892-8.973-.892zM17 162c.054.157 6.17.999 7 3 0 0-6.013-2.843-6.946-2.843M26 179s-5.36 1.656-4.98 4.167c.378 2.51-.542-1.172 4.98-4.167zM23 191s1.866-2.384 3.642-1.946C28.42 189.491 23 191 23 191zM52.985 92.665c-.184.175-.39.327-.612.451-1.515.865-1.921 2.182-2.648 3.735-.663 1.407-1.397 2.909-2.743 3.694-1.733 1.029-4.02.651-5.822 1.553a4.463 4.463 0 0 0-2.412 4.393c.117.683.29 1.355.516 2.011.407 1.418.592 2.89.55 4.363a.554.554 0 0 1 0 .135c-4.215-2.074-6.86-6.337-6.813-10.982.046-4.644 2.777-8.855 7.032-10.846A12.45 12.45 0 0 1 53 92.662l-.015.003z" fill="#000"/><path d="M52.57 89.241c-1.342-2.889-4.256-4.714-7.254-5.621-2.288-.678-4.77-.9-7.04-.154-1.294.424-2.475 1.125-3.685 1.77-2.263 1.172-4.753 2.098-6.452 4.024-.395.446-.76 1.023-.644 1.615.088.443.424.78.64 1.173.486.877.366 1.983.033 2.939-.333.955-.819 1.847-1.053 2.829-.234.982-.142 2.132.567 2.833.342.278.699.539 1.067.78.388.345.728.742 1.013 1.18l2.014 2.822a28.615 28.615 0 0 1 2.522 3.98c.505 1.023.892 2.117 1.561 3.032.67.914 1.718 1.649 2.83 1.548a.531.531 0 0 0 .446-.218.583.583 0 0 0 .058-.288 15.099 15.099 0 0 0-.544-4.497 13.608 13.608 0 0 1-.512-2.073c-.174-1.867.77-3.656 2.39-4.527 1.792-.926 4.058-.536 5.776-1.596 1.335-.829 2.062-2.361 2.72-3.812.731-1.585 1.122-2.957 2.625-3.849 1.502-.891 1.663-2.372.921-3.89z" fill="#585268"/><path opacity=".1" d="M48 291s1.272 2.407.947 3.77C48.62 296.133 48 291 48 291zM73 297s.4-2.934 2.008-2.961c1.608-.027 1.686-.158 2.912.289 1.227.448 2.376 1.148 2.011 1.255-.364.108-2.12-1.682-3.888-.77A12.826 12.826 0 0 0 73 297zM41.84 126l5.16-3.848s-7.576-4.757-8.478-4.087c-.902.669-1.522 6.673-1.522 6.673L41.84 126z" fill="#000"/><path d="M41.819 125 47 121.104s-7.576-4.699-8.478-4.041c-.902.658-1.522 6.929-1.522 6.929L41.819 125z" fill="#E1E7EF"/><path opacity=".03" d="M41.819 125 47 121.104s-7.576-4.699-8.478-4.041c-.902.658-1.522 6.929-1.522 6.929L41.819 125z" fill="#000"/><path d="m39.818 117.232-.161-.082a1.397 1.397 0 0 0-1.503.156l-16.102 12.953s-3.5 4.8-3.004 13.084l9.493 13.34s1.085-4.52 2.389-3.66c0 0 1.843 23.129 0 26.465-1.844 3.336-2.66 15.812-2.66 15.812l6.238.7s.65-8.444 2.114-11.456c1.465-3.012 2.253-13.363 2.253-13.363s1.319-15.038 1.1-21.498c-.217-6.459-2.114-20.328-2.114-20.328s.53-8.132 1.957-12.123z" fill="#67647E"/><path opacity=".1" d="M55.283 123 49 120.581s8.005-9.106 9-4.055L55.283 123z" fill="#000"/><path d="M55.283 123 49 120.584s8.005-9.11 9-4.058L55.283 123z" fill="#E1E7EF"/><path opacity=".03" d="M55.283 123 49 120.584s8.005-9.11 9-4.058L55.283 123z" fill="#000"/><path opacity=".1" d="M55 115.008a.5.5 0 0 1 .365.075l-.365-.075z" fill="#000"/><path d="m56 114.007 17.734 3.773s4.877 1.069 8.399 13.144c3.522 12.074-4.824 26.876-4.824 26.876l-1.841-1.543.922 35.273s-8.184 3.045-10.784.37c-2.6-2.674-2.333-15.167-2.333-15.167s-2.49-23.095-4.066-26.898c-1.575-3.803-.75-31.16-.75-31.16s-1.467-4.879-2.457-4.668z" fill="#67647E"/><path opacity=".1" d="M72.243 137.164c-.261.23-.562 10.956.565 19.121A99.965 99.965 0 0 0 76 171l-1.672-32.717s-1.298-1.829-2.085-1.119zM70 128c.515.275 2.764 4.853 1.733 6.732C70.702 136.611 70 128 70 128zM53.56 89.1a9.78 9.78 0 0 0-3.898-4.1 9.287 9.287 0 0 1 2.923 3.448c.75 1.526.54 3.056-.95 3.923s-1.955 2.26-2.69 3.87c-.676 1.458-1.426 3.015-2.796 3.829-1.764 1.07-4.087.678-5.925 1.605a4.65 4.65 0 0 0-2.455 4.556c.118.708.294 1.405.526 2.084.416 1.469.603 2.995.555 4.522.007.1-.013.2-.056.29a.552.552 0 0 1-.458.219 2.62 2.62 0 0 1-1.336-.249c.613.609 1.45.935 2.312.901a.552.552 0 0 0 .458-.219.62.62 0 0 0 .06-.29 15.007 15.007 0 0 0-.56-4.522 13.036 13.036 0 0 1-.525-2.084 4.647 4.647 0 0 1 2.454-4.552c1.84-.931 4.162-.539 5.926-1.606 1.37-.832 2.12-2.374 2.795-3.832.751-1.594 1.149-2.973 2.691-3.87 1.543-.897 1.708-2.397.95-3.923z" fill="#000"/><ellipse opacity=".1" cx="359" cy="283" rx="15" ry="2" fill="#386DB0"/><ellipse opacity=".1" cx="240" cy="302.5" rx="11" ry="1.5" fill="#386DB0"/><ellipse opacity=".1" cx="143" cy="291.5" rx="11" ry="1.5" fill="#386DB0"/><path d="M148.557 287.741a4.237 4.237 0 0 0 1.396-2.106c.183-.833-.175-1.837-.977-2.143-.897-.342-1.855.28-2.581.906-.725.625-1.56 1.342-2.508 1.208a3.816 3.816 0 0 0 1.181-3.569 1.533 1.533 0 0 0-.328-.728c-.5-.531-1.404-.302-1.998.117-1.896 1.327-2.425 3.899-2.435 6.209-.19-.833-.03-1.702-.037-2.546-.007-.844-.237-1.819-.962-2.263a2.927 2.927 0 0 0-1.459-.364c-.849-.032-1.801.055-2.38.677-.73.771-.536 2.066.091 2.91.627.844 1.586 1.386 2.468 1.972a5.46 5.46 0 0 1 1.761 1.677c.054.096.098.197.131.302h5.345a15.055 15.055 0 0 0 3.292-2.259zM365.543 279.741a4.26 4.26 0 0 0 1.41-2.106c.183-.833-.175-1.819-.977-2.143-.896-.342-1.855.28-2.58.906-.726.625-1.56 1.342-2.512 1.208a3.795 3.795 0 0 0 1.181-3.569 1.458 1.458 0 0 0-.328-.728c-.495-.531-1.399-.302-1.993.117-1.896 1.327-2.424 3.899-2.435 6.209-.194-.833-.029-1.702-.037-2.546-.007-.844-.24-1.819-.962-2.263a2.926 2.926 0 0 0-1.458-.364c-.853-.032-1.801.055-2.384.677-.729.771-.536 2.066.095 2.91.63.844 1.585 1.386 2.468 1.972.705.42 1.307.993 1.76 1.677.053.096.097.197.131.302h5.34a14.964 14.964 0 0 0 3.281-2.259zM242.555 297.722a4.256 4.256 0 0 0 1.4-2.1c.179-.835-.179-1.814-.977-2.137-.897-.341-1.856.276-2.581.903-.725.628-1.56 1.335-2.512 1.205a3.786 3.786 0 0 0 1.181-3.559 1.481 1.481 0 0 0-.328-.726c-.499-.529-1.399-.301-1.997.116-1.896 1.328-2.424 3.889-2.435 6.196-.19-.83-.03-1.697-.033-2.539-.004-.842-.241-1.814-.963-2.256a2.943 2.943 0 0 0-1.458-.363c-.853-.029-1.801.054-2.384.675-.729.772-.536 2.064.095 2.902.631.838 1.586 1.378 2.464 1.966a5.449 5.449 0 0 1 1.779 1.698c.053.095.097.194.131.297h5.337a14.858 14.858 0 0 0 3.281-2.278z" fill="#386DB0"/><path fill-rule="evenodd" clip-rule="evenodd" d="M351.974 128.034c-4.877-.097-9.181-3.551-11.62-7.741a7.805 7.805 0 0 1-1.174-3.313c.017-.269.062-.535.134-.795.156-.393.28-.798.371-1.211a1.976 1.976 0 0 0 0-.498v-.022c.119-.899-.409-1.764-1.07-2.385-.354-.331-.749-.614-1.144-.897-.344-.246-.688-.492-1.005-.77-2.096-1.839-2.732-4.788-2.773-7.596v-.149c.01-.489.031-.979.052-1.469a39.26 39.26 0 0 0 .056-2.141 15.046 15.046 0 0 0-.089-2.047c-.201-1.701-.847-3.432-2.186-4.517-1.768-1.432-4.147-1.383-6.533-1.334-2.324.047-4.655.095-6.435-1.225a10.252 10.252 0 0 1-.788-.667c-.569-.515-1.134-1.026-1.866-1.19-.807-.193-1.643.067-2.428.327-2.661.876-5.627 2.032-6.668 4.617-.307.767-.411 1.582-.515 2.397-.097.764-.195 1.527-.459 2.25-.232.624-.576 1.192-.921 1.763-.207.344-.415.688-.599 1.045a4.385 4.385 0 0 0-.569 2.343c-.041.424.019.852.175 1.248.183.474.479.896.862 1.23a4.14 4.14 0 0 1-.52.825c-.357.436-.815.808-1.271 1.178-.413.335-.825.669-1.16 1.05-1.309 1.516-1.26 3.577-.614 5.36.379 1.044.933 2.033 1.488 3.021.392.7.785 1.401 1.114 2.12.346.743.625 1.597.264 2.347-.174.364-.481.666-.788.968-.132.13-.265.26-.386.395a4.29 4.29 0 0 0-1.063 2.385c-7.966 1.816-7.97 8.209-7.97 8.209l-4.297 10.824s-.687 1.82-1.487 4.223l-5.092-.91 3.516 5.921c-.672 2.41-1.145 4.646-.988 5.768 0 0-1.58 7.429 1.23 8.725l6.207 2.79c.268.162.557.287.859.371l.253.111c.183.09.397.09.58 0h.1a.788.788 0 0 0 .372-.052.664.664 0 0 0 .308-.338.091.091 0 0 0 0-.033l1.859-.539 1.576 1.858c.71.497 1.405.932 2.085 1.322l-2.423 24.218s-.394 32.189-1.58 39.517c-.442 2.715-.446 4.565-.279 5.824l-.044.082c.293 2.069 1.055 2.478 1.055 2.478v-.03l.045.03c.359-.94.785-1.852 1.275-2.731v.528c-.023 2.734-.108 6.556-.372 9.041-.483 4.227 1.23 18.23 1.23 18.23l.591 12.74a11.771 11.771 0 0 1-1.449 6.203c-1.402 2.545-3.227 6.122-3.346 7.708a2.255 2.255 0 0 0 0 .26l-3.107 3.614s-1.19 1.831 1.487 2.57c1.438.401 3.925 0 5.917-.472a3.953 3.953 0 0 0 3.071-3.844 13.589 13.589 0 0 1 2.535-4.803l.501 2.931 3.346.828.427-8.034c.174-.452.252-.935.231-1.419.658-5.713-1.55-5.2-1.55-5.2a.37.37 0 0 1 .107.201 3.387 3.387 0 0 1-.107-.197c-1.357-2.675-.692-7.058-.692-7.058s1.758-12.733 2.376-16.094c.434-2.374.256-10.151.111-14.508 0-.182 0-.372-.019-.524 5.178-.067 11.523-.245 15.984-.676v.527l-.825 30.087a16.534 16.534 0 0 1-1.149 5.594c0 .02-.011.041-.022.061-.007.013-.015.026-.019.039a24.397 24.397 0 0 0-1.665 7.871l-.372 9.561v.263c-.665.257-1.713.996-1.743 3.139-.045 3.139 5.49 2.091 5.49 2.091 5.535 0 5.576-5.757 5.576-5.757s.178-5.278.438-8.811c.252-3.412-.759-2.8-.829-2.755v-.012l.019-.271.688-10.363s5.096-17.272 5.887-20.585c.562-2.352.328-9.446.142-13.372 0-.182 0-.353-.023-.52a41.412 41.412 0 0 1 3.535-.156h.257s-.264-27.739-.922-38.206c-.658-10.467-1.714-20.021-4.353-22.9-1.591-1.738-3.81-7.109-5.319-11.087a55.863 55.863 0 0 0 9.757 3.194c8.349 1.746 7.208-5.497 7.208-5.497l-.848-13.695h.056a69.346 69.346 0 0 0-.922-10.708c-.438-2.716-1.115-5.524-2.148-7.801.679-.258 1.349-.546 2.011-.83.223-.095.444-.191.665-.284 2.268-.999 4.832-2.418 5.152-4.862h-.112c.042-.171.071-.345.086-.52zm-20.901 159.778.081-1.211-.081 9.94v-8.729zm-30.848-139.966c.022 1.416-.034 3.867-.115 6.582l-2.651-3.536 2.658-4.308.108 1.262zm36.629 12.52.006.002h-.015l.009-.002zm-1.309-5.161-.372.371a19.93 19.93 0 0 0-2.729 3.373l4.41 1.417c.142-.034 1.953-.501.438-2.186a7.544 7.544 0 0 1-1.506-3.024l-.241.049zm0 0 .204-.194-.126.03-.216.193.138-.029z" fill="url(#e)"/><path d="m311 288-.577 10-3.652-.839L306 293l5-5z" fill="#A27772"/><path opacity=".1" d="m311 288-.577 10-3.652-.839L306 293l5-5z" fill="#000"/><path d="m322 297.968 5.13 1.032 3.795-3.267v-9.198l.083-1.257v-.037l.019-.266.691-10.212s5.13-17.022 5.927-20.277c.566-2.319.33-9.313.144-13.177-.076-1.585-.144-2.643-.144-2.643L326.322 236l-.239 8.48-.827 29.641a15.983 15.983 0 0 1-1.161 5.512l-.038.1a23.454 23.454 0 0 0-1.643 7.768l-.38 9.42v.261l-.034.786z" fill="#CC818C"/><path opacity=".1" d="M331 286.005v.355l.025-.36-.025.005zM322 298.98l5.173 1.02 3.827-3.228V296a1.03 1.03 0 0 1-.551.834l-.054.029a10.716 10.716 0 0 1-5.808 1.093l-2.021-.164a2.25 2.25 0 0 0-.532.124v.259l-.034.805z" fill="#000"/><path d="m330.515 296.723.05-.029c.323-.182.522-.526.521-.898l.079-9.726s1.047-.75.796 2.668c-.251 3.419-.42 8.528-.42 8.528s-.039 5.573-5.31 5.573c0 0-5.27 1.01-5.231-2.028.04-3.038 2.178-3.165 2.178-3.165l1.891.167a9.608 9.608 0 0 0 5.446-1.09z" fill="#B07473"/><path d="M296.006 296.684c.133 2.237 6.93.945 6.93.945l4.574-8.602s3.812-2.841 1.906-5.336a3.852 3.852 0 0 1-.282-.424v-.022c-.042-.067-.076-.133-.114-.203-1.372-2.635-.698-6.956-.698-6.956s1.777-12.547 2.402-15.868c.438-2.343.259-10.015.11-14.31-.057-1.782-.11-2.985-.11-2.985L299.433 240v3.258c-.023 2.694-.107 6.466-.382 8.916-.487 4.173 1.247 17.982 1.247 17.982l.598 12.568a11.346 11.346 0 0 1-1.498 6.1c-1.418 2.51-3.263 6.041-3.392 7.606-.008.084-.008.17 0 .254z" fill="#CC818C"/><path opacity=".1" d="M296 296.66c.134 2.277 6.958.962 6.958.962l4.593-8.757s3.827-2.893 1.913-5.433a3.96 3.96 0 0 1-.283-.432c-.061 1.326-1.531 4.636-1.531 4.636s-3.793 7.45-4.975 9.156c-1.183 1.706-6.449-.316-6.644-.376a1.442 1.442 0 0 0-.031.244z" fill="#000"/><path d="M309.314 283.012s2.224-.504 1.563 5.153a3.625 3.625 0 0 1-1.764 3.234c-1.59.978-4.048 3.078-5.289 7.165.002 1.816-1.277 3.395-3.089 3.812-2.007.455-4.511.859-5.96.463-2.698-.741-1.518-2.545-1.518-2.545l3.096-3.586s5.395 2.074 6.591.389c1.195-1.686 4.932-9.029 4.932-9.029s2.114-4.582 1.438-5.056z" fill="#B07473"/><path opacity=".1" d="m326.225 237-.225 9c2.853-.301 4.864-.724 5.213-1.315.745-1.272 3.469-1.812 5.787-2.031a210.997 210.997 0 0 0-.135-2.805L326.225 237zM299 244.289a4.12 4.12 0 0 1 1.202-1.468c1.158-.651 1.033 4.168 1.033 4.168s3.842.037 8.765-.026c-.055-1.803-.107-3.013-.107-3.013L299.004 241s.014 1.374-.004 3.289z" fill="#000"/><path d="M298.15 244.998s1.288-3.505 2.443-4.149c1.156-.644 1.034 4.142 1.034 4.142s28.307.259 29.723-1.943c1.416-2.202 9.65-2.069 9.65-2.069s-.258-27.442-.901-37.797c-.644-10.355-1.674-19.803-4.246-22.649-1.667-1.851-4.047-7.806-5.496-11.78a142.494 142.494 0 0 1-1.325-3.753l-27.019 1.554-.22 2.199-2.87 28.866s-.368 31.828-1.545 39.089c-1.177 7.261.772 8.29.772 8.29z" fill="#444053"/><g opacity=".1" fill="#000"><path d="M329.899 243.731c1.44-2.218 9.836-2.087 9.836-2.087s-.263-27.678-.919-38.122c-.656-10.444-1.706-19.974-4.327-22.845-1.699-1.866-4.125-7.872-5.603-11.881a156.92 156.92 0 0 1-1.309-3.665l2.138-.12s.536 1.594 1.35 3.785c1.5 4.009 3.904 10.023 5.602 11.881 2.625 2.871 3.672 12.401 4.328 22.845.656 10.444.904 38.103.904 38.103s-8.393-.134-9.833 2.106c-1.234 1.896-22.466 1.982-28.631 1.967 7.905-.038 25.339-.273 26.464-1.967zM298.537 241.491c.533-.295.799.522.93 1.493-.475.861-.89 1.754-1.241 2.673 0 0-.75-.407-1.05-2.471.416-.736.9-1.438 1.361-1.695z"/></g><path d="M306.349 97.916c-1.856 2.578.022 6.237-1.969 8.741-.658.829-1.67 1.419-2.356 2.229-1.272 1.508-1.22 3.552-.596 5.324.625 1.772 1.754 3.38 2.528 5.104.336.743.607 1.587.26 2.33-.242.516-.731.906-1.14 1.356-1.279 1.452-1.315 3.473-.629 5.182.687 1.709 2.006 3.191 3.288 4.633.512.572 1.158 1.2 2.01 1.185a2.788 2.788 0 0 0 1.263-.424 13.473 13.473 0 0 0 6.419-7.671 13.897 13.897 0 0 0-.548-9.418c-1.096-2.626-2.879-5.145-2.893-7.924 0-2.203 1.114-4.306 1.311-6.501.241-2.664-1.311-6.9-4.475-8.062.208 1.72-1.516 2.608-2.473 3.916z" fill="#585268"/><path opacity=".1" d="M306.349 97.916c-1.856 2.578.022 6.237-1.969 8.741-.658.829-1.67 1.419-2.356 2.229-1.272 1.508-1.22 3.552-.596 5.324.625 1.772 1.754 3.38 2.528 5.104.336.743.607 1.587.26 2.33-.242.516-.731.906-1.14 1.356-1.279 1.452-1.315 3.473-.629 5.182.687 1.709 2.006 3.191 3.288 4.633.512.572 1.158 1.2 2.01 1.185a2.788 2.788 0 0 0 1.263-.424 13.473 13.473 0 0 0 6.419-7.671 13.897 13.897 0 0 0-.548-9.418c-1.096-2.626-2.879-5.145-2.893-7.924 0-2.203 1.114-4.306 1.311-6.501.241-2.664-1.311-6.9-4.475-8.062.208 1.72-1.516 2.608-2.473 3.916zM328 192c-3.832.203-7.438 1.846-10.792 3.707-3.354 1.861-6.598 3.985-10.208 5.293M325 201a15.798 15.798 0 0 0-9.959 4.888c-.93.996-1.732 2.114-2.704 3.069A12.023 12.023 0 0 1 307 212M326 207a16.903 16.903 0 0 0-7.746 4.58c-.569.601-1.094 1.248-1.655 1.845-3.073 3.218-7.411 4.952-11.599 6.575" fill="#000"/><path d="M326.361 113.183c.086 3.042.353 6.076.798 9.088.358 2.146.867 4.057 1.598 4.906 2.126 2.487-10.375 5.823-10.375 5.823L311 127.39s5.853-5.299 3.126-10.471 12.235-3.736 12.235-3.736z" fill="#CC818C"/><path opacity=".1" d="M302 169h29c-.811-2.316-1.345-4-1.345-4l-27.431 1.657L302 169z" fill="#000"/><path d="M299.575 168h30.545c-.857-3.081 0-5.936 1.226-8.127a17.94 17.94 0 0 1 3.198-4.167l.21-.188 10.672-2.376.574-.125s.085-19.464-6.779-22.135c-6.863-2.671-10.985-6.28-10.985-6.28l-9.436 2.926-6.951-3.528c-2.231 2.412-8.152 1.478-8.152 1.478-9.697 1.108-9.697 8.441-9.697 8.441s5.664 13.265 6.094 13.265c.431 0-.519 20.816-.519 20.816z" fill="#67647E"/><path opacity=".1" d="M310 156s-5.969-1.455-8-4l8 4zM342.134 148 335 153.668c.052.448.131.893.237 1.332l.207-.18L346 152.555 342.134 148zM323 165.839s1.518.935 3.842 2.161h3.982c-.822-3.225 0-6.213 1.176-8.506L324.963 157c2.401 2.436-1.963 8.839-1.963 8.839z" fill="#000"/><path d="m298.751 131-4.249 2.339-4.165 10.749s-4.332 11.79-3.91 14.913c0 0-1.526 7.366 1.192 8.667l7.091 3.272a.645.645 0 0 0 .75-.152.68.68 0 0 0 .099-.774c-1.009-1.952-2.117-5.001-.364-6.692l-2.041-4.332 7.386-12.299 2.46-4.232L298.751 131z" fill="#67647E"/><path opacity=".1" d="M308.044 153.028c.367 1.571 1.622 3.983 5.761 4.894l4.558 3.865 4.833 2.287 1.967.926.837-6.266-1.897-1.079-2.202-1.254s-4.987-9.391-12.889-5.423c-.747.361-1.151 1.215-.968 2.05z" fill="#000"/><path d="M308.043 153.023c.367 1.571 1.622 3.984 5.762 4.895l4.558 3.869 4.833 2.287 1.967.926.837-6.267-1.897-1.075-2.202-1.257s-4.988-9.389-12.889-5.425c-.746.361-1.15 1.213-.969 2.047z" fill="#CC818C"/><circle opacity=".1" cx="317" cy="110" r="11" fill="#000"/><circle cx="317" cy="110" r="11" fill="#CC818C"/><path opacity=".1" d="M324.279 133 321 126.706s4.824-1.912 5.174-4.132c.35-2.219 4.621 2.6 3.695 4.196-.926 1.597-5.59 6.23-5.59 6.23z" fill="#000"/><path d="M324.279 133 321 126.706s4.824-1.912 5.174-4.132c.35-2.22 4.621 2.603 3.695 4.196-.926 1.593-5.59 6.23-5.59 6.23z" fill="#67647E"/><path d="M297.415 150.377 316 174.982s-6.847 3.662-16.296-2.904l-4.088-4.779L284 148l13.415 2.377z" fill="#F6F8FB"/><path d="m293.44 163.543 1.64-.046s10.023-10.2 12.482-5.039c2.459 5.16-6.241 9.973-6.241 9.973l-2.646 1.511-3.469 1.058-2.206-3.105.44-4.352z" fill="#CC818C"/><path opacity=".1" d="M295.83 169.764c.142.602.278 1.267.041 1.827a.662.662 0 0 1-.282.349.61.61 0 0 1-.34.055c-.818-.08-1.579-.512-2.129-1.209a11.16 11.16 0 0 1-1.383-2.286c-.421-.835-.859-1.768-.706-2.721.167-1.041.978-1.764 1.752-2.332 1.566-1.185 1.603.194 1.96 1.718l1.087 4.599z" fill="#000"/><path d="M294.83 169.764c.142.602.278 1.267.041 1.827a.662.662 0 0 1-.282.349.61.61 0 0 1-.34.055c-.818-.08-1.579-.512-2.129-1.209a11.16 11.16 0 0 1-1.383-2.286c-.421-.835-.859-1.768-.706-2.721.167-1.041.978-1.764 1.752-2.332 1.566-1.185 1.603.194 1.96 1.718l1.087 4.599z" fill="#67647E"/><path opacity=".1" d="m300 147.615 1-1.615-.876 3-.124-1.385zM324 163.117l2.105.883.895-5.975-2.03-1.025c1.386 1.476.173 4.216-.97 6.117zM332 155.974s-6.32.278-9-.974l9 .974z" fill="#000"/><g opacity=".1" fill="#000"><path d="M331.23 160.416a18.25 18.25 0 0 1 3.197-4.23c.303-.194.617-.369.941-.525l9.923-2.077.573-.128s.089-19.758-6.769-22.47a41.173 41.173 0 0 1-10.692-6.146l.754-.236s4.112 3.671 10.967 6.375c6.854 2.704 6.777 22.477 6.777 22.477h-1.029l-10.159 1.984-.573.559a19.921 19.921 0 0 0-3.245 4.376 11.183 11.183 0 0 0-.849 8.295h-1.051c-.846-3.127.026-6.026 1.235-8.254zM304.147 125.568c.165-.03.323-.065.492-.09a13.54 13.54 0 0 0 2.099.235 14.057 14.057 0 0 1-2.591-.145zM318.693 127.574l-6.277-3.229c.13-.105.253-.219.368-.341l6.549 3.375-.64.195z"/></g><path d="m342.819 148 4.261 5.192.869 14.092s1.119 7.176-7.128 5.447c-8.247-1.728-17.821-7.09-17.821-7.09s4.608-6.141 2.088-8.474l11.822 3.805s1.998-.434.432-2.162c-1.565-1.728-1.841-4.843-1.841-4.843l7.318-5.967z" fill="#67647E"/><path opacity=".1" d="m344 163 2 3c-1.049-.42-1.824-1.583-2-3zM340 162l4 4.575-1.998.425-2.002-5zM304.184 104.436c-.397-.977-.095-2.108.368-3.049.463-.94 1.128-1.796 1.47-2.792.533-1.487.368-3.153.948-4.618 1.019-2.566 3.912-3.718 6.507-4.585.764-.256 1.58-.517 2.367-.327 1.037.253 1.731 1.216 2.573 1.86 3.522 2.654 9.245-.269 12.649 2.543 1.305 1.074 1.937 2.8 2.132 4.487.195 1.689 0 3.403-.019 5.106-.055 2.974.493 6.239 2.702 8.213.665.595 1.448 1.045 2.095 1.659.647.613 1.158 1.487 1.044 2.368-.091.41-.214.811-.367 1.201-.441 1.555.213 3.202 1.011 4.604 2.382 4.164 6.576 7.596 11.336 7.693-.32 2.428-2.812 3.837-5.025 4.833-2.819 1.268-5.782 2.514-8.862 2.354-3.081-.16-6.293-2.153-6.841-5.206-.188-1.052-.162-2.342-1.066-2.896-.544-.335-1.25-.249-1.838-.502-.849-.372-1.272-1.316-1.551-2.209a20.131 20.131 0 0 1-.916-5.666c-.036-2.28.265-4.767-1.014-6.645-1.184-1.736-3.286-2.603-4.65-4.216-1.257-1.488-2.628-3.265-4.691-3.548-2.771-.405-8.675 3.518-10.362-.662z" fill="#000"/><path d="M304.184 104.436c-.397-.977-.095-2.108.368-3.049.463-.94 1.128-1.796 1.47-2.792.533-1.487.368-3.153.948-4.618 1.019-2.566 3.912-3.718 6.507-4.585.764-.256 1.58-.517 2.367-.327 1.037.253 1.731 1.216 2.573 1.86 3.522 2.658 9.245-.269 12.649 2.543 1.305 1.078 1.937 2.8 2.132 4.487.195 1.689 0 3.403-.019 5.106-.055 2.974.493 6.239 2.702 8.213.665.595 1.448 1.045 2.095 1.659.647.613 1.158 1.487 1.044 2.368a8.29 8.29 0 0 1-.367 1.205c-.441 1.551.213 3.201 1.011 4.599 2.382 4.165 6.576 7.597 11.336 7.694-.32 2.428-2.812 3.837-5.025 4.833-2.819 1.272-5.782 2.514-8.862 2.354-3.081-.16-6.293-2.153-6.841-5.224-.188-1.052-.162-2.343-1.066-2.897-.544-.334-1.25-.249-1.838-.502-.849-.371-1.272-1.316-1.551-2.208a20.138 20.138 0 0 1-.916-5.667c-.036-2.279.265-4.767-1.014-6.645-1.184-1.736-3.286-2.602-4.65-4.216-1.257-1.487-2.628-3.265-4.691-3.547-2.771-.368-8.675 3.536-10.362-.644z" fill="#585268"/><path opacity=".1" d="m312.303 133 6.697-5.056s-4.584-2.312-5.132-4.284c-.547-1.972-4.214.935-3.841 2.705.372 1.77 2.276 6.635 2.276 6.635z" fill="#000"/><path d="m312.303 132 6.697-5.056s-4.584-2.312-5.132-4.284c-.547-1.972-4.214.935-3.841 2.705.372 1.77 2.276 6.635 2.276 6.635z" fill="#67647E"/><circle opacity=".1" cx="319.5" cy="131.5" r=".5" fill="#000"/><circle opacity=".1" cx="319.5" cy="134.5" r=".5" fill="#000"/><circle opacity=".1" cx="319.5" cy="137.5" r=".5" fill="#000"/><g opacity=".1" fill="#000"><path d="M306.876 97.356c.506-1.39.398-2.947.871-4.345a5.02 5.02 0 0 0-.54.994c-.587 1.46-.424 3.128-.96 4.607 0 .026-.026.056-.037.086.263-.427.486-.876.666-1.342zM347.356 132.286c-2.854 1.267-5.853 2.506-8.975 2.346-3.121-.159-6.366-2.146-6.921-5.208-.189-1.049-.163-2.335-1.079-2.888-.55-.333-1.265-.248-1.86-.5-.863-.371-1.288-1.312-1.57-2.202a19.794 19.794 0 0 1-.927-5.657c-.037-2.272.264-4.752-1.027-6.624-1.198-1.731-3.326-2.595-4.707-4.204-1.276-1.482-2.66-3.254-4.751-3.536-2.866-.371-8.845 3.522-10.549-.645a3.259 3.259 0 0 1 .108-2.409 11.4 11.4 0 0 0-.35.626c-.484.938-.789 2.065-.372 3.04 1.708 4.166 7.684.255 10.552.645 2.088.281 3.476 2.064 4.752 3.536 1.38 1.594 3.505 2.473 4.703 4.207 1.295 1.854.994 4.352 1.031 6.621.031 1.919.341 3.823.923 5.653.283.886.71 1.853 1.57 2.202.595.248 1.31.167 1.86.5.912.549.89 1.854 1.076 2.884.554 3.062 3.806 5.053 6.924 5.212 3.119.159 6.121-1.082 8.972-2.35 2.054-.908 4.342-2.172 4.956-4.241-.997 1.361-2.739 2.284-4.339 2.992z"/></g><defs><linearGradient id="a" x1="189.998" y1="107" x2="189.998" y2="56" gradientUnits="userSpaceOnUse"><stop stop-color="gray" stop-opacity=".25"/><stop offset=".54" stop-color="gray" stop-opacity=".12"/><stop offset="1" stop-color="gray" stop-opacity=".1"/></linearGradient><linearGradient id="b" x1="268" y1="195" x2="268" y2="148" gradientUnits="userSpaceOnUse"><stop stop-color="gray" stop-opacity=".25"/><stop offset=".54" stop-color="gray" stop-opacity=".12"/><stop offset="1" stop-color="gray" stop-opacity=".1"/></linearGradient><linearGradient id="c" x1="30.89" y1="107.668" x2="30.89" y2="107.488" gradientUnits="userSpaceOnUse"><stop stop-color="gray" stop-opacity=".25"/><stop offset=".54" stop-color="gray" stop-opacity=".12"/><stop offset="1" stop-color="gray" stop-opacity=".1"/></linearGradient><linearGradient id="d" x1="89.996" y1="305" x2="89.996" y2="81.011" gradientUnits="userSpaceOnUse"><stop stop-color="gray" stop-opacity=".25"/><stop offset=".54" stop-color="gray" stop-opacity=".12"/><stop offset="1" stop-color="gray" stop-opacity=".1"/></linearGradient><linearGradient id="e" x1="351.976" y1="303.984" x2="351.976" y2="87.985" gradientUnits="userSpaceOnUse"><stop stop-color="gray" stop-opacity=".25"/><stop offset=".54" stop-color="gray" stop-opacity=".12"/><stop offset="1" stop-color="gray" stop-opacity=".1"/></linearGradient></defs></svg>