<svg width="251" height="581" fill="none" xmlns="http://www.w3.org/2000/svg"><path fill-rule="evenodd" clip-rule="evenodd" d="M33.068 53.954c2.888-24.115 157.885-70.66 186.659-47.818 28.775 22.841 21.492 70.886-38.809 81.863-60.301 10.977-150.74-9.93-147.85-34.045z" fill="#E9F0F8" fill-opacity=".61"/><ellipse cx="133" cy="153" rx="32" ry="17" fill="#AAC4E4"/><ellipse cx="133" cy="146" rx="37" ry="19" fill="#D4E1F1"/><path fill-rule="evenodd" clip-rule="evenodd" d="M23.796 513.376c10.03-27.506 63.482-2.465 101.593-5.424 38.111-2.958 88.028-36.941 113.609-12.37 25.582 24.571-12.674 68.114-80.348 68.589-67.675.475-144.885-23.289-134.854-50.795z" fill="#F2F2F2"/><path fill-rule="evenodd" clip-rule="evenodd" d="M109.859 181.633A15 15 0 0 1 124.476 170h16.11a15 15 0 0 1 14.533 11.288l87.01 340.643c2.451 9.595-4.905 18.89-14.807 18.71l-180.826-3.303c-9.53-.174-16.483-9.076-14.343-18.365l77.706-337.34z" fill="#FBF8C5" fill-opacity=".396"/><path fill="#AAC4E4" d="M130 37h5v90h-5z"/><path fill-rule="evenodd" clip-rule="evenodd" d="M153.519 346c1.734 0 2.646 2.055 1.484 3.341l-2.87 3.176a3 3 0 0 0-.774 2.011v143.285c0 10.435-7.572 16.187-17.566 16.187-9.995 0-14.538-6.398-14.538-16.833V354.448c0-.695-.241-1.368-.682-1.904l-2.69-3.274c-1.072-1.306-.143-3.27 1.546-3.27h36.09z" fill="#FDFDFD"/><path fill-rule="evenodd" clip-rule="evenodd" d="m150.999 501.578-1.961-.393c.209-1.04.321-2.164.321-3.372v-4.478h2v4.478c0 1.332-.124 2.588-.36 3.765zm-2.203 5.425-1.665-1.107c-1.198 1.803-2.851 3.234-4.874 4.259l.905 1.784c2.306-1.169 4.231-2.824 5.634-4.936zm-11.23 6.706-.315-1.975a21.881 21.881 0 0 1-3.458.266c-1.165 0-2.226-.095-3.191-.273l-.363 1.967c1.097.202 2.281.306 3.554.306 1.302 0 2.564-.098 3.773-.291zm-12.449-2.058 1.134-1.647c-1.576-1.086-2.786-2.63-3.625-4.66l-1.848.765c.967 2.339 2.404 4.21 4.339 5.542zm-5.666-10.919a30.95 30.95 0 0 1-.196-3.565v-4.46h2v4.46c0 1.178.061 2.29.183 3.334l-1.987.231zm-.196-14.963h2v-8.92h-2v8.92zm0-15.857h2v-8.92h-2v8.92zm0-15.858h2v-8.92h-2v8.92zm0-15.858h2v-8.92h-2v8.92zm0-15.857h2v-8.92h-2v8.92zm0-15.858h2v-8.92h-2v8.92zm0-15.858h2v-8.92h-2v8.92zm0-15.857h2v-8.92h-2v8.92zm0-15.858h2v-4.46a5.05 5.05 0 0 0-.093-.961l-1.963.384c.037.189.056.382.056.577v4.46zm-.056-5.037 1.963-.384c-.153-.283-.838-1.962-1.044-2.213l-.756-.921-1.545 1.27.756.921c.124.15.535 1.158.626 1.327zm-1.382-2.248 1.545-1.27-1.933-2.353h5.075v-2h-5.075c-.462 0-.867.147-1.189.387l1.193 1.605-.004.002-.003.002-.006-.008.001.003.002.006-.006.003-.003.001.01-.001v.004l.001.004-1.998.097c.02.402.163.808.456 1.165l1.934 2.353zM130.399 346v2h10.15v-2h-10.15zm18.045 0h5.075c.473 0 .885.153 1.211.402l-1.215 1.589.004.003.004.002.006-.009-.001.003a.014.014 0 0 0-.002.006.016.016 0 0 0 .007.004l.003.001-.011-.001-.001.004a.02.02 0 0 1-.001.005l1.993.164a1.968 1.968 0 0 1-.513 1.168l-2.063 2.283-1.484-1.341 2.063-2.283h-5.075v-2zm4.496 5.624-1.484-1.341-.807.893c-.233.258-1.011 2.031-1.184 2.326l1.958.411c.103-.178.57-1.241.71-1.396l.807-.893zm-1.517 2.289-1.958-.411c-.07.336-.106.679-.106 1.026v4.478h2v-4.478c0-.208.022-.414.064-.615zm-.064 12.058h-2v8.956h2v-8.956zm0 15.921h-2v8.955h2v-8.955zm0 15.92h-2v8.955h2v-8.955zm0 15.921h-2v8.955h2v-8.955zm0 15.92h-2v8.955h2v-8.955zm0 15.921h-2v8.955h2v-8.955zm0 15.92h-2v8.955h2v-8.955zm0 15.921h-2v8.955h2v-8.955z" fill="#80A6D6"/><path fill-rule="evenodd" clip-rule="evenodd" d="M135.412 324.69 132.303 306h7l-3.11 18.69c-.033.2-.234.336-.45.306a.383.383 0 0 1-.331-.306zM159.867 328.983c-.45.363-1.055-.201-.724-.675l10.127-14.533 4.388 4.092-13.791 11.116zM169.593 347.807c-.525.207-.938-.479-.508-.846l13.916-11.869 3.605 6-17.013 6.715zM114.739 328.983c.45.363 1.054-.201.724-.675l-10.127-14.533-4.388 4.092 13.791 11.116zM102.013 347.807c.525.207.937-.479.508-.846l-13.916-11.869-3.605 6 17.013 6.715z" fill="#AAC4E4"/><path fill-rule="evenodd" clip-rule="evenodd" d="M44.139 489.54c-.023-3.047.145-6.116.606-9.227.786-5.33 1.987-10.631 3.116-15.925.811-3.804.76-10.636 3.838-13.668.845-.655 1.048.631 1.048 1.188.01.118-.002-2.276-.822-1.859-4.87 2.515-6.449 10.425-8.008 14.385-2.275 5.781-4.21 11.69-5.008 17.704a39.66 39.66 0 0 0-.336 4.554c-.166-.405-.321-.814-.493-1.218a82.224 82.224 0 0 0-11.337-18.96c-1.165-1.46-15.809-15.865-16.955-13.66.113.32.35.586.71.797.022.024.023.011.01-.025.86 1.39 3.306 3.535 4.067 4.753 1.917 3.063 3.407 6.314 4.921 9.503 3.199 6.74 6.166 13.547 9.043 20.368.67 1.589 1.367 3.169 2.08 4.744C23.277 482.405 13.483 472.791 0 467.287c4.605 2.343 7.624 6.75 10.734 10.125 3.75 4.071 7.701 8.032 11.459 12.098 4.432 4.797 9.647 9.848 13.91 15.156 4.13 8.67 8.143 17.349 10.62 26.462-1.015-3.148-.08-7.5-.253-10.804-.138-2.631-.445-5.24-.867-7.844.521 1.175.97 2.35 1.173 3.444-.185-1.834-.399-3.656-.629-5.469.59-1.697 1.169-3.28 1.56-4.585 2.005-6.691 4.392-13.268 7.642-19.677 3.008-5.929 6.459-11.783 10.218-17.458 1.754-2.646 3.532-5.282 5.299-7.923 1.156-1.729 2.257-4.496 3.867-6.153-10.407 9.515-28.38 30.515-28.38 30.515a44.627 44.627 0 0 0-2.214 4.366z" fill="#E9F0F8"/><ellipse cx="39.646" cy="517.728" rx="24.228" ry="19.272" fill="#D4E1F1"/></svg>