<svg width="421" height="360" fill="none" xmlns="http://www.w3.org/2000/svg"><path d="M313.8 164s12.8-47.318-12.8-96M139.114 149c4.46-18.389 5.792-56.725-53.114-73" stroke="#E0E0E0" stroke-width="10" stroke-linecap="round" stroke-linejoin="round" stroke-dasharray="0"/><path d="M32 161h367v199H32V161z" fill="url(#a)"/><path d="M35 164h361v191H35V164z" fill="#386DB0"/><circle cx="105.5" cy="193.5" r="17.5" fill="url(#b)"/><circle cx="105" cy="194" r="16" fill="#E7F1FD"/><path opacity=".831" d="M142 188h89v9h-89v-9zM105 247h223v9H105v-9zM105 226h223v9H105v-9zM105 266h223v9H105v-9zM105 287h223v9H105v-9zM105 306h223v9H105v-9zM105 326h223v9H105v-9z" fill="#E9F0F8"/><path d="M70.946 151c.363-9.748-.9-24.32-9.946-34" stroke="#BDBDBD" stroke-width="10" stroke-linecap="round" stroke-linejoin="round" stroke-dasharray="0"/><path d="M274.946 154c.363-9.748-.9-24.32-9.946-34" stroke="#E0E0E0" stroke-width="10" stroke-linecap="round" stroke-linejoin="round" stroke-dasharray="0"/><path d="M360.054 151c-.363-9.748.9-24.32 9.946-34" stroke="#BDBDBD" stroke-width="10" stroke-linecap="round" stroke-linejoin="round" stroke-dasharray="0"/><path opacity=".7" d="M0 52h50v27H0V52z" fill="#F1EFBB"/><path opacity=".7" d="M275 34h50v27h-50V34z" fill="#EAF6F0"/><path opacity=".7" d="M233 82h50v27h-50V82z" fill="#DDEBFD"/><path d="M37 57h82v44H37V57z" fill="#F9E2DF"/><path d="M339 60h82v44h-82V60z" fill="#E6F0FC"/><path d="M154 0h82v44h-82V0z" fill="#C8E5D6"/><path d="M190.802 150c2.676-9.635 4.417-25.031-4.069-40.924-10.477-19.627-1.056-38.749 4.3-47.076" stroke="#BDBDBD" stroke-width="10" stroke-linecap="round" stroke-linejoin="round" stroke-dasharray="0"/><defs><linearGradient id="a" x1="399" y1="360" x2="399" y2="161" gradientUnits="userSpaceOnUse"><stop stop-color="gray" stop-opacity=".25"/><stop offset=".54" stop-color="gray" stop-opacity=".12"/><stop offset="1" stop-color="gray" stop-opacity=".1"/></linearGradient><linearGradient id="b" x1="123" y1="211" x2="123" y2="176" gradientUnits="userSpaceOnUse"><stop stop-color="#B3B3B3" stop-opacity=".25"/><stop offset=".54" stop-color="#B3B3B3" stop-opacity=".1"/><stop offset="1" stop-color="#B3B3B3" stop-opacity=".05"/></linearGradient></defs></svg>