<svg width="388" height="254" xmlns="http://www.w3.org/2000/svg" xmlns:xlink="http://www.w3.org/1999/xlink"><defs><path id="a" d="M0 0h330v201H0z"/></defs><g fill="none" fill-rule="evenodd"><path fill="#FDFDFD" d="M0 0h388v253H0z"/><g transform="translate(58 53)"><mask id="b" fill="#fff"><use xlink:href="#a"/></mask><g opacity=".397" mask="url(#b)"><g transform="translate(274.518 3.926)"><path d="m47.551 201.235-16.698-11.332" stroke="#AAC4E4" stroke-width="3" stroke-linecap="square"/><path d="m42.47 178.936-12.343 3.656" stroke="#AAC4E4" stroke-width="3" opacity=".74" stroke-linecap="square"/><path d="m51.181 172.357 8.71-102.35" stroke="#AAC4E4" stroke-width="3" stroke-linecap="square"/><path d="m45.373 172.357-26.862-65.066" stroke="#AAC4E4" stroke-width="3" opacity=".74" stroke-linecap="square"/><path d="m52.633 175.281 7.26-5.849" stroke="#AAC4E4" stroke-width="3" opacity=".58" stroke-linecap="square"/><path d="M50.455 66.35 18.512 93.4" stroke="#AAC4E4" stroke-width="3" opacity=".588" stroke-linecap="square"/><path d="M51.181 50.998 14.155 11.52" stroke="#AAC4E4" stroke-width="3" stroke-linecap="square"/><path d="M59.53 26.507 14.156 8.596" stroke="#AAC4E4" stroke-width="3" opacity=".588" stroke-linecap="square"/><path d="m51.181 181.13 9.075 6.946" stroke="#AAC4E4" stroke-width="3" opacity=".58" stroke-linecap="square"/><path d="m52.633 178.205 7.623 2.924" stroke="#AAC4E4" stroke-width="3" stroke-linecap="square"/><ellipse fill="#AAC4E4" fill-rule="nonzero" transform="rotate(-180 21.78 187.345)" cx="21.779" cy="187.345" rx="10.889" ry="10.966"/><ellipse fill="#AAC4E4" fill-rule="nonzero" transform="rotate(-180 10.89 101.807)" cx="10.891" cy="101.807" rx="10.889" ry="10.966"/><ellipse fill="#AAC4E4" fill-rule="nonzero" transform="rotate(-180 53.784 58.676)" cx="53.784" cy="58.676" rx="6.595" ry="10.966"/><ellipse fill="#AAC4E4" fill-rule="nonzero" transform="rotate(-180 47.551 177.474)" cx="47.551" cy="177.474" rx="6.171" ry="6.215"/><ellipse fill="#AAC4E4" fill-rule="nonzero" transform="rotate(-180 9.438 6.769)" cx="9.438" cy="6.769" rx="6.534" ry="6.58"/></g><g transform="translate(22.786 141.781)"><path d="m194.923 62.202-8.389-17.291" stroke="#AAC4E4" stroke-width="3" stroke-linecap="square"/><path d="m174.673 55.607 4.692-12.062m-11.454 14.401-62.024-32.618" stroke="#AAC4E4" stroke-width="3" opacity=".74" stroke-linecap="square"/><path d="m62.603 53.806 29.543-29.688" stroke="#AAC4E4" stroke-width="3" opacity=".588" stroke-linecap="square"/><path d="M47.353 53.196 11.526 12.61" stroke="#AAC4E4" stroke-width="3" stroke-linecap="square"/><path d="M22.664 60.56 8.634 12.359" stroke="#AAC4E4" stroke-width="3" opacity=".588" stroke-linecap="square"/><path d="m235.129 62.202 4.796-11.12" stroke="#AAC4E4" stroke-width="3" opacity=".836" stroke-linecap="square"/><ellipse fill="#AAC4E4" fill-rule="nonzero" transform="scale(1 -1) rotate(85.031 223.606 0)" cx="184.794" cy="35.584" rx="10.958" ry="10.898"/><ellipse fill="#AAC4E4" fill-rule="nonzero" transform="scale(1 -1) rotate(85.031 119.892 0)" cx="101.127" cy="17.204" rx="10.958" ry="10.898"/><ellipse fill="#AAC4E4" fill-rule="nonzero" transform="scale(1 -1) rotate(85.031 116.488 0)" cx="54.999" cy="56.375" rx="6.511" ry="11.167"/><ellipse fill="#D8D8D8" fill-rule="nonzero" transform="scale(1 -1) rotate(85.031 292.355 0)" cx="244.96" cy="43.453" rx="9.132" ry="9.081"/><ellipse fill="#AAC4E4" fill-rule="nonzero" transform="scale(1 -1) rotate(85.031 292.355 0)" cx="244.96" cy="43.453" rx="9.132" ry="9.081"/><ellipse fill="#AAC4E4" fill-rule="nonzero" transform="scale(1 -1) rotate(85.031 236.731 0)" cx="172.968" cy="58.459" rx="4.085" ry="6.175"/><ellipse fill="#AAC4E4" fill-rule="nonzero" transform="scale(1 -1) rotate(85.031 15.379 0)" cx="7.237" cy="7.465" rx="6.575" ry="6.539"/></g></g></g></g></svg>