<svg width="391" height="251" xmlns="http://www.w3.org/2000/svg" xmlns:xlink="http://www.w3.org/1999/xlink">
    <defs>
        <path id="a" d="M0 0h420v256H0z"/>
    </defs>
    <g transform="translate(-29 -5)" fill="none" fill-rule="evenodd">
        <mask id="b" fill="#fff"><use xlink:href="#a"/></mask>
        <g mask="url(#b)" opacity=".397">
            <g transform="translate(349.387 5)">
                <path d="m60.52 256.299-21.252-14.433" stroke="#AAC4E4" stroke-width="3" stroke-linecap="square"/>
                <path d="m54.052 227.899-15.708 4.656" stroke="#AAC4E4" stroke-width="3" opacity=".74" stroke-linecap="square"/>
                <path d="M65.14 219.52 76.226 89.162" stroke="#AAC4E4" stroke-width="3" stroke-linecap="square"/>
                <path d="M57.748 219.52 23.56 136.649" stroke="#AAC4E4" stroke-width="3" opacity=".74" stroke-linecap="square"/>
                <path d="m66.987 223.244 9.24-7.45" stroke="#AAC4E4" stroke-width="3" opacity=".58" stroke-linecap="square"/>
                <path d="m64.215 84.506-40.654 34.452" stroke="#AAC4E4" stroke-width="3" opacity=".588" stroke-linecap="square"/>
                <path d="M65.14 64.953 18.016 14.672" stroke="#AAC4E4" stroke-width="3" stroke-linecap="square"/>
                <path d="M75.765 33.76 18.017 10.948" stroke="#AAC4E4" stroke-width="3" opacity=".588" stroke-linecap="square"/>
                <path d="m65.14 230.693 11.549 8.846" stroke="#AAC4E4" stroke-width="3" opacity=".58" stroke-linecap="square"/>
                <path d="m66.987 226.968 9.702 3.724" stroke="#AAC4E4" stroke-width="3" stroke-linecap="square"/>
                <ellipse fill="#AAC4E4" fill-rule="nonzero" transform="rotate(-180 27.719 238.608)" cx="27.719" cy="238.608" rx="13.859" ry="13.967"/>
                <ellipse fill="#AAC4E4" fill-rule="nonzero" transform="rotate(-180 13.86 129.665)" cx="13.859" cy="129.665" rx="13.859" ry="13.967"/>
                <ellipse fill="#AAC4E4" fill-rule="nonzero" transform="rotate(-180 68.452 74.73)" cx="68.452" cy="74.729" rx="8.394" ry="13.967"/>
                <ellipse fill="#AAC4E4" fill-rule="nonzero" transform="rotate(-180 60.52 226.037)" cx="60.52" cy="226.037" rx="7.854" ry="7.915"/>
                <ellipse fill="#AAC4E4" fill-rule="nonzero" transform="rotate(-180 12.012 8.62)" cx="12.012" cy="8.619" rx="8.316" ry="8.38"/>
            </g>
            <g transform="translate(29 180.577)">
                <path d="M248.084 79.222 237.407 57.2" stroke="#AAC4E4" stroke-width="3" stroke-linecap="square"/>
                <path d="m222.311 70.823 5.972-15.363M213.705 73.802l-78.94-41.543" stroke="#AAC4E4" stroke-width="3" opacity=".74" stroke-linecap="square"/>
                <path d="m79.677 68.529 37.6-37.811" stroke="#AAC4E4" stroke-width="3" opacity=".588" stroke-linecap="square"/>
                <path d="M60.267 67.752 14.67 16.062" stroke="#AAC4E4" stroke-width="3" stroke-linecap="square"/>
                <path d="M28.845 77.132 10.988 15.74" stroke="#AAC4E4" stroke-width="3" opacity=".588" stroke-linecap="square"/>
                <path d="m299.255 79.222 6.104-14.163" stroke="#AAC4E4" stroke-width="3" opacity=".836" stroke-linecap="square"/>
                <ellipse fill="#AAC4E4" fill-rule="nonzero" transform="scale(1 -1) rotate(85.031 284.624 0)" cx="235.192" cy="45.32" rx="13.946" ry="13.88"/>
                <ellipse fill="#AAC4E4" fill-rule="nonzero" transform="scale(1 -1) rotate(85.031 152.606 0)" cx="128.707" cy="21.911" rx="13.946" ry="13.88"/>
                <ellipse fill="#AAC4E4" fill-rule="nonzero" transform="scale(1 -1) rotate(85.031 148.313 0)" cx="69.998" cy="71.801" rx="8.287" ry="14.223"/>
                <ellipse fill="#D8D8D8" fill-rule="nonzero" transform="scale(1 -1) rotate(85.031 372.131 0)" cx="311.767" cy="55.343" rx="11.622" ry="11.566"/>
                <ellipse fill="#AAC4E4" fill-rule="nonzero" transform="scale(1 -1) rotate(85.031 372.131 0)" cx="311.767" cy="55.343" rx="11.622" ry="11.566"/>
                <ellipse fill="#AAC4E4" fill-rule="nonzero" transform="scale(1 -1) rotate(85.031 301.352 0)" cx="220.142" cy="74.456" rx="5.199" ry="7.865"/>
                <ellipse fill="#AAC4E4" fill-rule="nonzero" transform="scale(1 -1) rotate(85.031 19.58 0)" cx="9.21" cy="9.507" rx="8.368" ry="8.328"/>
            </g>
        </g>
    </g>
</svg>
