<svg width="439" height="300" viewBox="0 0 439 300" fill="none" xmlns="http://www.w3.org/2000/svg">
<g id="Group">
<g id="network-illustration copy" opacity="0.396577">
<path id="Line 10" d="M418.5 277L395.5 261.401" stroke="#AAC4E4" stroke-width="3" stroke-linecap="square"/>
<path id="Line 11" opacity="0.739676" d="M411.5 246.306L394.5 251.338" stroke="#AAC4E4" stroke-width="3" stroke-linecap="square"/>
<path id="Line 12" d="M423.5 237.25L435.5 96.3636" stroke="#AAC4E4" stroke-width="3" stroke-linecap="square"/>
<path id="Line 13" opacity="0.739676" d="M415.5 237.25L378.5 147.686" stroke="#AAC4E4" stroke-width="3" stroke-linecap="square"/>
<path id="Line 19" opacity="0.579911" d="M425.5 241.275L435.5 233.224" stroke="#AAC4E4" stroke-width="3" stroke-linecap="square"/>
<path id="Line 14" opacity="0.587556" d="M422.5 91.3315L378.5 128.566" stroke="#AAC4E4" stroke-width="3" stroke-linecap="square"/>
<path id="Line 15" d="M423.5 70.1987L372.5 15.857" stroke="#AAC4E4" stroke-width="3" stroke-linecap="square"/>
<path id="Line 16" opacity="0.587556" d="M435 36.4868L372.5 11.8318" stroke="#AAC4E4" stroke-width="3" stroke-linecap="square"/>
<path id="Line 17" opacity="0.579911" d="M423.5 249.326L436 258.886" stroke="#AAC4E4" stroke-width="3" stroke-linecap="square"/>
<path id="Line 18" d="M425.5 245.3L436 249.325" stroke="#AAC4E4" stroke-width="3" stroke-linecap="square"/>
<ellipse id="Oval 2" cx="383" cy="257.88" rx="15" ry="15.0949" transform="rotate(-180 383 257.88)" fill="#AAC4E4"/>
<ellipse id="Oval 2_2" cx="368" cy="140.138" rx="15" ry="15.0949" transform="rotate(-180 368 140.138)" fill="#AAC4E4"/>
<ellipse id="Oval 2_3" cx="427.085" cy="80.7649" rx="9.0853" ry="15.0949" transform="rotate(-180 427.085 80.7649)" fill="#AAC4E4"/>
<ellipse id="Oval 2_4" cx="418.5" cy="244.294" rx="8.5" ry="8.5538" transform="rotate(-180 418.5 244.294)" fill="#AAC4E4"/>
<ellipse id="Oval 2_5" cx="366" cy="9.3156" rx="9" ry="9.05696" transform="rotate(-180 366 9.3156)" fill="#AAC4E4"/>
</g>
<g id="network-illustration copy 2" opacity="0.396577">
<path id="Line 10_2" d="M274.5 277.621L262.944 253.819" stroke="#AAC4E4" stroke-width="3" stroke-linecap="square"/>
<path id="Line 11_2" opacity="0.739676" d="M246.606 268.543L253.069 251.939" stroke="#AAC4E4" stroke-width="3" stroke-linecap="square"/>
<path id="Line 13_2" opacity="0.739676" d="M237.292 271.763L151.855 226.865" stroke="#AAC4E4" stroke-width="3" stroke-linecap="square"/>
<path id="Line 14_2" opacity="0.587556" d="M92.2339 266.064L132.928 225.199" stroke="#AAC4E4" stroke-width="3" stroke-linecap="square"/>
<path id="Line 15_2" d="M71.2266 265.224L21.877 209.36" stroke="#AAC4E4" stroke-width="3" stroke-linecap="square"/>
<path id="Line 16_2" opacity="0.587556" d="M37.219 275.362L17.8921 209.01" stroke="#AAC4E4" stroke-width="3" stroke-linecap="square"/>
<path id="Line 9" opacity="0.835938" d="M329.882 277.621L336.488 262.314" stroke="#AAC4E4" stroke-width="3" stroke-linecap="square"/>
<ellipse id="Oval 2_6" rx="15.0942" ry="15.0007" transform="matrix(0.0866117 -0.996242 -0.996147 -0.0877031 260.547 240.981)" fill="#AAC4E4"/>
<ellipse id="Oval 2_7" rx="15.0942" ry="15.0007" transform="matrix(0.0866117 -0.996242 -0.996147 -0.0877031 145.299 215.681)" fill="#AAC4E4"/>
<ellipse id="Oval 2_8" rx="8.96877" ry="15.3715" transform="matrix(0.0866117 -0.996242 -0.996147 -0.0877031 81.7587 269.6)" fill="#AAC4E4"/>
<ellipse id="Oval 2_9" rx="12.5785" ry="12.5006" transform="matrix(0.0866117 -0.996242 -0.996147 -0.0877031 343.424 251.813)" fill="#D8D8D8"/>
<ellipse id="Oval 2_10" rx="12.5785" ry="12.5006" transform="matrix(0.0866117 -0.996242 -0.996147 -0.0877031 343.424 251.813)" fill="#AAC4E4"/>
<ellipse id="Oval 2_11" rx="5.62703" ry="8.50041" transform="matrix(0.0866117 -0.996242 -0.996147 -0.0877031 244.258 272.47)" fill="#AAC4E4"/>
<ellipse id="Oval 2_12" rx="9.05653" ry="9.00043" transform="matrix(0.0866117 -0.996242 -0.996147 -0.0877031 15.9683 202.275)" fill="#AAC4E4"/>
</g>
</g>
</svg>
