<svg width="38" height="34" fill="none" xmlns="http://www.w3.org/2000/svg"><path fill-rule="evenodd" clip-rule="evenodd" d="M24.148 15.789c-1.317.456-1.757.609-2.01 1.236-.255.632-.046 1.065.573 2.346.156.322.338.698.545 1.145l-3.265 3.35c-.46-.224-.844-.42-1.17-.587-1.187-.61-1.606-.824-2.223-.563-.624.267-.776.731-1.222 2.088-.111.34-.24.734-.4 1.196h-4.618c-.163-.471-.295-.873-.408-1.216-.445-1.351-.593-1.802-1.206-2.063-.625-.268-1.066-.041-2.254.569-.321.165-.698.359-1.148.578l-3.265-3.35c.21-.452.393-.831.55-1.156.618-1.276.824-1.702.568-2.336-.255-.63-.7-.785-2.022-1.242C.84 15.67.453 15.536 0 15.37v-4.74a68.88 68.88 0 0 1 1.182-.417c1.318-.457 1.759-.61 2.013-1.238.256-.632.048-1.062-.572-2.344-.156-.323-.338-.7-.546-1.148l3.265-3.351c.456.222.837.417 1.16.584 1.19.61 1.618.83 2.242.563.613-.26.762-.713 1.205-2.06.113-.345.245-.747.41-1.219h4.617c.16.464.29.86.402 1.2.446 1.359.596 1.818 1.21 2.08.619.262 1.054.04 2.286-.588.315-.16.682-.348 1.117-.56l3.265 3.35c-.208.45-.39.827-.546 1.15-.619 1.28-.827 1.712-.572 2.342.253.628.692.78 2.008 1.236.335.116.727.252 1.187.42v4.74c-.459.167-.85.303-1.185.419zm-3.445 4.284c-.587-1.213-1.125-2.366-.515-3.876.606-1.508 1.782-1.934 3.036-2.365V12.17c-1.252-.432-2.425-.858-3.034-2.365-.61-1.509-.072-2.664.515-3.878L19.56 4.753l-.009.004c-1.13.576-2.275 1.16-3.77.524-1.469-.626-1.885-1.83-2.305-3.114h-1.619c-.42 1.283-.835 2.49-2.304 3.114-1.495.637-2.633.056-3.774-.526l-.005-.002L4.63 5.927c.587 1.213 1.125 2.367.515 3.877-.61 1.51-1.784 1.935-3.035 2.366v1.66c1.25.432 2.425.858 3.036 2.365.611 1.516.074 2.667-.514 3.878l1.143 1.174.005-.002c1.13-.577 2.277-1.162 3.773-.526 1.47.626 1.884 1.83 2.304 3.114h1.62c.42-1.282.835-2.487 2.309-3.116 1.487-.634 2.613-.06 3.765.527l.006.003 1.145-1.174zM12.667 9.75c1.746 0 3.166 1.458 3.166 3.25s-1.42 3.25-3.166 3.25S9.5 14.792 9.5 13s1.42-3.25 3.167-3.25zM7.389 13c0-2.992 2.362-5.417 5.278-5.417 2.915 0 5.277 2.425 5.277 5.417s-2.362 5.417-5.277 5.417c-2.916 0-5.278-2.425-5.278-5.417z" fill="#386DB0"/><path fill-rule="evenodd" clip-rule="evenodd" d="M37.27 22.283c.206.072.447.155.73.259v2.916c-.283.103-.523.187-.73.258-.81.28-1.081.375-1.236.76-.158.39-.029.656.352 1.444.096.199.208.43.335.705l-2.009 2.062c-.283-.138-.519-.259-.72-.361-.73-.375-.988-.508-1.368-.347-.384.165-.477.45-.752 1.285-.068.209-.148.452-.246.736h-2.842c-.1-.29-.181-.537-.251-.748-.273-.832-.365-1.11-.742-1.27-.385-.165-.656-.025-1.387.35-.198.102-.43.221-.706.356l-2.01-2.062c.13-.278.242-.511.339-.71.38-.786.507-1.049.35-1.439-.157-.387-.432-.483-1.245-.764-.205-.07-.443-.153-.722-.254v-2.917c.282-.103.522-.186.727-.257.812-.281 1.083-.375 1.24-.762.157-.389.029-.654-.352-1.442-.097-.2-.209-.431-.336-.707l2.009-2.062c.28.137.514.257.714.36.732.375.995.51 1.38.346.377-.16.468-.439.74-1.268.07-.212.152-.46.252-.75h2.842c.099.285.179.53.248.738.274.837.366 1.119.744 1.28.381.162.649.025 1.407-.361.194-.1.42-.214.687-.345l2.01 2.062c-.128.276-.24.509-.337.707-.38.788-.508 1.054-.351 1.442.156.386.426.48 1.235.76zm-2.12 6.07c-.36-.747-.692-1.456-.317-2.386.374-.928 1.097-1.19 1.87-1.455v-1.023c-.771-.266-1.494-.528-1.869-1.455-.374-.929-.044-1.64.317-2.387l-.704-.722-.005.002c-.695.355-1.4.714-2.32.323-.904-.385-1.16-1.127-1.418-1.917h-.997c-.258.79-.513 1.532-1.418 1.917-.92.392-1.62.034-2.322-.324l-.003-.001-.704.722c.361.747.692 1.457.317 2.386-.376.929-1.098 1.191-1.868 1.456v1.022c.77.266 1.492.528 1.869 1.455.376.933.045 1.641-.317 2.387l.704.722.003-.001c.695-.355 1.401-.715 2.321-.324.905.385 1.16 1.127 1.418 1.917h.997c.258-.79.514-1.531 1.421-1.918.916-.39 1.608-.037 2.317.324l.004.002.704-.722zM30.205 22c1.074 0 1.949.897 1.949 2s-.875 2-1.949 2-1.949-.897-1.949-2 .875-2 1.949-2zm-3.248 2c0-1.841 1.454-3.333 3.248-3.333 1.794 0 3.248 1.492 3.248 3.333 0 1.841-1.454 3.333-3.248 3.333-1.794 0-3.248-1.492-3.248-3.333zM22.41 29.271v1.458c-.141.052-.262.093-.364.129-.406.14-.541.187-.619.38-.079.195-.014.328.176.722.048.1.104.215.168.353l-1.005 1.03c-.141-.068-.26-.129-.36-.18-.365-.188-.494-.254-.684-.173-.192.082-.239.224-.376.642-.034.104-.074.226-.123.368h-1.42c-.051-.145-.092-.269-.126-.374-.137-.416-.183-.555-.371-.635-.193-.082-.328-.013-.694.175-.099.051-.215.11-.353.178l-1.005-1.031c.065-.139.121-.256.17-.355.19-.393.253-.524.174-.72-.078-.193-.215-.24-.622-.381a21.15 21.15 0 0 1-.36-.128v-1.458c.14-.052.26-.093.363-.129.406-.14.541-.187.62-.38.078-.195.014-.327-.177-.722-.048-.1-.104-.215-.168-.353l1.005-1.031c.14.068.257.128.357.18.366.188.498.255.69.173.188-.08.234-.22.37-.634.035-.106.076-.23.126-.375h1.421c.05.143.09.265.124.37.137.417.183.558.372.639.19.081.325.013.704-.18.097-.05.21-.108.343-.173l1.005 1.031c-.064.138-.12.254-.168.354-.19.394-.255.526-.176.72.078.194.213.24.618.38.103.036.223.078.365.13zm-1.425 2.905c-.18-.373-.346-.728-.158-1.192.186-.464.548-.595.934-.728v-.511c-.385-.133-.746-.264-.934-.728-.187-.464-.022-.82.159-1.193l-.352-.362-.003.002c-.347.177-.7.357-1.16.161-.452-.193-.58-.563-.709-.958h-.498c-.13.395-.257.766-.71.958-.459.196-.81.017-1.16-.162h-.002l-.352.36c.18.374.346.729.159 1.194-.188.464-.55.595-.934.728v.51c.385.133.746.264.934.728.188.467.023.82-.158 1.193l.351.362.002-.001c.348-.178.7-.358 1.16-.162.453.193.58.563.71.958h.498c.13-.394.257-.765.71-.959.458-.195.805-.018 1.16.163h.001l.352-.36zM18.513 29c.537 0 .974.449.974 1 0 .551-.437 1-.974 1a.989.989 0 0 1-.975-1c0-.551.438-1 .975-1zm-1.624 1c0-.92.727-1.667 1.624-1.667.897 0 1.624.746 1.624 1.667 0 .92-.727 1.667-1.624 1.667-.897 0-1.624-.746-1.624-1.667z" fill="#386DB0"/></svg>