<svg width="287" height="62" viewBox="0 0 287 62" fill="none" xmlns="http://www.w3.org/2000/svg">
<path d="M3.232 56H1.68V44.536H3.232V56ZM6.07425 56V47.896H6.92225C7.12492 47.896 7.25292 47.9947 7.30625 48.192L7.41825 49.072C7.77025 48.6827 8.16225 48.368 8.59425 48.128C9.03158 47.888 9.53558 47.768 10.1063 47.768C10.5489 47.768 10.9383 47.8427 11.2743 47.992C11.6156 48.136 11.8983 48.344 12.1223 48.616C12.3516 48.8827 12.5249 49.2053 12.6423 49.584C12.7596 49.9627 12.8183 50.3813 12.8183 50.84V56H11.3943V50.84C11.3943 50.2267 11.2529 49.752 10.9703 49.416C10.6929 49.0747 10.2663 48.904 9.69025 48.904C9.26892 48.904 8.87425 49.0053 8.50625 49.208C8.14358 49.4107 7.80758 49.6853 7.49825 50.032V56H6.07425ZM14.9649 58.744V47.896H15.8129C16.0155 47.896 16.1435 47.9947 16.1969 48.192L16.3169 49.152C16.6635 48.7307 17.0582 48.392 17.5009 48.136C17.9489 47.88 18.4635 47.752 19.0449 47.752C19.5089 47.752 19.9302 47.8427 20.3089 48.024C20.6875 48.2 21.0102 48.464 21.2769 48.816C21.5435 49.1627 21.7489 49.5947 21.8929 50.112C22.0369 50.6293 22.1089 51.224 22.1089 51.896C22.1089 52.4933 22.0289 53.0507 21.8689 53.568C21.7089 54.08 21.4795 54.5253 21.1809 54.904C20.8822 55.2773 20.5142 55.5733 20.0769 55.792C19.6449 56.0053 19.1569 56.112 18.6129 56.112C18.1115 56.112 17.6822 56.0293 17.3249 55.864C16.9729 55.6987 16.6609 55.464 16.3889 55.16V58.744H14.9649ZM18.5729 48.904C18.1089 48.904 17.7009 49.0107 17.3489 49.224C17.0022 49.4373 16.6822 49.7387 16.3889 50.128V54.048C16.6502 54.4 16.9355 54.648 17.2449 54.792C17.5595 54.936 17.9089 55.008 18.2929 55.008C19.0449 55.008 19.6235 54.7387 20.0289 54.2C20.4342 53.6613 20.6369 52.8933 20.6369 51.896C20.6369 51.368 20.5889 50.9147 20.4929 50.536C20.4022 50.1573 20.2689 49.848 20.0929 49.608C19.9169 49.3627 19.7009 49.184 19.4449 49.072C19.1889 48.96 18.8982 48.904 18.5729 48.904ZM25.025 47.896V53.064C25.025 53.6773 25.1663 54.152 25.449 54.488C25.7317 54.824 26.1583 54.992 26.729 54.992C27.145 54.992 27.537 54.8933 27.905 54.696C28.273 54.4987 28.6117 54.224 28.921 53.872V47.896H30.345V56H29.497C29.2943 56 29.1663 55.9013 29.113 55.704L29.001 54.832C28.649 55.2213 28.2543 55.536 27.817 55.776C27.3797 56.0107 26.8783 56.128 26.313 56.128C25.8703 56.128 25.4783 56.056 25.137 55.912C24.801 55.7627 24.5183 55.5547 24.289 55.288C24.0597 55.0213 23.8863 54.6987 23.769 54.32C23.657 53.9413 23.601 53.5227 23.601 53.064V47.896H25.025ZM35.1396 56.128C34.4996 56.128 34.0063 55.9493 33.6596 55.592C33.3183 55.2347 33.1476 54.72 33.1476 54.048V49.088H32.1716C32.0863 49.088 32.0143 49.064 31.9556 49.016C31.897 48.9627 31.8676 48.8827 31.8676 48.776V48.208L33.1956 48.04L33.5236 45.536C33.5343 45.456 33.569 45.392 33.6276 45.344C33.6863 45.2907 33.761 45.264 33.8516 45.264H34.5716V48.056H36.8916V49.088H34.5716V53.952C34.5716 54.2933 34.6543 54.5467 34.8196 54.712C34.985 54.8773 35.1983 54.96 35.4596 54.96C35.609 54.96 35.737 54.9413 35.8436 54.904C35.9556 54.8613 36.0516 54.816 36.1316 54.768C36.2116 54.72 36.2783 54.6773 36.3316 54.64C36.3903 54.5973 36.441 54.576 36.4836 54.576C36.5583 54.576 36.625 54.6213 36.6836 54.712L37.0996 55.392C36.8543 55.6213 36.5583 55.8027 36.2116 55.936C35.865 56.064 35.5076 56.128 35.1396 56.128ZM42.0661 56V49.112L41.1701 49.008C41.0581 48.9813 40.9648 48.9413 40.8901 48.888C40.8208 48.8293 40.7861 48.7467 40.7861 48.64V48.056H42.0661V47.608C42.0661 47.112 42.1435 46.6587 42.2981 46.248C42.4528 45.832 42.6848 45.4747 42.9941 45.176C43.3035 44.8773 43.6875 44.6453 44.1461 44.48C44.6101 44.3147 45.1488 44.232 45.7621 44.232C45.9648 44.232 46.1701 44.2453 46.3781 44.272C46.5915 44.2987 46.7755 44.3387 46.9301 44.392L46.8821 45.136C46.8715 45.2053 46.8395 45.2507 46.7861 45.272C46.7328 45.288 46.6555 45.296 46.5541 45.296C46.4955 45.296 46.4341 45.296 46.3701 45.296C46.3061 45.2907 46.2341 45.288 46.1541 45.288C45.2101 45.288 44.5221 45.4853 44.0901 45.88C43.6635 46.2693 43.4501 46.8587 43.4501 47.648V48.056H48.3461V56H46.9221V49.088H43.4981V56H42.0661ZM52.4551 44.216V56H51.0311V44.216H52.4551ZM58.1729 47.768C58.6582 47.768 59.1062 47.8507 59.5169 48.016C59.9275 48.176 60.2822 48.4107 60.5809 48.72C60.8795 49.024 61.1115 49.4027 61.2769 49.856C61.4475 50.304 61.5329 50.816 61.5329 51.392C61.5329 51.616 61.5089 51.7653 61.4609 51.84C61.4129 51.9147 61.3222 51.952 61.1889 51.952H55.7969C55.8075 52.464 55.8769 52.9093 56.0049 53.288C56.1329 53.6667 56.3089 53.984 56.5329 54.24C56.7569 54.4907 57.0235 54.68 57.3329 54.808C57.6422 54.9307 57.9889 54.992 58.3729 54.992C58.7302 54.992 59.0369 54.952 59.2929 54.872C59.5542 54.7867 59.7782 54.696 59.9649 54.6C60.1515 54.504 60.3062 54.416 60.4289 54.336C60.5569 54.2507 60.6662 54.208 60.7569 54.208C60.8742 54.208 60.9649 54.2533 61.0289 54.344L61.4289 54.864C61.2529 55.0773 61.0422 55.264 60.7969 55.424C60.5515 55.5787 60.2875 55.7067 60.0049 55.808C59.7275 55.9093 59.4395 55.984 59.1409 56.032C58.8422 56.0853 58.5462 56.112 58.2529 56.112C57.6929 56.112 57.1755 56.0187 56.7009 55.832C56.2315 55.64 55.8235 55.3627 55.4769 55C55.1355 54.632 54.8689 54.1787 54.6769 53.64C54.4849 53.1013 54.3889 52.4827 54.3889 51.784C54.3889 51.2187 54.4742 50.6907 54.6449 50.2C54.8209 49.7093 55.0715 49.2853 55.3969 48.928C55.7222 48.5653 56.1195 48.2827 56.5889 48.08C57.0582 47.872 57.5862 47.768 58.1729 47.768ZM58.2049 48.816C57.5169 48.816 56.9755 49.016 56.5809 49.416C56.1862 49.8107 55.9409 50.36 55.8449 51.064H60.2529C60.2529 50.7333 60.2075 50.432 60.1169 50.16C60.0262 49.8827 59.8929 49.6453 59.7169 49.448C59.5409 49.2453 59.3249 49.0907 59.0689 48.984C58.8182 48.872 58.5302 48.816 58.2049 48.816Z" fill="black"/>
<path d="M126.264 46.328C126.216 46.408 126.165 46.4693 126.112 46.512C126.059 46.5493 125.989 46.568 125.904 46.568C125.813 46.568 125.707 46.5227 125.584 46.432C125.467 46.3413 125.315 46.2427 125.128 46.136C124.947 46.024 124.725 45.9227 124.464 45.832C124.208 45.7413 123.896 45.696 123.528 45.696C123.181 45.696 122.875 45.744 122.608 45.84C122.341 45.9307 122.117 46.056 121.936 46.216C121.76 46.376 121.627 46.5653 121.536 46.784C121.445 46.9973 121.4 47.2293 121.4 47.48C121.4 47.8 121.477 48.0667 121.632 48.28C121.792 48.488 122 48.6667 122.256 48.816C122.517 48.9653 122.811 49.096 123.136 49.208C123.467 49.3147 123.803 49.4267 124.144 49.544C124.491 49.6613 124.827 49.7947 125.152 49.944C125.483 50.088 125.776 50.272 126.032 50.496C126.293 50.72 126.501 50.9947 126.656 51.32C126.816 51.6453 126.896 52.0453 126.896 52.52C126.896 53.0213 126.811 53.4933 126.64 53.936C126.469 54.3733 126.219 54.7547 125.888 55.08C125.563 55.4053 125.16 55.6613 124.68 55.848C124.205 56.0347 123.664 56.128 123.056 56.128C122.315 56.128 121.637 55.9947 121.024 55.728C120.416 55.456 119.896 55.0907 119.464 54.632L119.912 53.896C119.955 53.8373 120.005 53.7893 120.064 53.752C120.128 53.7093 120.197 53.688 120.272 53.688C120.384 53.688 120.512 53.7493 120.656 53.872C120.8 53.9893 120.979 54.12 121.192 54.264C121.411 54.408 121.672 54.5413 121.976 54.664C122.285 54.7813 122.661 54.84 123.104 54.84C123.472 54.84 123.8 54.7893 124.088 54.688C124.376 54.5867 124.619 54.4453 124.816 54.264C125.019 54.0773 125.173 53.856 125.28 53.6C125.387 53.344 125.44 53.0587 125.44 52.744C125.44 52.3973 125.36 52.1147 125.2 51.896C125.045 51.672 124.84 51.4853 124.584 51.336C124.328 51.1867 124.035 51.0613 123.704 50.96C123.379 50.8533 123.043 50.7467 122.696 50.64C122.355 50.528 122.019 50.4 121.688 50.256C121.363 50.112 121.072 49.9253 120.816 49.696C120.56 49.4667 120.352 49.1813 120.192 48.84C120.037 48.4933 119.96 48.0667 119.96 47.56C119.96 47.1547 120.037 46.7627 120.192 46.384C120.352 46.0053 120.581 45.6693 120.88 45.376C121.179 45.0827 121.547 44.848 121.984 44.672C122.427 44.496 122.933 44.408 123.504 44.408C124.144 44.408 124.728 44.5093 125.256 44.712C125.784 44.9147 126.245 45.208 126.64 45.592L126.264 46.328ZM134.604 56H133.972C133.834 56 133.722 55.9787 133.636 55.936C133.551 55.8933 133.495 55.8027 133.468 55.664L133.308 54.912C133.095 55.104 132.887 55.2773 132.684 55.432C132.482 55.5813 132.268 55.7093 132.044 55.816C131.82 55.9173 131.58 55.9947 131.324 56.048C131.074 56.1013 130.794 56.128 130.484 56.128C130.17 56.128 129.874 56.0853 129.596 56C129.324 55.9093 129.087 55.776 128.884 55.6C128.682 55.424 128.519 55.2027 128.396 54.936C128.279 54.664 128.22 54.344 128.22 53.976C128.22 53.656 128.308 53.3493 128.484 53.056C128.66 52.7573 128.943 52.4933 129.332 52.264C129.727 52.0347 130.242 51.848 130.876 51.704C131.511 51.5547 132.287 51.4693 133.204 51.448V50.816C133.204 50.1867 133.068 49.712 132.796 49.392C132.53 49.0667 132.132 48.904 131.604 48.904C131.258 48.904 130.964 48.9493 130.724 49.04C130.49 49.1253 130.284 49.224 130.108 49.336C129.938 49.4427 129.788 49.5413 129.66 49.632C129.538 49.7173 129.415 49.76 129.292 49.76C129.196 49.76 129.111 49.736 129.036 49.688C128.967 49.6347 128.911 49.5707 128.868 49.496L128.612 49.04C129.06 48.608 129.543 48.2853 130.06 48.072C130.578 47.8587 131.151 47.752 131.78 47.752C132.234 47.752 132.636 47.8267 132.988 47.976C133.34 48.1253 133.636 48.3333 133.876 48.6C134.116 48.8667 134.298 49.1893 134.42 49.568C134.543 49.9467 134.604 50.3627 134.604 50.816V56ZM130.908 55.128C131.159 55.128 131.388 55.104 131.596 55.056C131.804 55.0027 131.999 54.9307 132.18 54.84C132.367 54.744 132.543 54.6293 132.708 54.496C132.879 54.3627 133.044 54.2107 133.204 54.04V52.352C132.548 52.3733 131.991 52.4267 131.532 52.512C131.074 52.592 130.7 52.6987 130.412 52.832C130.124 52.9653 129.914 53.1227 129.78 53.304C129.652 53.4853 129.588 53.688 129.588 53.912C129.588 54.1253 129.623 54.3093 129.692 54.464C129.762 54.6187 129.855 54.7467 129.972 54.848C130.09 54.944 130.228 55.016 130.388 55.064C130.548 55.1067 130.722 55.128 130.908 55.128ZM138.346 44.216V56H136.922V44.216H138.346ZM140.856 56V47.896H141.704C141.906 47.896 142.034 47.9947 142.088 48.192L142.192 49.024C142.49 48.656 142.824 48.3547 143.192 48.12C143.565 47.8853 143.997 47.768 144.488 47.768C145.037 47.768 145.48 47.92 145.816 48.224C146.157 48.528 146.402 48.9387 146.552 49.456C146.664 49.1627 146.81 48.9093 146.992 48.696C147.178 48.4827 147.386 48.3067 147.616 48.168C147.845 48.0293 148.088 47.928 148.344 47.864C148.605 47.8 148.869 47.768 149.136 47.768C149.562 47.768 149.941 47.8373 150.272 47.976C150.608 48.1093 150.89 48.3067 151.12 48.568C151.354 48.8293 151.533 49.152 151.656 49.536C151.778 49.9147 151.84 50.3493 151.84 50.84V56H150.416V50.84C150.416 50.2053 150.277 49.7253 150 49.4C149.722 49.0693 149.32 48.904 148.792 48.904C148.557 48.904 148.333 48.9467 148.12 49.032C147.912 49.112 147.728 49.232 147.568 49.392C147.408 49.552 147.28 49.7547 147.184 50C147.093 50.24 147.048 50.52 147.048 50.84V56H145.624V50.84C145.624 50.1893 145.493 49.704 145.232 49.384C144.97 49.064 144.589 48.904 144.088 48.904C143.736 48.904 143.408 49 143.104 49.192C142.805 49.3787 142.53 49.6347 142.28 49.96V56H140.856ZM157.276 47.768C157.868 47.768 158.401 47.8667 158.876 48.064C159.356 48.2613 159.761 48.5413 160.092 48.904C160.428 49.2667 160.684 49.7067 160.86 50.224C161.041 50.736 161.132 51.3093 161.132 51.944C161.132 52.584 161.041 53.16 160.86 53.672C160.684 54.184 160.428 54.6213 160.092 54.984C159.761 55.3467 159.356 55.6267 158.876 55.824C158.401 56.016 157.868 56.112 157.276 56.112C156.684 56.112 156.148 56.016 155.668 55.824C155.193 55.6267 154.788 55.3467 154.452 54.984C154.116 54.6213 153.857 54.184 153.676 53.672C153.495 53.16 153.404 52.584 153.404 51.944C153.404 51.3093 153.495 50.736 153.676 50.224C153.857 49.7067 154.116 49.2667 154.452 48.904C154.788 48.5413 155.193 48.2613 155.668 48.064C156.148 47.8667 156.684 47.768 157.276 47.768ZM157.276 55C158.076 55 158.673 54.7333 159.068 54.2C159.463 53.6613 159.66 52.912 159.66 51.952C159.66 50.9867 159.463 50.2347 159.068 49.696C158.673 49.1573 158.076 48.888 157.276 48.888C156.871 48.888 156.519 48.9573 156.22 49.096C155.921 49.2347 155.671 49.4347 155.468 49.696C155.271 49.9573 155.121 50.28 155.02 50.664C154.924 51.0427 154.876 51.472 154.876 51.952C154.876 52.432 154.924 52.8613 155.02 53.24C155.121 53.6187 155.271 53.9387 155.468 54.2C155.671 54.456 155.921 54.6533 156.22 54.792C156.519 54.9307 156.871 55 157.276 55ZM162.887 56V47.896H163.735C163.937 47.896 164.065 47.9947 164.119 48.192L164.231 49.072C164.583 48.6827 164.975 48.368 165.407 48.128C165.844 47.888 166.348 47.768 166.919 47.768C167.361 47.768 167.751 47.8427 168.087 47.992C168.428 48.136 168.711 48.344 168.935 48.616C169.164 48.8827 169.337 49.2053 169.455 49.584C169.572 49.9627 169.631 50.3813 169.631 50.84V56H168.207V50.84C168.207 50.2267 168.065 49.752 167.783 49.416C167.505 49.0747 167.079 48.904 166.503 48.904C166.081 48.904 165.687 49.0053 165.319 49.208C164.956 49.4107 164.62 49.6853 164.311 50.032V56H162.887Z" fill="black"/>
<path d="M236.462 47.896V58.744H235.038V54.8C234.697 55.1947 234.308 55.512 233.87 55.752C233.438 55.992 232.942 56.112 232.382 56.112C231.918 56.112 231.497 56.024 231.118 55.848C230.74 55.6667 230.417 55.4027 230.15 55.056C229.884 54.7093 229.678 54.2773 229.534 53.76C229.39 53.2427 229.318 52.648 229.318 51.976C229.318 51.3787 229.398 50.824 229.558 50.312C229.718 49.7947 229.948 49.3467 230.246 48.968C230.55 48.5893 230.918 48.2933 231.35 48.08C231.782 47.8613 232.273 47.752 232.822 47.752C233.345 47.752 233.788 47.8453 234.15 48.032C234.518 48.2187 234.846 48.4827 235.134 48.824L235.23 48.192C235.284 47.9947 235.412 47.896 235.614 47.896H236.462ZM232.854 54.96C233.318 54.96 233.724 54.8533 234.07 54.64C234.422 54.4267 234.745 54.1253 235.038 53.736V49.816C234.782 49.4747 234.497 49.232 234.182 49.088C233.868 48.9387 233.521 48.864 233.142 48.864C232.385 48.864 231.804 49.1333 231.398 49.672C230.993 50.2107 230.79 50.9787 230.79 51.976C230.79 52.504 230.836 52.9573 230.926 53.336C231.017 53.7093 231.15 54.0187 231.326 54.264C231.502 54.504 231.718 54.68 231.974 54.792C232.23 54.904 232.524 54.96 232.854 54.96ZM240.08 47.896V53.064C240.08 53.6773 240.221 54.152 240.504 54.488C240.786 54.824 241.213 54.992 241.784 54.992C242.2 54.992 242.592 54.8933 242.96 54.696C243.328 54.4987 243.666 54.224 243.976 53.872V47.896H245.4V56H244.552C244.349 56 244.221 55.9013 244.168 55.704L244.056 54.832C243.704 55.2213 243.309 55.536 242.872 55.776C242.434 56.0107 241.933 56.128 241.368 56.128C240.925 56.128 240.533 56.056 240.192 55.912C239.856 55.7627 239.573 55.5547 239.344 55.288C239.114 55.0213 238.941 54.6987 238.824 54.32C238.712 53.9413 238.656 53.5227 238.656 53.064V47.896H240.08ZM253.69 56H253.058C252.92 56 252.808 55.9787 252.722 55.936C252.637 55.8933 252.581 55.8027 252.554 55.664L252.394 54.912C252.181 55.104 251.973 55.2773 251.77 55.432C251.568 55.5813 251.354 55.7093 251.13 55.816C250.906 55.9173 250.666 55.9947 250.41 56.048C250.16 56.1013 249.88 56.128 249.57 56.128C249.256 56.128 248.96 56.0853 248.682 56C248.41 55.9093 248.173 55.776 247.97 55.6C247.768 55.424 247.605 55.2027 247.482 54.936C247.365 54.664 247.306 54.344 247.306 53.976C247.306 53.656 247.394 53.3493 247.57 53.056C247.746 52.7573 248.029 52.4933 248.418 52.264C248.813 52.0347 249.328 51.848 249.962 51.704C250.597 51.5547 251.373 51.4693 252.29 51.448V50.816C252.29 50.1867 252.154 49.712 251.882 49.392C251.616 49.0667 251.218 48.904 250.69 48.904C250.344 48.904 250.05 48.9493 249.81 49.04C249.576 49.1253 249.37 49.224 249.194 49.336C249.024 49.4427 248.874 49.5413 248.746 49.632C248.624 49.7173 248.501 49.76 248.378 49.76C248.282 49.76 248.197 49.736 248.122 49.688C248.053 49.6347 247.997 49.5707 247.954 49.496L247.698 49.04C248.146 48.608 248.629 48.2853 249.146 48.072C249.664 47.8587 250.237 47.752 250.866 47.752C251.32 47.752 251.722 47.8267 252.074 47.976C252.426 48.1253 252.722 48.3333 252.962 48.6C253.202 48.8667 253.384 49.1893 253.506 49.568C253.629 49.9467 253.69 50.3627 253.69 50.816V56ZM249.994 55.128C250.245 55.128 250.474 55.104 250.682 55.056C250.89 55.0027 251.085 54.9307 251.266 54.84C251.453 54.744 251.629 54.6293 251.794 54.496C251.965 54.3627 252.13 54.2107 252.29 54.04V52.352C251.634 52.3733 251.077 52.4267 250.618 52.512C250.16 52.592 249.786 52.6987 249.498 52.832C249.21 52.9653 249 53.1227 248.866 53.304C248.738 53.4853 248.674 53.688 248.674 53.912C248.674 54.1253 248.709 54.3093 248.778 54.464C248.848 54.6187 248.941 54.7467 249.058 54.848C249.176 54.944 249.314 55.016 249.474 55.064C249.634 55.1067 249.808 55.128 249.994 55.128ZM255.848 56V47.896H256.696C256.898 47.896 257.026 47.9947 257.08 48.192L257.192 49.072C257.544 48.6827 257.936 48.368 258.368 48.128C258.805 47.888 259.309 47.768 259.88 47.768C260.322 47.768 260.712 47.8427 261.048 47.992C261.389 48.136 261.672 48.344 261.896 48.616C262.125 48.8827 262.298 49.2053 262.416 49.584C262.533 49.9627 262.592 50.3813 262.592 50.84V56H261.168V50.84C261.168 50.2267 261.026 49.752 260.744 49.416C260.466 49.0747 260.04 48.904 259.464 48.904C259.042 48.904 258.648 49.0053 258.28 49.208C257.917 49.4107 257.581 49.6853 257.272 50.032V56H255.848ZM267.194 56.128C266.554 56.128 266.061 55.9493 265.714 55.592C265.373 55.2347 265.202 54.72 265.202 54.048V49.088H264.226C264.141 49.088 264.069 49.064 264.01 49.016C263.952 48.9627 263.922 48.8827 263.922 48.776V48.208L265.25 48.04L265.578 45.536C265.589 45.456 265.624 45.392 265.682 45.344C265.741 45.2907 265.816 45.264 265.906 45.264H266.626V48.056H268.946V49.088H266.626V53.952C266.626 54.2933 266.709 54.5467 266.874 54.712C267.04 54.8773 267.253 54.96 267.514 54.96C267.664 54.96 267.792 54.9413 267.898 54.904C268.01 54.8613 268.106 54.816 268.186 54.768C268.266 54.72 268.333 54.6773 268.386 54.64C268.445 54.5973 268.496 54.576 268.538 54.576C268.613 54.576 268.68 54.6213 268.738 54.712L269.154 55.392C268.909 55.6213 268.613 55.8027 268.266 55.936C267.92 56.064 267.562 56.128 267.194 56.128ZM270.243 55.12C270.243 54.9813 270.267 54.8507 270.315 54.728C270.368 54.6053 270.438 54.4987 270.523 54.408C270.614 54.3173 270.72 54.2453 270.843 54.192C270.966 54.1387 271.096 54.112 271.235 54.112C271.374 54.112 271.504 54.1387 271.627 54.192C271.75 54.2453 271.856 54.3173 271.947 54.408C272.038 54.4987 272.107 54.6053 272.155 54.728C272.208 54.8507 272.235 54.9813 272.235 55.12C272.235 55.264 272.208 55.3973 272.155 55.52C272.107 55.6373 272.038 55.7413 271.947 55.832C271.856 55.9227 271.75 55.992 271.627 56.04C271.504 56.0933 271.374 56.12 271.235 56.12C271.096 56.12 270.966 56.0933 270.843 56.04C270.72 55.992 270.614 55.9227 270.523 55.832C270.438 55.7413 270.368 55.6373 270.315 55.52C270.267 55.3973 270.243 55.264 270.243 55.12ZM278.738 49.232C278.674 49.3493 278.575 49.408 278.442 49.408C278.362 49.408 278.271 49.3787 278.17 49.32C278.068 49.2613 277.943 49.1973 277.794 49.128C277.65 49.0533 277.476 48.9867 277.274 48.928C277.071 48.864 276.831 48.832 276.554 48.832C276.314 48.832 276.098 48.864 275.906 48.928C275.714 48.9867 275.548 49.0693 275.41 49.176C275.276 49.2827 275.172 49.408 275.098 49.552C275.028 49.6907 274.994 49.8427 274.994 50.008C274.994 50.216 275.052 50.3893 275.17 50.528C275.292 50.6667 275.452 50.7867 275.65 50.888C275.847 50.9893 276.071 51.08 276.322 51.16C276.572 51.2347 276.828 51.3173 277.09 51.408C277.356 51.4933 277.615 51.5893 277.866 51.696C278.116 51.8027 278.34 51.936 278.538 52.096C278.735 52.256 278.892 52.4533 279.01 52.688C279.132 52.9173 279.194 53.1947 279.194 53.52C279.194 53.8933 279.127 54.24 278.994 54.56C278.86 54.8747 278.663 55.1493 278.402 55.384C278.14 55.6133 277.82 55.7947 277.442 55.928C277.063 56.0613 276.626 56.128 276.13 56.128C275.564 56.128 275.052 56.0373 274.594 55.856C274.135 55.6693 273.746 55.432 273.426 55.144L273.762 54.6C273.804 54.5307 273.855 54.4773 273.914 54.44C273.972 54.4027 274.05 54.384 274.146 54.384C274.242 54.384 274.343 54.4213 274.45 54.496C274.556 54.5707 274.684 54.6533 274.834 54.744C274.988 54.8347 275.172 54.9173 275.386 54.992C275.604 55.0667 275.876 55.104 276.202 55.104C276.479 55.104 276.722 55.0693 276.93 55C277.138 54.9253 277.311 54.8267 277.45 54.704C277.588 54.5813 277.69 54.44 277.754 54.28C277.823 54.12 277.858 53.9493 277.858 53.768C277.858 53.544 277.796 53.36 277.674 53.216C277.556 53.0667 277.399 52.9413 277.202 52.84C277.004 52.7333 276.778 52.6427 276.522 52.568C276.271 52.488 276.012 52.4053 275.746 52.32C275.484 52.2347 275.226 52.1387 274.97 52.032C274.719 51.92 274.495 51.7813 274.298 51.616C274.1 51.4507 273.94 51.248 273.818 51.008C273.7 50.7627 273.642 50.4667 273.642 50.12C273.642 49.8107 273.706 49.5147 273.834 49.232C273.962 48.944 274.148 48.6933 274.394 48.48C274.639 48.2613 274.94 48.088 275.298 47.96C275.655 47.832 276.063 47.768 276.522 47.768C277.055 47.768 277.532 47.8533 277.954 48.024C278.38 48.1893 278.748 48.4187 279.058 48.712L278.738 49.232ZM281.355 56V49.112L280.459 49.008C280.347 48.9813 280.254 48.9413 280.179 48.888C280.11 48.8293 280.075 48.7467 280.075 48.64V48.056H281.355V47.272C281.355 46.808 281.419 46.3973 281.547 46.04C281.681 45.6773 281.867 45.3733 282.107 45.128C282.353 44.8773 282.646 44.688 282.987 44.56C283.329 44.432 283.713 44.368 284.139 44.368C284.502 44.368 284.838 44.4213 285.147 44.528L285.115 45.24C285.11 45.3467 285.065 45.4107 284.979 45.432C284.894 45.4533 284.774 45.464 284.619 45.464H284.371C284.126 45.464 283.902 45.496 283.699 45.56C283.502 45.624 283.331 45.728 283.187 45.872C283.043 46.016 282.931 46.2053 282.851 46.44C282.777 46.6747 282.739 46.9653 282.739 47.312V48.056H285.083V49.088H282.787V56H281.355Z" fill="black"/>
<path fill-rule="evenodd" clip-rule="evenodd" d="M245 0H262.5L270 7.5V30H245V0ZM261.25 8.75V2.5H247.5V27.5H267.5V8.75H261.25Z" fill="#386DB0"/>
<path fill-rule="evenodd" clip-rule="evenodd" d="M19 0H36.5L44 7.5V30H19V0ZM35.25 8.75V2.5H21.5V27.5H41.5V8.75H35.25Z" fill="#386DB0"/>
<path fill-rule="evenodd" clip-rule="evenodd" d="M150.148 15.7886L150.148 15.7886L150.148 15.7887C148.831 16.2449 148.391 16.3975 148.138 17.0246C147.883 17.6572 148.092 18.09 148.711 19.3705C148.867 19.693 149.049 20.0693 149.256 20.5162L145.991 23.8669C145.53 23.6424 145.147 23.4458 144.821 23.2788C143.634 22.6698 143.215 22.4546 142.598 22.7164C141.974 22.9833 141.822 23.4472 141.376 24.8039C141.265 25.1432 141.135 25.5382 140.975 26H136.358C136.195 25.5288 136.063 25.1273 135.95 24.784C135.505 23.4326 135.357 22.9816 134.744 22.7208C134.119 22.4531 133.678 22.6797 132.49 23.2898C132.169 23.4551 131.792 23.6486 131.342 23.868L128.077 20.5173C128.287 20.0658 128.47 19.6867 128.627 19.3623C129.245 18.0864 129.451 17.6597 129.195 17.0257C128.94 16.3954 128.494 16.2411 127.173 15.7843C126.841 15.6696 126.453 15.5357 126 15.3703V10.6308C126.458 10.4635 126.848 10.3284 127.182 10.2129L127.182 10.2128L127.182 10.2128C128.5 9.75636 128.941 9.60385 129.195 8.97542C129.451 8.34292 129.243 7.9129 128.623 6.63113C128.467 6.30807 128.285 5.9309 128.077 5.48275L131.342 2.132C131.798 2.35423 132.179 2.5494 132.502 2.7156L132.502 2.7156L132.502 2.7156C133.693 3.32634 134.12 3.5458 134.744 3.27925C135.357 3.01858 135.506 2.56603 135.949 1.21806C136.062 0.874198 136.194 0.472072 136.358 0H140.976C141.137 0.463912 141.267 0.860417 141.378 1.20054C141.824 2.55852 141.974 3.01761 142.588 3.27925C143.207 3.54241 143.642 3.32041 144.874 2.69204C145.189 2.53146 145.556 2.34434 145.991 2.132L149.256 5.48275C149.048 5.93112 148.866 6.3085 148.71 6.63175L148.71 6.63234L148.71 6.63254C148.091 7.9129 147.883 8.34385 148.138 8.97433C148.391 9.60209 148.83 9.75426 150.146 10.2104L150.146 10.2104C150.481 10.3265 150.873 10.4624 151.333 10.6308V15.3693C150.874 15.5371 150.483 15.6726 150.148 15.7886ZM146.703 20.0731C146.116 18.8598 145.578 17.7071 146.188 16.1969C146.794 14.6889 147.97 14.2632 149.224 13.832V12.1702C147.972 11.7379 146.799 11.3122 146.19 9.80525C145.581 8.29617 146.118 7.14133 146.705 5.92692L145.56 4.75258L145.553 4.75665C144.423 5.33275 143.277 5.91676 141.783 5.28125C140.313 4.65508 139.897 3.45042 139.477 2.16667H137.858C137.438 3.45042 137.023 4.65617 135.554 5.28125C134.059 5.91835 132.921 5.33721 131.78 4.75527L131.775 4.75258L130.631 5.92692C131.218 7.14025 131.756 8.294 131.146 9.80417C130.536 11.3133 129.362 11.739 128.111 12.1702V13.8309C129.362 14.2621 130.536 14.6878 131.147 16.1948C131.758 17.7114 131.221 18.8619 130.633 20.0731L131.776 21.2474L131.781 21.2447C132.911 20.6682 134.058 20.0828 135.554 20.7188C137.023 21.3449 137.438 22.5496 137.858 23.8333H139.477C139.897 22.5507 140.313 21.346 141.787 20.7166C143.275 20.0829 144.4 20.657 145.552 21.2441L145.558 21.2474L146.703 20.0731ZM138.667 9.75C140.413 9.75 141.833 11.2082 141.833 13C141.833 14.7918 140.413 16.25 138.667 16.25C136.921 16.25 135.5 14.7918 135.5 13C135.5 11.2082 136.921 9.75 138.667 9.75ZM133.389 13C133.389 10.0078 135.751 7.58333 138.667 7.58333C141.582 7.58333 143.944 10.0078 143.944 13C143.944 15.9922 141.582 18.4167 138.667 18.4167C135.751 18.4167 133.389 15.9922 133.389 13Z" fill="#386DB0"/>
<path fill-rule="evenodd" clip-rule="evenodd" d="M163.269 22.2833C163.476 22.3548 163.717 22.4384 164 22.542V25.458C163.717 25.5613 163.477 25.6447 163.271 25.716L163.271 25.7161L163.271 25.7161C162.46 25.9969 162.189 26.0907 162.034 26.4767C161.876 26.866 162.005 27.1323 162.386 27.9203C162.482 28.1188 162.594 28.3504 162.722 28.6253L160.712 30.6873C160.429 30.5492 160.193 30.4282 159.993 30.3255L159.993 30.3254L159.993 30.3254C159.262 29.9506 159.004 29.8182 158.624 29.9793C158.241 30.1436 158.147 30.429 157.873 31.264C157.804 31.4727 157.724 31.7158 157.626 32H154.784C154.684 31.71 154.603 31.463 154.533 31.2517L154.533 31.2517C154.26 30.4201 154.168 30.1425 153.791 29.982C153.406 29.8173 153.135 29.9568 152.404 30.3322L152.404 30.3322C152.206 30.4339 151.974 30.553 151.698 30.688L149.689 28.626C149.817 28.3482 149.93 28.1149 150.027 27.9153C150.407 27.1301 150.534 26.8675 150.376 26.4773C150.22 26.0895 149.945 25.9945 149.132 25.7134C148.928 25.6428 148.689 25.5604 148.41 25.4587V22.542C148.692 22.4391 148.932 22.356 149.137 22.2848L149.137 22.2848L149.137 22.2848C149.949 22.0039 150.22 21.9101 150.376 21.5233C150.534 21.1341 150.406 20.8695 150.025 20.0807C149.928 19.8819 149.816 19.6498 149.689 19.374L151.698 17.312C151.978 17.4488 152.212 17.5689 152.412 17.6711C153.144 18.047 153.407 18.182 153.791 18.018C154.169 17.8576 154.26 17.5791 154.533 16.7496L154.533 16.7495C154.602 16.5379 154.684 16.2905 154.784 16H157.626C157.725 16.2853 157.805 16.5292 157.874 16.7385L157.874 16.7388L157.874 16.7388C158.148 17.5745 158.241 17.857 158.618 18.018C158.999 18.1799 159.267 18.0433 160.025 17.6566C160.219 17.5578 160.445 17.4427 160.712 17.312L162.722 19.374C162.594 19.6501 162.481 19.8825 162.385 20.0815L162.385 20.0816C162.005 20.8695 161.877 21.1347 162.034 21.5227C162.189 21.909 162.46 22.0026 163.269 22.2833L163.269 22.2833ZM161.15 28.3527C160.789 27.606 160.458 26.8967 160.833 25.9673C161.207 25.0393 161.93 24.7773 162.702 24.512V23.4893C161.932 23.2233 161.209 22.9613 160.835 22.034C160.46 21.1053 160.79 20.3947 161.152 19.6473L160.447 18.9247L160.442 18.9272C159.747 19.2817 159.042 19.6411 158.123 19.25C157.218 18.8647 156.962 18.1233 156.704 17.3333H155.707C155.449 18.1233 155.194 18.8653 154.289 19.25C153.37 19.6421 152.669 19.2844 151.967 18.9263L151.964 18.9247L151.26 19.6473C151.621 20.394 151.952 21.104 151.577 22.0333C151.201 22.962 150.479 23.224 149.709 23.4893V24.5113C150.479 24.7767 151.201 25.0387 151.577 25.966C151.954 26.8993 151.623 27.6073 151.261 28.3527L151.965 29.0753L151.968 29.0737C152.663 28.7189 153.369 28.3586 154.289 28.75C155.194 29.1353 155.449 29.8767 155.707 30.6667H156.704C156.962 29.8773 157.218 29.136 158.125 28.7487C159.041 28.3587 159.734 28.712 160.442 29.0733L160.446 29.0753L161.15 28.3527ZM156.205 22C157.279 22 158.154 22.8973 158.154 24C158.154 25.1027 157.279 26 156.205 26C155.131 26 154.256 25.1027 154.256 24C154.256 22.8973 155.131 22 156.205 22ZM152.957 24C152.957 22.1587 154.411 20.6667 156.205 20.6667C157.999 20.6667 159.453 22.1587 159.453 24C159.453 25.8413 157.999 27.3333 156.205 27.3333C154.411 27.3333 152.957 25.8413 152.957 24Z" fill="#386DB0"/>
<path fill-rule="evenodd" clip-rule="evenodd" d="M148.41 29.271V30.729C148.269 30.7807 148.149 30.8223 148.046 30.858L148.046 30.858L148.046 30.858C147.64 30.9984 147.505 31.0454 147.427 31.2383C147.349 31.433 147.413 31.5661 147.603 31.9602C147.651 32.0594 147.707 32.1752 147.771 32.3127L146.767 33.3437C146.625 33.2746 146.507 33.2141 146.407 33.1627L146.407 33.1627L146.407 33.1627C146.041 32.9753 145.912 32.9091 145.722 32.9897C145.531 33.0718 145.484 33.2145 145.347 33.632C145.312 33.7364 145.272 33.8579 145.223 34H143.803C143.752 33.855 143.712 33.7315 143.677 33.6259L143.677 33.6258C143.54 33.21 143.495 33.0713 143.306 32.991C143.114 32.9086 142.978 32.9784 142.612 33.1661L142.612 33.1661C142.513 33.217 142.398 33.2765 142.259 33.344L141.255 32.313C141.319 32.1741 141.375 32.0574 141.424 31.9576C141.614 31.565 141.677 31.4337 141.599 31.2387C141.52 31.0447 141.383 30.9973 140.976 30.8567C140.874 30.8214 140.755 30.7802 140.615 30.7293V29.271C140.756 29.2195 140.876 29.178 140.979 29.1424L140.979 29.1424L140.979 29.1424C141.385 29.002 141.52 28.955 141.599 28.7617C141.677 28.5671 141.613 28.4347 141.423 28.0403C141.375 27.9409 141.319 27.8249 141.255 27.687L142.259 26.656C142.4 26.7244 142.517 26.7844 142.616 26.8356C142.982 27.0235 143.114 27.091 143.306 27.009C143.495 26.9288 143.54 26.7895 143.677 26.3748L143.677 26.3748C143.712 26.269 143.752 26.1452 143.803 26H145.224C145.273 26.1427 145.313 26.2646 145.347 26.3692L145.347 26.3694L145.347 26.3694C145.484 26.7872 145.531 26.9285 145.719 27.009C145.91 27.09 146.044 27.0217 146.423 26.8283C146.52 26.7789 146.633 26.7213 146.767 26.656L147.771 27.687C147.707 27.8251 147.651 27.9413 147.603 28.0408L147.603 28.0408C147.413 28.4347 147.349 28.5673 147.427 28.7613C147.505 28.9545 147.64 29.0013 148.045 29.1417L148.045 29.1417C148.148 29.1774 148.269 29.2192 148.41 29.271ZM146.986 32.1763C146.805 31.803 146.64 31.4483 146.827 30.9837C147.014 30.5197 147.376 30.3887 147.761 30.256V29.7447C147.376 29.6117 147.015 29.4807 146.828 29.017C146.64 28.5527 146.806 28.1973 146.986 27.8237L146.634 27.4623L146.632 27.4636C146.284 27.6408 145.931 27.8205 145.472 27.625C145.02 27.4323 144.892 27.0617 144.762 26.6667H144.264C144.135 27.0617 144.007 27.4327 143.555 27.625C143.095 27.821 142.745 27.6422 142.394 27.4632L142.392 27.4623L142.04 27.8237C142.221 28.197 142.387 28.552 142.199 29.0167C142.011 29.481 141.65 29.612 141.265 29.7447V30.2557C141.65 30.3883 142.011 30.5193 142.199 30.983C142.387 31.4497 142.222 31.8037 142.041 32.1763L142.393 32.5377L142.394 32.5368C142.742 32.3594 143.095 32.1793 143.555 32.375C144.007 32.5677 144.135 32.9383 144.264 33.3333H144.762C144.892 32.9387 145.02 32.568 145.473 32.3743C145.931 32.1794 146.277 32.356 146.631 32.5366L146.633 32.5377L146.986 32.1763ZM144.513 29C145.05 29 145.487 29.4487 145.487 30C145.487 30.5513 145.05 31 144.513 31C143.976 31 143.539 30.5513 143.539 30C143.539 29.4487 143.976 29 144.513 29ZM142.889 30C142.889 29.0793 143.616 28.3333 144.513 28.3333C145.41 28.3333 146.137 29.0793 146.137 30C146.137 30.9207 145.41 31.6667 144.513 31.6667C143.616 31.6667 142.889 30.9207 142.889 30Z" fill="#386DB0"/>
<path d="M112.354 16.8536C112.549 16.6583 112.549 16.3417 112.354 16.1464L109.172 12.9645C108.976 12.7692 108.66 12.7692 108.464 12.9645C108.269 13.1597 108.269 13.4763 108.464 13.6716L111.293 16.5L108.464 19.3284C108.269 19.5237 108.269 19.8403 108.464 20.0355C108.66 20.2308 108.976 20.2308 109.172 20.0355L112.354 16.8536ZM64 17H112V16H64V17Z" fill="#979797"/>
<path d="M227.354 16.3536C227.549 16.1583 227.549 15.8417 227.354 15.6464L224.172 12.4645C223.976 12.2692 223.66 12.2692 223.464 12.4645C223.269 12.6597 223.269 12.9763 223.464 13.1716L226.293 16L223.464 18.8284C223.269 19.0237 223.269 19.3403 223.464 19.5355C223.66 19.7308 223.976 19.7308 224.172 19.5355L227.354 16.3536ZM179 16.5H227V15.5H179V16.5Z" fill="#979797"/>
</svg>
