<svg width="381" height="364" fill="none" xmlns="http://www.w3.org/2000/svg"><path opacity=".157" d="M30.026 189.095c13.978 21.283 15.028 44.592 2.622 66.471-17.578 31.007-21.499 71.179 61.843 84.626 142.388 22.947 191.068 32.069 216.51-9.407 25.442-41.475-11.764-56.822 11.868-77.282 33.567-29.063 44.333-64.141 27.763-96.731-10.598-20.84-27.688-38.567-55.216-43.25-76.987-13.099-122.942-3.174-143.64-28.893-20.698-25.72-95.384-9.946-96.752 8.618-1.368 18.564 16.8 61.938-17.536 76.033-12.19 5.025-12.34 12.397-7.462 19.815z" fill="#FFFBC9"/><path fill-rule="evenodd" clip-rule="evenodd" d="m252 334.83 39.471-98.441c.616-1.536 2.725-1.702 3.574-.281L354 334.83S318.583 346 297.333 346" fill="#AAC4E4"/><path fill-rule="evenodd" clip-rule="evenodd" d="m147 341.858 30.756-57.868a2 2 0 0 1 3.241-.412l19.126 20.862 39.345-102.398c.632-1.644 2.927-1.728 3.677-.134L309 341.858S296.099 350 230.132 350c-65.968 0-83.132-8.142-83.132-8.142z" fill="#AAC4E4"/><path fill-rule="evenodd" clip-rule="evenodd" d="M230.378 224.314c-.338.896.656 1.709 1.467 1.199l2.807-1.761a1 1 0 0 1 .975-.05l6.381 3.156a1 1 0 0 0 .93-.022l5.561-3.095a1 1 0 0 1 1.016.026l2.528 1.581c.844.528 1.858-.369 1.436-1.271l-10.727-22.972c-.749-1.604-3.06-1.515-3.684.141l-8.69 23.068zM282.367 259.109c-.359.861.552 1.7 1.381 1.273l3.398-1.751a.997.997 0 0 1 .88-.018l7.029 3.271a.998.998 0 0 0 .885-.021l6.255-3.275a1 1 0 0 1 .728-.078l6.428 1.759c.882.242 1.598-.729 1.108-1.501l-14.838-23.318c-.868-1.364-2.912-1.188-3.534.305l-9.72 23.354z" fill="#E9F0F8"/><path d="m181.42 179.08-6.155 3.33 3.729-5.797c-1.056-.721-2.362-1.119-3.713-1.134h-.099a7.973 7.973 0 0 1-1.274-.081l-2.082 1.13.89-1.387c-1.475-.443-2.749-1.272-3.641-2.37l-3.724 2.031 2.351-3.662c-2.177-2.237-5.114-3.608-8.348-3.608-3.874 0-7.326 1.97-9.554 5.043-1.345 1.874-3.763 2.985-6.332 2.911h-.206c-4.279 0-7.746 4.146-7.746 9.263s3.467 9.263 7.746 9.263a6.571 6.571 0 0 0 2.695-.579c2.948-1.223 6.375-1.28 9.376-.155 2.537.968 5.435.968 7.971 0 2.976-1.103 6.365-1.048 9.29.152a6.629 6.629 0 0 0 2.671.565c4.279 0 7.746-4.146 7.746-9.263.031-1.968-.516-3.911-1.591-5.652z" fill="#F2F2F2"/><path opacity=".03" d="M170.622 193.596a13.14 13.14 0 0 0-6.794.654 11.135 11.135 0 0 1-8.154 0c-3.071-1.197-6.581-1.137-9.597.166-.852.4-1.799.61-2.763.614-3.889 0-7.125-3.479-7.798-8.066a6.944 6.944 0 0 0 1.945-1.858c2.28-3.26 5.813-5.352 9.779-5.352s7.461 2.049 9.738 5.284c1.382 1.983 3.834 3.179 6.461 3.152h.102c3.095-.007 5.776 2.193 7.081 5.406z" fill="#000"/><path d="m317.064 166.667-5.345 2.898 3.238-5.046c-.917-.627-2.052-.974-3.224-.987h-.086a6.932 6.932 0 0 1-1.107-.071l-1.808.984.773-1.208c-1.281-.385-2.387-1.107-3.162-2.062l-3.235 1.768 2.042-3.188c-1.891-1.947-4.441-3.14-7.25-3.14-3.365 0-6.362 1.714-8.298 4.389-1.168 1.631-3.268 2.598-5.499 2.534h-.179c-3.716 0-6.727 3.609-6.727 8.063 0 4.454 3.011 8.063 6.727 8.063a5.706 5.706 0 0 0 2.341-.503 11.197 11.197 0 0 1 8.143-.136 9.792 9.792 0 0 0 6.923 0 11.198 11.198 0 0 1 8.068.133c.716.32 1.512.489 2.32.492 3.716 0 6.727-3.609 6.727-8.064.027-1.713-.449-3.404-1.382-4.919z" fill="#F2F2F2"/><path opacity=".03" d="M307.298 179.525a11.211 11.211 0 0 0-5.825.564 9.499 9.499 0 0 1-6.992 0 10.88 10.88 0 0 0-8.229.143 5.62 5.62 0 0 1-2.369.53c-3.334 0-6.11-3-6.686-6.954a5.986 5.986 0 0 0 1.667-1.603c1.956-2.811 4.985-4.614 8.385-4.614 3.401 0 6.398 1.766 8.35 4.555 1.189 1.715 3.299 2.747 5.558 2.718h.087c2.636-.006 4.936 1.891 6.054 4.661z" fill="#000"/><path d="m248.52 106.488-5.218 2.946 3.161-5.128a5.545 5.545 0 0 0-3.148-1.003h-.084a6.498 6.498 0 0 1-1.08-.072l-1.765 1 .755-1.228c-1.251-.391-2.331-1.125-3.087-2.095l-3.158 1.796 1.993-3.24c-1.845-1.978-4.335-3.191-7.077-3.191-3.285 0-6.211 1.742-8.1 4.461-1.141 1.657-3.191 2.64-5.369 2.575h-.175c-3.627 0-6.566 3.667-6.566 8.194 0 4.527 2.939 8.194 6.566 8.194a5.378 5.378 0 0 0 2.286-.512 10.53 10.53 0 0 1 7.949-.137 9.213 9.213 0 0 0 6.758.015 10.534 10.534 0 0 1 7.876.134 5.42 5.42 0 0 0 2.265.5c3.627 0 6.567-3.667 6.567-8.194a9.524 9.524 0 0 0-1.349-5.015z" fill="#F2F2F2"/><path opacity=".03" d="M239.545 119.473a11.03 11.03 0 0 0-5.795.567 9.363 9.363 0 0 1-6.955 0 10.715 10.715 0 0 0-8.186.143 5.549 5.549 0 0 1-2.356.533c-3.317 0-6.078-3.016-6.651-6.991a5.975 5.975 0 0 0 1.658-1.61c1.945-2.826 4.958-4.639 8.341-4.639 3.383 0 6.365 1.776 8.306 4.579 1.182 1.724 3.281 2.761 5.529 2.732h.086c2.623-.006 4.91 1.901 6.023 4.686z" fill="#000"/><path d="m359.352 135.545-3.467 1.933 2.103-3.363a3.71 3.71 0 0 0-2.094-.661h-.054a4.948 4.948 0 0 1-.72-.047l-1.172.653.501-.787c-.832-.257-1.55-.737-2.053-1.374l-2.098 1.181 1.342-2.122c-1.131-1.287-2.859-2.056-4.707-2.095-2.183 0-4.129 1.142-5.368 2.926-.759 1.09-2.127 1.735-3.579 1.689h-.116c-2.411 0-4.366 2.409-4.366 5.378 0 2.968 1.955 5.374 4.366 5.374a3.65 3.65 0 0 0 1.521-.335 7.075 7.075 0 0 1 5.288-.09 6.196 6.196 0 0 0 4.473 0 7.084 7.084 0 0 1 5.239.09c.465.212.98.324 1.503.327 2.411 0 4.366-2.406 4.366-5.374a6.201 6.201 0 0 0-.908-3.303z" fill="#F2F2F2"/><path opacity=".03" d="M352.457 143.516a7.51 7.51 0 0 0-3.669.33 6.464 6.464 0 0 1-2.192.384 6.338 6.338 0 0 1-2.213-.395 7.365 7.365 0 0 0-5.181.087 3.747 3.747 0 0 1-1.486.308c-2.099 0-3.848-1.751-4.212-4.056a3.758 3.758 0 0 0 1.052-.935c1.227-1.641 3.134-2.692 5.26-2.692 2.125 0 4.023 1.04 5.259 2.66.75 1.002 2.082 1.604 3.507 1.583h.057c1.652 0 3.112 1.109 3.818 2.726z" fill="#000"/><path d="m379.971 217.078-3.467 1.934 2.103-3.363a3.71 3.71 0 0 0-2.094-.661h-.054a4.948 4.948 0 0 1-.72-.047l-1.172.653.501-.787c-.832-.257-1.55-.738-2.053-1.374l-2.098 1.181 1.342-2.122c-1.13-1.287-2.859-2.056-4.706-2.095-2.183 0-4.129 1.142-5.369 2.925-.759 1.09-2.127 1.736-3.578 1.689h-.117c-2.411 0-4.366 2.41-4.366 5.379 0 2.968 1.955 5.374 4.366 5.374a3.647 3.647 0 0 0 1.521-.335 7.08 7.08 0 0 1 5.288-.091 6.185 6.185 0 0 0 4.473 0 7.09 7.09 0 0 1 5.239.091c.465.212.98.324 1.503.327 2.411 0 4.366-2.406 4.366-5.374a6.207 6.207 0 0 0-.908-3.304z" fill="#F2F2F2"/><path opacity=".03" d="M374.191 222.855a7.52 7.52 0 0 0-3.669.329 6.44 6.44 0 0 1-4.405-.011 7.365 7.365 0 0 0-5.181.087 3.73 3.73 0 0 1-1.486.308c-2.1 0-3.848-1.75-4.212-4.055a3.758 3.758 0 0 0 1.052-.935c1.227-1.642 3.134-2.693 5.26-2.693 2.125 0 4.023 1.04 5.259 2.66.75 1.003 2.082 1.604 3.507 1.584h.057c1.652 0 3.112 1.109 3.818 2.726z" fill="#000"/><path d="m26.963 186.467-3.467 1.933 2.102-3.362a3.707 3.707 0 0 0-2.093-.662h-.054a4.686 4.686 0 0 1-.72-.047l-1.172.654.5-.788c-.83-.256-1.55-.737-2.053-1.374l-2.098 1.181 1.342-2.122c-1.13-1.286-2.859-2.056-4.706-2.094-2.183 0-4.129 1.141-5.368 2.925-.76 1.09-2.127 1.735-3.579 1.689h-.116c-2.411 0-4.366 2.409-4.366 5.378 0 2.969 1.955 5.374 4.366 5.374a3.618 3.618 0 0 0 1.52-.335 7.075 7.075 0 0 1 5.289-.09 6.197 6.197 0 0 0 4.473 0 7.083 7.083 0 0 1 5.239.09c.464.212.98.324 1.503.327 2.411 0 4.366-2.405 4.366-5.374a6.205 6.205 0 0 0-.908-3.303z" fill="#F2F2F2"/><path opacity=".03" d="M18.953 194.438a7.52 7.52 0 0 0-3.669.33 6.436 6.436 0 0 1-4.405-.011 7.365 7.365 0 0 0-5.18.087 3.727 3.727 0 0 1-1.487.308c-2.1 0-3.848-1.75-4.212-4.055a3.78 3.78 0 0 0 1.052-.935c1.227-1.642 3.134-2.693 5.26-2.693s4.023 1.04 5.26 2.66c.749 1.002 2.081 1.604 3.506 1.584h.057c1.653 0 3.112 1.109 3.818 2.725z" fill="#000"/><path d="m161.611 39.881-7.223 4.003 4.376-6.969c-1.239-.866-2.772-1.345-4.357-1.363h-.117a9.086 9.086 0 0 1-1.495-.097l-2.444 1.359 1.045-1.668c-1.73-.533-3.226-1.53-4.273-2.848l-4.371 2.44 2.759-4.401c-2.555-2.69-6.001-4.337-9.797-4.337-4.547 0-8.598 2.368-11.213 6.062-1.579 2.252-4.417 3.588-7.432 3.498h-.242c-5.021 0-9.09 4.984-9.09 11.136 0 6.15 4.069 11.134 9.09 11.134a7.56 7.56 0 0 0 3.164-.695c3.46-1.47 7.481-1.539 11.004-.187a12.973 12.973 0 0 0 9.355.02c3.493-1.326 7.47-1.259 10.902.183a7.631 7.631 0 0 0 3.136.68c5.021 0 9.09-4.984 9.09-11.136.04-2.372-.602-4.716-1.867-6.814z" fill="#F2F2F2"/><path opacity=".03" d="M148.987 56.182a15.752 15.752 0 0 0-7.983.752 13.357 13.357 0 0 1-9.581 0c-3.609-1.377-7.732-1.307-11.277.19a7.87 7.87 0 0 1-3.246.706c-4.57 0-8.373-4-9.163-9.272a8.105 8.105 0 0 0 2.285-2.136c2.679-3.748 6.83-6.153 11.49-6.153s8.768 2.355 11.443 6.074c1.628 2.286 4.52 3.662 7.616 3.624h.119c3.613-.008 6.764 2.52 8.297 6.215z" fill="#000"/><path d="m200.455 258.079-3.467 1.933 2.102-3.362a3.705 3.705 0 0 0-2.094-.661h-.053a4.812 4.812 0 0 1-.72-.048l-1.173.654.502-.787c-.832-.257-1.551-.738-2.054-1.374l-2.098 1.181 1.342-2.122c-1.13-1.287-2.859-2.056-4.706-2.095-2.183 0-4.129 1.142-5.368 2.925-.76 1.09-2.127 1.736-3.579 1.689h-.116c-2.412 0-4.367 2.41-4.367 5.378 0 2.969 1.955 5.374 4.367 5.374a3.634 3.634 0 0 0 1.521-.334 7.078 7.078 0 0 1 5.287-.091 6.198 6.198 0 0 0 4.474 0 7.082 7.082 0 0 1 5.238.091c.465.211.98.323 1.503.327 2.412 0 4.367-2.406 4.367-5.375a6.215 6.215 0 0 0-.908-3.303z" fill="#F2F2F2"/><path opacity=".03" d="M193.559 266.05a7.549 7.549 0 0 0-3.673.33 6.447 6.447 0 0 1-2.194.384 6.328 6.328 0 0 1-2.194-.395 7.381 7.381 0 0 0-5.187.087 3.734 3.734 0 0 1-1.487.308c-2.102 0-3.853-1.75-4.218-4.055.42-.254.777-.571 1.054-.935 1.228-1.642 3.137-2.693 5.265-2.693 2.129 0 4.029 1.04 5.266 2.66.747.997 2.07 1.598 3.489 1.584h.057c1.654 0 3.116 1.109 3.822 2.725z" fill="#000"/><path d="m61.833 198.661.43-.615-.43.615c.48.334.81.842.921 1.415l11.448 58.894c.447 2.298 1.42 4.154 3.043 5.287 1.628 1.136 3.774 1.451 6.366.948 2.571-.5 4.781-1.58 6.245-3.177 1.483-1.619 2.158-3.731 1.688-6.149L80.06 196.798a2.25 2.25 0 0 1 .384-1.746l-.608-.439.608.439.446-.617c.928-1.286-.197-3.045-1.753-2.742l-17.287 3.36c-1.518.295-1.936 2.268-.668 3.153l.651.455z" fill="#FDFDFD" stroke="#CACACA" stroke-width="1.5"/><mask id="a" style="mask-type:luminance" maskUnits="userSpaceOnUse" x="59" y="190" width="34" height="77"><path d="m61.833 198.661.43-.615-.43.615c.48.334.81.842.921 1.415l11.448 58.894c.447 2.298 1.42 4.154 3.043 5.287 1.628 1.136 3.774 1.451 6.366.948 2.571-.5 4.781-1.58 6.245-3.177 1.483-1.619 2.158-3.731 1.688-6.149L80.06 196.798a2.25 2.25 0 0 1 .384-1.746l-.608-.439.608.439.446-.617c.928-1.286-.197-3.045-1.753-2.742l-17.287 3.36c-1.518.295-1.936 2.268-.668 3.153l.651.455z" fill="#fff" stroke="#fff" stroke-width="1.5"/></mask><g mask="url(#a)" fill="#80A6D6"><ellipse cx="71.106" cy="218.01" rx="2.705" ry="2.661" transform="rotate(-11 71.106 218.01)"/><ellipse cx="69.666" cy="221.573" rx="1.352" ry="1.553" transform="rotate(-11 69.666 221.573)"/><ellipse cx="68.081" cy="219.833" rx="1.352" ry="1.553" transform="rotate(-11 68.081 219.833)"/><ellipse cx="75.094" cy="218.881" rx="1.578" ry="1.774" transform="rotate(-11 75.094 218.881)"/><ellipse cx="77.019" cy="219.24" rx="1.352" ry="1.553" transform="rotate(-11 77.02 219.24)"/><ellipse cx="79.59" cy="218.288" rx="1.352" ry="1.553" transform="rotate(-11 79.59 218.288)"/><ellipse cx="83.878" cy="217.907" rx="1.578" ry="1.553" transform="rotate(-11 83.878 217.907)"/><ellipse cx="81.288" cy="215.168" rx="2.479" ry="2.44" transform="rotate(-11 81.288 215.168)"/><ellipse cx="78.303" cy="217.459" rx="2.028" ry="2.218" transform="rotate(-11 78.303 217.459)"/><path fill-rule="evenodd" clip-rule="evenodd" d="m83.323 216.85 7.668 39.452c.367 1.886.303 3.073-.767 4.414-.793.992-1.768 2.054-3.25 2.803-.997.503-2.383.825-3.495 1.041-4.999.972-7.774-1.176-8.595-5.398l-7.618-39.191 16.057-3.121z"/></g><ellipse cx="72.403" cy="209.11" rx="1.948" ry="1.938" transform="rotate(-11 72.403 209.11)" fill="#80A6D6"/><ellipse cx="71.787" cy="208.697" rx=".253" ry=".252" transform="rotate(-11 71.787 208.697)" stroke="#FDFDFD"/><ellipse cx="71.017" cy="198.918" rx=".974" ry=".969" transform="rotate(-11 71.017 198.918)" fill="#80A6D6"/><ellipse cx="71.012" cy="198.584" rx=".253" ry=".252" transform="rotate(-11 71.012 198.584)" fill="#FDFDFD" stroke="#FDFDFD"/><ellipse cx="75.574" cy="202.967" rx="1.169" ry="1.163" transform="rotate(-11 75.574 202.967)" fill="#80A6D6"/><ellipse cx="75.414" cy="202.86" rx=".253" ry=".252" transform="rotate(-11 75.414 202.86)" fill="#FDFDFD" stroke="#FDFDFD"/><mask id="b" fill="#fff"><path fill-rule="evenodd" clip-rule="evenodd" d="M79.71 224.63a.45.45 0 1 1 .897-.091l.713 7.054a.45.45 0 1 1-.896.091l-.713-7.054z"/></mask><path fill-rule="evenodd" clip-rule="evenodd" d="M79.71 224.63a.45.45 0 1 1 .897-.091l.713 7.054a.45.45 0 1 1-.896.091l-.713-7.054z" fill="#FDFDFD"/><path d="m79.612 224.64.714 7.054 1.99-.201-.714-7.055-1.99.202zm1.807 6.943-.713-7.054-1.99.201.713 7.055 1.99-.202zm-.606-.491a.55.55 0 0 1 .606.491l-1.99.202a1.45 1.45 0 0 0 1.6 1.296l-.216-1.989zm-.487.602a.55.55 0 0 1 .487-.602l.216 1.989a1.451 1.451 0 0 0 1.286-1.588l-1.99.201zm-.108-6.563a.55.55 0 0 1-.606-.491l1.99-.202a1.45 1.45 0 0 0-1.6-1.296l.216 1.989zm-.217-1.989a1.451 1.451 0 0 0-1.285 1.588l1.99-.201a.55.55 0 0 1-.488.602l-.217-1.989z" fill="#FDFDFD" mask="url(#b)"/><path d="M81.782 239.568a61.234 61.234 0 0 0 1.583-4.121c-1.086.129-3.475.408-4.6.511-1.064.097-3.27.244-4.426.319a.24.24 0 0 0-.187.369c.35.511 1.512 2.181 2.75 3.705.62.764 1.248 1.477 1.795 1.987.275.256.515.448.713.57.099.06.177.097.235.117a.28.28 0 0 0 .072.017h.002c.015-.006.097-.04.249-.197a4.69 4.69 0 0 0 .56-.765c.411-.668.846-1.57 1.254-2.512z" stroke="#FDFDFD"/><mask id="c" fill="#fff"><path fill-rule="evenodd" clip-rule="evenodd" d="M74.778 225.082a.45.45 0 1 1 .896-.091l.714 7.054a.45.45 0 1 1-.896.091l-.714-7.054z"/></mask><path fill-rule="evenodd" clip-rule="evenodd" d="M74.778 225.082a.45.45 0 1 1 .896-.091l.714 7.054a.45.45 0 1 1-.896.091l-.714-7.054z" fill="#FDFDFD"/><path d="m74.68 225.091.713 7.055 1.99-.201-.714-7.055-1.99.201zm1.806 6.944-.713-7.054-1.99.201.714 7.055 1.99-.202zm-.606-.491a.55.55 0 0 1 .607.491l-1.99.202a1.45 1.45 0 0 0 1.6 1.296l-.217-1.989zm-.487.602a.55.55 0 0 1 .487-.602l.217 1.989a1.451 1.451 0 0 0 1.286-1.588l-1.99.201zm-.107-6.563a.55.55 0 0 1-.607-.492l1.99-.201a1.45 1.45 0 0 0-1.6-1.296l.217 1.989zm-.217-1.989a1.451 1.451 0 0 0-1.286 1.588l1.99-.201a.55.55 0 0 1-.487.602l-.217-1.989z" fill="#FDFDFD" mask="url(#c)"/><path d="m50 176 9 75.306M104.846 176 99 252.414" stroke="#E9F0F8" stroke-width="2" stroke-linecap="square"/><path fill-rule="evenodd" clip-rule="evenodd" d="M51.287 179.385c.752.851 1.815 1.295 2.95 1.283l54.276-.606s49.207-47.911 49.207-94.255c0-46.344-38.817-81.582-77.634-81.582S7.257 32.031 2.45 76.522c-4.388 40.623 40.927 93.909 48.836 102.863z" fill="#F2F2F2"/><path d="M77.21 3v176.45" stroke="#FDFDFD" stroke-width="5" stroke-linecap="round"/><path d="M82.352 3s41.483 36.55 48.668 77.512c7.185 40.961-30.605 99.551-30.605 99.551M72.386 3S31.939 39.55 24.934 80.512c-7.005 40.961 30.011 99.551 30.011 99.551" stroke="#FDFDFD" stroke-width="3" stroke-linecap="round"/><path fill-rule="evenodd" clip-rule="evenodd" d="M49.287 178.686c.752.85 1.815 1.295 2.95 1.282l54.276-.606s49.207-47.887 49.207-94.208c0-46.32-38.817-81.542-77.634-81.542S5.257 31.405.45 75.873c-4.388 40.604 40.927 93.863 48.836 102.813z" fill="#AAC4E4"/><path d="M77.701 3v176.363" stroke="#FDFDFD" stroke-width="5" stroke-linecap="round"/><path d="M82.843 3s41.484 36.532 48.668 77.474c7.185 40.941-30.604 99.502-30.604 99.502M72.877 3S32.431 39.532 25.425 80.474c-7.005 40.941 30.011 99.502 30.011 99.502" stroke="#FDFDFD" stroke-width="3" stroke-linecap="round"/><path d="M50 254a5 5 0 0 1 5-5h49a5 5 0 0 1 5 5v24c0 7.18-5.82 13-13 13H63c-7.18 0-13-5.82-13-13v-24z" fill="#F2F2F2"/><path d="M49 253a5 5 0 0 1 5-5h49a5 5 0 0 1 5 5v24c0 7.18-5.82 13-13 13H62c-7.18 0-13-5.82-13-13v-24z" fill="#D4E1F1"/></svg>