<svg width="168" height="89" xmlns="http://www.w3.org/2000/svg">
    <defs>
        <linearGradient x1="100%" y1="100%" x2="100%" y2="0%" id="a">
            <stop stop-color="#B3B3B3" stop-opacity=".25" offset="0%"/>
            <stop stop-color="#B3B3B3" stop-opacity=".1" offset="54%"/>
            <stop stop-color="#B3B3B3" stop-opacity=".05" offset="100%"/>
        </linearGradient>
        <linearGradient x1="100.006%" y1="100.011%" x2="100.006%" y2="0%" id="b">
            <stop stop-color="#B3B3B3" stop-opacity=".25" offset="0%"/>
            <stop stop-color="#B3B3B3" stop-opacity=".1" offset="54%"/>
            <stop stop-color="#B3B3B3" stop-opacity=".05" offset="100%"/>
        </linearGradient>
        <linearGradient x1="99.994%" y1="100%" x2="99.994%" y2="0%" id="c">
            <stop stop-color="#B3B3B3" stop-opacity=".25" offset="0%"/>
            <stop stop-color="#B3B3B3" stop-opacity=".1" offset="54%"/>
            <stop stop-color="#B3B3B3" stop-opacity=".05" offset="100%"/>
        </linearGradient>
    </defs>
    <g fill-rule="nonzero" fill="none">
        <path fill="#FDFDFD" d="M0 0h168v89H0z"/>
        <g opacity=".401">
            <path fill="#80A6D6" opacity=".697" d="M140.21 89H106V63.851l5.17-3.629h29.04z"/>
            <path fill="#FAFAFA" d="M140.21 89h-32.895V64.984l4.97-3.466h27.925z"/>
            <path d="M109.42 65.667H126v3.37h-16.58v-3.37zm0 7.518h12.106v3.37h-12.105v-3.37z" fill="#E0E0E0"/>
            <path fill="#386DB0" d="M109.42 84.851h26.317V89H109.42z"/>
            <path d="M130.21 65.667h5.526v3.37h-5.526v-3.37zm0 4.148h5.526v3.37h-5.526v-3.37z" fill="#F5F5F5"/>
            <path fill="url(#a)" d="M6.842 7.518v5.445H1.317v-.476L6.312 7.52z" transform="translate(106 54)"/>
            <path fill="#EEE" d="m107.316 66.963 5.525-5.445v5.445z"/>
            <path fill="#A6C1E2" d="M116 89V60.225l5.169-4.15h29.042V89z"/>
            <path fill="#FAFAFA" d="M117.052 89V60.906l4.97-4.055h27.926V89z"/>
            <path d="M120.21 62.297h16.58v3.37h-16.58v-3.37zm.264 7.518h12.105v3.37h-12.105v-3.37z" fill="#E0E0E0"/>
            <path fill="#386DB0" d="M120.474 80.445h26.315V89h-26.315z"/>
            <path d="M141 62.297h5.526v3.37H141v-3.37zm0 4.406h5.526v3.371H141v-3.37z" fill="#F5F5F5"/>
            <path fill="url(#b)" d="M16.58 3.11v5.445h-5.527V8.08l4.996-4.968z" transform="translate(106 54)"/>
            <path fill="#EEE" d="m117.052 62.555 5.526-5.444v5.444z"/>
            <path fill="#A6C1E2" d="M161 89h-35.263V58.413L131.065 54H161z"/>
            <path fill="#FDFDFD" d="M126.79 89V59.092l4.97-4.314h27.924V89z"/>
            <path d="M130.21 59.445h16.58v3.37h-16.58v-3.37zm1.316 7.258h12.105v3.371h-12.105v-3.37z" fill="#E0E0E0"/>
            <path fill="#386DB0" d="M131.263 77.333h26.316v9.593h-26.316z"/>
            <path fill="#E0E0E0" d="M151.263 59.445h5.526v3.37h-5.526z"/>
            <path d="M151.263 62.297h5.526v3.37h-5.526v-3.37zm0 4.406h5.526v3.371h-5.526v-3.37z" fill="#E0E0E0"/>
            <path fill="url(#c)" d="M26.316.778v5.445H20.79v-.478L25.785.777z" transform="translate(106 54)"/>
            <path fill="#EEE" d="m126.79 60.222 5.526-5.444v5.444z"/>
        </g>
    </g>
</svg>
