<svg width="209" height="135" viewBox="0 0 209 135" fill="none" xmlns="http://www.w3.org/2000/svg">
<g id="undraw_files1_9ool (1)" opacity="0.400763">
<path id="Shape" opacity="0.697154" d="M130 135H0V37.9954L19.6421 24H130V135Z" fill="#80A6D6"/>
<path id="Shape_2" d="M130 135H5V42.3654L23.885 29H130V135Z" fill="#FAFAFA"/>
<path id="Rectangle-path" d="M13 45H76V58H13V45Z" fill="#E0E0E0"/>
<path id="Rectangle-path_2" d="M13 74H59V87H13V74Z" fill="#E0E0E0"/>
<path id="Rectangle-path_3" d="M13 119H113V135H13V119Z" fill="#386DB0"/>
<path id="Rectangle-path_4" d="M92 45H113V58H92V45Z" fill="#F5F5F5"/>
<path id="Rectangle-path_5" d="M92 61H113V74H92V61Z" fill="#F5F5F5"/>
<path id="Shape_3" d="M26 29V50H5V48.1641L23.9854 29H26Z" fill="url(#paint0_linear_741_11223)"/>
<path id="Shape_4" d="M5 50L26 29V50H5Z" fill="#EEEEEE"/>
<path id="Shape_5" d="M38 135V24.0111L57.6421 8H168V135H38Z" fill="#A6C1E2"/>
<path id="Shape_6" d="M42 135V26.635L60.885 11H167V135H42Z" fill="#FAFAFA"/>
<path id="Rectangle-path_6" d="M54 32H117V45H54V32Z" fill="#E0E0E0"/>
<path id="Rectangle-path_7" d="M55 61H101V74H55V61Z" fill="#E0E0E0"/>
<path id="Rectangle-path_8" d="M55 102H155V135H55V102Z" fill="#386DB0"/>
<path id="Rectangle-path_9" d="M133 32H154V45H133V32Z" fill="#F5F5F5"/>
<path id="Rectangle-path_10" d="M133 49H154V62H133V49Z" fill="#F5F5F5"/>
<path id="Shape_7" d="M63 12V33H42V31.1641L60.9854 12H63Z" fill="url(#paint1_linear_741_11223)"/>
<path id="Shape_8" d="M42 33L63 12V33H42Z" fill="#EEEEEE"/>
<path id="Shape_9" d="M209 135H75V17.0214L95.2438 0H209V135Z" fill="#A6C1E2"/>
<path id="Shape_10" d="M79 135V19.6417L97.8876 3H204V135H79Z" fill="#FDFDFD"/>
<path id="Rectangle-path_11" d="M92 21H155V34H92V21Z" fill="#E0E0E0"/>
<path id="Rectangle-path_12" d="M97 49H143V62H97V49Z" fill="#E0E0E0"/>
<path id="Rectangle-path_13" d="M96 90H196V127H96V90Z" fill="#386DB0"/>
<path id="Rectangle-path_14" d="M172 21H193V34H172V21Z" fill="#E0E0E0"/>
<path id="Rectangle-path_15" d="M172 32H193V45H172V32Z" fill="#E0E0E0"/>
<path id="Rectangle-path_16" d="M172 49H193V62H172V49Z" fill="#E0E0E0"/>
<path id="Shape_11" d="M100 3V24H79V22.1618L97.9857 3H100Z" fill="url(#paint2_linear_741_11223)"/>
<path id="Shape_12" d="M79 24L100 3V24H79Z" fill="#EEEEEE"/>
</g>
<defs>
<linearGradient id="paint0_linear_741_11223" x1="26" y1="50" x2="26" y2="29" gradientUnits="userSpaceOnUse">
<stop stop-color="#B3B3B3" stop-opacity="0.25"/>
<stop offset="0.54" stop-color="#B3B3B3" stop-opacity="0.1"/>
<stop offset="1" stop-color="#B3B3B3" stop-opacity="0.05"/>
</linearGradient>
<linearGradient id="paint1_linear_741_11223" x1="63.0012" y1="33.0023" x2="63.0012" y2="12" gradientUnits="userSpaceOnUse">
<stop stop-color="#B3B3B3" stop-opacity="0.25"/>
<stop offset="0.54" stop-color="#B3B3B3" stop-opacity="0.1"/>
<stop offset="1" stop-color="#B3B3B3" stop-opacity="0.05"/>
</linearGradient>
<linearGradient id="paint2_linear_741_11223" x1="99.9987" y1="24" x2="99.9987" y2="3" gradientUnits="userSpaceOnUse">
<stop stop-color="#B3B3B3" stop-opacity="0.25"/>
<stop offset="0.54" stop-color="#B3B3B3" stop-opacity="0.1"/>
<stop offset="1" stop-color="#B3B3B3" stop-opacity="0.05"/>
</linearGradient>
</defs>
</svg>
