<svg width="24" height="24" fill="none" xmlns="http://www.w3.org/2000/svg"><path fill-rule="evenodd" clip-rule="evenodd" d="M24 24 12 0 0 24h24zm-13.286-3.692v-2.77h2.572v2.77h-2.572zm0-4.616h2.572v-5.538h-2.572v5.538z" fill="#000"/><mask id="a" style="mask-type:luminance" maskUnits="userSpaceOnUse" x="0" y="0" width="24" height="24"><path fill-rule="evenodd" clip-rule="evenodd" d="M24 24 12 0 0 24h24zm-13.286-3.692v-2.77h2.572v2.77h-2.572zm0-4.616h2.572v-5.538h-2.572v5.538z" fill="#fff"/></mask><g mask="url(#a)"><path fill="#FD0" d="M0 0h24v24H0z"/></g><path d="M10.5 10h3v6h-3v-6zM10.5 17.5h3v3h-3v-3z" fill="#000"/></svg>