<svg width="16" height="16" viewBox="0 0 16 16" fill="none" xmlns="http://www.w3.org/2000/svg">
<path fill-rule="evenodd" clip-rule="evenodd" d="M0 8C0 3.582 3.582 0 8 0C12.418 0 16 3.582 16 8C16 12.418 12.418 16 8 16C3.582 16 0 12.418 0 8ZM14.6667 8C14.6667 4.324 11.676 1.33333 8 1.33333C4.324 1.33333 1.33333 4.324 1.33333 8C1.33333 11.676 4.324 14.6667 8 14.6667C11.676 14.6667 14.6667 11.676 14.6667 8ZM8 2C4.686 2 2 4.686 2 8C2 11.314 4.686 14 8 14C11.314 14 14 11.314 14 8C14 4.686 11.314 2 8 2ZM8.66667 12V11.298C9.77067 11.1433 10.668 10.534 10.6667 9.38867C10.6667 8.16856 9.58343 7.69974 8.55693 7.25547C8.38034 7.17904 8.20543 7.10334 8.038 7.02467C7.34533 6.66467 7.43267 5.80533 8.42533 5.74733C8.976 5.714 9.54133 5.87733 10.0533 6.05733L10.2947 4.95867C9.69 4.77533 9.15 4.69133 8.66667 4.67867V4H8V4.71133C6.70333 4.88933 6.01067 5.70267 6.01067 6.61133C6.01067 7.93255 7.26485 8.3432 8.06758 8.60603C8.25235 8.66653 8.4132 8.7192 8.52933 8.77333C9.37667 9.15267 9.21933 9.94067 8.45333 10.114C7.78933 10.264 6.94067 10.0013 6.30333 9.754L6 10.85C6.596 11.158 7.31 11.3227 8 11.3347V12H8.66667Z" fill="#F3E500"/>
</svg>
