<svg width="29" height="27" viewBox="0 0 29 27" fill="none" xmlns="http://www.w3.org/2000/svg">
<title>Github logo</title>
<path fill-rule="evenodd" clip-rule="evenodd" d="M0 13.8418C0 6.19703 6.49297 0 14.5001 0C22.508 0 29 6.19703 29 13.8418C29 19.9554 24.8506 25.142 19.0923 26.9744C18.3573 27.1103 18.0963 26.6787 18.0963 26.3103C18.0963 26.1603 18.0982 25.8983 18.1006 25.5482L18.1006 25.5452L18.1006 25.5405L18.1007 25.54V25.5399V25.5397V25.5393C18.1056 24.8254 18.1131 23.7493 18.1131 22.5118C18.1131 21.2204 17.6497 20.3781 17.1296 19.9485C20.3585 19.6058 23.7506 18.4352 23.7506 13.1188C23.7506 11.6076 23.188 10.3729 22.2583 9.40351C22.4088 9.05487 22.9054 7.64704 22.1161 5.74044C22.1161 5.74044 20.9002 5.36842 18.1326 7.15927C16.9738 6.85259 15.7324 6.69878 14.5001 6.69351C13.2678 6.69878 12.0274 6.85259 10.8708 7.15927C8.09983 5.36842 6.8822 5.74044 6.8822 5.74044C6.09486 7.64704 6.59118 9.05487 6.74173 9.40351C5.81417 10.3729 5.24773 11.6076 5.24773 13.1188C5.24773 18.4226 8.63337 19.6095 11.854 19.9595C11.4394 20.3052 11.0636 20.9158 10.9334 21.8104C10.106 22.1641 8.00714 22.7759 6.71388 20.6598C6.71388 20.6598 5.94719 19.331 4.49113 19.2334C4.49113 19.2334 3.07636 19.2157 4.39196 20.0748C4.39196 20.0748 5.34234 20.5002 6.00194 22.1001C6.00194 22.1001 6.85315 24.5706 10.8871 23.7333C10.8905 24.3617 10.896 24.9706 10.9003 25.4486L10.9003 25.4491L10.9003 25.4493C10.904 25.8507 10.9068 26.1597 10.9068 26.3103C10.9068 26.6759 10.6407 27.1043 9.91607 26.9762C4.15473 25.1459 0 19.9574 0 13.8418ZM5.18225 19.7601C5.2855 19.8073 5.39883 19.7867 5.43077 19.7179C5.46726 19.6489 5.40724 19.5543 5.30182 19.5091C5.19689 19.4616 5.08332 19.4814 5.0521 19.5522C5.01801 19.6212 5.07708 19.7149 5.18225 19.7601ZM6.14401 20.3254C6.07486 20.3866 5.93967 20.3582 5.84795 20.2615C5.7531 20.165 5.73533 20.0359 5.80545 19.9738C5.87676 19.9126 6.00787 19.9413 6.10295 20.0378C6.1978 20.1354 6.21629 20.2635 6.14401 20.3254ZM6.30941 20.9833C6.39921 21.1064 6.54448 21.1616 6.63332 21.1027C6.72409 21.0425 6.72409 20.8948 6.63549 20.7697C6.54448 20.6475 6.40137 20.5943 6.31133 20.6535C6.22056 20.7126 6.22056 20.8602 6.30941 20.9833ZM7.46086 22.003C7.38138 22.0866 7.2121 22.0642 7.0882 21.95C6.96142 21.8384 6.92612 21.68 7.00584 21.5963C7.08628 21.5125 7.25652 21.5361 7.38138 21.6493C7.5072 21.7607 7.54562 21.9202 7.46086 22.003ZM8.16803 22.4185C8.33227 22.4646 8.49531 22.4153 8.53036 22.3069C8.56446 22.1966 8.45689 22.0706 8.29313 22.0233C8.12769 21.9741 7.96393 22.0254 7.92983 22.1345C7.8967 22.2441 8.00403 22.3711 8.16803 22.4185ZM9.74751 22.4358C9.75159 22.5499 9.61232 22.6446 9.43992 22.6467C9.26655 22.6503 9.12633 22.558 9.1244 22.4456C9.1244 22.3304 9.26055 22.2366 9.43391 22.2339C9.60632 22.2306 9.74751 22.3223 9.74751 22.4358ZM10.6728 22.6483C10.844 22.6178 10.9639 22.5034 10.9432 22.392C10.9214 22.2788 10.7679 22.2119 10.5965 22.2403C10.4284 22.2699 10.3064 22.3842 10.3273 22.4984C10.3487 22.6089 10.5045 22.6776 10.6728 22.6483Z" fill="#979797"/>
</svg>
