<svg width="56" height="61" viewBox="0 0 56 61" fill="none" xmlns="http://www.w3.org/2000/svg">
<path fill-rule="evenodd" clip-rule="evenodd" d="M7.70774 8.35862C16.5703 0.670591 29.8045 1.32863 37.8836 9.85903C45.2872 17.6737 46.0907 29.754 39.7892 38.507L55.6989 55.2995C55.8969 55.5069 56.0052 55.7859 55.9998 56.0745C55.9945 56.3632 55.8759 56.6378 55.6704 56.8375L51.7072 60.6945C51.5028 60.8954 51.2279 61.0052 50.9433 60.9998C50.6588 60.9944 50.3882 60.8741 50.1913 60.6656L34.2816 43.8731C24.6007 50.4676 11.5308 48.2582 4.48028 38.8356C-2.57026 29.4129 -1.1548 16.0467 7.70774 8.35862ZM10.6679 36.4127C16.6936 42.7716 26.6591 42.9711 32.9272 36.8582V36.834C39.1812 30.7222 39.3768 20.627 33.3644 14.2705C27.3377 7.91263 17.3721 7.71496 11.1051 13.829C4.83799 19.943 4.64229 30.0538 10.6679 36.4127Z" fill="url(#paint0_linear_740_10487)"/>
<path d="M11.5 21C9.5 21 9.5 24 11.5 24C13.5 24 13.5 21 11.5 21Z" fill="url(#paint1_linear_740_10487)"/>
<path d="M22.6993 11.0056C18.0814 10.8758 13.719 12.9974 11.1595 16.6178C10.3998 17.7402 12.5587 18.7314 13.3184 17.6135C15.2417 14.7667 18.92 12.9608 22.8868 13.0559C26.9586 13.1882 30.6911 15.2259 32.835 18.487C33.5947 19.6683 35.5902 18.5956 34.8305 17.4234C32.4119 13.6669 27.6806 11.1097 22.6993 11.0056Z" fill="url(#paint2_linear_740_10487)"/>
<path fill-rule="evenodd" clip-rule="evenodd" d="M7.70774 5.35862C16.5703 -2.32941 29.8045 -1.67137 37.8836 6.85903C45.2872 14.6737 46.0907 26.754 39.7892 35.507L55.6989 52.2995C55.8969 52.5069 56.0052 52.7859 55.9998 53.0745C55.9945 53.3632 55.8759 53.6378 55.6704 53.8375L51.7072 57.6945C51.5028 57.8954 51.2279 58.0052 50.9433 57.9998C50.6588 57.9944 50.3882 57.8741 50.1913 57.6656L34.2816 40.8731C24.6007 47.4676 11.5308 45.2582 4.48028 35.8356C-2.57026 26.4129 -1.1548 13.0467 7.70774 5.35862ZM10.6679 33.4127C16.6936 39.7716 26.6591 39.9711 32.9272 33.8582V33.8533C39.1938 27.7394 39.3895 17.6293 33.3644 11.2705C27.3377 4.91263 17.3721 4.71496 11.1051 10.829C4.83799 16.943 4.64229 27.0538 10.6679 33.4127Z" fill="#386DB0"/>
<path d="M11.5 18C9.5 18 9.5 21 11.5 21C13.5 21 13.5 18 11.5 18Z" fill="#386DB0"/>
<path d="M22.6993 10.0056C18.0814 9.8758 13.719 11.9974 11.1595 15.6178C10.3998 16.7402 12.5587 17.7314 13.3184 16.6135C15.2417 13.7667 18.92 11.9608 22.8868 12.0559C26.9586 12.1882 30.6911 14.2259 32.835 17.487C33.5947 18.6683 35.5902 17.5956 34.8305 16.4234C32.4119 12.6669 27.6806 10.1097 22.6993 10.0056Z" fill="#386DB0"/>
<defs>
<linearGradient id="paint0_linear_740_10487" x1="56.016" y1="60.9838" x2="56.016" y2="2.98872" gradientUnits="userSpaceOnUse">
<stop stop-color="#B3B3B3" stop-opacity="0.25"/>
<stop offset="0.54" stop-color="#B3B3B3" stop-opacity="0.1"/>
<stop offset="1" stop-color="#B3B3B3" stop-opacity="0.05"/>
</linearGradient>
<linearGradient id="paint1_linear_740_10487" x1="13" y1="24" x2="13" y2="21" gradientUnits="userSpaceOnUse">
<stop stop-opacity="0.12"/>
<stop offset="0.55" stop-opacity="0.09"/>
<stop offset="1" stop-opacity="0.02"/>
</linearGradient>
<linearGradient id="paint2_linear_740_10487" x1="35.0138" y1="19.012" x2="35.0138" y2="11.0011" gradientUnits="userSpaceOnUse">
<stop stop-opacity="0.12"/>
<stop offset="0.55" stop-opacity="0.09"/>
<stop offset="1" stop-opacity="0.02"/>
</linearGradient>
</defs>
</svg>
