<svg width="56" height="55" viewBox="0 0 56 55" fill="none" xmlns="http://www.w3.org/2000/svg">
<path fill-rule="evenodd" clip-rule="evenodd" d="M9.53703 9.8971L13.037 7.51412C13.037 7.51412 26.2958 18.6853 31.9042 24.8652C37.5126 31.0451 46.4693 43.2402 46.4693 43.2402L43.2037 46.1737C43.2037 46.1737 35.1022 32.5838 29.4302 26.1649C23.7583 19.7461 9.53703 9.8971 9.53703 9.8971Z" fill="#41A36D"/>
<path fill-rule="evenodd" clip-rule="evenodd" d="M39.8703 5.13117L43.1384 7.74983C43.1384 7.74983 36.9423 20.8294 31.3884 27.6581C25.8346 34.4868 15.2036 49.1737 15.2036 49.1737L11.8702 45.6418C11.8702 45.6418 23.6477 33.1068 29.4301 26.165C35.2125 19.2231 39.8703 5.13117 39.8703 5.13117Z" fill="#386DB0"/>
<path fill-rule="evenodd" clip-rule="evenodd" d="M3.70369 28.9611C3.70369 28.9611 21.3521 26.6802 25.5229 29.649C29.6937 32.6179 30.2037 52.1738 30.2037 52.1738L24.7037 51.5481C24.7037 51.5481 27.6601 34.5618 23.5552 31.6398C19.4503 28.7179 3.70369 33.1738 3.70369 33.1738L3.70369 28.9611Z" fill="#AAC4E4"/>
<path fill-rule="evenodd" clip-rule="evenodd" d="M51.9446 23.3843C51.9446 23.3843 35.132 25.9558 30.8619 23.1367C26.5917 20.3177 25.9061 2.11532 25.9061 2.11532L30.5369 2.11532C30.5369 2.11532 28.5573 18.3028 32.76 21.0773C36.9627 23.8519 50.8009 18.8535 50.8009 18.8535L51.9446 23.3843Z" fill="#41A36D"/>
<path fill-rule="evenodd" clip-rule="evenodd" d="M6.20361 15.1738L9.57407 11.1738C9.57407 11.1738 25.8278 19.1436 26.1953 26.2698C26.5627 33.3961 10.2036 45.1738 10.2036 45.1738L7.92586 41.8167C7.92586 41.8167 23.6578 32.9142 23.6578 27.7648C23.6578 22.6154 6.20361 15.1738 6.20361 15.1738Z" fill="#80A6D6"/>
<path fill-rule="evenodd" clip-rule="evenodd" d="M43.6281 7.74976L46.8125 10.736C46.8125 10.736 37.0372 20.5239 35.3052 27.9069C33.5733 35.2898 37.7531 50.0548 37.7531 50.0548L33.3469 51.0502C33.3469 51.0502 30.6944 33.1092 32.8573 25.6672C35.0202 18.2252 43.6281 7.74976 43.6281 7.74976Z" fill="#AAC4E4"/>
<ellipse cx="27.7036" cy="27.1738" rx="24.5" ry="25" stroke="#386DB0"/>
</svg>
