<svg width="69" height="59" viewBox="0 0 69 59" fill="none" xmlns="http://www.w3.org/2000/svg">
<path d="M68.0525 54.7136H8.05249V14.7136H15.7257L18.8826 18.8755H68.0525V54.7136Z" fill="#386DB0"/>
<path opacity="0.1" d="M68.0525 54.7136H8.05249V14.7136H15.7257L18.8826 18.8755H68.0525V54.7136Z" fill="black"/>
<path d="M22.16 10.1246L49.904 0.000117156L66.4836 46.2465L38.7396 56.3709L22.16 10.1246Z" fill="#C0C0C0"/>
<path d="M29.6198 12.9405L38.0636 9.85919L38.4999 11.0762L30.0561 14.1576L29.6198 12.9405Z" fill="#FDFDFD"/>
<path d="M31.1977 17.2511L49.3183 10.7232L49.7496 11.942L31.629 18.4699L31.1977 17.2511Z" fill="#FDFDFD"/>
<path d="M32.4804 22.4279L50.601 15.8999L51.0324 17.1187L32.9118 23.6467L32.4804 22.4279Z" fill="#FDFDFD"/>
<path d="M33.7631 25.0162L51.8837 18.4883L52.3151 19.7071L34.1945 26.235L33.7631 25.0162Z" fill="#FDFDFD"/>
<path d="M31.1977 28.8988L49.3183 22.3709L49.7496 23.5897L31.629 30.1176L31.1977 28.8988Z" fill="#FDFDFD"/>
<path d="M32.4804 34.0753L50.601 27.5474L51.0324 28.7662L32.9118 35.2941L32.4804 34.0753Z" fill="#FDFDFD"/>
<path d="M33.7631 37.9579L51.8837 31.4299L52.3151 32.6487L34.1945 39.1767L33.7631 37.9579Z" fill="#FDFDFD"/>
<path d="M48.2766 38.0105L51.9007 36.7049L53.1948 40.3613L49.5706 41.6669L48.2766 38.0105Z" fill="#FDFDFD"/>
<path d="M0.203586 29.2914L15.9303 2.58984L58.9371 28.3735L43.2104 55.0751L0.203586 29.2914Z" fill="url(#paint0_linear_740_10488)"/>
<path d="M0.441335 28.4187L15.5128 2.82965L57.4169 27.9522L42.3454 53.5412L0.441335 28.4187Z" fill="#C0C0C0"/>
<path d="M9.40851 28.5134L13.9955 20.7254L15.0982 21.3865L10.5112 29.1745L9.40851 28.5134Z" fill="#FDFDFD"/>
<path d="M14.4838 30.3752L24.313 13.6867L25.4157 14.3478L15.5865 31.0363L14.4838 30.3752Z" fill="#FDFDFD"/>
<path d="M17.0492 31.6694L26.8784 14.9809L27.9812 15.642L18.152 32.3305L17.0492 31.6694Z" fill="#FDFDFD"/>
<path d="M19.622 34.2628L29.4364 17.5655L30.5397 18.2256L20.7253 34.9229L19.622 34.2628Z" fill="#FDFDFD"/>
<path d="M24.7458 35.552L34.575 18.8635L35.6777 19.5246L25.8485 36.2131L24.7458 35.552Z" fill="#FDFDFD"/>
<path d="M23.463 39.4345L33.2922 22.746L34.395 23.4072L24.5658 40.0957L23.463 39.4345Z" fill="#FDFDFD"/>
<path d="M26.0285 40.7287L35.8577 24.0402L36.9604 24.7014L27.1312 41.3898L26.0285 40.7287Z" fill="#FDFDFD"/>
<path d="M37.8373 29.5121L39.8002 26.1726L43.1101 28.153L41.1472 31.4924L37.8373 29.5121Z" fill="#FDFDFD"/>
<path d="M62.7482 26.6987L63.1123 22.8337L66.9433 23.2011L66.5791 27.0662L62.7482 26.6987Z" fill="#FDFDFD"/>
<path d="M68.0525 58.7136H8.05249V18.7136H15.7257L18.8826 22.8755H68.0525V58.7136Z" fill="#386DB0"/>
<path opacity="0.1" d="M30.0525 37.7136H43.0525V40.7136H30.0525V37.7136Z" fill="black"/>
<defs>
<linearGradient id="paint0_linear_740_10488" x1="59.1412" y1="28.2659" x2="15.9297" y2="2.58835" gradientUnits="userSpaceOnUse">
<stop stop-color="#808080" stop-opacity="0.25"/>
<stop offset="0.54" stop-color="#808080" stop-opacity="0.12"/>
<stop offset="1" stop-color="#808080" stop-opacity="0.1"/>
</linearGradient>
</defs>
</svg>
