<svg width="59" height="57" viewBox="0 0 59 57" fill="none" xmlns="http://www.w3.org/2000/svg">
<path d="M54.725 27.6001L58.8 32.4001L54.725 37.2001H31.2V27.6001H54.725Z" fill="#386DB0"/>
<path d="M54.725 13.2002L58.8 18.0002L54.725 22.8002H31.2V13.2002H54.725Z" fill="#386DB0"/>
<path d="M29.4 0C32.3781 0 34.8 2.4219 34.8 5.4C34.8 8.3781 32.3781 10.8 29.4 10.8C26.4219 10.8 24 8.3781 24 5.4C24 2.4219 26.4219 0 29.4 0Z" fill="#AAC4E4"/>
<path d="M4.07496 26.3998L0 21.5998L4.07496 16.7998H27.6V26.3998H4.07496Z" fill="#386DB0"/>
<path d="M4.07496 44.3998L0 39.5998L4.07496 34.7998H27.6V44.3998H4.07496Z" fill="#386DB0"/>
<path d="M27.3677 44.8934V36.4998V19.7125V11.3188V9.12598C28.1501 9.18368 28.9493 9.22041 29.7677 9.22041C30.5861 9.22041 31.3853 9.18368 32.1677 9.12598V11.3188V19.7125V23.9093V32.3029V52.326L27.3677 51.3722V44.8934Z" fill="#AAC4E4"/>
<path d="M24.6 48L43.2 56.4H6L24.6 48Z" fill="#41A36D"/>
<path d="M36.6561 48L52.7999 56.4H43.2869L32.3999 51.5079L36.6561 48Z" fill="#41A36D"/>
<rect x="23.2258" y="38.4775" width="1.93548" height="1.93548" fill="#F2F2F2"/>
<rect x="19.3547" y="38.4775" width="1.93548" height="1.93548" fill="#F2F2F2"/>
<rect x="15.4839" y="38.4775" width="1.93548" height="1.93548" fill="#F2F2F2"/>
<rect x="22.1418" y="20.3999" width="1.93548" height="1.93548" fill="#F2F2F2"/>
<rect x="18.271" y="20.3999" width="1.93548" height="1.93548" fill="#F2F2F2"/>
<rect x="14.3999" y="20.3999" width="1.93548" height="1.93548" fill="#F2F2F2"/>
<rect x="42.542" y="16.7998" width="1.93548" height="1.93548" fill="#F2F2F2"/>
<rect x="38.6709" y="16.7998" width="1.93548" height="1.93548" fill="#F2F2F2"/>
<rect x="34.8" y="16.7998" width="1.93548" height="1.93548" fill="#F2F2F2"/>
<rect x="42.542" y="31.2002" width="1.93548" height="1.93548" fill="#F2F2F2"/>
<rect x="38.6709" y="31.2002" width="1.93548" height="1.93548" fill="#F2F2F2"/>
<rect x="34.8" y="31.2002" width="1.93548" height="1.93548" fill="#F2F2F2"/>
</svg>
