<svg width="26" height="26" viewBox="0 0 26 26" fill="none" xmlns="http://www.w3.org/2000/svg">
<g id="Badges/icon/help">
<circle id="Oval 2" cx="13" cy="13" r="12" stroke="#386DB0"/>
<path id="?" fill-rule="evenodd" clip-rule="evenodd" d="M11.8319 16.8798C11.7533 16.7996 11.714 16.6928 11.714 16.5592V15.7377C11.7402 15.0297 11.9203 14.4153 12.2544 13.8944C12.5884 13.3734 13.0633 12.7924 13.679 12.1512C14.1507 11.6569 14.5011 11.2495 14.7303 10.929C14.9596 10.6084 15.0939 10.2611 15.1332 9.88707C15.1463 9.83364 15.1528 9.74681 15.1528 9.62659C15.1528 9.01214 14.8974 8.52459 14.3865 8.16393C13.8755 7.80328 13.2795 7.62295 12.5983 7.62295C11.8646 7.62295 11.2522 7.81997 10.7609 8.21403C10.2696 8.60808 9.95197 9.22586 9.80786 10.0674C9.75546 10.3613 9.58515 10.5082 9.29694 10.5082H8.43231C8.31441 10.5082 8.21288 10.4681 8.12773 10.388C8.04258 10.3078 8 10.201 8 10.0674C8.0262 9.33272 8.23253 8.65483 8.619 8.0337C9.00546 7.41257 9.54912 6.91834 10.25 6.551C10.9509 6.18367 11.7533 6 12.6572 6C13.6135 6 14.4192 6.16697 15.0742 6.50091C15.7293 6.83485 16.214 7.27231 16.5284 7.8133C16.8428 8.35428 17 8.92532 17 9.52641C17 10.2077 16.8493 10.7954 16.548 11.2896C16.2467 11.7839 15.7948 12.3582 15.1921 13.0128C14.6943 13.5604 14.321 14.0246 14.0721 14.4053C13.8231 14.786 13.679 15.2101 13.6397 15.6776C13.6135 16.0516 13.6004 16.3321 13.6004 16.5191C13.5349 16.8397 13.3712 17 13.1092 17H12.1463C12.0153 17 11.9105 16.9599 11.8319 16.8798ZM12.1193 19.8762C12.0398 19.7937 12 19.6889 12 19.5619V18.4571C12 18.3302 12.0398 18.2222 12.1193 18.1333C12.1988 18.0444 12.2997 18 12.422 18H13.5596C13.682 18 13.7859 18.0444 13.8716 18.1333C13.9572 18.2222 14 18.3302 14 18.4571V19.5619C14 19.6889 13.9572 19.7937 13.8716 19.8762C13.7859 19.9587 13.682 20 13.5596 20H12.422C12.2997 20 12.1988 19.9587 12.1193 19.8762Z" fill="#386DB0"/>
</g>
</svg>
