<svg viewBox="0 0 26 26" xmlns="http://www.w3.org/2000/svg"><g transform="translate(1 1)" fill="none" fill-rule="evenodd"><circle stroke="#386DB0" cx="12" cy="12" r="12"/><path d="M10.832 15.88a.438.438 0 0 1-.118-.32v-.822c.026-.708.206-1.323.54-1.844.334-.52.81-1.102 1.425-1.743.472-.494.822-.901 1.051-1.222.23-.32.364-.668.403-1.042.013-.053.02-.14.02-.26 0-.615-.256-1.102-.767-1.463-.51-.36-1.107-.541-1.788-.541-.733 0-1.346.197-1.837.591-.491.394-.809 1.012-.953 1.853-.053.294-.223.441-.511.441h-.865a.43.43 0 0 1-.304-.12.42.42 0 0 1-.128-.32 4.059 4.059 0 0 1 .619-2.034c.386-.621.93-1.116 1.631-1.483.7-.367 1.503-.551 2.407-.551.957 0 1.762.167 2.417.5.655.335 1.14.772 1.454 1.313.315.541.472 1.112.472 1.713 0 .682-.15 1.27-.452 1.764-.301.494-.753 1.068-1.356 1.723-.498.547-.871 1.012-1.12 1.392a2.7 2.7 0 0 0-.432 1.273c-.026.374-.04.654-.04.841-.065.32-.229.481-.49.481h-.964a.42.42 0 0 1-.314-.12zm.287 2.996a.435.435 0 0 1-.119-.314v-1.105c0-.127.04-.235.12-.324a.388.388 0 0 1 .302-.133h1.138a.45.45 0 0 1 .44.457v1.105a.433.433 0 0 1-.44.438h-1.138a.402.402 0 0 1-.303-.124z" fill="#386DB0"/></g></svg>