<svg width="256" height="339" xmlns="http://www.w3.org/2000/svg"><g transform="translate(1 1)" fill="none" fill-rule="evenodd"><ellipse fill="#386DB0" fill-rule="nonzero" opacity=".1" cx="134.098" cy="308.237" rx="120.902" ry="29.763"/><path d="m81.951 161.684 107.321-35.89a1.372 1.372 0 0 1 1.807 1.298v171.546c0 5.29-4.297 9.58-9.597 9.58H85c-5.3 0-9.597-4.29-9.597-9.58V170.766a9.58 9.58 0 0 1 6.548-9.082z" fill="#F3A844" fill-rule="nonzero"/><path d="M75.403 165.066c28.752 5.498 49.945 8.248 63.579 8.248 13.633 0 31.113-2.75 52.44-8.248v81.964c-20.603 8.077-38.083 12.115-52.44 12.115s-35.55-4.038-63.579-12.115v-81.964z" fill="#FDFDFD" fill-rule="nonzero"/><g opacity=".482" fill-rule="nonzero" fill="#F6BB6D"><path d="M88.427 222.71h37.188v3.764H88.427zM88.427 206.119h92.883v3.763H88.427zM88.427 197.737h92.883v3.763H88.427zM88.427 214.329h92.883v3.763H88.427z"/></g><path d="m93 159.072 96.26-33.253a1.372 1.372 0 0 1 1.819 1.293v171.526c0 5.29-4.297 9.58-9.597 9.58h-94.94V168.123A9.58 9.58 0 0 1 93 159.072z" fill="#000" fill-rule="nonzero" opacity=".037"/><path d="m86.612 142.008-9.034-4.508" stroke="#979797" stroke-width="5" stroke-linecap="round" stroke-linejoin="round"/><path d="M77.031 138.04v24.973" stroke="#979797" stroke-width="5" opacity=".9" stroke-linecap="round" stroke-linejoin="round"/><path d="m77.313 163.522 9.915-21.206" stroke="#AAC4E4" stroke-width="5" stroke-linecap="round" stroke-linejoin="round"/><path d="m87.587 142.6 15.66 12.338" stroke="#979797" stroke-width="5" opacity=".598" stroke-linecap="round" stroke-linejoin="round"/><path d="m103.85 154.938 22.643-17.71" stroke="#979797" stroke-width="5" opacity=".5" stroke-linecap="round" stroke-linejoin="round"/><path d="m126.35 136.93-38.175 5.255" stroke="#AAC4E4" stroke-width="5" stroke-linecap="round" stroke-linejoin="round"/><path d="m86.97 121.704-9.404 14.657" stroke-opacity=".506" stroke="#979797" stroke-width="5" stroke-linecap="round" stroke-linejoin="bevel"/><path d="M77.203 136.158v-30.875" stroke="#979797" stroke-width="5" stroke-linecap="round" stroke-linejoin="bevel"/><path d="m77.46 121.197 8.11-.57" stroke="#AAC4E4" stroke-width="5" stroke-linecap="round" stroke-linejoin="bevel"/><path d="m86.6 122.834.765 18.326M87.993 141.318l17.681-19.54" stroke="#979797" stroke-width="5" opacity=".7" stroke-linecap="round" stroke-linejoin="bevel"/><path d="m105.184 120.851-17.114 1.068" stroke="#979797" stroke-width="5" opacity=".9" stroke-linecap="round" stroke-linejoin="bevel"/><path d="m87.2 121.63-9.654-16.034" stroke="#AAC4E4" stroke-width="5" stroke-linecap="round" stroke-linejoin="bevel"/><path d="M106.764 120.934c6.39 5.48 12.426 10.84 19.348 15.908l-19.348-15.908z" stroke="#979797" stroke-width="5" fill="#D8D8D8" fill-rule="nonzero" opacity=".9" stroke-linecap="round" stroke-linejoin="bevel"/><path d="m126.472 137.184 4.698 8.606" stroke="#979797" stroke-width="5" stroke-linecap="round" stroke-linejoin="bevel"/><path d="m131.65 145.691 8.122-21.726" stroke="#AAC4E4" stroke-width="5" fill="#D8D8D8" fill-rule="nonzero" stroke-linecap="round" stroke-linejoin="bevel"/><path d="m139.454 123.877-12.81 13.136" stroke="#80A6D6" stroke-width="5" stroke-linecap="round" stroke-linejoin="bevel"/><path d="m126.455 136.671 4.284-35.493" stroke="#AAC4E4" stroke-width="5" fill="#D8D8D8" fill-rule="nonzero" stroke-linecap="round" stroke-linejoin="bevel"/><path d="m130.739 101.302-24.038 19.33" stroke="#AAC4E4" stroke-width="5" stroke-linecap="round" stroke-linejoin="bevel"/><path d="m106.7 120.631-29.32-15.208" stroke="#AAC4E4" stroke-width="5" opacity=".9" stroke-linecap="round" stroke-linejoin="bevel"/><path d="m77.117 105.026-11.14-19.67" stroke="#AAC4E4" stroke-width="5" stroke-linecap="round" stroke-linejoin="bevel"/><path d="M65.618 85.355v19.33M66.32 105.197h10.454" stroke="#979797" stroke-width="5" opacity=".9" stroke-linecap="round" stroke-linejoin="bevel"/><path d="m77.117 105.215 39.398 7.167" stroke="#80A6D6" stroke-width="5" fill="#D8D8D8" fill-rule="nonzero" opacity=".7" stroke-linecap="round" stroke-linejoin="bevel"/><path d="M116.515 112.382 101.95 98.013" stroke="#979797" stroke-width="5" stroke-linecap="round" stroke-linejoin="bevel"/><path d="m101.76 98.013-23.803 6.33" stroke="#979797" stroke-width="5" opacity=".7" stroke-linecap="round" stroke-linejoin="bevel"/><path d="m77.362 105.197 6.593-20.013" stroke="#AAC4E4" stroke-width="5" opacity=".7" stroke-linecap="round" stroke-linejoin="bevel"/><path d="M65.49 85.145 32.989 70.046" stroke="#80A6D6" stroke-width="5" stroke-linecap="round" stroke-linejoin="bevel"/><path d="m33.795 69.344 11.311-22.237" stroke="#979797" stroke-width="5" stroke-linecap="square"/><path d="m45.326 47.432-28.789-5.096M16.354 41.057 2.816 23.267" stroke="#80A6D6" stroke-width="5" stroke-linecap="square"/><path d="M3.256 21.225 29.453 9.763" stroke="#979797" stroke-width="5" stroke-linecap="square"/><path d="M31.326 10.225 17.273 41.528" stroke="#80A6D6" stroke-width="5" stroke-linecap="square"/><path d="m84.137 85.013 17.755 13.023" stroke="#AAC4E4" stroke-width="5" stroke-linecap="round" stroke-linejoin="bevel"/><path d="m102.063 98.036 28.72 3.147" stroke="#AAC4E4" stroke-width="5" opacity=".5" stroke-linecap="round" stroke-linejoin="bevel"/><path d="m127.572 134.9 15.84-36.545" stroke="#979797" stroke-width="5" opacity=".598" stroke-linecap="round" stroke-linejoin="bevel"/><path d="m143.535 98.184-3.525 24.632" stroke="#979797" stroke-width="5" fill="#D8D8D8" fill-rule="nonzero" stroke-linecap="round" stroke-linejoin="bevel"/><path d="m140.353 123.158 10.882 17.02" stroke="#979797" stroke-width="5" fill="#D8D8D8" fill-rule="nonzero" opacity=".598" stroke-linecap="round" stroke-linejoin="bevel"/><path d="m180.882 130.086-40.7-7.1" stroke="#80A6D6" stroke-width="5" opacity=".598" stroke-linecap="round" stroke-linejoin="bevel"/><path d="m140.181 122.816 19.365-25.658" stroke="#979797" stroke-width="5" opacity=".7" stroke-linecap="round" stroke-linejoin="bevel"/><path d="m143.733 98.184-12.946 2.918" stroke="#979797" stroke-width="5" fill="#D8D8D8" fill-rule="nonzero" opacity=".7" stroke-linecap="round" stroke-linejoin="bevel"/><path d="m130.783 101.102-14.028-10.219" stroke="#386DB0" stroke-width="5" fill="#D8D8D8" fill-rule="nonzero" opacity=".698" stroke-linecap="round" stroke-linejoin="bevel"/><path d="m116.805 90.728-14.742 7.08M101.892 97.808l1.273-13.15" stroke="#979797" stroke-width="5" stroke-linecap="round" stroke-linejoin="bevel"/><path d="m103.444 84.488 13.26 6.22" stroke="#386DB0" stroke-width="5" opacity=".698" stroke-linecap="round" stroke-linejoin="bevel"/><path d="m116.768 90.708 11.314-6.782" stroke="#979797" stroke-width="5" stroke-linecap="round" stroke-linejoin="bevel"/><path d="m128.178 84.217 2.578 16.704" stroke="#AAC4E4" stroke-width="5" opacity=".598" stroke-linecap="round" stroke-linejoin="bevel"/><path d="m131.099 100.921 12.3-16.333M143.62 84.657v13.527" stroke="#979797" stroke-width="5" stroke-linecap="round" stroke-linejoin="bevel"/><path d="m143.535 98.184 15.84-1.868" stroke="#AAC4E4" stroke-width="5" fill="#D8D8D8" fill-rule="nonzero" stroke-linecap="round" stroke-linejoin="bevel"/><path d="m141.381 122.987 29.68-1.923" stroke="#979797" stroke-width="5" stroke-linecap="round" stroke-linejoin="bevel"/><path d="m181.739 130.086-10.363-9.022" stroke="#979797" stroke-width="5" opacity=".5" stroke-linecap="round" stroke-linejoin="bevel"/><path d="m141.381 122.816 35.474-29.08" stroke="#AAC4E4" stroke-width="5" stroke-linecap="round" stroke-linejoin="bevel"/><path d="m177.356 92.755-17.915 3.56" stroke="#979797" stroke-width="5" stroke-linecap="round" stroke-linejoin="bevel"/><path stroke="#AAC4E4" stroke-width="5" stroke-linecap="round" stroke-linejoin="bevel" d="m143.609 84.5 29.402-.29-13.636 11.922-15.595-11.46"/><path d="m185.843 84.388-8.474 8.665" stroke="#979797" stroke-width="5" fill="#D8D8D8" fill-rule="nonzero" stroke-linecap="round" stroke-linejoin="bevel"/><path stroke="#979797" stroke-width="5" opacity=".7" stroke-linecap="round" stroke-linejoin="bevel" d="m190.13 124.732.532.103v-10.777l-.573.198-18.62 6.816z"/><path d="m171.513 120.934 5.843-27.663" stroke="#979797" stroke-width="5" stroke-linecap="round" stroke-linejoin="bevel"/><path d="m177.433 92.755 3.525 24.758" stroke="#979797" stroke-width="5" opacity=".7" stroke-linecap="round" stroke-linejoin="bevel"/><path d="m180.796 117.684 9.727-12.487" stroke="#AAC4E4" stroke-width="5" stroke-linecap="round" stroke-linejoin="bevel"/><path d="m190.484 105.197-10.894.285" stroke="#979797" stroke-width="5" stroke-linecap="round" stroke-linejoin="bevel"/><path d="m179.597 105.197 6.34-20.868" stroke="#979797" stroke-width="5" opacity=".702" stroke-linecap="round" stroke-linejoin="bevel"/><path d="m186.102 84.407 15.516-.112M83.715 84.786l19.542-.57" stroke="#AAC4E4" stroke-width="5" stroke-linecap="round" stroke-linejoin="bevel"/><path d="M201.972 84.295v20.047" stroke="#AAC4E4" stroke-width="5" fill="#D8D8D8" fill-rule="nonzero" stroke-linecap="round" stroke-linejoin="bevel"/><path d="m202.046 84.842-22.45 20.355" stroke="#979797" stroke-width="5" fill="#F3E500" fill-rule="nonzero" opacity=".9"/><path d="m190.993 105.339 10.625-.57" stroke="#AAC4E4" stroke-width="5" fill="#F3E500" fill-rule="nonzero"/><path d="M190.65 104.94v9.238M172.828 84.414l3.427 8.382M172.828 84.2h12.852M128.271 84.243h14.738" stroke="#979797" stroke-width="5" stroke-linecap="square"/><path d="m81.401 17.447 22.937 7.473M105.222 25.829l4.91 17.784M109.592 44.217l-21.85 24.739M87.913 70.645l13.847 12.687" stroke="#80A6D6" stroke-width="5" stroke-linecap="square"/><path d="m103.337 82.928 7.412-38.454M105.993 25.401l13.538-22.92" stroke="#979797" stroke-width="5" stroke-linecap="square"/><path d="M179.254 44.132 152.921 63.77M152.635 64.054l-5.085-27.107M147.243 36.245l31.958 7.184M158.518 38.487l-12.167-16.08M146.09 21.856l28.398 10.936M174.456 33.013l-15.766 5.274" stroke="#80A6D6" stroke-width="5" stroke-linecap="square"/><ellipse stroke-opacity=".682" stroke="#FFF770" fill="#F3E500" fill-rule="nonzero" cx="76.86" cy="105.454" rx="3.513" ry="3.507"/><ellipse stroke-opacity=".682" stroke="#FFF770" fill="#F3E500" fill-rule="nonzero" cx="16.366" cy="41.138" rx="3.513" ry="3.507"/><ellipse stroke-opacity=".682" stroke="#FFF770" fill="#F3E500" fill-rule="nonzero" cx="87.656" cy="142.743" rx="3.513" ry="3.507"/><ellipse stroke-opacity=".682" stroke="#FFF770" fill="#F3E500" fill-rule="nonzero" cx="107.364" cy="121.533" rx="3.513" ry="3.507"/><ellipse stroke-opacity=".682" stroke="#FFF770" fill="#F3E500" fill-rule="nonzero" cx="131.527" cy="101.52" rx="3.513" ry="3.507"/><ellipse stroke-opacity=".682" stroke="#FFF770" fill="#F3E500" fill-rule="nonzero" cx="77.031" cy="121.704" rx="2.142" ry="2.138"/><ellipse stroke-opacity=".682" stroke="#FFF770" fill="#F3E500" fill-rule="nonzero" cx="32.989" cy="69.704" rx="2.828" ry="2.822"/><ellipse stroke-opacity=".682" stroke="#FFF770" fill="#F3E500" fill-rule="nonzero" transform="rotate(19 179.406 44.113)" cx="179.406" cy="44.113" rx="2.142" ry="2.138"/><ellipse stroke-opacity=".682" stroke="#FFF770" fill="#F3E500" fill-rule="nonzero" cx="87.314" cy="69.191" rx="2.142" ry="2.138"/><ellipse stroke-opacity=".682" stroke="#FFF770" fill="#F3E500" fill-rule="nonzero" transform="rotate(19 159.147 39.114)" cx="159.147" cy="39.114" rx="2.142" ry="2.138"/><ellipse stroke-opacity=".682" stroke="#FFF770" fill="#F3E500" fill-rule="nonzero" cx="83.886" cy="85.099" rx="1.799" ry="1.796"/><ellipse stroke-opacity=".682" stroke="#FFF770" fill="#F3E500" fill-rule="nonzero" cx="116.447" cy="90.743" rx="1.799" ry="1.796"/><ellipse stroke-opacity=".682" stroke="#FFF770" fill="#F3E500" fill-rule="nonzero" cx="172.828" cy="84.243" rx="1.799" ry="1.796"/><ellipse stroke-opacity=".682" stroke="#FFF770" fill="#F3E500" fill-rule="nonzero" cx="180.882" cy="116.743" rx="2.142" ry="2.138"/><ellipse stroke-opacity=".682" stroke="#FFF770" fill="#F3E500" fill-rule="nonzero" cx="144.037" cy="98.783" rx="2.142" ry="2.138"/><ellipse stroke-opacity=".682" stroke="#FFF770" fill="#F3E500" fill-rule="nonzero" cx="201.961" cy="84.757" rx="2.142" ry="2.138"/><path d="M146.15 24.24a2.14 2.14 0 0 0 2.721-1.325 2.14 2.14 0 0 0-1.33-2.719 2.14 2.14 0 0 0-2.72 1.324 2.14 2.14 0 0 0 1.329 2.72zm0 0a2.14 2.14 0 0 0 2.721-1.325 2.14 2.14 0 0 0-1.33-2.719 2.14 2.14 0 0 0-2.72 1.324 2.14 2.14 0 0 0 1.329 2.72z" stroke-opacity=".682" stroke="#FFF770" fill="#F3E500" fill-rule="nonzero"/><ellipse stroke-opacity=".682" stroke="#FFF770" fill="#F3E500" fill-rule="nonzero" cx="176.941" cy="93.309" rx="2.142" ry="2.138"/><ellipse stroke-opacity=".682" stroke="#FFF770" fill="#F3E500" fill-rule="nonzero" cx="132.384" cy="146.164" rx="3.513" ry="3.507"/><ellipse stroke-opacity=".682" stroke="#FFF770" fill="#F3E500" fill-rule="nonzero" cx="152.263" cy="141.204" rx="2.828" ry="2.822"/><ellipse stroke-opacity=".682" stroke="#FFF770" fill="#F3E500" fill-rule="nonzero" cx="2.828" cy="21.809" rx="2.828" ry="2.822"/><ellipse stroke-opacity=".682" stroke="#FFF770" fill="#F3E500" fill-rule="nonzero" cx="105.307" cy="24.888" rx="2.828" ry="2.822"/><ellipse stroke-opacity=".682" stroke="#FFF770" fill="#F3E500" fill-rule="nonzero" cx="202.303" cy="104.941" rx="2.485" ry="2.48"/><ellipse stroke-opacity=".682" stroke="#FFF770" fill="#F3E500" fill-rule="nonzero" cx="190.822" cy="125.467" rx="3.513" ry="3.507"/><ellipse stroke-opacity=".645" stroke="#4694F6" fill="#386DB0" fill-rule="nonzero" cx="78.402" cy="163.27" rx="3.17" ry="3.164"/><ellipse stroke-opacity=".645" stroke="#4694F6" fill="#386DB0" fill-rule="nonzero" transform="rotate(19 174.373 32.93)" cx="174.373" cy="32.93" rx="3.17" ry="3.164"/><ellipse stroke-opacity=".645" stroke="#4694F6" fill="#386DB0" fill-rule="nonzero" cx="140.953" cy="122.901" rx="3.513" ry="3.507"/><ellipse stroke-opacity=".645" stroke="#4694F6" fill="#386DB0" fill-rule="nonzero" cx="185.852" cy="84.414" rx="2.828" ry="2.822"/><ellipse stroke-opacity=".645" stroke="#4694F6" fill="#386DB0" fill-rule="nonzero" cx="159.118" cy="96.046" rx="2.828" ry="2.822"/><ellipse stroke-opacity=".645" stroke="#4694F6" fill="#386DB0" fill-rule="nonzero" cx="102.566" cy="98.783" rx="2.828" ry="2.822"/><ellipse stroke-opacity=".645" stroke="#4694F6" fill="#386DB0" fill-rule="nonzero" transform="rotate(19 152.937 63.705)" cx="152.937" cy="63.705" rx="2.485" ry="2.48"/><ellipse stroke-opacity=".645" stroke="#4694F6" fill="#386DB0" fill-rule="nonzero" cx="104.965" cy="155.572" rx="3.17" ry="3.164"/><ellipse stroke-opacity=".645" stroke="#4694F6" fill="#386DB0" fill-rule="nonzero" cx="77.545" cy="137.099" rx="2.314" ry="2.309"/><ellipse stroke-opacity=".645" stroke="#4694F6" fill="#386DB0" fill-rule="nonzero" transform="rotate(19 147.064 35.777)" cx="147.064" cy="35.777" rx="2.314" ry="2.309"/><ellipse stroke-opacity=".645" stroke="#4694F6" fill="#386DB0" fill-rule="nonzero" cx="31.447" cy="9.664" rx="2.314" ry="2.309"/><ellipse stroke-opacity=".645" stroke="#4694F6" fill="#386DB0" fill-rule="nonzero" cx="81.487" cy="17.704" rx="2.828" ry="2.822"/><ellipse stroke-opacity=".645" stroke="#4694F6" fill="#386DB0" fill-rule="nonzero" cx="66.064" cy="104.77" rx="2.314" ry="2.309"/><ellipse stroke-opacity=".645" stroke="#4694F6" fill="#386DB0" fill-rule="nonzero" cx="66.406" cy="85.954" rx="2.314" ry="2.309"/><ellipse stroke-opacity=".645" stroke="#4694F6" fill="#386DB0" fill-rule="nonzero" cx="182.167" cy="130.513" rx="2.056" ry="2.053"/><ellipse stroke-opacity=".645" stroke="#4694F6" fill="#386DB0" fill-rule="nonzero" cx="190.907" cy="105.711" rx="1.714" ry="1.711"/><ellipse stroke-opacity=".645" stroke="#4694F6" fill="#386DB0" fill-rule="nonzero" cx="86.799" cy="121.191" rx="2.828" ry="2.822"/><ellipse stroke-opacity=".645" stroke="#4694F6" fill="#386DB0" fill-rule="nonzero" cx="45.156" cy="47.98" rx="2.828" ry="2.822"/><ellipse stroke-opacity=".645" stroke="#4694F6" fill="#386DB0" fill-rule="nonzero" cx="103.594" cy="84.757" rx="1.799" ry="1.796"/><ellipse stroke-opacity=".645" stroke="#4694F6" fill="#386DB0" fill-rule="nonzero" cx="128.271" cy="83.73" rx="1.799" ry="1.796"/><ellipse stroke-opacity=".645" stroke="#4694F6" fill="#386DB0" fill-rule="nonzero" cx="180.197" cy="105.967" rx="1.799" ry="1.796"/><ellipse stroke-opacity=".645" stroke="#4694F6" fill="#386DB0" fill-rule="nonzero" cx="191.336" cy="114.691" rx="1.799" ry="1.796"/><ellipse stroke-opacity=".645" stroke="#4694F6" fill="#386DB0" fill-rule="nonzero" cx="126.729" cy="137.27" rx="2.828" ry="2.822"/><ellipse stroke-opacity=".645" stroke="#4694F6" fill="#386DB0" fill-rule="nonzero" cx="116.961" cy="113.322" rx="2.828" ry="2.822"/><ellipse stroke-opacity=".645" stroke="#4694F6" fill="#386DB0" fill-rule="nonzero" cx="143.523" cy="83.901" rx="2.828" ry="2.822"/><ellipse stroke-opacity=".645" stroke="#4694F6" fill="#386DB0" fill-rule="nonzero" cx="110.106" cy="44.559" rx="2.828" ry="2.822"/><ellipse stroke-opacity=".645" stroke="#4694F6" fill="#386DB0" fill-rule="nonzero" cx="119.531" cy="2.822" rx="2.828" ry="2.822"/><ellipse stroke-opacity=".645" stroke="#4694F6" fill="#386DB0" fill-rule="nonzero" cx="172.485" cy="121.533" rx="2.828" ry="2.822"/></g></svg>