<svg width="24" height="24" viewBox="0 0 24 24" fill="none" xmlns="http://www.w3.org/2000/svg">
<circle cx="12" cy="12" r="12" fill="currentColor"/>
<path fill-rule="evenodd" clip-rule="evenodd" d="M11.73 6.76002C11.6567 6.66669 11.6334 6.55336 11.66 6.42002L11.98 4.96002C11.9934 4.82669 12.0567 4.71002 12.17 4.61002C12.2834 4.51002 12.4134 4.46002 12.56 4.46002H14.4C14.5334 4.46002 14.64 4.50669 14.72 4.60002C14.8 4.69336 14.8267 4.81335 14.8 4.96002L14.48 6.42002C14.4534 6.55336 14.3834 6.66669 14.27 6.76002C14.1567 6.85336 14.0334 6.90002 13.9 6.90002H12.04C11.9067 6.90002 11.8034 6.85336 11.73 6.76002ZM9.23002 18.86C9.15669 18.7667 9.13335 18.6534 9.16002 18.52L11.18 9.08002C11.2067 8.93335 11.2767 8.81669 11.39 8.73002C11.5034 8.64335 11.6267 8.60002 11.76 8.60002H13.46C13.5934 8.60002 13.6934 8.64669 13.76 8.74002C13.8267 8.83336 13.8467 8.94669 13.82 9.08002L11.82 18.52C11.7934 18.6534 11.7267 18.7667 11.62 18.86C11.5134 18.9534 11.3934 19 11.26 19H9.56002C9.41335 19 9.30335 18.9534 9.23002 18.86Z" fill="#FDFDFD"/>
</svg>
