<svg width="119" height="58" viewBox="0 0 119 58" fill="none" xmlns="http://www.w3.org/2000/svg">
<path fill-rule="evenodd" clip-rule="evenodd" d="M31.2705 34.7164V23.3201H32.3709C32.5794 23.3201 32.7233 23.3614 32.8024 23.4439C32.8815 23.5264 32.9354 23.6689 32.9642 23.8714L33.0937 25.6489C33.4676 24.8539 33.9297 24.2333 34.4799 23.787C35.0301 23.3408 35.6756 23.1176 36.4163 23.1176C36.7184 23.1176 36.9917 23.1533 37.2362 23.2245C37.4807 23.2958 37.7073 23.3951 37.9158 23.5226L37.6677 25.0189C37.6174 25.2064 37.5059 25.3001 37.3333 25.3001C37.2326 25.3001 37.078 25.2645 36.8694 25.1933C36.6609 25.122 36.3696 25.0864 35.9956 25.0864C35.3267 25.0864 34.7676 25.2889 34.3181 25.6939C33.8686 26.0989 33.4928 26.6876 33.1908 27.4601V34.7164H31.2705ZM44.2915 23.1401C44.9459 23.1401 45.5501 23.2545 46.1038 23.4833C46.6576 23.712 47.1359 24.042 47.5386 24.4733C47.9414 24.9045 48.256 25.437 48.4826 26.0708C48.7091 26.7045 48.8224 27.4264 48.8224 28.2364C48.8224 28.5514 48.79 28.7614 48.7253 28.8664C48.6606 28.9714 48.5383 29.0239 48.3585 29.0239H41.0875C41.1019 29.7439 41.1954 30.3701 41.368 30.9026C41.5406 31.4351 41.7779 31.8795 42.08 32.2358C42.382 32.592 42.7416 32.8583 43.1588 33.0345C43.5759 33.2108 44.0434 33.2989 44.5612 33.2989C45.043 33.2989 45.4584 33.2408 45.8072 33.1245C46.156 33.0083 46.4562 32.8826 46.708 32.7476C46.9597 32.6126 47.17 32.487 47.3391 32.3708C47.5081 32.2545 47.6537 32.1964 47.776 32.1964C47.9342 32.1964 48.0564 32.2601 48.1427 32.3876L48.6821 33.1189C48.4448 33.4189 48.1607 33.6795 47.8299 33.9008C47.4991 34.122 47.1449 34.3039 46.7673 34.4464C46.3897 34.5889 45.9996 34.6958 45.5968 34.767C45.1941 34.8383 44.7949 34.8739 44.3994 34.8739C43.6442 34.8739 42.9484 34.7408 42.3119 34.4745C41.6754 34.2083 41.1252 33.8183 40.6614 33.3045C40.1975 32.7908 39.8361 32.1551 39.5772 31.3976C39.3183 30.6401 39.1888 29.7701 39.1888 28.7876C39.1888 27.9926 39.3057 27.2501 39.5394 26.5601C39.7732 25.8701 40.1094 25.272 40.5481 24.7658C40.9868 24.2595 41.5226 23.862 42.1555 23.5733C42.7884 23.2845 43.5004 23.1401 44.2915 23.1401ZM44.3346 24.6139C43.4069 24.6139 42.6769 24.8933 42.1447 25.452C41.6125 26.0108 41.2817 26.7851 41.1522 27.7751H47.0963C47.0963 27.3101 47.0352 26.8845 46.9129 26.4983C46.7907 26.112 46.6109 25.7783 46.3735 25.497C46.1362 25.2158 45.8467 24.9983 45.5051 24.8445C45.1635 24.6908 44.7733 24.6139 44.3346 24.6139ZM51.7028 34.7164V25.0301L50.4945 24.8839C50.3435 24.8464 50.2194 24.7883 50.1223 24.7095C50.0252 24.6308 49.9767 24.5164 49.9767 24.3664V23.5451H51.7028V22.9151C51.7028 22.2176 51.807 21.5783 52.0156 20.997C52.2242 20.4158 52.537 19.9151 52.9541 19.4951C53.3713 19.0751 53.8909 18.7489 54.513 18.5164C55.1351 18.2839 55.8597 18.1676 56.6868 18.1676C56.96 18.1676 57.2387 18.1864 57.5228 18.2239C57.8069 18.2614 58.0532 18.3176 58.2618 18.3926L58.1971 19.4389C58.1827 19.5364 58.1395 19.5983 58.0676 19.6245C57.9957 19.6508 57.8914 19.6639 57.7548 19.6639C57.6756 19.6639 57.5929 19.662 57.5066 19.6583C57.4203 19.6545 57.3232 19.6526 57.2154 19.6526C55.9424 19.6526 55.0164 19.9283 54.4375 20.4795C53.8585 21.0308 53.5691 21.8614 53.5691 22.9714V23.5451H60.1712V34.7164H58.251V24.9964H53.6338V34.7164H51.7028ZM63.5694 34.7164V23.3201H64.7129C64.9862 23.3201 65.1588 23.4589 65.2308 23.7364L65.3818 24.9739C65.8564 24.4264 66.3868 23.9839 66.973 23.6464C67.5591 23.3089 68.237 23.1401 69.0065 23.1401C69.6034 23.1401 70.1302 23.2433 70.5869 23.4495C71.0436 23.6558 71.4248 23.9483 71.7304 24.327C72.0361 24.7058 72.268 25.1614 72.4263 25.6939C72.5845 26.2264 72.6636 26.8151 72.6636 27.4601V34.7164H70.7434V27.4601C70.7434 26.5976 70.5546 25.9283 70.177 25.452C69.7994 24.9758 69.2223 24.7376 68.4455 24.7376C67.8774 24.7376 67.347 24.8801 66.8543 25.1651C66.3617 25.4501 65.9068 25.8364 65.4897 26.3239V34.7164H63.5694ZM79.8915 23.1401C80.5459 23.1401 81.1501 23.2545 81.7038 23.4833C82.2576 23.712 82.7359 24.042 83.1386 24.4733C83.5414 24.9045 83.856 25.437 84.0826 26.0708C84.3091 26.7045 84.4224 27.4264 84.4224 28.2364C84.4224 28.5514 84.39 28.7614 84.3253 28.8664C84.2606 28.9714 84.1383 29.0239 83.9585 29.0239H76.6875C76.7019 29.7439 76.7954 30.3701 76.968 30.9026C77.1406 31.4351 77.3779 31.8795 77.68 32.2358C77.982 32.592 78.3416 32.8583 78.7588 33.0345C79.1759 33.2108 79.6434 33.2989 80.1612 33.2989C80.643 33.2989 81.0584 33.2408 81.4072 33.1245C81.756 33.0083 82.0562 32.8826 82.308 32.7476C82.5597 32.6126 82.77 32.487 82.9391 32.3708C83.1081 32.2545 83.2537 32.1964 83.376 32.1964C83.5342 32.1964 83.6564 32.2601 83.7428 32.3876L84.2821 33.1189C84.0448 33.4189 83.7607 33.6795 83.4299 33.9008C83.0991 34.122 82.7449 34.3039 82.3673 34.4464C81.9897 34.5889 81.5996 34.6958 81.1968 34.767C80.7941 34.8383 80.3949 34.8739 79.9994 34.8739C79.2442 34.8739 78.5484 34.7408 77.9119 34.4745C77.2754 34.2083 76.7252 33.8183 76.2614 33.3045C75.7975 32.7908 75.4361 32.1551 75.1772 31.3976C74.9183 30.6401 74.7888 29.7701 74.7888 28.7876C74.7888 27.9926 74.9057 27.2501 75.1394 26.5601C75.3732 25.8701 75.7094 25.272 76.1481 24.7658C76.5868 24.2595 77.1226 23.862 77.7555 23.5733C78.3884 23.2845 79.1004 23.1401 79.8915 23.1401ZM79.9346 24.6139C79.0069 24.6139 78.2769 24.8933 77.7447 25.452C77.2125 26.0108 76.8817 26.7851 76.7522 27.7751H82.6963C82.6963 27.3101 82.6352 26.8845 82.5129 26.4983C82.3907 26.112 82.2109 25.7783 81.9735 25.497C81.7362 25.2158 81.4467 24.9983 81.1051 24.8445C80.7635 24.6908 80.3733 24.6139 79.9346 24.6139ZM86.2455 33.4789C86.2455 33.2839 86.2797 33.1001 86.348 32.9276C86.4163 32.7551 86.5098 32.6051 86.6285 32.4776C86.7472 32.3501 86.8892 32.2489 87.0546 32.1739C87.22 32.0989 87.3962 32.0614 87.5832 32.0614C87.7702 32.0614 87.9464 32.0989 88.1118 32.1739C88.2773 32.2489 88.4211 32.3501 88.5434 32.4776C88.6656 32.6051 88.7609 32.7551 88.8292 32.9276C88.8976 33.1001 88.9317 33.2839 88.9317 33.4789C88.9317 33.6814 88.8976 33.867 88.8292 34.0358C88.7609 34.2045 88.6656 34.3526 88.5434 34.4801C88.4211 34.6076 88.2773 34.707 88.1118 34.7783C87.9464 34.8495 87.7702 34.8851 87.5832 34.8851C87.3962 34.8851 87.22 34.8495 87.0546 34.7783C86.8892 34.707 86.7472 34.6076 86.6285 34.4801C86.5098 34.3526 86.4163 34.2045 86.348 34.0358C86.2797 33.867 86.2455 33.6814 86.2455 33.4789ZM91.51 34.7164V18.1451H93.4411V24.9626C93.8941 24.4151 94.4138 23.9745 94.9999 23.6408C95.586 23.307 96.2567 23.1401 97.0118 23.1401C97.6447 23.1401 98.2165 23.2639 98.7271 23.5114C99.2377 23.7589 99.6729 24.1283 100.032 24.6195C100.392 25.1108 100.669 25.7183 100.863 26.442C101.057 27.1658 101.154 28.0001 101.154 28.9451C101.154 29.7851 101.047 30.567 100.831 31.2908C100.615 32.0145 100.304 32.6408 99.8976 33.1695C99.4912 33.6983 98.995 34.1145 98.4089 34.4183C97.8227 34.722 97.1629 34.8739 96.4293 34.8739C95.7245 34.8739 95.1258 34.7314 94.6331 34.4464C94.1405 34.1614 93.7108 33.7639 93.344 33.2539L93.2469 34.2889C93.1893 34.5739 93.0239 34.7164 92.7506 34.7164H91.51ZM96.3861 24.7376C95.7604 24.7376 95.2121 24.8876 94.741 25.1876C94.2699 25.4876 93.8366 25.9114 93.4411 26.4589V31.9714C93.7863 32.4664 94.1692 32.8151 94.59 33.0176C95.0107 33.2201 95.48 33.3214 95.9978 33.3214C97.019 33.3214 97.8029 32.9426 98.3495 32.1851C98.8961 31.4276 99.1694 30.3476 99.1694 28.9451C99.1694 28.2026 99.1065 27.5651 98.9806 27.0326C98.8548 26.5001 98.6732 26.0633 98.4358 25.722C98.1985 25.3808 97.9072 25.1314 97.562 24.9739C97.2168 24.8164 96.8249 24.7376 96.3861 24.7376ZM105.642 23.3201V34.7164H103.722V23.3201H105.642ZM106.074 19.7426C106.074 19.9376 106.036 20.1195 105.96 20.2883C105.885 20.457 105.784 20.607 105.658 20.7383C105.532 20.8695 105.387 20.9726 105.221 21.0476C105.056 21.1226 104.88 21.1601 104.693 21.1601C104.506 21.1601 104.331 21.1226 104.17 21.0476C104.008 20.9726 103.864 20.8695 103.738 20.7383C103.612 20.607 103.513 20.457 103.441 20.2883C103.369 20.1195 103.334 19.9376 103.334 19.7426C103.334 19.5476 103.369 19.362 103.441 19.1858C103.513 19.0095 103.612 18.8558 103.738 18.7245C103.864 18.5933 104.008 18.4901 104.17 18.4151C104.331 18.3401 104.506 18.3026 104.693 18.3026C104.88 18.3026 105.056 18.3401 105.221 18.4151C105.387 18.4901 105.532 18.5933 105.658 18.7245C105.784 18.8558 105.885 19.0095 105.96 19.1858C106.036 19.362 106.074 19.5476 106.074 19.7426ZM113.453 23.1401C114.251 23.1401 114.972 23.2789 115.616 23.5564C116.259 23.8339 116.806 24.2276 117.255 24.7376C117.705 25.2476 118.05 25.8645 118.291 26.5883C118.532 27.312 118.652 28.1201 118.652 29.0126C118.652 29.9126 118.532 30.7226 118.291 31.4426C118.05 32.1626 117.705 32.7776 117.255 33.2876C116.806 33.7976 116.259 34.1895 115.616 34.4633C114.972 34.737 114.251 34.8739 113.453 34.8739C112.654 34.8739 111.933 34.737 111.29 34.4633C110.646 34.1895 110.098 33.7976 109.644 33.2876C109.191 32.7776 108.843 32.1626 108.598 31.4426C108.353 30.7226 108.231 29.9126 108.231 29.0126C108.231 28.1201 108.353 27.312 108.598 26.5883C108.843 25.8645 109.191 25.2476 109.644 24.7376C110.098 24.2276 110.646 23.8339 111.29 23.5564C111.933 23.2789 112.654 23.1401 113.453 23.1401ZM113.453 33.3101C114.531 33.3101 115.337 32.9333 115.869 32.1795C116.401 31.4258 116.667 30.3739 116.667 29.0239C116.667 27.6664 116.401 26.6089 115.869 25.8514C115.337 25.0939 114.531 24.7151 113.453 24.7151C112.906 24.7151 112.431 24.8126 112.029 25.0076C111.626 25.2026 111.29 25.4839 111.02 25.8514C110.75 26.2189 110.549 26.6708 110.416 27.207C110.283 27.7433 110.216 28.3489 110.216 29.0239C110.216 29.6989 110.283 30.3026 110.416 30.8351C110.549 31.3676 110.75 31.8158 111.02 32.1795C111.29 32.5433 111.626 32.8226 112.029 33.0176C112.431 33.2126 112.906 33.3101 113.453 33.3101Z" fill="currentColor"/>
<path fill-rule="evenodd" clip-rule="evenodd" d="M0 55.9254C0.000104959 57.5359 1.68967 57.5359 1.68967 55.9254C1.68967 47.7082 7.54258 38.0783 13.8689 29.7559C13.9963 29.5883 14.124 29.4205 14.2521 29.2524C14.2852 29.2959 14.3183 29.3393 14.3513 29.3826C14.706 29.8481 15.0597 30.3123 15.4115 30.7752C21.7378 39.0976 27.1768 47.7082 27.1768 55.9254C27.1768 57.5359 28.8664 57.5359 28.8665 55.9254C28.8665 45.5435 23.0655 37.352 16.4046 28.5893C16.1337 28.2329 15.8604 27.8719 15.5854 27.5067C21.7861 19.3871 28.2453 10.707 28.2453 1.20791C28.2453 -0.402696 26.291 -0.402578 26.291 1.20791C26.291 8.58443 20.2448 18.076 14.4312 25.9614C8.59656 18.0788 2.44751 8.60075 2.44751 1.22439C2.44751 -0.3861 0.298005 -0.386219 0.298005 1.22439C0.298005 6.22366 2.887 12.8168 5.50263 17.0223C7.69569 20.5483 10.388 24.1678 13.1029 27.7424C12.8881 28.0274 12.6743 28.3098 12.4618 28.5893C5.80093 37.352 0 45.5435 0 55.9254Z" fill="currentColor"/>
<path d="M26.7656 52.3224H11.0197" stroke="currentColor" stroke-width="2" stroke-linecap="square"/>
<ellipse cx="9.27405" cy="52.3224" rx="1.35315" ry="1.51905" transform="rotate(-180 9.27405 52.3224)" stroke="currentColor"/>
<path d="M4.01484 46.3224H17.0199" stroke="currentColor" stroke-width="2" stroke-linecap="square"/>
<ellipse rx="1.35315" ry="1.51905" transform="matrix(1 0 0 -1 18.7609 46.3224)" stroke="currentColor"/>
<path d="M9.68627 35.0843H12.8916" stroke="currentColor" stroke-width="2" stroke-linecap="square"/>
<ellipse rx="1.35315" ry="1.51905" transform="matrix(1 0 0 -1 14.6372 35.0843)" stroke="currentColor"/>
<path d="M22.7097 41.3224H13.3156" stroke="currentColor" stroke-width="2" stroke-linecap="square"/>
<ellipse cx="11.57" cy="41.3224" rx="1.35315" ry="1.51905" transform="rotate(-180 11.57 41.3224)" stroke="currentColor"/>
<path d="M26.5961 3.36047H10.8501" stroke="currentColor" stroke-width="2" stroke-linecap="square"/>
<ellipse rx="1.35315" ry="1.51905" transform="matrix(-1 0 0 1 9.1045 3.36048)" stroke="currentColor"/>
<path d="M4.01484 9.36047H17.0199" stroke="currentColor" stroke-width="2" stroke-linecap="square"/>
<ellipse cx="18.7609" cy="9.36048" rx="1.35315" ry="1.51905" stroke="currentColor"/>
<path d="M9.53368 20.3605H12.739" stroke="currentColor" stroke-width="2" stroke-linecap="square"/>
<ellipse cx="14.4846" cy="20.3605" rx="1.35315" ry="1.51905" stroke="currentColor"/>
<path d="M22.642 14.3605H13.2478" stroke="currentColor" stroke-width="2" stroke-linecap="square"/>
<ellipse rx="1.35315" ry="1.51905" transform="matrix(-1 0 0 1 11.5022 14.3605)" stroke="currentColor"/>
</svg>
