<svg width="24" height="24" viewBox="0 0 24 24" fill="none" xmlns="http://www.w3.org/2000/svg">
<circle cx="12" cy="12" r="12" fill="#386DB0"/>
<path fill-rule="evenodd" clip-rule="evenodd" d="M4.63 16.87C4.54333 16.7834 4.5 16.6734 4.5 16.54V7.06002C4.5 6.92669 4.54333 6.81669 4.63 6.73002C4.71667 6.64336 4.82667 6.60002 4.96 6.60002H5.8C5.93333 6.60002 6.04 6.64336 6.12 6.73002C6.2 6.81669 6.24 6.92669 6.24 7.06002V7.74002C6.96 6.84669 7.93333 6.40002 9.16 6.40002C10.6267 6.40002 11.6667 7.01335 12.28 8.24002C12.6 7.68002 13.0567 7.23336 13.65 6.90002C14.2433 6.56669 14.9067 6.40002 15.64 6.40002C16.7333 6.40002 17.6267 6.77335 18.32 7.52002C19.0133 8.26669 19.36 9.34668 19.36 10.76V16.54C19.36 16.6734 19.3167 16.7834 19.23 16.87C19.1433 16.9567 19.0333 17 18.9 17H18.04C17.9067 17 17.7967 16.9567 17.71 16.87C17.6233 16.7834 17.58 16.6734 17.58 16.54V10.94C17.58 9.87335 17.36 9.11003 16.92 8.65002C16.48 8.19002 15.9 7.96002 15.18 7.96002C14.54 7.96002 13.99 8.19669 13.53 8.67002C13.07 9.14336 12.84 9.90002 12.84 10.94V16.54C12.84 16.6734 12.7967 16.7834 12.71 16.87C12.6233 16.9567 12.5133 17 12.38 17H11.5C11.3667 17 11.2567 16.9567 11.17 16.87C11.0833 16.7834 11.04 16.6734 11.04 16.54V10.94C11.04 9.88669 10.81 9.12669 10.35 8.66002C9.89 8.19336 9.32 7.96002 8.64 7.96002C8 7.96002 7.45 8.19336 6.99 8.66002C6.53 9.12669 6.3 9.88002 6.3 10.92V16.54C6.3 16.6734 6.25667 16.7834 6.17 16.87C6.08333 16.9567 5.97333 17 5.84 17H4.96C4.82667 17 4.71667 16.9567 4.63 16.87Z" fill="#FDFDFD"/>
</svg>
