<svg width="24" height="26" viewBox="0 0 24 26" fill="none" xmlns="http://www.w3.org/2000/svg">
<circle cx="12" cy="13" r="12" fill="#386DB0"/>
<path d="M12 25V1" stroke="#FDFDFD" stroke-width="0.5" stroke-linecap="square"/>
<mask id="mask0_41_78" style="mask-type:alpha" maskUnits="userSpaceOnUse" x="11" y="0" width="2" height="26">
<path d="M12 25V1V25Z" fill="white"/>
<path d="M12 25V1" stroke="white" stroke-width="0.5" stroke-linecap="square"/>
</mask>
<g mask="url(#mask0_41_78)">
</g>
<path d="M1.84983 17C1.76983 17 1.70183 16.976 1.64583 16.928C1.59783 16.872 1.57383 16.804 1.57383 16.724V11.036C1.57383 10.956 1.59783 10.892 1.64583 10.844C1.70183 10.788 1.76983 10.76 1.84983 10.76H2.35383C2.43383 10.76 2.49783 10.788 2.54583 10.844C2.59383 10.892 2.61783 10.956 2.61783 11.036V11.444C3.04983 10.908 3.63383 10.64 4.36983 10.64C5.24983 10.64 5.87383 11.008 6.24183 11.744C6.43383 11.408 6.70583 11.14 7.05783 10.94C7.41783 10.74 7.81783 10.64 8.25783 10.64C8.91383 10.64 9.44983 10.864 9.86583 11.312C10.2818 11.76 10.4898 12.408 10.4898 13.256V16.724C10.4898 16.804 10.4618 16.872 10.4058 16.928C10.3578 16.976 10.2938 17 10.2138 17H9.69783C9.61783 17 9.54983 16.976 9.49383 16.928C9.44583 16.872 9.42183 16.804 9.42183 16.724V13.364C9.42183 12.724 9.28983 12.268 9.02583 11.996C8.76183 11.716 8.41383 11.576 7.98183 11.576C7.59783 11.576 7.26583 11.72 6.98583 12.008C6.71383 12.288 6.57783 12.74 6.57783 13.364V16.724C6.57783 16.804 6.54983 16.872 6.49383 16.928C6.44583 16.976 6.38183 17 6.30183 17H5.77383C5.69383 17 5.62583 16.976 5.56983 16.928C5.52183 16.872 5.49783 16.804 5.49783 16.724V13.364C5.49783 12.732 5.35783 12.276 5.07783 11.996C4.80583 11.716 4.46583 11.576 4.05783 11.576C3.67383 11.576 3.34183 11.716 3.06183 11.996C2.78983 12.276 2.65383 12.728 2.65383 13.352V16.724C2.65383 16.804 2.62583 16.872 2.56983 16.928C2.52183 16.976 2.45783 17 2.37783 17H1.84983Z" fill="#FDFDFD"/>
<path d="M14.3942 18C14.3142 18 14.2502 17.976 14.2022 17.928C14.1542 17.872 14.1302 17.804 14.1302 17.724V9.888C14.1302 9.8 14.1542 9.732 14.2022 9.684C14.2502 9.628 14.3142 9.6 14.3942 9.6H17.3222C18.2342 9.6 18.9462 9.816 19.4582 10.248C19.9782 10.672 20.2382 11.292 20.2382 12.108C20.2382 12.716 20.0862 13.216 19.7822 13.608C19.4782 14 19.0542 14.272 18.5102 14.424L20.3582 17.628C20.3822 17.676 20.3942 17.72 20.3942 17.76C20.3942 17.824 20.3702 17.88 20.3222 17.928C20.2742 17.976 20.2182 18 20.1542 18H19.6262C19.5062 18 19.4102 17.972 19.3382 17.916C19.2742 17.86 19.2142 17.78 19.1582 17.676L17.3942 14.604H15.2582V17.724C15.2582 17.804 15.2302 17.872 15.1742 17.928C15.1182 17.976 15.0502 18 14.9702 18H14.3942ZM17.2742 13.62C18.4822 13.62 19.0862 13.112 19.0862 12.096C19.0862 11.08 18.4822 10.572 17.2742 10.572H15.2582V13.62H17.2742Z" fill="#FDFDFD"/>
</svg>
