<svg width="24" height="24" viewBox="0 0 24 24" fill="none" xmlns="http://www.w3.org/2000/svg">
<circle cx="12" cy="12" r="12" fill="#386DB0"/>
<path fill-rule="evenodd" clip-rule="evenodd" d="M7.88001 18.87C7.80001 18.7833 7.76001 18.6733 7.76001 18.54V5.48C7.76001 5.33333 7.80001 5.21667 7.88001 5.13C7.96001 5.04333 8.06668 5 8.20001 5H13.08C14.6 5 15.79 5.35666 16.65 6.07C17.51 6.78334 17.94 7.81999 17.94 9.18C17.94 10.1933 17.6867 11.0267 17.18 11.68C16.6733 12.3333 15.9667 12.7867 15.06 13.04L18.14 18.38C18.18 18.46 18.2 18.5333 18.2 18.6C18.2 18.7067 18.16 18.8 18.08 18.88C18 18.96 17.9067 19 17.8 19H16.92C16.72 19 16.5633 18.9533 16.45 18.86C16.3367 18.7667 16.2333 18.6333 16.14 18.46L13.2 13.34H9.64001V18.54C9.64001 18.6733 9.59334 18.7833 9.50001 18.87C9.40668 18.9567 9.29334 19 9.16001 19H8.20001C8.06668 19 7.96001 18.9567 7.88001 18.87ZM13 11.7C15.0134 11.7 16.02 10.8533 16.02 9.16C16.02 7.46666 15.0134 6.62 13 6.62H9.64001V11.7H13Z" fill="#FDFDFD"/>
</svg>
