<svg width="24" height="24" viewBox="0 0 24 24" fill="none" xmlns="http://www.w3.org/2000/svg">
<circle cx="12" cy="12" r="12" fill="#386DB0"/>
<path fill-rule="evenodd" clip-rule="evenodd" d="M18.5009 6.84556L11.3511 19.2294C10.238 21.1573 8.08408 21.0845 6.55397 20.2011C5.0234 19.3175 3.8834 17.4885 4.99626 15.5604L12.1461 3.17658C11.7587 2.91928 11.599 2.46264 11.7911 2.1299C11.9928 1.78051 12.4722 1.6787 12.9027 1.92728L19.1709 5.54623C19.6015 5.79481 19.7873 6.28064 19.5853 6.6299C19.3932 6.96264 18.9173 7.05258 18.5009 6.84556ZM6.28862 15.6138C5.41916 17.1197 6.11235 18.419 7.18534 19.0385C8.25798 19.6578 9.72976 19.6085 10.5991 18.1027L17.2205 6.63418C17.2205 6.63418 17.9449 6.44543 17.8077 6.36621L12.8487 3.5031C12.7115 3.42388 12.9099 4.14545 12.9099 4.14545L6.28862 15.6138Z" fill="white"/>
<path fill-rule="evenodd" clip-rule="evenodd" d="M11.8952 11.0191C11.9811 11.4007 12.1981 11.7015 12.523 11.889C12.8917 12.1019 13.3007 12.1116 13.4576 12.1067L13.4766 12.1123L10.7862 16.7723C10.9245 16.5328 10.8428 16.2283 10.6026 16.0897C10.3636 15.9517 10.0584 16.0328 9.92019 16.2723C9.78161 16.5123 9.86355 16.8177 10.1026 16.9557C10.3428 17.0944 10.6476 17.0123 10.7862 16.7723L10.2283 17.7385C9.34822 19.2629 8.10269 19.2652 7.304 18.804C6.50497 18.3427 5.88401 17.2631 6.76424 15.7385L10.4938 9.27876L10.764 9.33587C11.5059 9.49029 11.6704 10.0233 11.8952 11.0191ZM9.18797 13.5405C9.04947 13.7804 9.13208 14.086 9.37168 14.2243C9.60955 14.3616 9.91549 14.2804 10.054 14.0405C10.1923 13.8009 10.1095 13.4956 9.87168 13.3583C9.63208 13.2199 9.3263 13.3009 9.18797 13.5405ZM10.8705 11.6256C10.6315 11.4876 10.5499 11.1816 10.6881 10.9421C10.8262 10.703 11.1315 10.6215 11.3705 10.7595C11.6101 10.8979 11.6922 11.203 11.5542 11.4421C11.4159 11.6816 11.1101 11.7639 10.8705 11.6256ZM8.55416 16.6383C8.41557 16.8783 8.49811 17.184 8.73655 17.3217C8.97586 17.4599 9.28143 17.3786 9.42019 17.1383C9.55828 16.8991 9.47558 16.5937 9.23655 16.4557C8.99811 16.318 8.69225 16.3991 8.55416 16.6383ZM10.554 13.1745C10.6921 12.9353 10.9981 12.8539 11.2371 12.9919C11.4756 13.1296 11.5581 13.4353 11.42 13.6745C11.2816 13.9142 10.9756 13.9956 10.7371 13.8579C10.4978 13.7198 10.4156 13.4142 10.554 13.1745Z" fill="white"/>
</svg>
