<svg viewBox="0 0 17 16" fill="none" xmlns="http://www.w3.org/2000/svg">
<path fill-rule="evenodd" clip-rule="evenodd" d="M11.6093 10.0572H12.3416L16.9654 14.6286L15.5919 16L11.0137 11.4286V10.6973L10.7392 10.4687C9.68631 11.3371 8.31289 11.8857 6.84778 11.8857C3.55137 11.8857 0.896088 9.23442 0.896088 5.94287C0.896088 2.65133 3.55137 0 6.80217 0C10.0981 0 12.7538 2.65133 12.7538 5.94287C12.7538 7.45133 12.2043 8.77725 11.3343 9.82858L11.6093 10.0572ZM2.7274 5.94288C2.7274 8.22854 4.55867 10.0572 6.84778 10.0572C9.13682 10.0572 10.9681 8.22854 10.9681 5.94288C10.9681 3.65712 9.13682 1.82863 6.84778 1.82863C4.55867 1.82863 2.7274 3.65712 2.7274 5.94288Z" fill="#4A4A4A"/>
</svg>
