<svg width="24" height="24" viewBox="0 0 24 24" fill="none" xmlns="http://www.w3.org/2000/svg">
<path fill-rule="evenodd" clip-rule="evenodd" d="M0 12C0 5.37321 5.37321 0 12 0C18.6268 0 24 5.37321 24 12C24 18.6268 18.6268 24 12 24C5.37321 24 0 18.6268 0 12ZM10.7036 17.55L18.1554 7.9875C18.1875 7.93929 18.2143 7.88036 18.2089 7.81071C18.2089 7.74107 18.1821 7.67679 18.1393 7.62321L16.5 6.33214C16.4464 6.28929 16.3821 6.2625 16.3125 6.2625C16.2429 6.2625 16.1786 6.29464 16.125 6.3375L10.1625 13.9982C10.1625 13.9982 7.81607 11.7429 7.75179 11.6786C7.74307 11.6699 7.73395 11.6602 7.72438 11.6502C7.66336 11.5858 7.58362 11.5018 7.46786 11.5018C7.36058 11.5018 7.30179 11.5652 7.2448 11.6266C7.23349 11.6388 7.22225 11.651 7.21071 11.6625C7.15714 11.7161 6.32143 12.5946 5.90893 13.0286C5.8875 13.0554 5.87143 13.0714 5.85 13.0929C5.81786 13.1411 5.79107 13.2 5.79107 13.2643C5.79107 13.3286 5.81786 13.3875 5.85 13.4357L5.93036 13.5161C5.93036 13.5161 10.0875 17.5125 10.1571 17.5821C10.1599 17.5849 10.1627 17.5877 10.1655 17.5905C10.2332 17.6585 10.312 17.7375 10.4304 17.7375C10.5292 17.7375 10.613 17.647 10.6722 17.5831C10.6836 17.5708 10.6941 17.5595 10.7036 17.55Z" fill="currentColor"/>
</svg>
