<svg viewBox="0 0 26 22" fill="none" xmlns="http://www.w3.org/2000/svg">
<title>Twiiter logo</title>
<path d="M25.8703 2.50884C24.9145 2.92896 23.8939 3.21516 22.8193 3.34584C23.9144 2.68596 24.7568 1.64592 25.1554 0.405C24.1283 1.0044 22.99 1.44072 21.7782 1.68372C20.8105 0.648 19.4314 0 17.8999 0C14.9656 0 12.5863 2.37924 12.5863 5.31036C12.5863 5.73156 12.6349 6.13656 12.7235 6.52428C8.30628 6.31584 4.39128 4.19472 1.7712 0.9882C1.31004 1.76796 1.05192 2.67408 1.05192 3.6612C1.05192 5.508 1.99152 7.13124 3.41496 8.08488C2.5434 8.0568 1.72368 7.81704 1.00872 7.4196V7.48548C1.00872 10.0613 2.83716 12.2094 5.2704 12.6986C4.82436 12.8185 4.35348 12.8833 3.87072 12.8833C3.5316 12.8833 3.20652 12.8509 2.88144 12.7904C3.56292 14.8997 5.52204 16.4376 7.85376 16.4808C6.03936 17.9053 3.74004 18.7542 1.2636 18.7542C0.8424 18.7542 0.42228 18.7294 0 18.6818C2.36412 20.1874 5.14944 21.0676 8.16156 21.0676C17.9399 21.0676 23.2805 12.9719 23.2805 5.96268C23.2805 5.73696 23.2805 5.50908 23.2643 5.28228C24.3022 4.53816 25.2083 3.59748 25.9211 2.53044L25.8703 2.50884Z" fill="currentColor"/>
</svg>
